<?xml version="1.0" encoding="UTF-8" standalone="no"?>
<!-- Generator: Adobe Illustrator 16.0.0, SVG Export Plug-In . SVG Version: 6.00 Build 0)  -->

<svg
   version="1.1"
   x="0px"
   y="0px"
   width="90.833"
   height="41"
   viewBox="0 0 90.833 41"
   enable-background="new 0 0 75.833 32"
   xml:space="preserve"
   id="svg9"
   xmlns="http://www.w3.org/2000/svg"
   xmlns:svg="http://www.w3.org/2000/svg"><defs
   id="defs13" />
<g
   id="Selected_Items"
   transform="translate(0,6)">
	<g
   id="g5">
		<g
   id="Selected_Items_2_">
			<path
   fill-rule="evenodd"
   clip-rule="evenodd"
   fill="#ffffff"
   d="m 37.072,14.253 c -0.076,0.051 -0.15,0.112 -0.226,0.188 -0.174,0.2 -0.262,0.45 -0.262,0.75 0,0.126 0.024,0.375 0.074,0.75 0.025,0.123 -0.025,0.199 -0.149,0.225 -0.149,0.051 -0.399,0.062 -0.75,0.037 l -0.487,-0.037 c -0.024,0.299 -0.087,0.449 -0.188,0.449 h -0.9 c -0.124,0 -0.211,0.026 -0.26,0.076 -0.077,0.099 -0.15,0.174 -0.227,0.226 -0.174,0.174 -0.787,1.298 -1.835,3.372 -0.252,0.475 -0.277,0.888 -0.076,1.239 0.15,0.274 0.35,0.449 0.601,0.523 0.5,0.075 1.35,0.075 2.548,0 0.925,-0.099 1.638,-0.336 2.137,-0.711 0.349,-0.3 1.574,-2.174 3.673,-5.624 0.125,-0.226 -0.037,-0.712 -0.488,-1.462 H 37.072 Z M 72.271,8.256 c 0.075,0.025 0.225,0.037 0.45,0.037 0.149,0 0.325,-0.075 0.524,-0.225 h 1.837 l 0.188,0.336 c 0.101,0.276 0.15,0.563 0.15,0.863 0,0.325 -0.049,0.613 -0.15,0.863 -0.099,0.225 -0.188,0.337 -0.262,0.337 h -1.65 c -0.049,-0.024 -0.162,-0.062 -0.338,-0.112 -0.074,-0.026 -0.187,-0.038 -0.336,-0.038 -0.15,0 -0.3,0.024 -0.45,0.076 l -0.225,0.075 H 70.961 L 70.81,10.356 h -1.65 l -0.15,-0.15 h -0.788 c -0.05,0.176 -0.163,0.263 -0.336,0.263 h -1.538 c -0.1,0 -0.2,-0.037 -0.3,-0.112 l -0.113,-0.075 -10.832,0.262 -0.602,0.637 H 54.24 L 54.052,10.956 H 53.79 l -0.15,0.225 h -2.249 l -0.301,2.288 c -0.024,0.25 -0.188,0.425 -0.486,0.523 l 0.261,0.263 0.6,0.075 c 0.4,0.076 0.587,0.238 0.563,0.488 -0.151,0.824 -0.188,1.437 -0.114,1.837 0.051,0.249 0.064,0.824 0.039,1.724 0,1.049 0,1.699 0,1.949 0.049,0.775 0.336,1.6 0.861,2.475 0.1,0.175 -0.075,0.35 -0.525,0.526 -0.45,0.174 -0.925,0.261 -1.424,0.261 -0.424,0 -0.974,-0.1 -1.649,-0.299 l -0.937,-0.263 c -0.026,-1.1 0.036,-2.112 0.187,-3.037 0.051,-0.349 0.225,-0.962 0.526,-1.836 0.199,-0.599 0.262,-1.036 0.187,-1.313 -0.05,-0.3 -0.138,-0.612 -0.261,-0.937 -0.151,-0.326 -0.251,-0.551 -0.301,-0.674 -0.074,-0.2 0.112,-0.426 0.562,-0.677 0.225,-0.124 0.449,-0.237 0.675,-0.336 -0.9,-0.05 -1.836,-0.1 -2.813,-0.149 -1.924,-0.051 -3.01,0 -3.26,0.149 -0.726,0.475 -1.675,1.538 -2.848,3.186 -0.275,0.35 -1.075,1.55 -2.399,3.6 -0.549,0.799 -1.074,1.324 -1.575,1.574 -0.374,0.176 -1.086,0.299 -2.137,0.375 -0.849,0.049 -2.086,0.112 -3.71,0.187 -1.4,0.025 -2.274,0.038 -2.625,0.038 -0.249,0 -0.413,-0.075 -0.488,-0.225 -0.074,-0.15 -0.098,-0.412 -0.074,-0.787 0.05,-1.075 0.188,-1.849 0.412,-2.325 0.1,-0.226 0.338,-0.662 0.712,-1.312 0.376,-0.675 0.638,-1.075 0.788,-1.2 0.075,-0.099 0.325,-0.324 0.75,-0.674 0.375,-0.451 0.563,-1 0.563,-1.65 0,-0.724 -0.313,-1.149 -0.938,-1.275 -0.273,-0.048 -0.974,-0.024 -2.098,0.075 -1.074,0.05 -1.837,0.102 -2.286,0.15 -0.75,0.051 -1.174,0.175 -1.274,0.375 -0.2,0.3 -0.55,0.539 -1.051,0.712 l -0.075,1.351 c 0.125,1.374 0.513,3.186 1.163,5.435 1,3.549 1.913,5.86 2.737,6.934 0.349,0.45 0.311,0.787 -0.113,1.013 -0.25,0.1 -1.162,0.424 -2.737,0.974 -1.599,0.574 -2.523,0.9 -2.773,0.975 -0.3,0.075 -0.425,-0.376 -0.375,-1.351 -0.224,-0.424 -0.511,-1.036 -0.86,-1.836 -0.625,-1.65 -1.176,-3.437 -1.65,-5.36 -0.45,-1.925 -0.775,-3.774 -0.975,-5.548 l -0.149,-2.062 c -0.55,-0.199 -0.924,-0.213 -1.126,-0.038 l -1.686,1.351 c -0.074,0.074 -0.2,0 -0.375,-0.225 -0.175,-0.2 -0.287,-0.289 -0.337,-0.262 -0.6,0.224 -1.5,0.737 -2.699,1.537 -1.375,0.975 -2.137,1.724 -2.288,2.249 l -0.265,0.896 0.413,0.451 c 0.274,0.323 0.413,0.538 0.413,0.637 0,0.324 -0.101,0.576 -0.301,0.75 -0.174,0.175 -0.425,0.262 -0.749,0.262 H 4.31 c -0.276,0 -0.55,-0.113 -0.824,-0.337 -0.325,-0.3 -0.575,-0.7 -0.75,-1.2 C 2.536,20.989 2.149,19.376 1.573,16.803 0.999,14.104 0.698,12.455 0.675,11.854 0.65,11.229 0.687,10.78 0.787,10.505 0.862,10.306 1.025,10.068 1.275,9.794 1.525,9.519 1.924,9.194 2.474,8.819 3.075,8.418 3.537,8.219 3.86,8.219 L 27.439,7.732 V 7.468 l 0.601,-0.45 c 0.424,-0.3 0.725,-0.5 0.899,-0.599 0.274,-0.125 0.624,-0.188 1.05,-0.188 l 1.423,0.037 V 4.358 H 30.85 c 0.025,0.274 -0.163,0.411 -0.562,0.411 -0.226,0 -0.375,-0.062 -0.45,-0.187 L 29.763,4.358 H 28.451 L 28.263,4.545 H 27.814 C 27.588,4.22 27.477,3.671 27.477,2.896 c 0,-0.751 0.1,-1.162 0.299,-1.238 h 0.337 l 0.225,0.15 1.275,-0.037 0.074,-0.263 c 0.075,-0.149 0.25,-0.225 0.524,-0.225 0.327,0 0.487,0.15 0.487,0.451 L 31.073,1.695 V 1.059 l 0.712,-0.113 c 0.225,0 0.488,0.025 0.788,0.076 V 1.47 l 2.961,-0.411 c 2.049,-0.274 3.237,-0.412 3.56,-0.412 h 1.163 l 0.524,0.412 h 0.526 V 0.833 h 0.412 v 0.151 h 0.75 v 3.674 l -0.75,0.037 V 4.846 H 41.344 V 4.619 H 39.47 l 0.3,0.45 h 0.487 c 0.35,0.051 0.537,0.138 0.562,0.261 l 0.15,0.713 h 1.237 v -0.15 h 0.563 v 0.15 h 1.275 v -0.15 h 0.562 v 0.15 h 1.274 v -0.15 h 0.526 v 0.15 h 1.311 v -0.15 h 0.525 v 0.15 h 1.312 v -0.15 h 0.524 v 0.15 h 1.012 l 2.662,1.312 v 0.863 l 0.675,0.374 H 66.048 L 66.236,8.48 C 66.361,8.355 66.46,8.292 66.537,8.292 h 1.386 l 0.337,0.299 h 0.674 l 0.337,-0.188 c 0.278,-0.024 0.764,0 1.463,0.076 L 70.772,8.331 C 70.847,8.23 70.948,8.18 71.072,8.18 h 0.937 c 0.099,10e-4 0.187,0.026 0.262,0.076 z"
   id="path2" />
		</g>
	</g>
</g>

</svg>
