<?xml version="1.0" encoding="UTF-8" standalone="no"?>
<!-- Generator: Adobe Illustrator 16.0.0, SVG Export Plug-In . SVG Version: 6.00 Build 0)  -->

<svg
   version="1.1"
   x="0px"
   y="0px"
   width="105"
   height="41"
   viewBox="0 0 105 41"
   enable-background="new 0 0 90 32"
   xml:space="preserve"
   id="svg145"
   xmlns="http://www.w3.org/2000/svg"
   xmlns:svg="http://www.w3.org/2000/svg"><defs
   id="defs149" />
<g
   id="Selected_Items"
   transform="translate(0,6)">
	<g
   id="g141">
		<g
   id="Selected_Items_4_">
			<path
   fill-rule="evenodd"
   clip-rule="evenodd"
   fill="#ffffff"
   d="m 81.771,2.073 c 0.307,-0.028 0.625,-0.041 0.96,-0.041 0.029,-0.027 0.043,-0.055 0.043,-0.084 0.055,0 0.097,0 0.124,0 0.195,0 0.403,0 0.626,0 0.028,0 0.068,0.015 0.126,0.042 l 0.04,0.042 c 0,0.028 0.015,0.041 0.043,0.041 0.028,0 0.069,0 0.125,0 0.028,0.028 0.069,0.042 0.125,0.042 0.028,0.027 0.055,0.057 0.083,0.083 0.03,0.028 0.042,0.056 0.042,0.084 0,0.028 0.015,0.055 0.042,0.083 0,0.028 0,0.057 0,0.084 0,0.028 0,0.056 0,0.083 v 0.042 c 0,0.03 0,0.056 0,0.083 0,0.027 0.014,0.056 0.041,0.083 0.029,0.028 0.042,0.056 0.042,0.083 0.027,0.028 0.042,0.055 0.042,0.085 0,0.027 0,0.056 0,0.083 0,0.028 0,0.055 0,0.083 0,0.029 0,0.057 0,0.084 V 3.2 c 0,0.028 0,0.055 0,0.083 0,0.027 0,0.055 0,0.083 0,0.028 0,0.056 0,0.085 0,0.027 0,0.056 0,0.083 0,0.027 0,0.055 0,0.083 0,0.027 0,0.055 0,0.083 v 0.083 c 0,0.028 0.013,0.042 0.042,0.042 0,0.027 0.014,0.056 0.042,0.083 0,0.028 0,0.056 0,0.083 -0.028,0.028 -0.042,0.056 -0.042,0.084 0,0.028 0,0.055 0,0.084 -0.029,0.026 -0.057,0.04 -0.083,0.04 0,0.028 0,0.056 0,0.084 -0.013,0.013 -0.028,0.028 -0.042,0.041 V 4.37 c 0,0.028 0,0.057 0,0.083 0,0.029 0,0.057 0,0.084 0,0.027 0,0.056 0,0.083 0,0.027 0,0.056 0,0.084 0,0.027 0,0.055 0,0.083 v 0.041 c 0,0.029 0,0.057 0,0.084 0,0.027 0,0.055 0,0.084 0,0.026 0,0.055 0,0.083 0,0.027 0,0.055 0,0.083 0,0.028 0,0.056 0,0.084 0,0.028 0,0.056 0,0.083 l 0.042,0.042 c 0,0.027 0.014,0.041 0.042,0.041 0.028,0.029 0.056,0.058 0.083,0.084 0,0.029 0,0.055 0,0.083 0,0.028 0,0.057 0,0.084 0,0.027 0,0.057 0,0.083 0,0.028 0,0.056 0,0.084 -0.028,0.028 -0.042,0.056 -0.042,0.084 0,0.028 -0.014,0.054 -0.042,0.083 v 0.042 c 0,0.027 0,0.056 0,0.083 0,0.028 0,0.056 0,0.083 0,0.029 0,0.058 0,0.084 0,0.028 0,0.056 0,0.083 0,0.029 0,0.056 0,0.083 0,0.029 0,0.056 0,0.083 0,0.029 0,0.057 0,0.084 v 0.041 c 0,0.029 0,0.055 0,0.083 0,0.03 0,0.058 0,0.084 0,0.029 0,0.057 0,0.084 0,0.026 0,0.054 0,0.083 0,0.027 0,0.055 0,0.084 0,0.027 0,0.055 0,0.081 0,0.03 0,0.057 0,0.084 v 0.042 c 0,0.027 0,0.055 0,0.083 0,0.028 0,0.056 0,0.083 0,0.027 0,0.055 0,0.083 0,0.029 0,0.057 0,0.084 0,0.027 0,0.056 0,0.083 0,0.028 0,0.057 0,0.084 0,0.029 0,0.056 0,0.083 V 7.92 c 0,0.028 0,0.056 0,0.083 0,0.027 0,0.056 0,0.083 0,0.027 0,0.056 0,0.083 0,0.027 0,0.056 0,0.083 0,0.027 0,0.056 0,0.085 0,0.026 0,0.054 0,0.081 0,0.029 0,0.057 0,0.084 v 0.042 c 1.559,0 3.132,0 4.718,0 0.058,0.027 0.112,0.056 0.168,0.083 l 0.041,0.042 c 0.028,0 0.057,0 0.084,0 V 8.63 c 0.055,0.028 0.11,0.056 0.167,0.083 0,0.029 0.014,0.043 0.042,0.043 0.028,0.028 0.056,0.056 0.083,0.083 0,0.029 0,0.056 0,0.083 0,0.027 0,0.056 0,0.083 0,0.027 0,0.057 0,0.083 0,0.028 0,0.056 0,0.083 0,0.027 0,0.056 0,0.083 0,0.027 0,0.056 0,0.083 v 0.042 c 0,0.027 0,0.054 0,0.083 0,0.028 0,0.056 0,0.084 0,0.028 0,0.055 0,0.083 0,0.027 0,0.056 0,0.084 0,0.027 0,0.055 0,0.083 0,0.028 0,0.056 0,0.083 0,0.029 0,0.058 0,0.085 v 0.042 c 0,0.027 0,0.055 0,0.083 0,0.028 0,0.058 0,0.083 0,0.03 0,0.058 0,0.084 0,0.028 0,0.058 0,0.083 0,0.028 0,0.056 0,0.084 0,0.028 0,0.055 0,0.084 0,0.028 0,0.054 0,0.083 v 0.041 c 0,0.028 0,0.056 0,0.083 0,0.029 0,0.056 0,0.083 0,0.027 0,0.056 0,0.084 0,0.027 0,0.056 0,0.084 0,0.026 0,0.054 0,0.082 0,0.029 0,0.057 0,0.084 0,0.027 0,0.057 0,0.082 v 0.045 c 0,0.028 0,0.056 0,0.083 0,0.027 0,0.055 0,0.082 0,0.028 0,0.058 0,0.085 0,0.026 0,0.055 0,0.083 0,0.028 0,0.055 0,0.084 0,0.028 0,0.054 0,0.083 -0.028,0.029 -0.043,0.056 -0.043,0.084 l -0.041,0.042 c 0,0.027 0,0.056 0,0.082 0,0.03 0,0.056 0,0.084 0,0.028 -0.015,0.056 -0.042,0.083 0,0.028 0,0.058 0,0.085 -0.029,0.028 -0.057,0.042 -0.084,0.042 0,0.028 -0.013,0.042 -0.041,0.042 -0.056,0 -0.099,0 -0.126,0 -1.369,0 -2.735,0 -4.092,0 -0.058,0.001 -0.1,0.016 -0.125,0.041 -0.056,0 -0.11,0 -0.165,0 -0.034,0.016 -0.061,0.029 -0.085,0.042 0.019,0.008 0.046,0.023 0.085,0.042 v -0.042 c 0.055,0.028 0.109,0.056 0.165,0.083 0.028,0.028 0.055,0.041 0.083,0.041 0,0.029 0.014,0.057 0.043,0.085 0,0.028 0,0.056 0,0.082 0.028,0.028 0.042,0.057 0.042,0.084 0,0.029 0.015,0.057 0.042,0.084 0,0.028 0,0.056 0,0.083 0,0.029 0,0.056 0,0.084 0,0.026 0,0.056 0,0.083 v 0.042 c 0,0.028 0,0.056 0,0.083 0,0.029 0,0.057 0,0.084 0,0.027 0,0.057 0,0.083 0,0.026 -0.015,0.056 -0.042,0.083 0,0.029 -0.014,0.057 -0.042,0.085 L 85.068,13.6 v 0.041 c 0,0.028 0.014,0.055 0.043,0.084 l -0.043,0.083 c 0.027,0 0.071,0.014 0.127,0.042 0.027,0.028 0.055,0.055 0.082,0.083 0,0.028 0.015,0.042 0.042,0.042 0,0.028 0,0.055 0,0.083 0,0.029 0,0.057 0,0.084 0,0.027 0,0.056 0,0.084 0.028,0 0.055,0.013 0.083,0.041 0.028,0.027 0.057,0.056 0.083,0.083 0,0.028 0.013,0.042 0.042,0.042 0,0.028 0,0.055 0,0.083 0,0.028 0,0.056 0,0.083 0,0.027 0,0.056 0,0.083 0,0.027 0,0.057 0,0.084 0,0.027 0,0.055 0,0.083 -0.029,0.027 -0.042,0.057 -0.042,0.084 0,0.027 -0.014,0.056 -0.042,0.083 0,0.028 -0.014,0.042 -0.042,0.042 0,0.026 0,0.056 0,0.083 0,0.029 0,0.057 0,0.086 0,0.026 0,0.056 0,0.082 0,0.028 0,0.056 0,0.084 0,0.028 0,0.055 0,0.083 0,0.029 0,0.056 0,0.083 0,0.028 0,0.056 0,0.083 v 0.042 c 0,0.028 0,0.055 0,0.083 0,0.028 0,0.055 0,0.083 0,0.028 0,0.057 0,0.083 0,0.028 0,0.057 0,0.083 0,0.028 0,0.057 0,0.084 0,0.027 0,0.056 0,0.083 0,0.028 0,0.057 0,0.084 v 0.042 c 0,0.026 0,0.055 0,0.083 0,0.028 0,0.057 0,0.084 0,0.026 0,0.056 0,0.083 0,0.028 0,0.055 0,0.083 0,0.029 0,0.057 0,0.085 0,0.028 0,0.055 0,0.083 0,0.027 0,0.055 0,0.084 v 0.041 c 0,0.028 0,0.055 0,0.083 0,0.029 0,0.057 0,0.084 0,0.027 0,0.056 0,0.083 0,0.029 0,0.058 0,0.085 0,0.027 0,0.055 0,0.083 0,0.028 0,0.055 0,0.083 0,0.028 0,0.056 0,0.083 v 0.042 c 0,0.027 0,0.056 0,0.082 0,0.029 0,0.057 0,0.084 0,0.028 0,0.056 0,0.084 0,0.028 0,0.056 0,0.083 0,0.027 0,0.055 0,0.083 0,0.027 0,0.057 0,0.084 0,0.027 0,0.056 0,0.083 v 0.042 c 0,0.029 0,0.056 0,0.083 0,0.03 0,0.056 0,0.083 0,0.027 0,0.057 0,0.083 0,0.028 0,0.058 0,0.085 0,0.025 0,0.054 0,0.082 0,0.028 0,0.056 0,0.083 0,0.027 0,0.056 0,0.083 v 0.042 c 0,0.028 0,0.056 0,0.083 0,0.029 0,0.057 0,0.084 0,0.027 0,0.056 0,0.083 0,0.027 0,0.055 0,0.083 0,0.028 0,0.056 0,0.083 0,0.027 0,0.056 0,0.083 0,0.027 0,0.057 0,0.084 v 0.041 c 0,0.027 0,0.055 0,0.083 0,0.028 0,0.056 0,0.084 0,0.028 0,0.057 0,0.084 0,0.026 -0.013,0.054 -0.04,0.083 0,0.028 -0.016,0.056 -0.043,0.084 l -0.083,0.082 c -0.056,0 -0.097,0 -0.125,0 h -0.043 v 0.043 c -0.028,0.027 -0.055,0.041 -0.083,0.041 0,0.027 -0.013,0.041 -0.042,0.041 -0.057,0 -0.099,0 -0.124,0 -0.642,0 -1.269,0 -1.881,0 -0.057,0 -0.097,0 -0.125,0 -0.084,0 -0.153,0 -0.209,0 -0.055,0 -0.125,-0.014 -0.21,-0.041 -0.026,-0.029 -0.041,-0.056 -0.041,-0.084 -0.027,-0.026 -0.055,-0.054 -0.083,-0.082 v -0.042 c 0,-0.029 0,-0.056 0,-0.085 -0.029,-0.027 -0.057,-0.055 -0.084,-0.083 v -0.042 c 0,-0.029 0,-0.057 0,-0.084 0,-0.027 0,-0.056 0,-0.083 0,-0.028 0,-0.056 0,-0.084 0,-0.028 0,-0.056 0,-0.083 v -0.041 c -9.021,0 -18.041,0 -27.063,0 -0.028,0.028 -0.054,0.056 -0.082,0.083 0,0.028 0,0.057 0,0.084 0,0.027 0,0.055 0,0.083 0,0.027 0,0.055 0,0.083 0.028,0.029 0.041,0.056 0.041,0.083 0.027,0.028 0.041,0.056 0.041,0.083 0,0.03 0,0.057 0,0.085 V 19.81 C 55.094,19.838 55.068,19.866 55.04,19.892 55.015,19.934 55,19.96 55,19.989 v 0.041 c -0.026,0 -0.054,0.014 -0.083,0.042 l -0.041,0.043 c -0.056,0 -0.098,0 -0.125,0 -0.335,0 -0.657,0 -0.962,0 -0.057,0 -0.126,-0.016 -0.21,-0.043 -0.027,-0.028 -0.042,-0.056 -0.042,-0.083 -0.028,-0.029 -0.054,-0.056 -0.083,-0.084 0,-0.026 0,-0.054 0,-0.082 v -0.042 c 0,0.027 -0.015,0.042 -0.041,0.042 -0.057,0 -0.099,0 -0.125,0 -0.057,0 -0.113,-0.015 -0.169,-0.042 -0.028,-0.029 -0.056,-0.056 -0.083,-0.085 -0.027,-0.027 -0.056,-0.055 -0.082,-0.083 -0.03,0 -0.056,-0.014 -0.084,-0.042 0,-0.029 -0.013,-0.057 -0.043,-0.084 0,-0.028 0,-0.056 0,-0.083 0,-0.028 0,-0.056 0,-0.084 0,-0.028 0,-0.056 0,-0.083 0,-0.027 0,-0.055 0,-0.083 0,-0.029 0,-0.057 0,-0.084 0,-0.027 0,-0.056 0,-0.083 v -0.041 c 0,-0.028 0,-0.056 0,-0.084 0,-0.027 0,-0.055 0,-0.083 0,-0.028 0,-0.057 0,-0.083 0,-0.028 0,-0.056 0,-0.083 0,-0.027 0,-0.056 0,-0.084 0,-0.028 0,-0.055 0,-0.083 0,-0.028 0,-0.056 0,-0.083 v -0.042 c 0,-0.028 0,-0.054 0,-0.083 0,-0.028 0,-0.055 0,-0.083 0,-0.028 0,-0.056 0,-0.083 v -0.041 c -10e-4,-0.029 -0.014,-0.057 -0.042,-0.084 0,-0.028 -0.014,-0.055 -0.041,-0.083 0,-0.028 -0.015,-0.056 -0.042,-0.083 -0.027,0 -0.055,-0.015 -0.083,-0.042 0,-0.028 0,-0.054 0,-0.083 -0.028,-0.028 -0.042,-0.056 -0.042,-0.083 0,-0.029 -0.015,-0.056 -0.04,-0.083 0,-0.028 -0.015,-0.056 -0.044,-0.083 -0.028,-0.029 -0.041,-0.056 -0.041,-0.083 -0.028,-0.028 -0.043,-0.056 -0.043,-0.083 -0.027,-0.028 -0.042,-0.057 -0.042,-0.085 l -0.04,-0.041 c 0,-0.027 0,-0.056 0,-0.083 v -0.043 c -0.058,-0.028 -0.098,-0.055 -0.128,-0.083 -0.055,-0.027 -0.097,-0.056 -0.125,-0.083 -0.028,-0.027 -0.069,-0.042 -0.123,-0.042 -0.03,0.027 -0.044,0.055 -0.044,0.084 -0.029,0 -0.041,0.014 -0.041,0.041 h -0.043 c 0,0.028 -0.014,0.055 -0.042,0.083 0,0.029 0,0.057 0,0.084 0,0.027 0,0.056 0,0.083 0,0.029 0,0.058 0,0.085 0,0.027 0,0.055 0,0.083 0,0.028 0,0.055 0,0.083 0,0.028 0,0.056 0,0.083 v 0.042 c 0,0.027 0,0.056 0,0.082 0,0.029 0,0.057 0,0.084 0,0.028 0,0.056 0,0.084 0,0.028 0,0.056 0,0.083 0,0.027 0,0.055 0,0.083 0,0.027 0,0.057 0,0.084 0,0.027 0,0.056 0,0.083 v 0.042 c 0,0.029 0,0.056 0,0.083 0,0.03 0,0.056 0,0.083 0,0.027 0,0.057 0,0.083 0,0.028 0,0.058 0,0.085 0,0.025 0,0.054 0,0.082 0,0.028 0,0.056 0,0.083 -0.028,0.028 -0.042,0.056 -0.042,0.083 l -0.042,0.042 c -0.028,0.028 -0.042,0.056 -0.042,0.083 -0.014,0.014 -0.028,0.029 -0.042,0.042 0,0.028 0,0.056 0,0.083 v 0.042 c 0,0.028 0,0.055 0,0.083 0,0.028 0,0.056 0,0.083 0,0.027 0,0.056 0,0.083 0,0.027 0,0.057 0,0.084 0,0.027 0,0.055 0,0.083 -0.029,0.027 -0.044,0.055 -0.044,0.083 -0.026,0.029 -0.04,0.056 -0.04,0.083 l -0.042,0.043 c -0.028,0.026 -0.056,0.054 -0.083,0.083 v 0.042 c 0,0.027 0,0.055 0,0.083 0,0.027 0,0.056 0,0.084 0,0.027 0,0.055 0,0.082 0,0.029 -0.014,0.057 -0.042,0.085 0,0.028 -0.013,0.056 -0.042,0.083 l -0.042,0.043 c 0,0.028 0,0.054 0,0.083 -0.028,0.027 -0.042,0.055 -0.042,0.082 0,0.028 0,0.058 0,0.083 -0.028,0.029 -0.056,0.057 -0.083,0.084 -0.056,0.029 -0.097,0.055 -0.125,0.084 0,0.028 -0.014,0.055 -0.042,0.083 -0.057,0 -0.097,0.015 -0.125,0.042 -0.139,0 -0.279,0 -0.418,0 -0.055,-0.027 -0.098,-0.042 -0.125,-0.042 -0.029,0 -0.056,0 -0.083,0 -0.058,0 -0.126,-0.014 -0.208,-0.041 C 49.999,20.67 49.985,20.642 49.985,20.616 49.956,20.588 49.928,20.559 49.901,20.533 49.872,20.504 49.846,20.49 49.819,20.49 49.79,20.464 49.776,20.434 49.776,20.407 49.748,20.38 49.721,20.352 49.692,20.325 c 0,-0.03 0,-0.056 0,-0.083 v -0.043 c 0,-0.027 0,-0.055 0,-0.083 0,-0.029 0,-0.057 0,-0.085 0,-0.027 0,-0.055 0,-0.082 0,-0.029 0,-0.058 0,-0.084 0,-0.028 0,-0.056 0,-0.083 0,-0.029 0,-0.056 0,-0.085 0,-0.027 0,-0.055 0,-0.083 0.03,0 0.057,-0.014 0.084,-0.042 0,-0.029 0.015,-0.057 0.043,-0.084 0,-0.028 0,-0.056 0,-0.083 0,-0.028 0,-0.056 0,-0.084 0,-0.02 0,-0.041 0,-0.063 -0.028,-0.006 -0.058,-0.013 -0.086,-0.021 -0.056,0 -0.109,0 -0.166,0 -0.053,-0.026 -0.108,-0.04 -0.166,-0.041 -0.029,0 -0.056,0 -0.083,0 -0.027,0 -0.058,0 -0.083,0 -0.058,0.028 -0.112,0.056 -0.167,0.083 -0.028,0.028 -0.056,0.057 -0.084,0.084 -0.028,0.027 -0.056,0.041 -0.084,0.041 -0.054,0.027 -0.111,0.055 -0.166,0.083 -0.027,0.028 -0.057,0.056 -0.083,0.084 -0.057,0.028 -0.098,0.057 -0.127,0.084 -0.083,0.026 -0.152,0.054 -0.209,0.083 -0.028,0.028 -0.054,0.042 -0.083,0.042 0,0.027 -0.013,0.042 -0.041,0.042 -0.057,0 -0.099,0 -0.126,0 -0.083,0.028 -0.167,0.041 -0.25,0.041 l -0.041,0.041 c -0.057,0 -0.097,0 -0.125,0 -0.113,0.029 -0.224,0.056 -0.336,0.084 -0.028,0 -0.056,0.014 -0.083,0.041 -0.055,0 -0.097,0 -0.125,0 -0.027,0 -0.057,0 -0.083,0 -0.057,0 -0.111,-0.014 -0.166,-0.041 -0.031,0 -0.059,-0.014 -0.085,-0.041 -0.196,0 -0.39,-0.015 -0.584,-0.043 -0.056,0 -0.098,0 -0.125,0 L 46.02,19.863 c -1.474,0 -2.95,-0.013 -4.426,-0.041 -0.056,0 -0.109,-0.015 -0.168,-0.042 C 41.399,19.751 41.371,19.724 41.343,19.695 41.314,19.668 41.288,19.64 41.26,19.612 V 19.57 c 0,-0.029 0,-0.057 0,-0.084 0,-0.027 -0.015,-0.056 -0.043,-0.083 -0.026,-0.028 -0.054,-0.056 -0.081,-0.084 0,-0.028 -0.015,-0.056 -0.042,-0.083 -0.028,-0.027 -0.042,-0.055 -0.042,-0.083 -0.028,-0.029 -0.043,-0.057 -0.043,-0.084 -0.028,-0.028 -0.056,-0.056 -0.084,-0.083 l -0.041,-0.041 v -0.042 c -0.028,0 -0.057,0 -0.083,0 l -0.042,0.042 c -0.058,0 -0.097,0 -0.125,0 -0.112,0.028 -0.225,0.056 -0.335,0.083 v 0.041 c -0.028,0.028 -0.043,0.056 -0.043,0.084 -0.027,0.028 -0.055,0.056 -0.083,0.083 -0.027,0.028 -0.055,0.056 -0.083,0.083 0,0.029 0,0.057 0,0.084 0,0.027 0,0.055 0,0.083 0,0.028 -0.015,0.056 -0.043,0.084 0,0.028 -0.013,0.057 -0.041,0.084 0,0.026 -0.013,0.04 -0.042,0.04 0,0.03 0,0.057 0,0.085 -0.027,0.027 -0.055,0.055 -0.082,0.083 0,0.027 0,0.056 0,0.084 0,0.027 0,0.055 0,0.082 0,0.029 0,0.057 0,0.085 0,0.028 -0.016,0.056 -0.044,0.083 0,0.028 -0.014,0.056 -0.042,0.083 0,0.028 -0.013,0.043 -0.042,0.043 0,0.027 0,0.055 0,0.082 -0.026,0.028 -0.054,0.058 -0.083,0.083 0,0.029 0,0.057 0,0.084 0,0.029 -0.015,0.055 -0.042,0.084 0,0.028 0,0.055 0,0.083 -0.026,0.029 -0.056,0.057 -0.083,0.083 -0.028,0.028 -0.041,0.056 -0.041,0.085 0,0.027 -0.014,0.042 -0.043,0.042 0,0.028 0,0.055 0,0.083 0,0.027 0,0.057 0,0.084 0,0.027 0,0.056 0,0.083 0,0.027 -0.014,0.055 -0.042,0.083 0,0.027 0,0.056 0,0.083 -0.027,0.027 -0.056,0.055 -0.083,0.083 -0.028,0.029 -0.04,0.056 -0.04,0.083 0,0.029 -0.015,0.043 -0.044,0.043 0,0.028 0,0.056 0,0.083 0,0.027 0,0.056 0,0.083 0,0.029 -0.014,0.057 -0.042,0.084 0,0.028 0,0.055 0,0.083 -0.027,0.028 -0.056,0.056 -0.083,0.082 0,0.028 0,0.058 0,0.085 -0.028,0.027 -0.043,0.056 -0.043,0.084 0,0.027 -0.012,0.04 -0.042,0.04 0,0.028 0,0.057 0,0.084 0,0.027 0,0.056 0,0.083 0,0.027 0,0.056 0,0.083 0,0.027 -0.014,0.056 -0.041,0.083 0,0.028 0,0.056 0,0.083 -0.029,0.03 -0.057,0.056 -0.084,0.085 -0.028,0.027 -0.042,0.057 -0.042,0.082 0,0.029 -0.013,0.041 -0.041,0.041 0,0.03 0,0.057 0,0.085 0,0.028 0,0.057 0,0.083 0,0.028 0,0.056 0,0.083 0,0.027 -0.015,0.056 -0.042,0.084 0,0.028 0,0.055 0,0.083 -0.028,0.028 -0.057,0.056 -0.085,0.084 -0.027,0.027 -0.041,0.055 -0.041,0.083 0,0.028 -0.014,0.042 -0.04,0.042 0,0.029 0,0.056 0,0.083 0,0.027 0,0.056 0,0.084 0,0.027 -0.015,0.056 -0.044,0.084 0,0.026 0,0.054 0,0.081 -0.026,0.03 -0.054,0.058 -0.083,0.084 0,0.028 0,0.056 0,0.083 -0.028,0.027 -0.042,0.057 -0.042,0.084 0,0.027 -0.014,0.041 -0.043,0.041 0,0.029 0,0.057 0,0.083 0,0.028 0,0.058 0,0.083 0,0.028 -0.012,0.057 -0.04,0.084 0,0.028 0,0.055 0,0.083 -0.028,0.03 -0.056,0.056 -0.084,0.084 0,0.029 0,0.056 0,0.084 0,0.026 0,0.054 0,0.082 v 0.042 c -0.028,0.03 -0.056,0.058 -0.083,0.084 0,0.028 0,0.056 0,0.084 0,0.026 -0.014,0.054 -0.042,0.082 0,0.029 0,0.057 0,0.085 -0.028,0.028 -0.055,0.054 -0.083,0.082 0,0.028 0,0.057 0,0.084 0,0.027 0,0.055 0,0.083 v 0.042 c -0.027,0.03 -0.055,0.058 -0.084,0.083 0,0.028 0,0.056 0,0.084 0,0.027 0,0.057 0,0.084 0,0.027 -0.013,0.054 -0.041,0.083 0,0.028 0,0.056 0,0.084 -0.027,0.026 -0.057,0.054 -0.083,0.083 0,0.027 0,0.055 0,0.082 v 0.042 c 0,0.028 0,0.056 0,0.084 -0.028,0.026 -0.056,0.056 -0.083,0.083 0,0.028 0,0.055 0,0.083 0,0.026 -0.014,0.056 -0.042,0.083 0,0.028 0,0.056 0,0.083 -0.028,0.028 -0.056,0.055 -0.083,0.083 -0.028,0.03 -0.042,0.059 -0.042,0.085 0,0.028 -0.015,0.042 -0.042,0.042 0,0.026 0,0.056 0,0.083 0,0.028 0,0.057 0,0.084 0,0.027 -0.013,0.056 -0.041,0.083 0,0.027 0,0.055 0,0.083 -0.029,0.026 -0.058,0.056 -0.084,0.082 -0.028,0.03 -0.043,0.057 -0.043,0.085 l -0.041,0.042 c 0.028,0.027 0.056,0.042 0.083,0.042 0.027,0.028 0.056,0.042 0.084,0.042 0,0.028 0.013,0.054 0.041,0.083 0,0.027 0,0.056 0,0.083 0.027,0.029 0.042,0.057 0.042,0.084 0.028,0.028 0.069,0.056 0.125,0.083 0,0.027 0,0.054 0,0.083 0.028,0.028 0.042,0.057 0.042,0.083 0,0.028 0,0.055 0,0.083 0.028,0.026 0.056,0.041 0.083,0.041 0,0.029 0,0.057 0,0.084 0,0.028 0,0.056 0,0.083 0,0.027 0,0.055 0,0.083 0,0.028 0,0.056 0,0.083 0,0.027 0,0.056 0,0.083 0,0.027 0,0.056 0,0.083 0,0.026 0,0.056 0,0.083 v 0.042 c 0,0.029 0,0.056 0,0.083 -0.028,0.028 -0.056,0.057 -0.083,0.083 0,0.028 -0.014,0.056 -0.042,0.083 0,0.029 0,0.057 0,0.084 -0.056,0.028 -0.097,0.056 -0.125,0.083 -0.027,0.029 -0.042,0.057 -0.042,0.085 0,0.028 -0.013,0.056 -0.041,0.083 0,0.028 -0.015,0.042 -0.043,0.042 -0.028,0.028 -0.055,0.057 -0.084,0.083 -0.027,0 -0.069,0 -0.124,0 h -0.043 c -0.027,0.029 -0.056,0.057 -0.083,0.084 -0.027,0 -0.055,0.014 -0.082,0.042 -0.058,0 -0.098,0 -0.128,0 -0.222,0.028 -0.444,0.042 -0.667,0.042 l -0.041,0.042 c -0.056,0 -0.098,0 -0.126,0 -0.39,0 -0.767,0 -1.128,0 -0.056,0 -0.095,0 -0.123,0 l -0.043,-0.042 c -0.195,0 -0.391,-0.014 -0.584,-0.042 -0.057,0 -0.124,-0.013 -0.209,-0.042 l -0.042,-0.041 c -0.083,0 -0.167,-0.015 -0.25,-0.043 -0.055,0 -0.097,0 -0.124,0 l -0.043,-0.041 c -0.056,0 -0.11,-0.014 -0.167,-0.042 -0.056,0 -0.124,-0.014 -0.208,-0.042 l -0.083,-0.083 c -0.057,0 -0.111,-0.015 -0.167,-0.042 -0.084,-0.028 -0.152,-0.056 -0.209,-0.084 -0.057,-0.028 -0.097,-0.057 -0.125,-0.083 -0.058,-0.028 -0.111,-0.055 -0.169,-0.083 -0.026,0 -0.056,-0.014 -0.082,-0.042 -0.028,-0.027 -0.055,-0.056 -0.084,-0.083 -0.028,-0.028 -0.042,-0.055 -0.042,-0.083 -0.055,-0.027 -0.096,-0.058 -0.124,-0.083 -0.057,-0.029 -0.113,-0.056 -0.169,-0.083 0,-0.028 -0.014,-0.056 -0.042,-0.083 -0.028,-0.027 -0.055,-0.056 -0.083,-0.083 -0.028,-0.027 -0.056,-0.056 -0.084,-0.083 -0.026,0 -0.056,-0.014 -0.083,-0.042 0,-0.028 -0.014,-0.055 -0.042,-0.083 0,-0.027 -0.013,-0.056 -0.041,-0.084 -0.028,-0.028 -0.056,-0.057 -0.084,-0.083 0,-0.028 -0.013,-0.056 -0.041,-0.083 0,-0.028 -0.015,-0.056 -0.042,-0.085 V 27.492 L 31.361,27.45 c -0.013,-0.014 -0.026,-0.028 -0.042,-0.042 -0.028,0 -0.055,-0.013 -0.083,-0.042 0,-0.027 -0.015,-0.056 -0.042,-0.083 0,-0.03 0,-0.056 0,-0.083 0,-0.029 0,-0.057 0,-0.083 0,-0.03 0,-0.056 0,-0.083 0,-0.027 0,-0.057 0,-0.083 -0.026,-0.028 -0.056,-0.058 -0.083,-0.085 0,-0.026 0,-0.054 0,-0.083 v -0.041 c 0,-0.028 0,-0.057 0,-0.084 0,-0.027 0,-0.057 0,-0.083 0,-0.028 0,-0.055 0,-0.083 0,-0.029 0,-0.057 0,-0.083 0,-0.028 0,-0.056 0,-0.083 0,-0.029 0,-0.057 0,-0.085 0,-0.029 0,-0.055 0,-0.083 v -0.042 c 0.028,-0.028 0.042,-0.058 0.042,-0.083 0,-0.029 0.015,-0.057 0.041,-0.084 0,-0.029 0,-0.055 0,-0.083 0,-0.028 0,-0.057 0,-0.084 0,-0.027 0,-0.057 0,-0.084 0,-0.026 0,-0.054 0,-0.082 0,-0.029 0,-0.057 0,-0.083 v -0.042 c 0,-0.029 0,-0.057 0,-0.084 0.028,-0.026 0.042,-0.054 0.042,-0.083 0.028,-0.027 0.042,-0.055 0.042,-0.082 0.027,-0.03 0.041,-0.056 0.041,-0.083 0.028,-0.029 0.042,-0.058 0.042,-0.084 0.03,-0.029 0.042,-0.055 0.042,-0.083 0,-0.03 0,-0.057 0,-0.085 v -0.04 c 0.027,-0.029 0.042,-0.057 0.042,-0.084 0.028,-0.027 0.041,-0.055 0.041,-0.084 0.028,-0.028 0.042,-0.055 0.042,-0.083 0.03,-0.028 0.042,-0.057 0.042,-0.084 0.028,-0.026 0.041,-0.056 0.041,-0.083 0,-0.027 0,-0.056 0,-0.084 0,-0.027 0,-0.055 0,-0.081 0.029,0 0.057,-0.016 0.084,-0.043 0,-0.026 0.015,-0.056 0.041,-0.083 0,-0.027 0.016,-0.055 0.043,-0.083 0,-0.026 0.013,-0.056 0.041,-0.083 0,-0.028 0,-0.056 0,-0.083 0.028,-0.028 0.042,-0.056 0.042,-0.083 0.028,-0.028 0.057,-0.055 0.083,-0.083 0,-0.027 0,-0.056 0,-0.083 0.028,0 0.042,-0.014 0.042,-0.041 0,-0.029 0.013,-0.057 0.042,-0.084 0,-0.028 0.014,-0.055 0.042,-0.083 0.027,-0.028 0.043,-0.056 0.043,-0.084 0.028,-0.028 0.041,-0.055 0.041,-0.083 0.028,-0.027 0.043,-0.055 0.043,-0.083 0.027,-0.028 0.04,-0.056 0.04,-0.083 0.028,-0.027 0.057,-0.056 0.085,-0.083 l 0.042,-0.042 c 0,-0.027 0.014,-0.056 0.041,-0.083 0,-0.029 0.015,-0.056 0.041,-0.085 0,-0.026 0,-0.054 0,-0.081 0.029,-0.029 0.042,-0.057 0.042,-0.084 0.029,-0.028 0.056,-0.056 0.084,-0.083 0,-0.027 0,-0.056 0,-0.084 0.03,-0.027 0.056,-0.055 0.083,-0.084 v -0.04 c 0,-0.028 0,-0.057 0,-0.083 0.028,-0.028 0.043,-0.057 0.043,-0.084 0.028,-0.027 0.042,-0.055 0.042,-0.082 0.027,-0.029 0.04,-0.056 0.04,-0.085 0.03,-0.027 0.042,-0.056 0.042,-0.083 0.028,-0.028 0.042,-0.057 0.042,-0.083 0,-0.029 0,-0.057 0,-0.084 0.029,0 0.057,-0.013 0.084,-0.042 0,-0.027 0.013,-0.056 0.041,-0.083 0,-0.028 0,-0.056 0,-0.083 0,-0.029 0,-0.057 0,-0.084 0,-0.027 0,-0.057 0,-0.083 0.028,-0.028 0.041,-0.056 0.041,-0.084 0.029,-0.028 0.042,-0.057 0.042,-0.083 0,-0.03 0,-0.056 0,-0.084 v -0.041 c 0.029,-0.028 0.043,-0.058 0.043,-0.084 0.028,-0.028 0.042,-0.055 0.042,-0.083 0.029,-0.028 0.041,-0.056 0.041,-0.084 0,-0.028 0,-0.055 0,-0.083 0.028,-0.027 0.042,-0.056 0.042,-0.083 0.027,-0.029 0.043,-0.057 0.043,-0.083 0,-0.028 0,-0.057 0,-0.083 v -0.043 c 0.028,-0.026 0.041,-0.056 0.041,-0.083 0.028,-0.027 0.043,-0.055 0.043,-0.082 0.028,-0.03 0.041,-0.056 0.041,-0.083 0,-0.027 0,-0.058 0,-0.084 0,-0.028 0,-0.057 0,-0.084 0,-0.027 0,-0.056 0,-0.083 0.028,-0.029 0.057,-0.056 0.083,-0.084 v -0.041 c 0.028,-0.028 0.043,-0.056 0.043,-0.083 0.026,-0.029 0.041,-0.056 0.041,-0.085 0.03,-0.027 0.043,-0.055 0.043,-0.083 0,-0.028 0,-0.055 0,-0.083 0.027,-0.029 0.042,-0.057 0.042,-0.083 0.028,-0.028 0.043,-0.056 0.043,-0.083 0,-0.028 0,-0.057 0,-0.084 v -0.042 c 0,-0.027 0,-0.055 0,-0.083 0.027,-0.029 0.04,-0.057 0.04,-0.084 0.03,-0.028 0.043,-0.056 0.043,-0.083 0.027,-0.028 0.041,-0.056 0.041,-0.083 0,-0.027 0,-0.054 0,-0.083 0,-0.028 0,-0.056 0,-0.084 0,-0.028 0,-0.056 0,-0.083 v -0.041 c 0.03,-0.028 0.043,-0.056 0.043,-0.084 0,-0.028 0.014,-0.055 0.042,-0.083 0,-0.028 0,-0.056 0,-0.083 0,-0.029 0,-0.057 0,-0.083 0,-0.028 0,-0.057 0,-0.086 0,-0.025 0,-0.055 0,-0.083 0.027,-0.027 0.055,-0.055 0.083,-0.083 l 0.042,-0.042 c 0,-0.029 0,-0.058 0,-0.085 0.029,-0.027 0.042,-0.055 0.042,-0.083 0,-0.027 0.016,-0.056 0.044,-0.083 0,-0.028 0,-0.054 0,-0.083 0,-0.028 0,-0.056 0,-0.083 0,-0.029 0,-0.056 0,-0.083 0,-0.027 0,-0.056 0,-0.083 L 34.08,17.367 v -0.292 c -0.027,0 -0.042,-0.015 -0.042,-0.041 V 16.991 L 33.996,16.949 V 16.908 H 33.955 V 16.783 H 33.913 V 16.7 c -0.028,0 -0.042,-0.015 -0.042,-0.042 l -0.043,-0.043 v -0.042 c -0.028,0 -0.041,-0.013 -0.041,-0.041 l -0.043,-0.041 c 0,-0.029 -0.013,-0.042 -0.04,-0.042 v -0.044 h -0.043 v -0.04 L 33.619,16.323 V 16.282 H 33.576 L 33.535,16.24 c 0,-0.028 -0.015,-0.042 -0.043,-0.042 L 33.45,16.156 h -0.042 c 0,-0.027 -0.013,-0.042 -0.041,-0.042 -0.028,-0.028 -0.056,-0.041 -0.083,-0.041 h -0.043 l -0.042,-0.042 c -0.027,0 -0.041,-0.014 -0.041,-0.042 -0.028,0 -0.056,0 -0.085,0 0,-0.027 -0.013,-0.041 -0.042,-0.041 -0.026,-0.029 -0.056,-0.042 -0.082,-0.042 H 32.906 C 32.878,15.879 32.85,15.864 32.823,15.864 l -0.042,-0.042 h -0.04 L 32.699,15.781 C 32.67,15.753 32.643,15.739 32.616,15.739 h -0.043 l -0.042,-0.041 c -0.026,0 -0.055,0 -0.083,0 h -0.082 l -0.042,-0.042 c -0.028,0 -0.057,0 -0.085,0 H 32.2 l -0.043,-0.042 c -0.028,0 -0.056,0 -0.083,0 -0.028,0 -0.056,0 -0.083,0 h -0.042 l -0.042,-0.042 c -0.028,0 -0.055,0 -0.083,0 H 31.74 L 31.699,15.53 c -0.028,0 -0.056,0 -0.084,0 -0.028,0 -0.057,0 -0.083,0 -0.028,-0.028 -0.055,-0.042 -0.083,-0.042 H 31.407 L 31.365,15.446 H 31.28 l -0.042,-0.042 c -0.028,0 -0.056,0 -0.083,0 -0.15,0 -0.302,0 -0.459,0 -0.028,0 -0.057,0 -0.084,0 h -0.375 c -0.043,0 -0.084,0 -0.125,0 H 30.07 c -0.028,0 -0.056,0.014 -0.083,0.042 h -0.042 c -0.097,0 -0.195,0 -0.292,0 h -0.042 c -0.028,0 -0.056,0.015 -0.083,0.042 h -0.042 c -0.028,0 -0.043,0.014 -0.043,0.042 -0.029,0 -0.057,0 -0.083,0 0,0.028 -0.014,0.042 -0.042,0.042 h -0.083 c -0.027,0 -0.056,0.015 -0.084,0.042 H 29.11 c -0.029,0 -0.057,0 -0.083,0 h -0.042 c -0.028,0 -0.056,0.013 -0.083,0.042 h -0.126 c -0.027,0 -0.055,0.013 -0.083,0.042 h -0.126 c -0.027,0 -0.055,0.012 -0.083,0.041 H 28.44 c -0.028,0 -0.043,0.014 -0.043,0.042 h -0.04 c -0.028,0.027 -0.057,0.041 -0.084,0.041 -0.027,0 -0.055,0.014 -0.083,0.042 h -0.083 c -0.029,0 -0.057,0.015 -0.083,0.042 h -0.083 c -0.029,0 -0.057,0.013 -0.084,0.042 h -0.041 c -0.028,0 -0.057,0.014 -0.083,0.041 H 27.69 c -0.028,0 -0.055,0.014 -0.083,0.042 H 27.52 c -0.027,0.028 -0.055,0.042 -0.082,0.042 -0.028,0 -0.055,0.013 -0.083,0.041 l -0.043,0.042 h -0.083 c -0.028,0 -0.056,0.015 -0.084,0.042 h -0.041 c -0.028,0 -0.057,0.014 -0.084,0.042 h -0.083 c 0,0.028 -0.013,0.042 -0.041,0.042 -0.028,0 -0.057,0.013 -0.083,0.041 h -0.085 c 0,0.027 -0.014,0.042 -0.041,0.042 -0.029,0 -0.055,0.013 -0.084,0.04 h -0.042 c -0.027,0 -0.055,0.017 -0.081,0.044 h -0.042 c -0.028,0 -0.056,0.013 -0.084,0.042 h -0.041 c -0.03,0 -0.057,0.014 -0.083,0.041 h -0.085 c 0,0.028 -0.013,0.041 -0.041,0.041 -0.029,0 -0.055,0.014 -0.084,0.042 h -0.083 c 0,0.029 -0.015,0.043 -0.041,0.043 -0.029,0 -0.056,0.014 -0.084,0.042 H 25.77 c -0.028,0 -0.056,0.013 -0.084,0.041 h -0.042 c -0.026,0 -0.04,0.014 -0.04,0.042 -0.029,0 -0.058,0 -0.084,0 h -0.042 c -0.027,0 -0.055,0.014 -0.083,0.042 H 25.35 c -0.027,0 -0.057,0.013 -0.084,0.042 h -0.041 c -0.029,0 -0.058,0.014 -0.084,0.041 h -0.042 c -0.028,0 -0.056,0.014 -0.082,0.041 h -0.084 c 0,0.028 -0.015,0.042 -0.042,0.042 -0.028,0 -0.056,0.016 -0.084,0.043 l -0.041,0.041 h -0.084 c -0.028,0 -0.056,0.015 -0.083,0.042 h -0.042 c -0.028,0 -0.055,0.014 -0.083,0.041 H 24.39 c -0.028,0.029 -0.056,0.043 -0.083,0.043 -0.027,0 -0.056,0.014 -0.084,0.042 H 24.18 c -0.028,0 -0.042,0.014 -0.042,0.04 h -0.042 c -0.029,0.029 -0.056,0.042 -0.083,0.042 -0.027,0 -0.042,0.014 -0.042,0.042 -0.028,0 -0.056,0 -0.083,0 -0.028,0.029 -0.056,0.042 -0.083,0.042 -0.029,0 -0.056,0.015 -0.083,0.042 H 23.68 c -0.03,0 -0.056,0.013 -0.083,0.041 h -0.042 c -0.028,0 -0.056,0.014 -0.084,0.042 H 23.43 c -0.027,0 -0.056,0.012 -0.083,0.041 h -0.041 c -0.029,0 -0.057,0.015 -0.084,0.041 h -0.044 c -0.027,0 -0.04,0.015 -0.04,0.042 H 23.096 L 23.054,17.7 c -0.027,0 -0.041,0.014 -0.041,0.042 H 22.97 c -0.028,0 -0.055,0.014 -0.083,0.042 h -0.043 c -0.028,0 -0.056,0.014 -0.084,0.041 h -0.041 c -0.028,0 -0.058,0.015 -0.084,0.042 h -0.041 c -0.029,0 -0.057,0.013 -0.083,0.04 h -0.083 c -0.028,0 -0.056,0.015 -0.084,0.042 h -0.041 c -0.029,0 -0.057,0.014 -0.083,0.043 h -0.043 c -0.028,0 -0.056,0.014 -0.084,0.042 H 22.05 c -0.028,0 -0.055,0.014 -0.083,0.041 h -0.084 c -0.028,0 -0.056,0.015 -0.083,0.042 h -0.083 c -0.029,0 -0.057,0.013 -0.085,0.042 h -0.041 c -0.028,0 -0.041,0.016 -0.041,0.041 h -0.044 c -0.028,0.029 -0.054,0.042 -0.083,0.042 h -0.082 c -0.03,0 -0.058,0.016 -0.086,0.043 h -0.082 c -0.028,0 -0.055,0.012 -0.084,0.04 h -0.041 c -0.056,0 -0.098,0.014 -0.126,0.042 h -0.041 c -0.028,0 -0.058,0.014 -0.083,0.041 h -0.084 c -0.027,0 -0.055,0.015 -0.082,0.042 h -0.043 c -0.029,0 -0.042,0.015 -0.042,0.043 -0.028,0 -0.057,0 -0.083,0 h -0.042 c -0.027,0 -0.056,0.012 -0.084,0.04 h -0.083 c -0.027,0 -0.055,0.014 -0.083,0.042 h -0.084 c -0.028,0 -0.056,0.015 -0.083,0.042 h -0.042 c -0.028,0 -0.057,0.013 -0.083,0.041 h -0.126 c -0.028,0 -0.056,0.015 -0.083,0.042 h -0.124 c -0.029,0 -0.056,0.013 -0.083,0.041 h -0.126 c -0.028,0 -0.054,0.015 -0.083,0.042 h -0.124 c -0.028,0 -0.056,0.014 -0.083,0.042 h -0.044 c -0.028,0 -0.042,0.014 -0.042,0.041 H 18.92 c -0.028,0.029 -0.055,0.042 -0.083,0.042 -0.028,0 -0.057,0 -0.084,0 h -0.042 c -0.027,0 -0.055,0.015 -0.082,0.042 H 18.5 c -0.028,0 -0.056,0.013 -0.083,0.041 h -0.125 c -0.028,0 -0.056,0.015 -0.083,0.042 h -0.043 c -0.028,0 -0.042,0.013 -0.042,0.041 h -0.042 l -0.041,0.042 c -0.028,0 -0.057,0.013 -0.084,0.042 h -0.042 c -0.028,0 -0.041,0.014 -0.041,0.042 -0.03,0 -0.058,0 -0.084,0 h -0.042 c -0.028,0 -0.056,0.014 -0.083,0.041 h -0.041 c -0.03,0 -0.057,0.015 -0.084,0.042 l -0.042,0.041 h -0.041 l -0.043,0.043 c -0.028,0 -0.056,0.013 -0.083,0.041 H 17.29 c -0.028,0 -0.056,0.014 -0.085,0.042 h -0.083 c -0.028,0 -0.054,0.013 -0.082,0.041 h -0.084 c 0,0.028 -0.014,0.042 -0.042,0.042 -0.028,0 -0.056,0.013 -0.084,0.042 h -0.042 c -0.027,0 -0.056,0.014 -0.082,0.042 H 16.58 c -0.027,0 -0.055,0.015 -0.083,0.043 h -0.083 c -0.028,0 -0.056,0.013 -0.084,0.04 h -0.043 c -0.027,0 -0.055,0.014 -0.083,0.043 h -0.041 c -0.028,0 -0.056,0.014 -0.084,0.042 h -0.125 c -0.026,0 -0.057,0.013 -0.083,0.042 h -0.083 c 0,0.028 -0.014,0.041 -0.041,0.041 -0.028,0 -0.056,0.015 -0.084,0.041 H 15.62 c -0.028,0 -0.057,0.015 -0.085,0.043 l -0.059,0.063 c -0.026,0.007 -0.046,0.014 -0.065,0.019 h -0.043 c -0.027,0 -0.056,0.014 -0.083,0.042 h -0.083 c 0,0.028 -0.014,0.043 -0.041,0.043 -0.028,0 -0.056,0.013 -0.084,0.041 h -0.083 c -0.028,0 -0.056,0.015 -0.083,0.042 H 14.87 c -0.029,0 -0.057,0.015 -0.085,0.043 h -0.083 c -0.028,0 -0.055,0.013 -0.083,0.041 h -0.042 c -0.028,0 -0.056,0.013 -0.084,0.043 h -0.125 c -0.028,0 -0.058,0.014 -0.085,0.042 h -0.04 c -0.028,0 -0.056,0.013 -0.083,0.04 l -0.042,0.042 c -0.028,0 -0.056,0 -0.083,0 h -0.042 c -0.028,0 -0.056,0.015 -0.084,0.041 h -0.125 c -0.027,0 -0.055,0.015 -0.083,0.043 h -0.042 c -0.056,0 -0.098,0.013 -0.127,0.041 h -0.04 c -0.028,0 -0.058,0.015 -0.085,0.042 h -0.041 c -0.029,0 -0.057,0.012 -0.083,0.042 L 13.24,20.7 c -0.028,0 -0.056,0 -0.083,0 h -0.042 c -0.028,0 -0.056,0.013 -0.084,0.041 h -0.125 c -0.028,0 -0.057,0.015 -0.084,0.042 h -0.041 c -0.029,0 -0.057,0.015 -0.083,0.041 h -0.042 c -0.03,0 -0.058,0 -0.083,0 h -0.041 c -0.029,0 -0.059,0.014 -0.086,0.042 h -0.042 c -0.026,0 -0.055,0.013 -0.083,0.043 H 12.28 c -0.029,0 -0.058,0.014 -0.084,0.042 H 12.11 c 0,0.028 -0.013,0.042 -0.04,0.042 -0.028,0 -0.058,0.013 -0.085,0.041 h -0.042 c -0.026,0 -0.069,0 -0.125,0 h -0.04 c -0.028,0 -0.056,0.013 -0.085,0.041 H 11.61 c -0.029,0 -0.055,0.016 -0.083,0.043 h -0.125 c -0.03,0 -0.057,0.014 -0.084,0.041 h -0.043 c -0.027,0 -0.055,0 -0.083,0 H 11.15 c -0.027,0 -0.056,0.015 -0.083,0.042 h -0.125 c -0.028,0 -0.056,0.012 -0.083,0.042 h -0.124 c -0.03,0 -0.057,0.013 -0.084,0.042 h -0.124 c -0.03,0 -0.058,0.013 -0.087,0.041 H 10.4 c -0.027,0 -0.056,0.015 -0.084,0.042 l -0.041,0.042 h -0.042 c -0.027,0.026 -0.055,0.041 -0.083,0.041 -0.029,0 -0.043,0.015 -0.043,0.042 -0.027,0 -0.055,0 -0.084,0 0,0.028 -0.014,0.042 -0.041,0.042 -0.028,0 -0.057,0.014 -0.084,0.043 h -0.04 c -0.029,0 -0.058,0.013 -0.084,0.042 H 9.731 c -0.028,0 -0.042,0.014 -0.042,0.042 h -0.04 c -0.029,0.027 -0.058,0.042 -0.084,0.042 -0.058,0 -0.099,0.014 -0.127,0.041 H 9.397 c -0.028,0 -0.056,0.015 -0.084,0.042 H 9.271 c -0.028,0 -0.056,0.015 -0.083,0.043 l -0.042,0.042 c -0.027,0.027 -0.056,0.042 -0.083,0.042 -0.028,0 -0.056,0.014 -0.083,0.042 l -0.042,0.04 c -0.056,0 -0.098,0 -0.125,0 H 8.771 c -0.028,0 -0.056,0.016 -0.083,0.042 H 8.646 c -0.027,0 -0.043,0.015 -0.043,0.043 -0.027,0 -0.057,0 -0.083,0 0,0.027 -0.015,0.042 -0.042,0.042 -0.027,0 -0.055,0.013 -0.083,0.042 l -0.042,0.04 H 8.311 C 8.284,22.233 8.256,22.248 8.228,22.248 H 8.145 c -0.029,0 -0.056,0.014 -0.083,0.042 H 7.936 c -0.03,0 -0.056,0.014 -0.083,0.042 H 7.769 c 0,0.028 -0.015,0.042 -0.042,0.042 -0.027,0 -0.055,0.012 -0.083,0.04 H 7.559 c -0.028,0 -0.056,0.016 -0.083,0.043 H 7.392 c -0.027,0 -0.056,0.014 -0.083,0.041 H 7.226 c -0.029,0 -0.057,0.015 -0.083,0.042 H 7.015 c -0.028,0 -0.056,0.015 -0.083,0.042 H 6.808 c -0.029,0 -0.056,0.014 -0.083,0.041 H 6.682 c -0.028,0 -0.041,0.015 -0.041,0.043 -0.029,0 -0.058,0 -0.085,0 0,0.028 -0.012,0.042 -0.041,0.042 -0.028,0 -0.056,0.013 -0.084,0.042 H 6.39 c -0.028,0 -0.056,0 -0.083,0 H 6.266 c -0.03,0 -0.058,0.015 -0.083,0.04 H 6.14 c -0.028,0 -0.055,0.015 -0.084,0.041 H 5.972 c -0.027,0.03 -0.055,0.043 -0.082,0.043 -0.028,0 -0.057,0.013 -0.084,0.042 H 5.765 c -0.03,0 -0.042,0.014 -0.042,0.042 H 5.68 C 5.651,22.985 5.623,23 5.596,23 5.569,23 5.54,23.013 5.513,23.042 H 5.471 c -0.028,0 -0.056,0.013 -0.083,0.041 H 5.346 c -0.029,0 -0.043,0.015 -0.043,0.042 -0.027,0 -0.055,0 -0.083,0 H 5.178 c -0.027,0 -0.056,0.014 -0.083,0.043 H 5.011 c 0,0.028 -0.014,0.041 -0.041,0.041 -0.028,0 -0.056,0.014 -0.084,0.042 H 4.803 c -0.027,0 -0.055,0.015 -0.082,0.042 H 4.677 c -0.028,0 -0.056,0.014 -0.083,0.043 H 4.553 c -0.028,0 -0.057,0.012 -0.084,0.04 H 4.384 c 0,0.029 -0.013,0.043 -0.041,0.043 -0.027,0 -0.056,0.014 -0.083,0.042 H 4.218 c -0.027,0 -0.055,0.014 -0.084,0.041 H 4.009 c -0.028,0 -0.056,0.015 -0.083,0.042 H 3.884 c -0.028,0 -0.055,0 -0.084,0 H 3.759 c -0.028,0 -0.056,0.014 -0.083,0.042 H 3.634 c -0.027,0 -0.055,0 -0.083,0 H 3.508 c -0.028,0 -0.055,0.014 -0.083,0.042 H 3.341 c -0.028,0 -0.056,0.013 -0.084,0.041 H 3.175 c -0.029,0 -0.057,0.015 -0.085,0.043 H 3.049 c -0.029,0 -0.057,0 -0.083,0 H 2.922 c -0.027,0 -0.055,0.013 -0.082,0.04 H 2.8 c -0.03,0 -0.058,0 -0.085,0 H 2.673 c -0.028,0 -0.056,0.014 -0.083,0.041 H 2.547 c -0.028,0 -0.042,0.015 -0.042,0.043 h -0.04 l -0.042,0.042 c -0.028,0 -0.056,0.014 -0.084,0.042 H 2.297 c -0.027,0 -0.056,0.014 -0.082,0.042 H 2.088 c -0.028,0 -0.056,0.014 -0.083,0.042 H 1.963 c -0.028,0 -0.055,0.015 -0.083,0.042 -0.029,0 -0.057,0.015 -0.084,0.041 -0.027,0 -0.056,0 -0.083,0 0,0.029 -0.015,0.042 -0.042,0.042 -0.027,0 -0.055,0.015 -0.083,0.042 H 1.545 c -0.028,0 -0.042,0.013 -0.042,0.042 -0.027,0 -0.056,0 -0.083,0 0,0.028 -0.014,0.041 -0.041,0.041 -0.029,0 -0.057,0.015 -0.083,0.043 H 1.211 c 0,0.026 -0.015,0.041 -0.042,0.041 -0.029,0 -0.056,0.013 -0.083,0.04 H 1.002 c -0.028,0 -0.056,0.015 -0.083,0.043 H 0.877 c -0.028,0 -0.057,0.015 -0.083,0.042 H 0.752 c -0.028,0 -0.056,0.014 -0.083,0.043 C 0.638,24.491 0.611,24.476 0.586,24.463 0.557,24.436 0.529,24.407 0.503,24.379 0.475,24.352 0.447,24.324 0.42,24.298 v -0.043 c 0,-0.026 0,-0.056 0,-0.083 -0.056,0 -0.126,-0.014 -0.209,-0.042 0,-0.028 -0.015,-0.055 -0.042,-0.083 C 0.156,24.032 0.142,24.019 0.127,24.005 v -4.113 l 0.042,-0.021 c 0,-0.028 0.013,-0.041 0.042,-0.041 0.028,0 0.07,-0.015 0.125,-0.042 0.055,0 0.111,0 0.167,0 v -0.042 c 0,-0.029 0,-0.057 0,-0.083 0,-0.028 0,-0.057 0,-0.084 0,-0.029 0,-0.057 0,-0.084 v -0.041 c 0,-0.028 0,-0.056 0,-0.083 0,-0.028 0,-0.057 0,-0.084 0,-0.027 0,-0.056 0,-0.083 0,-0.027 0,-0.055 0,-0.083 0,-0.028 0,-0.056 0,-0.083 0,-0.027 0,-0.056 0,-0.083 0,-0.027 0,-0.056 0,-0.084 V 18.82 c 0,-0.028 0,-0.056 0,-0.084 0,-0.028 0,-0.056 0,-0.083 0,-0.027 0,-0.056 0,-0.083 0,-0.027 0,-0.057 0,-0.082 0,-0.028 0,-0.058 0,-0.085 0,-0.027 0,-0.057 0,-0.083 0,-0.028 0,-0.054 0,-0.083 v -0.042 c 0,-0.025 0,-0.055 0,-0.083 0,-0.027 0,-0.055 0,-0.083 0,-0.028 0,-0.057 0,-0.084 0,-0.028 0,-0.055 0,-0.083 0,-0.028 0,-0.056 0,-0.083 0,-0.029 0,-0.057 0,-0.084 0,-0.027 0,-0.055 0,-0.084 V 17.57 c 0,-0.029 0,-0.056 0,-0.083 0,-0.027 0,-0.056 0,-0.083 0,-0.029 0,-0.056 0,-0.083 0,-0.027 0,-0.056 0,-0.083 0,-0.028 0,-0.057 0,-0.085 0,-0.027 0,-0.056 0,-0.083 0,-0.028 0,-0.056 0,-0.084 V 16.94 c 0,-0.027 0,-0.056 0,-0.082 0,-0.029 0,-0.057 0,-0.084 0,-0.028 0,-0.055 0,-0.083 0,-0.028 0,-0.056 0,-0.085 0,-0.028 0,-0.055 0,-0.083 0,-0.027 0,-0.056 0,-0.083 0,-0.028 0,-0.057 0,-0.084 v -0.042 c 0,-0.028 0,-0.056 0,-0.083 0,-0.027 0,-0.057 0,-0.084 0,-0.027 0,-0.056 0,-0.083 0,-0.028 0,-0.057 0,-0.084 0,-0.027 0,-0.056 0,-0.083 0,-0.027 0,-0.056 0,-0.083 0,-0.027 0,-0.055 0,-0.083 V 15.69 c 0,-0.029 0,-0.057 0,-0.085 0,-0.027 0,-0.055 0,-0.083 -0.002,-0.029 -0.015,-0.07 -0.043,-0.125 0,-0.027 -0.013,-0.069 -0.04,-0.125 0,-0.026 0,-0.07 0,-0.125 0,-0.029 0,-0.07 0,-0.126 0,-0.028 0,-0.069 0,-0.125 0,-0.028 0,-0.07 0,-0.125 0,-0.028 0,-0.069 0,-0.126 0,-0.021 0,-0.048 0,-0.083 -0.023,0 -0.052,0 -0.084,0 C 0.28,14.562 0.224,14.548 0.168,14.52 0.141,14.493 0.113,14.465 0.085,14.438 0.057,14.408 0.028,14.38 0,14.352 0,14.324 0,14.295 0,14.269 V 14.228 C 0,14.199 0,14.171 0,14.144 0,14.117 0,14.088 0,14.06 0,14.032 0,14.005 0,13.977 0,13.949 0,13.921 0,13.894 0,13.864 0,13.837 0,13.81 0,13.783 0,13.754 0,13.727 0,13.697 0,13.67 0,13.643 V 13.6 C 0,13.572 0,13.543 0,13.516 0,13.487 0,13.461 0,13.433 0,13.405 0,13.377 0,13.35 0,13.323 0,13.294 0,13.267 0,13.24 0,13.211 0,13.184 0,13.155 0,13.127 0,13.101 0,13.073 0,13.043 0,13.018 V 12.974 C 0,12.948 0,12.92 0,12.891 0,12.864 0,12.836 0,12.808 0,12.78 0,12.752 0,12.725 0,12.696 0,12.669 0,12.642 0,12.615 0,12.586 0,12.557 0,12.529 0,12.502 0,12.474 0,12.447 0,12.419 0,12.391 V 12.349 C 0,12.32 0,12.294 0,12.266 0,12.238 0,12.209 0,12.182 0,12.155 0,12.125 0,12.099 0,12.071 0,12.043 0,12.014 0,11.988 0,11.959 0,11.931 0,11.905 0,11.875 0,11.849 0,11.82 0,11.793 0,11.765 V 11.72 c 0,-0.028 0,-0.056 0,-0.084 0,-0.028 0,-0.056 0,-0.082 0,-0.029 0,-0.056 0,-0.083 0,-0.03 0,-0.058 0,-0.085 0.028,-0.026 0.042,-0.055 0.042,-0.082 0.027,-0.028 0.042,-0.058 0.042,-0.086 0.028,-0.025 0.056,-0.055 0.083,-0.082 0.028,0 0.042,-0.015 0.042,-0.042 0,-0.026 0,-0.055 0,-0.083 0.028,-0.027 0.042,-0.057 0.042,-0.084 0.028,-0.026 0.042,-0.054 0.042,-0.083 0.056,-0.028 0.097,-0.056 0.126,-0.084 0.027,-0.028 0.069,-0.056 0.125,-0.083 0.028,0 0.054,-0.014 0.083,-0.042 0.028,-0.028 0.055,-0.041 0.084,-0.041 0.027,-0.029 0.055,-0.055 0.083,-0.083 0.027,-0.03 0.07,-0.057 0.125,-0.084 0.027,-0.029 0.055,-0.041 0.083,-0.041 0,-0.029 0.015,-0.043 0.042,-0.043 0.029,0 0.071,0 0.126,0 v -0.041 c 0.056,0.028 0.097,0.041 0.126,0.041 0.027,0 0.04,0.015 0.04,0.043 0.057,0 0.098,0 0.126,0 0.056,0.026 0.109,0.056 0.167,0.082 0.028,0 0.042,0.014 0.042,0.044 0.529,0 1.058,0 1.586,0 L 3.3,10.551 3.342,10.51 c 2.005,0 4.024,0 6.056,0 0.056,0 0.125,0 0.208,0 0.194,0 0.403,0 0.626,0 0.028,0.028 0.07,0.041 0.125,0.041 0.027,0 0.042,0.013 0.042,0.042 1.114,-0.029 2.213,-0.042 3.3,-0.042 V 10.51 c 0.028,0 0.056,-0.015 0.083,-0.044 v -0.041 c 0.058,0 0.112,-0.015 0.168,-0.041 0.055,0 0.111,-0.016 0.167,-0.043 0.028,-0.026 0.07,-0.041 0.125,-0.041 0.055,-0.029 0.097,-0.058 0.125,-0.084 0.027,-0.028 0.057,-0.055 0.083,-0.083 0.028,-0.029 0.054,-0.057 0.083,-0.084 0.056,-0.028 0.112,-0.056 0.167,-0.083 0.027,-0.028 0.042,-0.057 0.042,-0.085 0.028,0 0.056,-0.013 0.083,-0.04 V 9.799 c 0.056,0 0.112,-0.014 0.168,-0.042 0.056,0 0.111,0 0.167,0 V 9.716 c 0.027,0 0.07,0 0.125,0 0.056,0.027 0.098,0.041 0.125,0.041 0.028,0.028 0.042,0.056 0.042,0.084 0.027,0.027 0.042,0.057 0.042,0.084 0,0.027 -0.015,0.054 -0.042,0.083 0,0.027 -0.015,0.055 -0.042,0.083 -0.056,0.028 -0.125,0.058 -0.209,0.083 v 0.042 c 0.029,0 0.069,0.015 0.125,0.042 0.02,0 0.04,0.007 0.062,0.022 l 0.021,-0.022 v -0.042 l 0.042,-0.042 c 0.027,-0.025 0.055,-0.04 0.082,-0.04 0.032,-0.001 0.073,-0.015 0.126,-0.042 h 0.062 c 0.045,-0.002 0.096,-0.016 0.146,-0.042 0.083,0 0.168,0 0.25,0 v -0.041 c 0.153,0 0.307,0 0.459,0 0.03,-0.001 0.072,-0.015 0.127,-0.042 0.139,0 0.277,0 0.416,0 0.029,0.013 0.057,0.027 0.083,0.042 0.14,0 0.28,0 0.419,0 0.029,-0.001 0.069,-0.015 0.124,-0.042 0.946,0 1.894,0 2.84,0 0.028,0.013 0.057,0.027 0.083,0.042 0.097,0 0.195,0 0.294,0 0.029,-0.001 0.069,-0.015 0.123,-0.042 1.002,0 2.02,0 3.05,0 0.027,0.013 0.056,0.027 0.083,0.042 0.35,0 0.697,0 1.044,0 0.03,-0.001 0.072,-0.015 0.125,-0.042 0.668,0 1.322,0 1.964,0 0.029,-0.028 0.056,-0.041 0.083,-0.041 0.027,0 0.07,-0.016 0.125,-0.045 0.39,0 0.779,-0.013 1.17,-0.04 0.028,0 0.055,-0.015 0.083,-0.043 0.028,0 0.068,0 0.125,0 V 9.757 c 0.196,0 0.404,0 0.626,0 0.028,-0.028 0.042,-0.056 0.042,-0.083 0.027,-0.03 0.07,-0.056 0.126,-0.084 0.026,-0.027 0.069,-0.055 0.125,-0.081 0.029,-0.029 0.07,-0.057 0.126,-0.084 0.027,-0.029 0.055,-0.057 0.083,-0.084 0.028,-0.028 0.056,-0.056 0.083,-0.083 0.028,0 0.056,-0.014 0.084,-0.042 0.056,-0.027 0.11,-0.057 0.167,-0.083 0.028,-0.029 0.041,-0.056 0.041,-0.083 0.03,-0.028 0.071,-0.056 0.127,-0.083 0.028,-0.029 0.069,-0.057 0.125,-0.084 0.027,-0.026 0.057,-0.056 0.083,-0.082 0,-0.031 0,-0.058 0,-0.086 0.028,-0.027 0.056,-0.055 0.084,-0.083 0.028,0 0.041,-0.014 0.041,-0.042 0.056,-0.029 0.112,-0.058 0.167,-0.083 0.028,-0.028 0.069,-0.056 0.125,-0.084 0.028,-0.027 0.057,-0.04 0.084,-0.04 0,-0.029 0.013,-0.041 0.041,-0.041 0.028,0 0.071,-0.017 0.126,-0.045 0.223,0 0.458,-0.013 0.709,-0.041 0.028,-0.028 0.07,-0.057 0.125,-0.083 0.03,-0.028 0.057,-0.056 0.084,-0.083 0.026,-0.028 0.056,-0.057 0.082,-0.083 0.029,0 0.058,-0.014 0.083,-0.042 0.028,-0.029 0.042,-0.057 0.042,-0.083 0.03,-0.028 0.056,-0.055 0.083,-0.083 0.028,-0.028 0.057,-0.057 0.085,-0.084 0.027,-0.027 0.057,-0.055 0.083,-0.083 0.028,-0.028 0.055,-0.056 0.083,-0.084 0.028,0 0.056,-0.015 0.083,-0.041 C 33.013,7.479 33.04,7.465 33.068,7.465 33.097,7.437 33.111,7.409 33.111,7.382 33.139,7.353 33.153,7.325 33.153,7.299 33.182,7.27 33.222,7.242 33.278,7.216 33.306,7.188 33.346,7.158 33.402,7.132 33.43,7.104 33.459,7.077 33.485,7.049 33.513,7.023 33.541,6.994 33.568,6.966 l 0.043,-0.041 c 0,-0.028 0.013,-0.056 0.042,-0.084 0.028,-0.027 0.043,-0.055 0.043,-0.084 0.027,-0.028 0.055,-0.041 0.083,-0.041 0,-0.027 0.012,-0.042 0.041,-0.042 0.03,-0.028 0.072,-0.041 0.126,-0.041 0.028,-0.028 0.041,-0.056 0.041,-0.084 0.027,-0.028 0.057,-0.055 0.083,-0.083 0.029,-0.028 0.057,-0.055 0.085,-0.083 0.026,-0.028 0.054,-0.056 0.083,-0.083 0.028,-0.027 0.056,-0.056 0.083,-0.084 0.027,-0.027 0.055,-0.055 0.083,-0.083 0.027,0 0.043,-0.013 0.043,-0.042 0.036,-0.036 0.064,-0.064 0.091,-0.091 0.028,-0.03 0.056,-0.056 0.083,-0.083 0.03,-0.029 0.057,-0.057 0.085,-0.084 0.027,-0.029 0.055,-0.057 0.083,-0.084 0.028,-0.026 0.056,-0.056 0.084,-0.083 0.028,-0.028 0.055,-0.057 0.083,-0.084 0.026,-0.028 0.055,-0.054 0.083,-0.083 0.028,0 0.042,-0.014 0.042,-0.041 C 35.138,5.43 35.193,5.4 35.249,5.374 35.304,5.346 35.358,5.332 35.415,5.332 V 5.289 h 0.043 l 0.041,-0.042 c 0.029,-0.029 0.055,-0.043 0.083,-0.043 0.029,0 0.072,0 0.127,0 V 5.163 c 5.43,0 10.857,0 16.286,0 V 5.122 C 52.023,5.095 52.037,5.066 52.037,5.038 52.065,5.011 52.079,4.983 52.079,4.955 52.107,4.928 52.136,4.9 52.163,4.872 l 0.04,-0.042 c 0,-0.026 0.015,-0.056 0.044,-0.083 0.026,-0.028 0.04,-0.056 0.04,-0.083 0.03,-0.028 0.056,-0.056 0.083,-0.083 L 52.412,4.54 c 0.028,-0.028 0.056,-0.042 0.083,-0.042 0.029,0 0.056,0 0.083,0 V 4.453 L 52.62,4.411 c 0.029,-0.028 0.057,-0.042 0.083,-0.042 0.028,0 0.069,-0.014 0.125,-0.042 0.14,0 0.279,0 0.419,0 v -0.04 c 0,-0.029 0,-0.057 0,-0.084 0.026,-0.028 0.055,-0.056 0.083,-0.083 0.028,-0.028 0.07,-0.057 0.125,-0.084 0.029,0 0.055,-0.014 0.083,-0.042 0.028,-0.028 0.057,-0.056 0.084,-0.083 L 53.663,3.869 V 3.827 c 0.029,0 0.057,0 0.084,0 0,-0.028 0.013,-0.056 0.042,-0.083 0.028,0 0.057,-0.013 0.083,-0.041 0.03,-0.029 0.058,-0.057 0.083,-0.083 0.029,0 0.056,0 0.084,0 0,-0.029 0.015,-0.042 0.042,-0.042 0.028,-0.028 0.056,-0.056 0.083,-0.083 0.028,-0.028 0.058,-0.056 0.085,-0.082 l 0.042,-0.044 c 0,-0.028 0,-0.056 0,-0.083 0.026,-0.028 0.054,-0.056 0.083,-0.083 0.027,-0.027 0.056,-0.055 0.084,-0.082 0.028,-0.03 0.056,-0.058 0.083,-0.085 0,-0.028 0.014,-0.055 0.04,-0.083 0,-0.028 0,-0.057 0,-0.084 0,-0.028 0,-0.055 0,-0.084 V 2.742 C 54.64,2.714 54.68,2.7 54.709,2.7 V 2.658 L 54.752,2.7 V 2.616 c 0.027,0 0.055,0 0.083,0 0.027,0 0.054,-0.012 0.083,-0.042 0.028,0.03 0.056,0.056 0.082,0.084 0.057,0 0.111,0 0.169,0 0.029,0 0.07,0 0.125,0 0.028,-0.028 0.04,-0.054 0.04,-0.083 0.058,0 0.1,0 0.127,0 0.083,0 0.18,0 0.292,0 0.029,0 0.07,0.015 0.125,0.042 0.028,0.028 0.055,0.055 0.083,0.083 0.029,0.029 0.057,0.055 0.084,0.083 0.026,0.029 0.056,0.056 0.083,0.084 0,0.027 0.014,0.057 0.042,0.084 0.03,0.028 0.055,0.041 0.083,0.041 0.028,0.028 0.057,0.055 0.083,0.083 0.028,0.029 0.056,0.057 0.083,0.084 0.027,0.028 0.055,0.056 0.084,0.083 0.027,0.027 0.055,0.056 0.083,0.083 0.028,0.027 0.056,0.056 0.083,0.085 0.03,0.026 0.058,0.054 0.084,0.082 l 0.042,0.042 c 0.029,0.028 0.071,0.041 0.125,0.041 0.028,0.028 0.069,0.055 0.125,0.083 0.028,0.029 0.042,0.056 0.042,0.083 0.012,0.015 0.027,0.028 0.041,0.042 0.014,0.014 0.028,0.028 0.043,0.042 0.03,0.03 0.07,0.057 0.124,0.083 0,0.028 0,0.056 0,0.083 0.056,0.028 0.097,0.042 0.125,0.042 0.028,0.028 0.056,0.057 0.083,0.084 0,0.026 0.014,0.055 0.042,0.083 0.028,0.028 0.041,0.056 0.041,0.084 l 0.043,0.041 c 0.473,0 0.96,0 1.461,0 V 4.287 c 0,-0.029 0,-0.057 0,-0.084 0,-0.027 0,-0.056 0,-0.083 0.03,0 0.056,-0.014 0.083,-0.042 V 4.036 c 0.058,0 0.112,-0.014 0.167,-0.042 0.056,0 0.112,-0.013 0.167,-0.041 0.056,-0.027 0.113,-0.042 0.169,-0.042 0.028,-0.028 0.041,-0.057 0.041,-0.083 0.056,0 0.111,-0.014 0.167,-0.042 0,-0.027 0.015,-0.055 0.041,-0.083 0.03,0 0.056,-0.014 0.084,-0.042 V 3.619 c 0.056,0 0.11,-0.015 0.168,-0.042 0.055,-0.028 0.109,-0.056 0.165,-0.083 0.03,-0.028 0.058,-0.056 0.085,-0.082 0.027,0 0.056,-0.016 0.082,-0.044 h 0.042 C 60.607,3.34 60.663,3.312 60.718,3.285 L 60.761,3.243 V 3.201 c 0.056,0 0.111,-0.014 0.165,-0.042 0.03,-0.028 0.042,-0.056 0.042,-0.084 0.03,0 0.056,-0.013 0.083,-0.041 V 2.992 c 0.057,0 0.097,0 0.126,0 0.028,0 0.068,0.014 0.124,0.042 0.029,0.028 0.043,0.056 0.043,0.085 0,0.027 0.013,0.055 0.041,0.082 0,0.028 0,0.055 0,0.083 0,0.027 0,0.055 0,0.083 v 0.044 c 0,0.026 0,0.054 0,0.082 0,0.028 0,0.056 0,0.083 0,0.027 0.015,0.055 0.042,0.083 0.029,0.029 0.042,0.056 0.042,0.083 0.029,0.028 0.044,0.056 0.044,0.083 0,0.027 0.012,0.056 0.04,0.083 0,0.028 0,0.056 0,0.083 l 0.042,0.042 c 0.029,0.028 0.057,0.057 0.084,0.084 0,0.026 0.014,0.055 0.042,0.083 0.027,0.028 0.042,0.056 0.042,0.084 l 0.041,0.041 c 0.612,0 1.226,0 1.838,0 0,-0.028 0.014,-0.041 0.042,-0.041 0.029,0 0.068,0 0.125,0 v -0.04 c 0.055,0 0.126,0 0.211,0 0.055,0.03 0.109,0.057 0.166,0.084 0.028,0.028 0.055,0.056 0.083,0.083 0,0.028 0.014,0.042 0.04,0.042 0,0.029 0,0.057 0,0.084 v 0.041 c 0.028,0 0.058,0.015 0.084,0.042 0.028,0.027 0.056,0.041 0.084,0.041 0,0.028 0.013,0.056 0.041,0.083 0,0.028 0,0.058 0,0.083 0.017,0.018 0.031,0.03 0.042,0.042 0.028,0.028 0.055,0.056 0.083,0.083 0.028,0.029 0.056,0.057 0.083,0.083 0,0.029 0.013,0.058 0.042,0.084 0,0.028 0.014,0.055 0.042,0.083 0.027,0 0.07,0 0.125,0 V 5.163 c 5.235,0 10.456,0 15.66,0 0.029,-0.028 0.057,-0.056 0.084,-0.083 0.03,0 0.056,-0.014 0.085,-0.043 0.027,-0.027 0.055,-0.055 0.083,-0.083 0.027,-0.027 0.04,-0.055 0.04,-0.083 0.03,-0.029 0.043,-0.057 0.043,-0.083 0.028,-0.028 0.042,-0.056 0.042,-0.083 0,-0.029 0.012,-0.058 0.041,-0.084 0,-0.028 0,-0.056 0,-0.083 0.028,-0.028 0.057,-0.056 0.083,-0.084 0.028,0 0.042,-0.014 0.042,-0.042 0.027,-0.028 0.042,-0.056 0.042,-0.083 0,-0.027 0.013,-0.055 0.041,-0.084 0,-0.027 0,-0.055 0,-0.081 0,-0.03 0,-0.057 0,-0.084 0,-0.029 0,-0.057 0,-0.084 0,-0.027 0,-0.056 0,-0.083 C 81.193,3.885 81.18,3.856 81.18,3.83 c -0.029,0 -0.042,-0.014 -0.042,-0.042 0,-0.027 0,-0.055 0,-0.083 0,-0.029 0,-0.057 0,-0.083 0,-0.029 0,-0.056 0,-0.083 0,-0.027 0,-0.057 0,-0.083 0,-0.029 0,-0.057 0,-0.085 0,-0.028 0,-0.056 0,-0.083 0,-0.028 0,-0.056 0,-0.083 V 3.159 c 0,-0.028 0,-0.056 0,-0.084 0,-0.028 0,-0.055 0,-0.083 0,-0.027 0,-0.056 0,-0.083 0,-0.031 0,-0.058 0,-0.085 0,-0.027 0,-0.055 0,-0.083 0,-0.028 0,-0.057 0,-0.083 0,-0.028 0,-0.054 0,-0.083 V 2.532 c 0,-0.027 0,-0.055 0,-0.083 0,-0.027 0,-0.056 0,-0.084 0,-0.028 0,-0.055 0,-0.083 0.027,-0.028 0.055,-0.056 0.083,-0.084 0.03,-0.026 0.072,-0.041 0.125,-0.041 0.083,0 0.169,-0.015 0.251,-0.042 0.062,0 0.119,-0.014 0.174,-0.042 z m 1.064,0.479 0.021,-0.02 C 82.87,2.519 82.891,2.505 82.919,2.491 h -0.022 c -0.04,0 -0.083,0 -0.124,0 0.014,0.014 0.027,0.029 0.042,0.041 z m -2.567,8.418 c -0.058,0.026 -0.112,0.054 -0.168,0.082 0.083,0 0.168,0 0.25,0 l 0.021,-0.041 C 80.352,10.995 80.331,10.982 80.309,10.97 L 80.287,10.949 Z M 55.605,3.056 c 0.038,0.013 0.074,0.026 0.106,0.04 V 3.075 L 55.628,3.034 Z M 41.887,16.021 c -0.028,0.028 -0.041,0.056 -0.041,0.083 -0.029,0.028 -0.056,0.056 -0.084,0.084 0.029,0.029 0.041,0.057 0.041,0.084 0,0.026 0,0.055 0,0.083 0,0.028 0,0.057 0,0.084 0,0.026 0,0.056 0,0.083 0,0.028 0,0.055 0,0.083 0,0.029 0,0.057 0,0.085 v 0.041 c 0,0.027 0,0.056 0,0.083 0,0.027 0,0.057 0,0.083 0,0.028 0,0.055 0,0.083 0,0.029 0,0.057 0,0.084 -0.026,0.027 -0.041,0.056 -0.041,0.083 -0.028,0.029 -0.04,0.058 -0.04,0.085 -0.028,0.027 -0.042,0.055 -0.042,0.083 l -0.042,0.042 c 0,0.029 -0.014,0.057 -0.042,0.084 v 0.292 c 0,0.028 0,0.057 0,0.083 0,0.028 0,0.056 0,0.083 v 0.042 c 0,0.027 0,0.057 0,0.084 0,0.027 0,0.056 0,0.083 0,0.028 0,0.058 0,0.083 0,0.029 0,0.058 0,0.086 0,0.026 0,0.054 0,0.083 0,0.028 0,0.056 0,0.083 v 0.043 c 0,0.025 0.013,0.054 0.042,0.082 0,0.028 0,0.056 0,0.083 0,0.027 0,0.056 0,0.083 0,0.029 0.013,0.057 0.042,0.084 0,0.029 0.014,0.055 0.042,0.083 0.027,0.028 0.069,0.056 0.125,0.083 0,0.028 0,0.056 0,0.083 0.026,0.028 0.041,0.056 0.041,0.084 v 0.042 c 1.393,0 2.784,0 4.176,0 0.028,0.028 0.07,0.041 0.125,0.041 0.029,0 0.042,0.015 0.042,0.042 0.278,0 0.543,0 0.794,0 0.056,0 0.124,0 0.208,0 0.111,0 0.21,0 0.292,0 0.028,-0.028 0.057,-0.042 0.084,-0.042 0.027,0 0.07,-0.013 0.124,-0.041 0.028,0 0.071,-0.014 0.126,-0.042 0.028,0 0.055,-0.013 0.084,-0.042 0.028,0 0.067,-0.015 0.123,-0.042 0.055,0 0.112,-0.013 0.167,-0.041 0.03,-0.028 0.07,-0.056 0.127,-0.083 0.027,-0.028 0.056,-0.056 0.083,-0.084 0.055,-0.027 0.111,-0.055 0.167,-0.083 0.028,0 0.056,0 0.083,0 0,-0.028 0,-0.057 0,-0.083 0,-0.028 0,-0.056 0,-0.083 0,-0.027 0,-0.056 0,-0.084 0,-0.028 0,-0.055 0,-0.083 0,-0.028 0,-0.056 0,-0.083 v -0.042 c 0,-0.028 0,-0.054 0,-0.083 0,-0.028 0,-0.055 0,-0.083 0,-0.028 0,-0.056 0,-0.083 0,-0.027 0,-0.055 0,-0.083 0,-0.029 0,-0.058 0,-0.085 0,-0.027 0,-0.055 0,-0.083 0,-0.027 0,-0.056 0,-0.083 v -0.042 c 0,-0.027 0,-0.055 0,-0.084 0,-0.026 0,-0.055 0,-0.082 0,-0.029 0,-0.056 0,-0.083 0,-0.027 0,-0.056 0,-0.084 0,-0.028 0,-0.055 0,-0.084 0,-0.026 0,-0.054 0,-0.082 0,-0.029 0,-0.057 0,-0.084 v -0.042 c 0,-0.028 0,-0.056 0,-0.084 0,-0.028 0,-0.055 0,-0.083 0,-0.027 0,-0.056 0,-0.083 0,-0.027 0,-0.057 0,-0.083 0,-0.028 0,-0.056 0,-0.083 0,-0.029 0,-0.058 0,-0.085 0,-0.027 0,-0.056 0,-0.082 V 16.44 c 0,-0.028 0,-0.057 0,-0.084 0,-0.027 0,-0.056 0,-0.083 0,-0.028 0,-0.056 0,-0.084 0,-0.028 0,-0.056 0,-0.084 v -0.292 c 0,-0.028 0,-0.055 0,-0.083 v -0.041 c -1.513,0 -3.024,0 -4.531,0 l -0.02,0.041 c -0.028,0.028 -0.042,0.055 -0.042,0.083 0,0.028 0,0.057 0,0.083 0,0.028 0,0.057 0,0.083 0,0.028 0,0.057 0,0.084 0,0.027 0,0.056 0,0.083 0,0.028 0,0.057 0,0.084 v 0.042 c 0,0.026 0.015,0.055 0.042,0.083 0,0.028 0.014,0.057 0.042,0.084 0,0.026 0,0.056 0,0.083 0,0.028 0,0.055 0,0.083 0,0.029 0,0.057 0,0.085 0.028,0.028 0.055,0.055 0.083,0.083 0,0.027 0,0.055 0,0.084 l 0.042,0.041 c 0,0.028 0.014,0.055 0.042,0.083 0.028,0.029 0.056,0.057 0.083,0.084 0.027,0.027 0.042,0.056 0.042,0.083 0.028,0.029 0.043,0.058 0.043,0.085 0.027,0.027 0.04,0.055 0.04,0.083 0.028,0.028 0.07,0.055 0.125,0.083 0,0.028 0,0.056 0,0.083 l 0.042,0.042 c 0,0.027 0.014,0.056 0.041,0.082 0.028,0.029 0.056,0.057 0.083,0.084 0.03,0.028 0.056,0.056 0.084,0.084 0.029,0.028 0.041,0.056 0.041,0.083 0.028,0.028 0.056,0.04 0.084,0.04 0.028,0.028 0.056,0.042 0.083,0.042 0.027,0 0.069,0.014 0.125,0.043 0.03,0.028 0.042,0.056 0.042,0.083 0.028,0.028 0.042,0.055 0.042,0.083 0,0.028 0,0.056 0,0.083 0,0.03 0,0.056 0,0.083 l -0.042,0.042 c -0.027,0.028 -0.042,0.056 -0.042,0.083 h -0.041 c 0,0.028 0,0.055 0,0.083 l -0.042,0.042 c -0.028,0.028 -0.042,0.056 -0.042,0.083 H 45.1 c -0.026,0.028 -0.054,0.042 -0.083,0.042 -0.112,0 -0.209,0 -0.292,0 -0.056,-0.028 -0.097,-0.042 -0.124,-0.042 -0.029,-0.028 -0.043,-0.056 -0.043,-0.083 h -0.04 C 44.46,18.536 44.406,18.522 44.35,18.522 44.293,18.494 44.238,18.467 44.183,18.439 44.155,18.411 44.141,18.383 44.141,18.356 H 44.099 C 44.043,18.327 44.002,18.314 43.974,18.314 43.918,18.286 43.876,18.26 43.848,18.231 43.821,18.203 43.792,18.176 43.765,18.148 43.707,18.119 43.667,18.106 43.638,18.106 43.611,18.079 43.583,18.051 43.556,18.023 43.528,17.995 43.5,17.966 43.471,17.939 43.444,17.911 43.415,17.884 43.388,17.856 43.36,17.828 43.332,17.8 43.305,17.773 43.278,17.744 43.249,17.716 43.221,17.689 43.193,17.662 43.166,17.634 43.138,17.605 43.11,17.579 43.096,17.55 43.096,17.523 c -0.028,0 -0.042,-0.015 -0.042,-0.042 -0.027,-0.028 -0.041,-0.056 -0.041,-0.083 -0.03,-0.029 -0.057,-0.056 -0.085,-0.083 0,-0.028 0,-0.056 0,-0.083 0,-0.028 0,-0.057 0,-0.085 -0.028,-0.027 -0.042,-0.056 -0.042,-0.083 0,-0.028 0,-0.056 0,-0.084 -0.027,-0.028 -0.041,-0.055 -0.041,-0.083 v -0.041 c 0,-0.029 0,-0.057 0,-0.084 0,-0.028 -0.014,-0.055 -0.042,-0.083 0,-0.028 -0.015,-0.056 -0.042,-0.085 -0.028,-0.028 -0.042,-0.055 -0.042,-0.083 0,-0.027 0,-0.056 0,-0.083 0,-0.028 0,-0.057 0,-0.084 0,-0.027 0,-0.056 0,-0.083 v -0.042 c -0.029,-0.028 -0.042,-0.057 -0.042,-0.084 0,-0.027 -0.014,-0.056 -0.042,-0.083 0,-0.028 0,-0.057 0,-0.084 0,-0.027 0,-0.056 0,-0.083 0,-0.027 0,-0.056 0,-0.083 0,-0.027 0,-0.055 0,-0.083 v -0.041 c -0.056,0 -0.111,0 -0.167,0 -0.028,0.026 -0.056,0.041 -0.085,0.041 -0.056,0.028 -0.109,0.055 -0.165,0.083 -0.055,0.028 -0.112,0.042 -0.167,0.042 -0.029,0.029 -0.056,0.055 -0.083,0.084 -0.024,0.028 -0.053,0.056 -0.081,0.083 z m 2.653,2.026 -0.02,0.021 0.04,0.042 V 18.068 Z M 23.052,14.895 h 0.021 c 0.076,-0.003 0.153,-0.017 0.231,-0.041 0.055,0 0.109,-0.017 0.165,-0.043 0.029,0 0.057,-0.013 0.084,-0.041 0.056,0 0.111,-0.015 0.167,-0.042 0.139,-0.028 0.265,-0.057 0.375,-0.084 0.111,-0.028 0.209,-0.069 0.292,-0.126 0.056,-0.027 0.112,-0.055 0.167,-0.082 0.055,0 0.111,-0.015 0.167,-0.042 0.112,-0.028 0.209,-0.056 0.294,-0.083 0.025,-0.014 0.045,-0.027 0.061,-0.042 0.027,-0.027 0.048,-0.054 0.063,-0.083 0.056,-0.029 0.111,-0.07 0.167,-0.127 0.056,-0.028 0.112,-0.055 0.167,-0.083 -7.517,0 -15.02,0 -22.508,0 0,0.028 -0.015,0.055 -0.044,0.083 v 0.022 c -0.012,0 -0.027,0.006 -0.04,0.021 H 2.84 c -0.028,0 -0.056,0.014 -0.083,0.042 l -0.083,0.084 v 0.041 c -0.028,0 -0.042,0.015 -0.042,0.042 v 0.042 c -0.028,0 -0.041,0.014 -0.041,0.042 v 0.669 c 0,0.028 0.013,0.04 0.041,0.04 v 3.049 c -0.028,0 -0.041,0.016 -0.041,0.041 v 0.586 c -0.028,0 -0.042,0.014 -0.042,0.042 v 1.377 c 0,0.028 0.015,0.043 0.042,0.043 v 0.083 h 0.041 v 0.124 c 0,0.028 0.015,0.041 0.042,0.041 v 0.084 h 0.041 v 0.042 l 0.042,0.042 V 20.7 H 2.8 c 0.026,0.027 0.055,0.041 0.083,0.041 0.028,0 0.04,0.015 0.04,0.042 0.029,0 0.057,0 0.085,0 H 3.09 v 0.041 c 0,0.056 -0.013,0.099 -0.041,0.127 0,0.032 -0.007,0.059 -0.021,0.083 0.022,0 0.043,0 0.063,0 0.028,0.027 0.042,0.057 0.042,0.084 l 0.043,0.041 v 0.042 c 0,0.027 -0.014,0.055 -0.043,0.083 0,0.027 -0.014,0.056 -0.042,0.083 -0.028,0 -0.07,0.014 -0.124,0.042 -0.049,0 -0.092,0 -0.126,0 -0.016,0.016 -0.03,0.03 -0.041,0.041 0,0.024 0,0.047 0,0.063 0.037,-0.001 0.08,-0.009 0.123,-0.021 0.029,0 0.057,-0.013 0.085,-0.042 0.055,0 0.111,-0.015 0.168,-0.041 0.082,0 0.166,-0.015 0.25,-0.042 0.055,0 0.11,-0.014 0.167,-0.042 0.027,0 0.056,-0.014 0.083,-0.041 0.056,0 0.111,-0.016 0.167,-0.042 0.084,-0.03 0.167,-0.056 0.25,-0.084 0.084,-0.027 0.167,-0.069 0.251,-0.125 0.056,-0.028 0.111,-0.055 0.167,-0.083 0.056,0 0.111,-0.015 0.167,-0.042 0.083,0 0.167,-0.014 0.251,-0.043 0.055,0 0.11,-0.015 0.166,-0.042 0.028,0 0.057,-0.012 0.083,-0.041 0.056,0 0.112,-0.013 0.168,-0.042 0.083,-0.028 0.166,-0.055 0.25,-0.083 0.112,-0.03 0.223,-0.07 0.334,-0.125 0.083,-0.029 0.168,-0.057 0.252,-0.084 0.054,0 0.11,-0.015 0.165,-0.042 0.083,-0.027 0.168,-0.055 0.25,-0.082 0.084,-0.03 0.167,-0.056 0.252,-0.083 0.082,-0.028 0.165,-0.058 0.25,-0.084 C 7.183,20.129 7.266,20.1 7.35,20.073 7.433,20.045 7.515,20.017 7.6,19.99 7.683,19.961 7.767,19.934 7.85,19.906 7.933,19.88 8.016,19.852 8.1,19.824 8.183,19.795 8.266,19.767 8.35,19.74 8.433,19.711 8.517,19.683 8.6,19.657 8.684,19.629 8.768,19.6 8.85,19.573 c 0.084,0 0.167,-0.013 0.251,-0.042 0.111,0 0.223,-0.015 0.333,-0.042 0.029,0 0.057,-0.014 0.084,-0.041 0.056,0 0.111,-0.015 0.167,-0.042 0.083,0 0.168,-0.014 0.252,-0.041 0.081,-0.028 0.165,-0.057 0.248,-0.084 0.084,-0.028 0.168,-0.069 0.25,-0.125 0.087,-0.029 0.168,-0.057 0.252,-0.084 0.083,-0.028 0.167,-0.056 0.25,-0.083 0.084,-0.028 0.169,-0.069 0.25,-0.125 0.057,-0.027 0.111,-0.055 0.167,-0.083 0.084,-0.028 0.154,-0.057 0.21,-0.083 0.083,-0.028 0.154,-0.07 0.209,-0.126 0.055,-0.028 0.111,-0.057 0.165,-0.082 0.028,0 0.056,-0.015 0.084,-0.043 0.055,0 0.112,-0.015 0.167,-0.042 0.084,0 0.168,-0.013 0.25,-0.041 0.196,-0.029 0.391,-0.057 0.585,-0.083 0.084,-0.028 0.167,-0.071 0.251,-0.127 0.083,-0.029 0.167,-0.056 0.249,-0.083 0.084,-0.027 0.169,-0.055 0.251,-0.083 0.084,-0.029 0.168,-0.058 0.252,-0.085 0.083,0 0.165,-0.012 0.248,-0.04 0.058,0 0.112,-0.015 0.169,-0.042 0.028,0 0.054,-0.013 0.083,-0.041 0.056,0 0.112,-0.015 0.167,-0.042 0.083,-0.028 0.168,-0.054 0.25,-0.083 0.083,-0.028 0.166,-0.056 0.25,-0.083 0.083,-0.029 0.166,-0.056 0.251,-0.083 0.082,-0.028 0.167,-0.056 0.25,-0.083 0.083,0 0.167,-0.013 0.25,-0.042 0.084,-0.028 0.167,-0.055 0.25,-0.084 0.083,-0.026 0.168,-0.068 0.252,-0.125 0.082,-0.027 0.166,-0.056 0.25,-0.083 0.082,0 0.165,-0.015 0.25,-0.041 0.138,-0.028 0.263,-0.057 0.375,-0.085 0.111,-0.027 0.209,-0.068 0.293,-0.125 0.082,-0.028 0.166,-0.057 0.25,-0.083 0.083,-0.028 0.167,-0.056 0.25,-0.083 0.084,-0.029 0.168,-0.058 0.25,-0.085 0.084,-0.027 0.168,-0.056 0.252,-0.082 0.082,-0.029 0.166,-0.056 0.25,-0.086 0.083,-0.027 0.168,-0.055 0.25,-0.082 0.056,-0.028 0.111,-0.069 0.167,-0.125 0.056,-0.028 0.111,-0.069 0.167,-0.125 0.029,-0.016 0.057,-0.028 0.083,-0.042 0.029,-0.015 0.058,-0.028 0.083,-0.042 0.026,0 0.055,-0.013 0.083,-0.041 0.057,0 0.112,-0.015 0.168,-0.042 0.023,0 0.042,0 0.063,0 0.063,-0.007 0.125,-0.021 0.187,-0.042 0.112,0 0.225,-0.014 0.335,-0.042 0.027,0 0.056,-0.014 0.083,-0.041 0.057,0 0.111,-0.014 0.166,-0.042 0.084,-0.029 0.168,-0.056 0.252,-0.083 0.11,-0.03 0.222,-0.07 0.333,-0.126 0.112,-0.028 0.224,-0.069 0.333,-0.125 0.057,-0.027 0.113,-0.055 0.168,-0.083 l 0.063,-0.021 0.021,-0.022 c 0.02,0 0.041,0 0.064,0 l 0.855,-0.292 c 0.096,-0.033 0.179,-0.061 0.261,-0.089 z m 8.499,-0.021 c -0.11,0.021 -0.229,0.042 -0.355,0.063 -0.056,0.056 -0.125,0.096 -0.208,0.126 -0.083,0.028 -0.167,0.055 -0.25,0.083 0.043,0 0.084,0 0.126,0 0.199,0 0.394,0 0.584,0 0.028,0 0.069,0 0.125,0 0.028,0 0.056,0 0.083,0 l 0.042,0.042 c 0.046,0 0.088,0 0.125,0 -0.056,-0.057 -0.11,-0.113 -0.167,-0.168 -0.017,-0.034 -0.037,-0.067 -0.063,-0.104 -0.014,-0.014 -0.026,-0.028 -0.042,-0.042 z"
   id="path138" />
		</g>
	</g>
</g>

</svg>
