<?xml version="1.0" encoding="UTF-8" standalone="no"?>
<!-- Generator: Adobe Illustrator 16.0.0, SVG Export Plug-In . SVG Version: 6.00 Build 0)  -->

<svg
   version="1.1"
   x="0px"
   y="0px"
   width="19.833"
   height="32"
   viewBox="0 0 19.833 32"
   enable-background="new 0 0 19.833 32"
   xml:space="preserve"
   id="svg17"
   xmlns="http://www.w3.org/2000/svg"
   xmlns:svg="http://www.w3.org/2000/svg"><defs
   id="defs21" />
<g
   id="Selected_Items">
	<g
   id="g13">
		<g
   id="Selected_Items_61_">
			<g
   id="g6">
				
					<rect
   x="5.987"
   y="8.875"
   fill-rule="evenodd"
   clip-rule="evenodd"
   fill="#FFFFFF"
   fill-opacity="0.4"
   width="10.156"
   height="3.0639999"
   id="rect2"
   style="fill:#e7ad41;fill-opacity:0.4" />
				<path
   fill-rule="evenodd"
   clip-rule="evenodd"
   fill="#FFFFFF"
   d="M 16.143,8.875 H 5.987 v 3.064 h 10.156 z m 2.637,2.495 h 0.535 c 0.333,0 0.499,0.167 0.499,0.499 v 4.739 c 0,0.333 -0.166,0.499 -0.499,0.499 H 18.78 v 9.479 c 0,0.665 -0.333,0.998 -0.998,0.998 H 4.455 c -0.665,0 -0.998,-0.333 -0.998,-0.998 V 7.842 C 3.457,7.177 3.79,6.844 4.455,6.844 H 9.123 V 6.167 C 9.123,6.096 9.159,6.06 9.23,6.06 H 9.693 C 9.764,6.06 9.8,6.096 9.8,6.167 v 0.677 h 7.982 c 0.665,0 0.998,0.333 0.998,0.998 z M 8.125,14.862 v 9.479 h 8.018 v -9.479 z"
   id="path4"
   style="fill:#ffd78e;fill-opacity:1" />
			</g>
			<path
   fill-rule="evenodd"
   clip-rule="evenodd"
   fill="#FFFFFF"
   d="m 10.619,21.989 c 0.095,0 0.143,0.048 0.143,0.143 v 0.891 c 0,0.071 -0.047,0.107 -0.143,0.107 H 9.657 c -0.119,0 -0.178,-0.036 -0.178,-0.107 v -0.891 c 0,-0.095 0.059,-0.143 0.178,-0.143 z m 2.103,0 c 0.119,0 0.178,0.048 0.178,0.143 v 0.891 c 0,0.071 -0.06,0.107 -0.178,0.107 H 11.76 c -0.095,0 -0.143,-0.036 -0.143,-0.107 v -0.891 c 0,-0.095 0.048,-0.143 0.143,-0.143 z m 2.138,1.14 h -0.962 c -0.119,0 -0.178,-0.036 -0.178,-0.107 v -0.891 c 0,-0.095 0.06,-0.143 0.178,-0.143 h 0.962 c 0.119,0 0.178,0.048 0.178,0.143 v 0.891 c 0,0.071 -0.059,0.107 -0.178,0.107 z M 15.038,20.1 v 0.891 c 0,0.071 -0.06,0.107 -0.178,0.107 h -0.962 c -0.119,0 -0.178,-0.036 -0.178,-0.107 V 20.1 c 0,-0.119 0.06,-0.178 0.178,-0.178 h 0.962 c 0.119,0 0.178,0.059 0.178,0.178 z m -1.319,-2.066 c 0,-0.095 0.06,-0.143 0.178,-0.143 h 0.962 c 0.119,0 0.178,0.048 0.178,0.143 v 0.891 c 0,0.071 -0.06,0.107 -0.178,0.107 h -0.962 c -0.119,0 -0.178,-0.036 -0.178,-0.107 z m -2.102,2.957 V 20.1 c 0,-0.119 0.048,-0.178 0.143,-0.178 h 0.962 c 0.119,0 0.178,0.06 0.178,0.178 v 0.891 c 0,0.071 -0.06,0.107 -0.178,0.107 H 11.76 c -0.095,0 -0.143,-0.035 -0.143,-0.107 z m -2.138,0 V 20.1 c 0,-0.119 0.059,-0.178 0.178,-0.178 h 0.962 c 0.095,0 0.143,0.06 0.143,0.178 v 0.891 c 0,0.071 -0.047,0.107 -0.143,0.107 H 9.657 c -0.119,0 -0.178,-0.035 -0.178,-0.107 z m 1.283,-2.067 c 0,0.071 -0.047,0.107 -0.143,0.107 H 9.657 c -0.119,0 -0.178,-0.036 -0.178,-0.107 v -0.891 c 0,-0.095 0.059,-0.143 0.178,-0.143 h 0.962 c 0.095,0 0.143,0.048 0.143,0.143 z m 0.855,-0.89 c 0,-0.095 0.048,-0.143 0.143,-0.143 h 0.962 c 0.119,0 0.178,0.048 0.178,0.143 v 0.891 c 0,0.071 -0.06,0.107 -0.178,0.107 H 11.76 c -0.095,0 -0.143,-0.036 -0.143,-0.107 z M 9.657,17 C 9.538,17 9.479,16.952 9.479,16.857 v -0.855 c 0,-0.095 0.059,-0.143 0.178,-0.143 h 0.962 c 0.095,0 0.143,0.048 0.143,0.143 v 0.855 c 0,0.095 -0.047,0.143 -0.143,0.143 z m 4.24,0 c -0.119,0 -0.178,-0.048 -0.178,-0.143 v -0.855 c 0,-0.095 0.06,-0.143 0.178,-0.143 h 0.962 c 0.119,0 0.178,0.048 0.178,0.143 v 0.855 c 0,0.095 -0.06,0.143 -0.178,0.143 z M 12.9,16.857 C 12.9,16.952 12.84,17 12.722,17 H 11.76 c -0.095,0 -0.143,-0.048 -0.143,-0.143 v -0.855 c 0,-0.095 0.048,-0.143 0.143,-0.143 h 0.962 c 0.119,0 0.178,0.048 0.178,0.143 z"
   id="path8"
   style="fill:#e7ad41;fill-opacity:1" />
			<path
   fill-rule="evenodd"
   clip-rule="evenodd"
   fill="#FFFFFF"
   d="M 3.578,20.49 C 3.15,20.49 2.53,20.424 2.174,20.376 1.746,20.281 1.366,20.032 1.034,19.627 0.701,19.224 0.44,18.523 0.25,17.525 0.083,16.575 0,15.209 0,13.427 0,12.952 0,12.453 0,11.93 0,11.384 0,10.826 0,10.255 0,9.78 0.06,9.21 0.178,8.545 0.297,7.904 0.511,7.25 0.82,6.585 0.867,6.466 0.926,6.347 0.998,6.229 1.117,6.015 1.295,5.825 1.533,5.659 1.794,5.469 2.009,5.303 2.175,5.16 2.768,4.756 3.54,4.53 4.49,4.483 c 0.286,0 0.499,0.012 0.642,0.036 0.618,0 1.199,0.036 1.746,0.107 0.594,0.071 1.069,0.178 1.425,0.321 0.642,0.214 0.9,0.356 1.057,0.512 0.157,0.156 0.219,0.328 0.219,0.328 0,0 0.094,0.359 0.094,0.406 l -0.4,0.297 c 0,-0.044 0,-0.102 0,-0.169 C 9.273,6.163 9.177,5.989 9.11,5.832 9.063,5.697 8.74,5.527 8.138,5.324 7.804,5.189 7.358,5.087 6.8,5.02 6.287,4.952 5.741,4.918 5.162,4.918 5.027,4.896 4.827,4.884 4.558,4.884 3.667,4.93 2.942,5.143 2.385,5.527 2.229,5.663 2.028,5.82 1.783,6.001 1.56,6.159 1.392,6.34 1.281,6.542 1.214,6.655 1.157,6.769 1.114,6.881 0.823,7.513 0.623,8.133 0.511,8.743 0.4,9.374 0.343,9.916 0.343,10.367 c 0,0.542 0,1.071 0,1.591 0,0.496 0,0.97 0,1.421 0,1.692 0.079,2.99 0.234,3.893 0.179,0.947 0.425,1.613 0.737,1.996 0.311,0.384 0.668,0.621 1.07,0.711 0.334,0.045 0.776,0.089 1.178,0.089 z"
   id="path10"
   style="fill:#ffd78e;fill-opacity:1" />
		</g>
	</g>
</g>

</svg>
