<?xml version="1.0" encoding="UTF-8" standalone="no"?>
<!-- Generator: Adobe Illustrator 16.0.0, SVG Export Plug-In . SVG Version: 6.00 Build 0)  -->

<svg
   version="1.1"
   x="0px"
   y="0px"
   width="52.875"
   height="38"
   viewBox="0 0 52.875 38"
   enable-background="new 0 0 47.875 32"
   xml:space="preserve"
   id="svg275"
   xmlns="http://www.w3.org/2000/svg"
   xmlns:svg="http://www.w3.org/2000/svg"><defs
   id="defs279" />
<g
   id="Selected_Items"
   transform="translate(0,6)">
	<g
   id="g271">
		<g
   id="Selected_Items_5_">
			<path
   fill-rule="evenodd"
   clip-rule="evenodd"
   fill="#ffffff"
   d="M 8.387,1.282 V 1.474 L 8.771,1.513 V 1.935 L 35.968,1.858 V 1.625 l 0.23,-0.152 0.806,0.039 0.461,0.269 v 0.153 h 0.192 v 0.422 l 0.346,0.268 h 0.537 l 0.077,0.079 c 0.08,0.051 0.129,0.102 0.156,0.154 0.025,0.051 0.038,0.114 0.038,0.189 0,0.026 0,0.052 0,0.077 h 8.528 l 0.077,0.079 c 0.025,0.05 0.051,0.125 0.076,0.229 0.128,0.258 0.194,0.565 0.194,0.923 0,0.356 -0.038,0.704 -0.117,1.037 -0.052,0.178 -0.102,0.307 -0.153,0.384 L 38.733,5.813 38.58,6.159 H 37.813 V 7.656 C 37.762,7.81 37.71,7.913 37.659,7.963 37.607,8.041 37.557,8.092 37.506,8.117 L 37.43,8.156 h -5.765 l -0.191,0.423 h 0.538 c 0.436,0.051 0.822,0.153 1.152,0.309 0.334,0.152 0.628,0.319 0.885,0.499 0.126,0.101 0.217,0.177 0.267,0.229 L 34.163,9.81 h -3.266 l 5.454,18.859 -0.306,0.153 0.077,0.04 c 0.077,0.024 0.151,0.05 0.229,0.076 0.104,0.051 0.207,0.128 0.308,0.231 v 0.459 c -0.025,0.026 -0.062,0.065 -0.113,0.117 -0.128,0.076 -0.296,0.153 -0.5,0.231 -0.179,0.101 -0.356,0.176 -0.537,0.229 l -0.193,0.039 h -0.538 l -0.079,0.229 h -1.305 v 0.422 H 30.513 V 30.512 L 24.674,9.886 24.328,9.654 l -0.537,0.999 -0.038,0.883 h 0.114 l 0.039,0.153 0.152,0.041 v 2.458 l -0.152,0.039 v 0.153 l -1.459,0.5 c -0.436,0.154 -0.947,0.308 -1.537,0.461 -1.154,0.307 -2.101,0.422 -2.843,0.347 -0.665,-0.077 -1.344,-0.23 -2.037,-0.463 -0.205,-0.051 -0.408,-0.113 -0.614,-0.191 l -0.191,-0.116 -0.424,0.347 -0.654,0.193 -0.153,0.267 -1.383,3.303 c -0.974,2.408 -1.625,4.034 -1.958,4.88 -0.053,0.128 -0.077,0.244 -0.077,0.346 -0.026,0.155 -0.026,0.333 0,0.536 0.024,0.335 0.087,0.769 0.191,1.307 l 0.729,0.039 c 0.128,0.026 0.219,0.05 0.268,0.076 0.077,0.029 0.152,0.079 0.232,0.156 0.026,0.051 0.049,0.089 0.077,0.114 l -0.039,0.076 -0.422,0.384 c -0.36,0.282 -0.706,0.487 -1.037,0.615 -0.36,0.129 -0.833,0.242 -1.421,0.348 L 8.384,28.018 1.701,28.095 1.47,27.829 1.393,27.059 0.856,26.943 c -0.153,0 -0.257,-0.025 -0.309,-0.077 -0.05,0 -0.088,-0.024 -0.114,-0.076 L 0.397,26.71 C 0.397,26.582 0.384,26.428 0.359,26.247 0.308,26.121 0.27,26.004 0.246,25.902 0.217,25.722 0.207,25.456 0.207,25.096 c 0,-0.359 0.039,-0.704 0.113,-1.037 L 3.739,14.878 C 3.919,14.649 4.097,14.391 4.277,14.11 4.661,13.546 4.879,13.188 4.931,13.036 5.008,12.778 5.058,12.572 5.083,12.419 5.135,12.189 5.121,11.959 5.045,11.728 4.968,11.446 4.839,11.153 4.66,10.845 4.507,10.564 4.314,10.294 4.084,10.037 3.906,9.859 3.611,9.616 3.202,9.31 L 2.666,8.888 V 8.233 c 0.127,0 0.28,-0.05 0.46,-0.153 C 3.51,7.9 3.854,7.631 4.161,7.272 4.47,6.888 4.686,6.478 4.814,6.045 4.84,5.915 4.866,5.788 4.892,5.66 V 5.505 C 4.866,5.481 4.84,5.441 4.814,5.391 4.738,5.288 4.648,5.199 4.546,5.123 4.443,5.047 4.316,4.994 4.161,4.968 L 3.97,4.891 C 3.868,4.915 3.766,4.929 3.663,4.929 3.406,4.905 3.216,4.839 3.087,4.737 2.908,4.635 2.792,4.495 2.741,4.316 2.64,4.084 2.64,3.829 2.741,3.546 2.844,3.239 3.036,3.046 3.318,2.97 c 0.179,-0.051 0.371,-0.051 0.575,0 0.078,0 0.231,0.127 0.463,0.384 0.126,0.128 0.243,0.257 0.342,0.386 V 4.162 L 4.892,4.392 4.932,3.93 C 4.957,3.803 4.984,3.674 5.009,3.546 5.085,3.264 5.199,3.035 5.354,2.857 5.482,2.675 5.699,2.51 6.006,2.357 6.16,2.28 6.301,2.229 6.429,2.204 V 1.934 H 7.657 V 1.282 Z m 9.795,8.68 c -0.204,0.024 -0.434,0.088 -0.691,0.19 -0.537,0.23 -0.984,0.565 -1.343,1.001 -0.361,0.433 -0.588,0.919 -0.692,1.46 -0.077,0.281 -0.116,0.508 -0.116,0.69 l 0.039,0.152 c 0.05,0.128 0.115,0.258 0.191,0.386 0.23,0.409 0.615,0.754 1.153,1.036 0.333,0.18 0.794,0.294 1.382,0.345 0.64,0.079 1.204,0.066 1.69,-0.037 1.076,-0.256 1.984,-0.653 2.728,-1.189 0.179,-0.154 0.331,-0.332 0.459,-0.54 0.077,-0.128 0.142,-0.282 0.192,-0.46 0.028,-0.101 0.038,-0.434 0.038,-1 0,-0.562 -0.024,-0.96 -0.077,-1.189 C 23.112,10.652 22.957,10.383 22.675,9.999 22.394,9.643 22.163,9.411 21.985,9.309 21.754,9.181 21.538,9.13 21.332,9.156 c -0.155,0 -0.345,0.037 -0.578,0.113 -0.153,0.053 -0.283,0.155 -0.382,0.308 l -0.117,0.193 0.193,0.039 -0.038,0.384 c -0.026,0.024 -0.052,0.061 -0.078,0.113 -0.077,0.128 -0.14,0.245 -0.191,0.346 -0.18,0.384 -0.27,0.745 -0.27,1.076 0,0.359 0.041,0.666 0.118,0.921 0.049,0.154 0.166,0.387 0.344,0.693 0.103,0.178 0.332,0.371 0.693,0.575 0.176,0.102 0.356,0.18 0.537,0.231 v 0.19 c -0.23,0.026 -0.5,-0.011 -0.808,-0.114 -0.589,-0.18 -1.05,-0.499 -1.382,-0.959 -0.177,-0.281 -0.308,-0.704 -0.383,-1.27 -0.026,-0.178 -0.051,-0.37 -0.078,-0.574 V 11.19 c -0.025,-0.103 -0.05,-0.23 -0.077,-0.384 -0.077,-0.256 -0.127,-0.398 -0.154,-0.424 -0.05,-0.05 -0.152,-0.14 -0.307,-0.268 z"
   id="path268" />
		</g>
	</g>
</g>

</svg>
