<?xml version="1.0" encoding="UTF-8" standalone="no"?>
<!-- Generator: Adobe Illustrator 16.0.0, SVG Export Plug-In . SVG Version: 6.00 Build 0)  -->

<svg
   version="1.1"
   x="0px"
   y="0px"
   width="65.75"
   height="40.700001"
   viewBox="0 0 65.75 40.700001"
   enable-background="new 0 0 50.75 32"
   xml:space="preserve"
   id="svg9"
   xmlns="http://www.w3.org/2000/svg"
   xmlns:svg="http://www.w3.org/2000/svg"><defs
   id="defs13" />
<g
   id="Selected_Items"
   transform="translate(0.04796786,5.5203213)">
	<g
   id="g5">
		<g
   id="Selected_Items_6_">
			<path
   fill-rule="evenodd"
   clip-rule="evenodd"
   fill="#ffffff"
   d="m 52.656225,3.8956343 c 0.0588,0.02755 0.147,0.0399 0.26565,0.0399 l -0.04305,0.9633 0.17745,1.32715 c -0.06195,0.2679 -0.1491,0.54815 -0.26565,0.84265 -0.05985,0.26885 -0.1491,0.52155 -0.2688,0.76285 -0.08715,0.34865 -0.1764,0.64315 -0.26355,0.88445 -0.1785,0.6688 -0.35595,1.178 -0.5334,1.5275997 -0.1491,0.3477 -0.252,0.6023 -0.31185,0.76285 -0.08715,0.133 -0.16275,0.21375 -0.22155,0.24035 -0.03045,0.05415 -0.0735,0.0817 -0.1323,0.0817 h -20.46975 c -0.0294,0 -0.23625,0.0399 -0.6216,0.1197 -0.4158,0.16055 -0.87255,0.4579 -1.3776,0.88255 -0.4431,0.4028 -0.85785,0.99275 -1.2432,1.76795 -0.4431,0.7505 -0.66675,1.79455 -0.66675,3.13405 v 0.44175 h -1.13715 c -0.0294,0.0247 -0.3234,0.0931 -0.88725,0.19855 -0.53235,0.1083 -1.1823,0.18905 -1.953,0.2432 -0.74235,0.08075 -1.554,0.11875 -2.44335,0.11875 -0.8883,-0.02565 -1.65585,-0.1463 -2.30895,-0.3629 -0.2079,0.05605 -0.47355,0.23085 -0.79905,0.52535 -0.35595,0.3458 -0.5481,0.722 -0.57645,1.12195 -0.0315,0.24225 -0.1176,0.73815 -0.2688,1.4877 -0.147,0.77615 -0.3234,1.59315 -0.5313,2.45005 -0.17745,0.8569 -0.32655,1.64635 -0.44205,2.3712 -0.1806,0.69635 -0.2814,1.0982 -0.3108,1.2046 l 0.7098,1.80785 h -0.1344 c -1.3923,0.15865 -2.8119,0.3078 -4.263,0.44175 -1.24005,0.07885 -2.5872,0.14725 -4.03935,0.2014 -0.4011,0.0247 -1.8081,-0.0399 -3.16785,-0.2014 -0.0882,0 -0.19215,-0.01235 -0.31185,-0.0418 -0.2373,-0.07885 -0.4137,-0.2128 -0.53025,-0.39995 -0.17955,-0.2679 -0.26775,-0.74955 -0.26775,-1.4459 0,-0.42845 0.0441,-0.97755 0.1323,-1.6492 0.11865,-0.64125 0.33915,-1.39175 0.6657,-2.2477 0.2667,-0.88445 0.651,-1.91425 1.15605,-3.09415 0.5019,-1.178 1.1382,-2.53175 1.9089,-4.05745 v -0.15865 c 0,-0.08075 0.01365,-0.17575 0.04305,-0.28215 0.03045,-0.1615 0.0462,-0.3363 0.0462,-0.52345 0,-0.53485 -0.1344,-1.0811 -0.4011,-1.6473 -0.23625,-0.53485 -0.84315,-0.8835 -1.81965,-1.0431 -0.0588,0 -0.3108,-0.0114 -0.7539,-0.0399 -0.4746,0 -0.9933,-0.02755 -1.5519,-0.07885 -0.53655,0 -1.05315,-0.01425 -1.5561,-0.0418 -0.4725,0 -0.7266,0 -0.756,0 l -0.1323,-0.11875 v -0.12255 c 0,-0.1311 0.0441,-0.22515 0.1323,-0.2793 0.0882,-0.2945 0.40005,-0.589 0.9345,-0.88445 0.5019,-0.2945 1.42065,-0.589 2.751,-0.88255 0.03045,-0.02755 0.1344,-0.1881 0.31185,-0.4825997 0.1764,-0.2945 0.26775,-0.64315 0.26775,-1.045 0,-0.1596 -0.01575,-0.29355 -0.0462,-0.40185 -0.02835,-0.13395 -0.10395,-0.30685 -0.22155,-0.52155 -0.0882,-0.05605 -0.1911,-0.16055 -0.31185,-0.3211 -0.14805,-0.2147 -0.36855,-0.60325 -0.66465,-1.16755 v -0.76 l 0.8442,-0.20235 c 0.08715,0.0532 0.16275,0.0931 0.22155,0.12065 0.11865,0.1083 0.20685,0.1615 0.26565,0.1615 h 1.5099 c 0,-0.0532 0.06195,-0.1615 0.17745,-0.3211 0.03045,-0.10735 0.0882,-0.20045 0.1764,-0.28025 l 1.3356,-1.0868 c 0.0567,-0.0266 0.1449,-0.0532 0.26355,-0.07885 0.11865,-0.0532 0.22365,-0.10735 0.3129,-0.1615 v -0.60325 c 0,-0.13205 0.0147,-0.3078 0.042,-0.52155 h 1.64325 l 1.15395,1.045 1.95405,-0.0399 0.6657,-0.32205 8.03565,-0.0399 c 0.08925,0.1083 0.16275,0.19855 0.2226,0.2793 0.147,0.1349 0.252,0.2014 0.30975,0.2014 l 10.4349,0.1615 0.1323,0.07885 c 0.0294,0.0532 0.08925,0.07885 0.17745,0.07885 h 0.57645 c 0.0315,-0.0532 0.04515,-0.0912 0.04515,-0.11875 0,-0.05225 0.0147,-0.0931 0.0441,-0.1216 0.0588,-0.0532 0.1176,-0.1045 0.1764,-0.15865 l 11.7222,0.07885 c 0,0.07885 0.01575,0.14915 0.0441,0.2014 0,0.0798 0.0147,0.1463 0.0441,0.2014 0,0.0532 0,0.09215 0,0.1197 h 0.62055 c 0,-0.02755 0.03045,-0.1197 0.0882,-0.2812 0.02835,-0.0532 0.0882,-0.1064 0.1764,-0.1615 h 2.30895 c 0.06195,-0.0247 0.19215,-0.09215 0.40005,-0.19855 0.20685,-0.13585 0.41475,-0.25365 0.6237,-0.36195 0.20475,-0.1349 0.4263,-0.228 0.6636,-0.2812 0.20895,-0.0817 0.3717,-0.1216 0.4893,-0.1216 0.17745,0 0.29715,0.10735 0.35385,0.32205 0.08925,0.2413 0.1344,0.39995 0.1344,0.4826 0.11655,0.07885 0.28035,0.13395 0.4872,0.15865 0.08715,0.02945 0.2058,0.05605 0.3549,0.08265 0,0.02565 0.0294,0.0399 0.08925,0.0399 z m -31.78875,8.0331997 c -0.2961,0 -0.54705,0.08075 -0.75705,0.24225 -0.17535,0.1862 -0.26355,0.4161 -0.26355,0.6821 v 2.9336 c 0,0.24035 0.08925,0.46645 0.26355,0.68305 0.20895,0.16055 0.4599,0.2394 0.75705,0.2394 h 3.4629 c 0.2961,0 0.54705,-0.07885 0.7539,-0.2394 0.23625,-0.2166 0.35595,-0.4427 0.35595,-0.68305 v -2.9336 c 0,-0.266 -0.1197,-0.49495 -0.35595,-0.6821 -0.20685,-0.16055 -0.4578,-0.24225 -0.7539,-0.24225 z"
   id="path2"
   style="stroke-width:0.998749" />
		</g>
	</g>
</g>

</svg>
