<?xml version="1.0" encoding="UTF-8" standalone="no"?>
<svg
   height="42.849998"
   width="31.1"
   version="1.1"
   id="svg13"
   xmlns:xlink="http://www.w3.org/1999/xlink"
   xmlns="http://www.w3.org/2000/svg"
   xmlns:svg="http://www.w3.org/2000/svg">
  <g
     transform="translate(3.5,7.1)"
     id="g4">
    <use
       data-characterId="371"
       height="36.849998"
       transform="translate(-3.5,-1.1)"
       width="31.1"
       xlink:href="#shape0"
       id="use2" />
  </g>
  <defs
     id="defs11">
    <g
       id="shape0"
       transform="translate(3.5,1.1)">
      <path
         d="m 10.55,8.15 v -2 Q 9.35,6 9.35,5 9.35,4.35 9.8,4.15 L 10.8,4 h 5.5 l 4.65,7.45 V 27.2 L 18.6,28.35 17.85,28.2 q -0.25,-0.45 0.2,-0.85 0.4,-0.35 1.2,-0.8 l 0.7,-0.35 V 12.15 l -2,-1.15 v 2.35 l -1.2,1.1 v 2.35 h -0.5 v 2.4 h 0.5 v 2.5 h -0.5 v 2.4 h 0.5 v 2.5 h -0.5 V 29 h 0.5 v 2.3 l 1.2,2.05 v 1.7 q 0,0.7 -0.7,0.7 h -8.9 q -0.7,0 -0.7,-0.7 v -1.7 L 8.8,31.3 V 29 H 9.35 V 26.6 H 8.8 V 24.1 H 9.35 V 21.7 H 8.8 V 19.2 H 9.35 V 16.8 H 8.8 v -2.35 l -1.15,-1.1 v -3.2 q 0,-0.7 0.7,-0.7 h 0.7 l 1.5,-1.3"
         fill="#ffffff"
         fill-rule="evenodd"
         stroke="none"
         id="path6" />
      <path
         d="M 4.15,-1.1 V 2 L 6.8,0.45 7.9,2.35 5.15,3.95 7.9,5.55 6.8,7.45 4.15,5.95 v 3.1 H 1.9 V 5.85 L -0.9,7.45 -2,5.55 0.8,3.95 -2,2.35 -0.9,0.45 1.9,2.1 v -3.2 h 2.25 m 23.4,6.8 -2,1.2 2.05,1.15 -0.85,1.45 -2,-1.15 v 2.3 H 23.1 V 8.3 L 21,9.5 20.2,8.05 l 2,-1.15 -2,-1.2 0.85,-1.45 2.05,1.2 v -2.4 h 1.65 V 5.4 l 2,-1.15 0.8,1.45 M 3.9,19.25 3.05,20.7 l -2,-1.15 v 2.3 H -0.6 V 19.5 l -2.1,1.2 -0.8,-1.45 2.05,-1.15 -2.05,-1.2 0.85,-1.45 2.05,1.2 v -2.4 h 1.65 v 2.35 l 2,-1.15 0.8,1.45 -2,1.2 2.05,1.15"
         fill="#ffffff"
         fill-opacity="0.85098"
         fill-rule="evenodd"
         stroke="none"
         id="path8" />
    </g>
  </defs>
</svg>
