<?xml version="1.0" encoding="UTF-8" standalone="no"?>
<svg
   height="44.049999"
   width="63.099998"
   version="1.1"
   id="svg6"
   xmlns="http://www.w3.org/2000/svg"
   xmlns:svg="http://www.w3.org/2000/svg">
  <defs
     id="defs10" />
  <g
     transform="translate(-2.5,6.05)"
     id="g4">
    <path
       d="M 24.05,12.2 H 20.5 q -0.7,0 -0.7,0.7 v 2 q 0,0.75 0.7,0.75 h 1.9 q 1,0 1.7,-0.6 0.65,-0.6 0.65,-1.25 v -0.55 l -0.2,-0.65 q -0.2,-0.4 -0.5,-0.4 M 50.25,4.4 50.6,4.55 50.55,5.1 49.6,12 q -0.2,0.85 -1.55,1.3 l -3.45,0.95 -1.05,0.25 -5.65,0.1 q -0.75,0 -0.75,0.4 v 2.2 q 0,1 -0.7,0.95 L 35.6,18 h -7.8 l -1.3,0.25 -0.35,-0.4 -0.05,-0.45 q -0.75,1.2 -1.5,1.2 h -4.95 q -0.9,0 -1,1.2 l -0.6,1.25 q -0.55,1.1 -0.75,1.9 -1.45,5.6 -1.65,7.4 -0.1,1.35 0.25,4.05 0,0.85 -1.2,0.35 l -1.45,0.2 -4.3,-0.9 -4.9,-1.25 Q 2.85,32.35 2.6,31.4 2.3,30.45 2.75,28.45 l 1.7,-7.05 1.35,-5.35 0.5,-1.2 0.4,-1.8 Q 6.75,12.3 5.85,11.3 L 4.5,10.1 Q 4,9.65 4,8.85 v -5.1 q 0,-1.1 0.45,-1.7 l 1,-1 1,-0.8 2.4,0.35 Q 9.15,0.65 9.3,0.85 L 9.5,1 l 2.4,0.4 3.55,0.1 2.1,0.3 0.25,0.6 Q 18,2.35 18.15,2.25 l 0.7,-0.15 h 9.3 l 1.2,0.3 Q 29.25,2.2 29.3,1.9 29.35,1.55 30.15,1.4 L 31,1.55 31.5,1.05 31.6,0.65 Q 31.6,0.3 31.9,0.2 L 33.5,0.1 35.05,0.7 36.6,1.2 37.25,1 38,0.95 42.15,1.8 q 0.5,0.2 1.25,0.7 l 0.85,0.05 0.85,0.05 0.25,0.25 0.05,0.25 2.2,0.6 0.55,0.35 0.35,0.2 0.35,-0.1 0.4,-0.1 1,0.35"
       fill="#ffffff"
       fill-rule="evenodd"
       stroke="none"
       id="path2" />
  </g>
</svg>
