<?xml version="1.0" encoding="UTF-8" standalone="no"?>
<!-- Generator: Adobe Illustrator 16.0.0, SVG Export Plug-In . SVG Version: 6.00 Build 0)  -->

<svg
   version="1.1"
   x="0px"
   y="0px"
   width="92.833"
   height="41"
   viewBox="0 0 92.833 41"
   enable-background="new 0 0 77.833 32"
   xml:space="preserve"
   id="svg405"
   xmlns="http://www.w3.org/2000/svg"
   xmlns:svg="http://www.w3.org/2000/svg"><defs
   id="defs409" />
<g
   id="Selected_Items"
   transform="translate(0,6)">
	<g
   id="g401">
		<g
   id="Selected_Items_8_">
			<path
   fill-rule="evenodd"
   clip-rule="evenodd"
   fill="#ffffff"
   d="m 77.171,11.729 c 0.052,0.398 -0.026,0.848 -0.238,1.352 V 13.2 h -0.12 c -0.053,0 -0.304,0.026 -0.755,0.081 -0.478,0.026 -1.02,0.053 -1.63,0.079 -0.583,0.026 -1.127,0.04 -1.63,0.04 -0.53,0 -0.875,-0.066 -1.033,-0.2 -0.08,0 -0.134,-0.027 -0.16,-0.079 -0.053,0 -0.093,-0.012 -0.119,-0.04 h -6.48 c -0.158,0.079 -0.357,0.145 -0.596,0.199 -0.265,0.026 -0.451,0.091 -0.557,0.198 -0.106,0.106 -0.317,0.185 -0.636,0.238 -0.371,0.026 -0.596,0.04 -0.676,0.04 -0.054,0 -0.172,-0.093 -0.358,-0.278 h -0.159 c -0.028,0.026 -0.04,0.092 -0.04,0.199 -0.053,0.053 -0.08,0.186 -0.08,0.397 v 0.039 c -0.025,0.161 -0.066,0.358 -0.12,0.597 -0.079,0.265 -0.198,0.517 -0.357,0.754 -0.133,0.24 -0.291,0.464 -0.475,0.676 -0.268,0.186 -0.545,0.278 -0.837,0.278 H 44.216 c -0.187,0 -0.398,0.066 -0.637,0.2 v 1.073 c 0,0.345 -0.013,0.703 -0.04,1.074 -0.026,0.344 -0.159,0.688 -0.397,1.034 -0.292,0.185 -0.688,0.278 -1.191,0.278 C 41.526,20.024 41.074,20 40.597,20 c -0.53,-0.054 -1.033,-0.107 -1.51,-0.16 -0.504,-0.106 -0.927,-0.173 -1.273,-0.2 -0.344,-0.052 -0.57,-0.118 -0.676,-0.198 -0.185,0.106 -0.423,0.266 -0.715,0.477 -0.319,0.238 -0.477,0.651 -0.477,1.232 v 0.835 l -0.158,0.08 c -0.054,0.079 -0.2,0.252 -0.438,0.517 -0.212,0.264 -0.318,0.49 -0.318,0.676 0,0.159 0.013,0.306 0.041,0.437 0,0.08 0.012,0.16 0.04,0.238 l 0.238,0.319 h -0.238 c -0.054,0.027 -0.199,0.212 -0.438,0.556 -0.265,0.344 -0.396,0.822 -0.396,1.431 v 0.398 l 0.158,0.238 h -0.438 c -0.158,-0.053 -0.45,-0.131 -0.874,-0.238 -0.477,-0.027 -0.954,-0.119 -1.431,-0.277 -0.53,-0.133 -1.008,-0.305 -1.432,-0.519 -0.397,-0.184 -0.622,-0.409 -0.674,-0.676 l -0.16,-0.118 c 0.105,-1.432 0.291,-2.823 0.556,-4.174 0.319,-1.352 1.034,-2.533 2.147,-3.538 0.026,-0.107 0.066,-0.239 0.119,-0.398 0.026,-0.159 0.041,-0.305 0.041,-0.437 0,-0.239 -0.212,-0.478 -0.637,-0.717 -0.238,-0.131 -0.622,-0.2 -1.153,-0.2 -0.583,0 -1.257,0.147 -2.027,0.439 -1.697,0.609 -2.862,1.868 -3.498,3.776 l -0.08,0.04 c -0.529,0.371 -0.927,0.556 -1.192,0.556 v 0.08 c 0,0.264 0.013,0.688 0.04,1.272 0.054,0.583 0.092,1.231 0.118,1.947 0,0.69 0.027,1.406 0.081,2.146 0.054,0.769 0.106,1.473 0.16,2.108 v 0.198 c -0.054,0 -0.2,0.107 -0.438,0.319 -0.292,0.186 -0.689,0.396 -1.193,0.635 -0.529,0.213 -1.179,0.438 -1.948,0.676 -0.741,0.16 -1.615,0.213 -2.623,0.16 h -0.12 c -0.158,-2.2 -0.265,-4.174 -0.317,-5.923 -0.107,-1.51 -0.173,-2.902 -0.2,-4.174 -0.027,-1.272 -0.04,-1.988 -0.04,-2.147 -1.032,0.16 -1.96,0.319 -2.782,0.477 -0.848,0.159 -1.365,0.293 -1.551,0.399 0,0.026 -0.013,0.092 -0.04,0.198 -0.054,0.132 -0.08,0.225 -0.08,0.278 0,0.504 -0.12,0.756 -0.357,0.756 -0.079,0.027 -0.357,0.092 -0.835,0.2 -0.477,0.051 -0.821,0.145 -1.034,0.277 H 10.426 C 10.32,20.145 10.241,20.025 10.187,19.919 10.081,19.84 9.989,19.748 9.909,19.641 9.882,19.509 9.856,19.391 9.829,19.285 9.617,19.47 9.26,19.655 8.756,19.841 8.197,20 7.576,20.184 6.886,20.396 6.144,20.555 5.389,20.674 4.62,20.754 3.799,20.939 2.977,20.98 2.155,20.874 L 2.036,20.754 1.877,20.674 C 1.267,18.766 0.843,17.123 0.605,15.744 0.419,14.367 0.327,13.213 0.327,12.286 0.327,10.538 0.538,9.385 0.963,8.828 1.36,8.245 1.652,7.9 1.837,7.795 1.864,7.795 1.996,7.583 2.235,7.159 2.526,6.733 2.792,6.35 3.029,6.005 V 5.807 h 7.514 v 0.198 c 0.159,0.292 0.411,0.65 0.755,1.073 0.318,0.372 0.557,0.61 0.716,0.717 0.132,0 0.477,-0.16 1.034,-0.478 0.529,-0.319 1.02,-0.716 1.47,-1.193 h 0.16 c 1.218,0.107 2.49,0.173 3.816,0.199 1.298,0.053 2.478,0.094 3.537,0.12 1.086,0 1.988,0 2.704,0 0.796,-0.026 1.272,-0.08 1.432,-0.159 0.053,-0.132 0.131,-0.358 0.238,-0.676 0.106,-0.344 0.198,-0.675 0.279,-0.993 0.078,-0.293 0.146,-0.597 0.198,-0.914 0.08,-0.293 0.146,-0.478 0.199,-0.557 v -0.12 c 0.025,-0.08 0.092,-0.147 0.199,-0.199 0.079,-0.132 0.264,-0.225 0.556,-0.278 0.212,-0.08 0.597,-0.16 1.152,-0.239 0.53,-0.053 1.233,-0.119 2.109,-0.198 3.789,-0.185 10.003,0.014 18.645,0.597 2.543,0.079 4.584,0.132 6.122,0.158 1.51,0.026 2.664,0.039 3.458,0.039 0.794,0.026 1.312,0.067 1.55,0.121 0.239,0 0.383,0 0.438,0 0.026,0 0.159,0 0.397,0 0.212,-0.053 0.41,0.092 0.597,0.437 0.504,0.557 0.754,1.512 0.754,2.862 0,0.452 0,0.928 0,1.432 -0.026,0.529 -0.091,1.099 -0.198,1.709 -0.08,0.16 -0.12,0.292 -0.12,0.398 -0.054,0.213 -0.08,0.437 -0.08,0.677 0.134,0 0.252,0 0.358,0 0.132,0.026 0.225,0.039 0.279,0.039 0.158,0.026 0.291,0.04 0.397,0.04 l 1.073,0.237 c 0,0.027 0.013,0.054 0.041,0.081 0,0.052 0.013,0.106 0.04,0.16 v 0.079 h 5.644 c 0.106,-0.054 0.239,-0.079 0.399,-0.079 0.185,-0.054 0.331,-0.107 0.436,-0.16 l 0.32,-0.081 c 0.131,-0.079 0.449,-0.131 0.953,-0.159 0.452,0 0.956,-0.014 1.511,-0.04 0.557,-0.025 1.1,-0.025 1.63,0 0.504,0.026 0.809,0.04 0.914,0.04 l 0.279,0.159 v 0.16 c 0.104,0.131 0.185,0.369 0.237,0.713 z M 57.731,5.488 H 32.17 c -0.875,0 -1.312,0.464 -1.312,1.392 v 1.273 c 0,0.899 0.438,1.351 1.312,1.351 h 25.562 c 0.425,0 0.742,-0.133 0.954,-0.398 0.265,-0.212 0.397,-0.53 0.397,-0.953 V 6.88 C 59.083,6.456 58.951,6.123 58.686,5.886 58.474,5.62 58.156,5.488 57.731,5.488 Z"
   id="path398" />
		</g>
	</g>
</g>

</svg>
