<?xml version="1.0" encoding="UTF-8" standalone="no"?>
<!-- Generator: Adobe Illustrator 16.0.0, SVG Export Plug-In . SVG Version: 6.00 Build 0)  -->

<svg
   version="1.1"
   x="0px"
   y="0px"
   width="54"
   height="41"
   viewBox="0 0 54 41"
   enable-background="new 0 0 39 32"
   xml:space="preserve"
   id="svg535"
   xmlns="http://www.w3.org/2000/svg"
   xmlns:svg="http://www.w3.org/2000/svg"><defs
   id="defs539" />
<g
   id="Selected_Items"
   transform="translate(0,6)">
	<g
   id="g531">
		<g
   id="Selected_Items_9_">
			<path
   fill-rule="evenodd"
   clip-rule="evenodd"
   fill="#ffffff"
   d="m 38.436,3.573 c 0.106,0.213 0.16,0.492 0.16,0.837 0.026,0.294 0.04,0.627 0.04,1 0,0.614 -0.014,1.239 -0.04,1.878 -0.054,0.613 -0.08,1.025 -0.08,1.238 l -0.08,0.159 -0.24,0.202 c -0.026,0.08 -0.041,0.239 -0.041,0.479 v 0.199 l -0.118,0.321 -0.32,-0.12 c -0.053,0 -0.186,0 -0.399,0 -0.213,-0.027 -0.72,-0.027 -1.518,0 -0.026,0.345 -0.122,0.664 -0.283,0.958 -0.131,0.24 -0.224,0.386 -0.275,0.441 l -0.041,0.158 H 26.21 l -0.438,0.163 c -0.187,0.105 -0.428,0.224 -0.72,0.357 -0.292,0.134 -0.574,0.28 -0.84,0.44 -0.238,0.16 -0.399,0.252 -0.479,0.278 0.081,0.267 0.121,0.64 0.121,1.119 0,0.241 0,0.545 0,0.92 0,0.374 -0.04,0.787 -0.121,1.239 -0.106,0.639 -0.373,1.105 -0.798,1.398 -0.371,0.292 -0.853,0.493 -1.439,0.598 -0.53,0.081 -1.131,0.107 -1.796,0.081 -0.666,-0.029 -1.293,-0.055 -1.878,-0.081 -0.479,-0.026 -0.907,-0.053 -1.278,-0.079 -0.401,-0.053 -0.733,-0.041 -1,0.041 h -0.079 c -0.878,-0.108 -1.439,-0.108 -1.677,0 -0.267,0.106 -0.44,0.238 -0.521,0.399 l -0.159,0.078 c -0.213,0.213 -0.32,0.722 -0.32,1.52 v 0.322 c 0,0.425 -0.041,0.784 -0.122,1.077 -0.106,0.347 -0.237,0.666 -0.399,0.958 l -0.038,0.241 c -0.107,0.213 -0.216,0.6 -0.32,1.158 -0.135,0.533 -0.283,1.105 -0.441,1.718 -0.186,0.743 -0.305,1.266 -0.359,1.558 -0.106,0.373 -0.188,0.626 -0.239,0.759 l 0.159,0.159 c 0.106,0.081 0.188,0.173 0.239,0.28 0.082,0.106 0.121,0.227 0.121,0.359 l -0.08,0.122 c -0.026,0.237 -0.16,0.425 -0.399,0.558 -0.212,0.105 -0.414,0.213 -0.601,0.32 H 10.19 c -0.055,0 -0.456,0.011 -1.198,0.039 -0.775,0 -1.574,0.039 -2.397,0.12 -2.557,0.132 -3.984,0.2 -4.273,0.2 -0.508,0 -1.042,-0.536 -1.599,-1.598 H 0.679 v -0.64 c 0,-0.879 0.119,-1.944 0.358,-3.196 0.216,-1.226 0.494,-2.451 0.841,-3.677 0.37,-1.253 0.73,-2.424 1.08,-3.517 0.372,-1.118 0.691,-2.036 0.956,-2.755 v -0.2 c 0.055,-0.24 0.081,-0.427 0.081,-0.561 0,-0.105 0,-0.171 0,-0.198 -0.026,0 -0.04,-0.029 -0.04,-0.081 C 3.928,13.292 3.914,13.254 3.914,13.199 H 3.836 v -0.08 C 3.808,12.958 3.701,12.837 3.515,12.758 3.435,12.704 3.37,12.68 3.315,12.68 3.155,12.654 2.983,12.599 2.796,12.518 2.397,12.386 1.85,12.094 1.158,11.639 0.704,11.373 0.412,11.08 0.278,10.761 0.092,10.39 0,10.044 0,9.724 0,9.353 0.013,9.125 0.04,9.045 0.092,8.939 0.225,8.471 0.438,7.648 0.625,6.769 0.824,5.903 1.037,5.05 1.224,4.331 1.492,3.838 1.837,3.572 2.183,3.277 2.463,3.066 2.675,2.93 V 2.294 L 2.836,2.213 C 3.608,2 4.381,2.067 5.154,2.412 5.9,2.758 6.337,2.999 6.471,3.133 H 25.69 c 0.053,0 0.106,0.024 0.16,0.08 l 0.159,0.16 H 36.12 l 0.118,-0.122 c 0.161,-0.13 0.348,-0.426 0.559,-0.877 v -0.16 h 0.12 c 0.027,0 0.096,-0.013 0.203,-0.039 0.104,0 0.251,0.01 0.438,0.039 0.319,0.051 0.612,0.507 0.878,1.359 z m -16.7,8.667 h -7.034 c -0.373,0 -0.557,0.202 -0.557,0.599 v 2.52 c 0,0.372 0.185,0.558 0.557,0.558 h 7.034 c 0.345,0 0.519,-0.186 0.519,-0.558 v -2.52 c 0,-0.397 -0.174,-0.599 -0.519,-0.599 z"
   id="path528" />
		</g>
	</g>
</g>

</svg>
