<?xml version="1.0" encoding="UTF-8" standalone="no"?>
<svg
   height="41.75"
   width="26.1"
   version="1.1"
   id="svg11"
   xmlns:xlink="http://www.w3.org/1999/xlink"
   xmlns="http://www.w3.org/2000/svg"
   xmlns:svg="http://www.w3.org/2000/svg">
  <g
     transform="translate(-0.1,6.5)"
     id="g4">
    <use
       data-characterId="321"
       height="34.75"
       transform="translate(0.1,0.5)"
       width="26.1"
       xlink:href="#shape0"
       id="use2" />
  </g>
  <defs
     id="defs9">
    <g
       id="shape0"
       transform="translate(-0.1,-0.5)">
      <path
         d="m 20.45,7.45 v 0.1 l 0.05,0.1 0.05,0.1 V 7.8 L 20.6,7.9 20.7,8 v 0.05 l 0.05,0.05 v 0.1 l 0.05,0.1 0.05,0.1 0.05,0.05 v 0.1 L 20.95,8.65 21,8.7 v 0.05 0.1 l 0.1,0.1 0.05,0.1 0.05,0.05 v 0.1 l 0.05,0.1 V 9.35 L 21.3,9.4 v 0.1 l 0.05,0.1 0.05,0.1 0.05,0.05 0.05,0.1 0.05,0.1 h 0.1 l 0.1,0.05 0.1,0.1 0.05,0.1 0.05,0.1 v 0.1 l 0.05,0.1 0.05,0.1 v 0.05 l 0.05,0.1 v 0.1 l 0.05,0.1 0.05,0.05 v 0.05 l 0.05,0.1 v 0.1 l 0.05,0.05 0.05,0.1 0.05,0.1 v 0.1 l 0.05,0.05 0.05,0.05 0.05,0.1 0.05,0.1 v 0.05 l 0.05,0.1 0.05,0.1 0.05,0.05 0.05,0.1 0.05,0.05 v 0.1 l 0.05,0.1 0.05,0.05 0.05,0.1 0.05,0.1 v 0.05 l 0.05,0.1 0.05,0.05 0.05,0.1 0.05,0.05 v 0.1 l 0.05,0.1 0.05,0.1 0.05,0.05 0.05,0.1 0.05,0.05 v 0.1 l 0.05,0.05 v 0.1 L 23.6,14 v 0.1 l 0.05,0.05 0.05,0.1 v 0.05 l 0.1,0.1 0.05,0.05 v 0.1 l 0.05,0.1 v 0.1 l 0.05,0.05 v 0.1 L 24,14.95 v 0.1 l 0.05,0.05 0.05,0.1 0.05,0.1 v 0.05 0.1 l 0.05,0.1 0.05,0.05 0.1,0.1 v 0.05 l 0.05,0.1 v 0.1 l 0.05,0.05 0.05,0.1 v 0.1 l 0.05,0.05 v 0.05 l 0.1,0.1 0.05,0.1 0.05,0.1 0.05,0.05 v 0.1 0.1 l 0.1,0.1 0.1,0.1 v 0.1 l 0.1,0.1 v 0.05 l 0.05,0.1 0.05,0.1 v 0.05 l 0.1,0.05 0.05,0.1 0.05,0.1 0.05,0.1 v 0.05 0.1 l 0.05,0.1 0.05,0.05 0.1,0.05 v 0.1 l 0.05,0.1 0.05,0.05 v 0.05 0.1 0.05 l 0.1,0.05 0.05,0.1 0.05,0.05 L 26,19 v 0.05 0.1 0.05 0.1 0.1 0.1 l -0.05,0.05 v 0.1 L 25.9,19.7 v 0.6 0.7 0.7 0.75 0.75 0.7 0.45 0.1 0.2 0.1 0.15 0.1 0.1 0.05 0.1 0.05 0.1 0.1 l 0.05,0.05 v 0.1 l 0.05,0.1 v 0.05 0.1 0.05 0.1 0.05 0.1 0.1 0.1 0.05 0.1 0.05 0.1 0.05 0.1 0.1 0.1 0.05 0.1 l 0.05,0.05 v 0.1 l 0.05,0.05 v 0.1 0.1 0.1 0.05 0.1 0.05 0.1 0.05 0.1 0.1 0.05 0.1 0.1 0.05 0.1 0.05 0.1 0.1 0.05 0.1 0.1 0.1 0.1 0.1 0.1 l 0.05,0.05 0.05,0.1 v 0.1 0.1 0.1 0.1 0.1 0.05 0.1 0.1 0.1 0.1 0.1 0.1 0.05 0.1 0.1 0.1 0.1 0.1 0.1 l -0.05,0.05 v 0.1 l -0.05,0.1 v 0.1 0.1 0.1 0.05 0.1 0.1 0.1 0.1 0.1 0.1 0.05 0.1 0.1 0.1 0.1 0.1 0.1 0.05 0.1 0.1 0.1 l -0.05,0.1 v 0.1 L 26,34 l -0.05,0.05 -0.05,0.1 -0.05,0.1 -0.05,0.1 h -0.05 l -0.05,0.1 h -0.05 l -0.2,0.1 -0.2,0.05 H 24.9 l -0.2,-0.05 -0.15,-0.1 -0.05,-0.1 V 34.3 34.2 34.1 34 33.95 l 0.05,-0.05 0.1,-0.1 0.1,-0.1 h 0.2 l 0.1,-0.1 v -0.25 -0.75 -0.75 -0.7 -0.7 -0.75 -0.75 -0.7 -0.75 -0.75 -0.7 -0.25 -0.2 -0.1 -0.05 -0.1 -0.1 -0.1 -0.2 -0.1 -0.15 L 25,24.6 24.9,24.55 v -0.1 -0.05 -0.1 -0.1 -0.05 -0.1 -0.1 -0.05 -0.1 -0.05 -0.1 -0.05 -0.1 -0.1 -0.1 -0.05 l -0.05,-0.1 V 23.1 L 24.8,23 v -0.05 -0.1 -0.1 -0.1 -0.05 -0.1 -0.05 -0.1 -0.05 -0.1 -0.1 -0.1 -0.05 -0.1 -0.05 -0.1 -0.05 -0.1 -0.1 l -0.1,-0.1 V 21.3 21.2 21.15 21.05 21 20.9 20.8 20.75 l -0.05,-0.1 -0.05,-0.1 v -0.1 -0.1 -0.1 -0.1 L 24.55,20.1 24.5,20 v -0.1 -0.1 -0.1 l -0.05,-0.1 v -0.1 l -0.05,-0.05 -0.05,-0.1 v -0.1 l -0.1,-0.05 v -0.05 -0.1 -0.1 -0.1 -0.05 -0.1 -0.1 L 24.2,18.55 24.15,18.5 24.1,18.4 24.05,18.3 V 18.2 L 24,18.15 23.95,18.05 23.9,17.95 23.85,17.9 V 17.85 L 23.8,17.75 23.7,17.65 23.65,17.6 23.6,17.5 V 17.4 L 23.55,17.3 V 17.25 L 23.5,17.2 23.45,17.1 23.4,17 23.35,16.95 v -0.1 l -0.05,-0.1 -0.05,-0.1 H 23.2 v -0.1 l -0.05,-0.1 v -0.1 L 23.05,16.3 23,16.2 H 22.9 L 22.75,16.1 22.7,16 22.6,15.95 v -0.1 L 22.55,15.75 22.5,15.7 v -0.1 l -0.1,-0.05 -0.1,-0.1 -0.05,-0.1 V 15.3 L 22.2,15.2 22.15,15.1 22.1,15.05 v -0.1 l -0.05,-0.05 -0.1,-0.1 v -0.05 l -0.05,-0.1 v -0.1 l -0.1,-0.1 -0.05,-0.05 -0.1,-0.1 V 14.25 14.15 14.1 L 21.55,14 21.45,13.9 21.4,13.8 21.35,13.75 21.3,13.65 21.25,13.6 V 13.5 L 21.2,13.45 21.1,13.35 21.05,13.25 21,13.15 20.95,13.1 20.9,13 20.8,12.95 v -0.1 L 20.75,12.8 20.7,12.7 20.6,12.6 20.55,12.55 20.5,12.45 20.4,12.35 20.35,12.3 20.25,12.2 20.2,12.15 20.15,12.05 v -0.1 L 20.05,11.9 20,11.8 19.95,11.7 19.9,11.65 19.8,11.6 19.75,11.5 19.7,11.4 15.85,11.45 15.8,11.5 15.75,11.6 v 0.05 0.1 0.1 0.05 0.1 0.1 0.1 0.1 0.1 0.1 0.05 0.1 0.1 0.1 0.1 0.1 0.1 0.05 0.1 0.1 0.1 0.1 0.1 0.1 0.05 0.1 0.1 0.1 0.1 0.1 0.05 0.1 h 0.1 0.1 l 0.3,0.05 0.05,0.05 0.3,0.05 0.2,0.05 h 0.1 l 0.65,0.05 h 0.25 l 0.1,0.05 0.1,0.05 0.15,0.05 h 0.05 l 0.35,0.05 0.25,0.05 0.1,0.05 H 19 l 0.15,0.05 h 0.1 l 0.2,0.05 0.25,0.05 0.1,0.1 0.15,0.05 h 0.1 l 0.3,0.05 0.1,0.1 0.15,0.1 0.2,0.1 0.15,0.05 0.15,0.05 0.2,0.1 0.1,0.1 0.05,0.05 0.1,0.1 0.1,0.1 v 0.05 l 0.15,0.1 0.15,0.05 0.1,0.1 0.05,0.1 0.1,0.05 0.05,0.1 0.1,0.1 0.1,0.05 0.1,0.1 0.05,0.05 0.1,0.1 0.05,0.05 0.05,0.1 0.05,0.1 0.05,0.1 0.05,0.05 0.05,0.1 0.05,0.05 v 0.1 L 23.1,17.9 V 18 l 0.05,0.1 0.05,0.1 v 0.05 l 0.05,0.1 v 0.05 l 0.1,0.1 v 0.05 l 0.05,0.1 v 0.1 0.1 l 0.05,0.05 0.05,0.1 v 0.05 l 0.05,0.1 v 0.05 0.1 l 0.05,0.1 v 0.1 0.05 l 0.05,0.1 0.05,0.05 v 0.1 l 0.05,0.05 v 0.1 l 0.05,0.1 v 0.05 l 0.05,0.1 v 0.1 0.05 l 0.05,0.1 v 0.05 l 0.05,0.1 0.05,0.1 0.05,0.05 0.05,0.1 0.05,0.1 v 0.1 l 0.05,0.1 v 0.1 l 0.05,0.1 v 0.05 l 0.05,0.1 0.05,0.1 v 0.05 l 0.05,0.05 v 0.1 0.1 0.1 0.05 0.1 l 0.05,0.1 v 0.05 l 0.05,0.05 v 0.1 0.1 0.1 0.05 0.1 0.1 0.1 0.1 0.1 0.05 0.1 0.1 0.1 0.1 0.1 0.1 0.05 0.1 0.1 0.1 0.1 0.1 0.1 0.05 0.1 0.1 l -0.05,0.1 -0.05,0.1 v 0.1 0.1 0.05 0.1 0.1 0.1 l -0.05,0.1 v 0.1 l -0.05,0.1 -0.05,0.05 v 0.1 0.1 L 24.2,26.1 v 0.05 l -0.05,0.1 v 0.1 0.1 0.05 L 24.1,26.6 24.05,26.7 24,26.75 v 0.05 l -0.05,0.1 V 27 l -0.05,0.05 v 0.1 l -0.05,0.1 v 0.1 l -0.1,0.1 -0.05,0.1 v 0.1 l -0.05,0.05 -0.05,0.1 -0.05,0.1 V 28 l -0.05,0.05 v 0.05 l -0.1,0.1 v 0.1 l -0.05,0.05 v 0.1 l -0.05,0.1 -0.05,0.1 v 0.05 l -0.05,0.05 -0.05,0.1 v 0.1 L 23.1,29 23.05,29.1 v 0.1 l -0.05,0.05 -0.05,0.1 -0.05,0.05 -0.05,0.1 v 0.1 l -0.05,0.05 -0.05,0.1 -0.05,0.1 -0.05,0.05 -0.05,0.1 -0.05,0.05 -0.05,0.1 -0.05,0.05 -0.05,0.1 -0.05,0.1 -0.1,0.1 v 0.05 l -0.05,0.1 -0.1,0.05 -0.05,0.1 -0.05,0.05 -0.05,0.1 v 0.1 l -0.1,0.1 -0.1,0.05 -0.1,0.1 v 0.05 l -0.1,0.1 -0.05,0.05 -0.05,0.1 -0.05,0.1 -0.1,0.1 -0.05,0.05 -0.05,0.1 -0.15,0.05 -0.05,0.1 -0.05,0.05 -0.15,0.1 -0.15,0.1 -0.1,0.1 -0.1,0.05 -0.05,0.1 -0.1,0.05 -0.2,0.1 -0.15,0.05 -0.15,0.1 -0.1,0.1 -0.1,0.05 -0.15,0.1 -0.2,0.1 -0.15,0.05 -0.05,0.1 -0.05,0.05 -0.15,0.1 -0.1,0.05 -0.2,0.05 -0.1,0.05 -0.15,0.05 -0.2,0.1 -0.15,0.05 -0.15,0.05 -0.25,0.05 h -0.1 l -0.2,0.05 -0.2,0.05 -0.15,0.1 -0.2,0.1 -0.1,0.05 h -0.3 l -0.05,0.1 h -0.1 l -0.2,0.05 -0.15,0.05 h -0.1 l -0.15,0.05 -0.35,0.05 h -0.15 l -0.15,0.05 -0.2,0.05 h -0.05 l -0.2,0.05 -0.25,0.05 -0.15,0.05 -0.15,0.05 h -0.45 l -0.2,0.1 -0.15,0.05 -0.15,0.05 -0.35,0.05 H 12.55 L 12.4,35.25 H 10.15 L 9.95,35.2 H 9.9 L 9.8,35.15 9.55,35.1 9.35,35 9.3,34.95 H 9.25 L 9,34.9 8.85,34.8 8.8,34.75 8.65,34.7 8.35,34.65 8.25,34.6 H 8.2 l -0.25,-0.05 -0.2,-0.1 -0.2,-0.1 H 7.4 L 7.1,34.25 7,34.15 H 6.95 L 6.75,34.1 6.45,34 6.35,33.95 H 6.3 L 6.1,33.9 5.85,33.8 5.7,33.7 5.5,33.65 5.25,33.55 5.2,33.45 5,33.4 4.9,33.3 4.8,33.25 4.7,33.15 4.6,33.05 4.5,33 4.4,32.9 4.3,32.8 4.15,32.75 4,32.65 3.95,32.6 3.85,32.5 3.75,32.45 3.7,32.35 3.65,32.25 3.55,32.15 3.45,32.1 3.35,32 3.3,31.95 3.1,31.85 3.05,31.8 3,31.7 2.9,31.6 2.8,31.5 2.7,31.45 2.65,31.35 2.55,31.3 2.5,31.2 2.45,31.15 2.4,31.05 2.35,30.95 2.25,30.85 2.15,30.8 2.1,30.7 2.05,30.65 v -0.1 L 2,30.5 V 30.4 L 1.9,30.3 1.85,30.2 1.8,30.15 1.75,30.05 1.7,30 1.65,29.9 1.55,29.8 1.45,29.7 1.4,29.6 v -0.05 -0.1 L 1.35,29.35 1.3,29.25 1.25,29.2 1.15,29.15 v -0.1 L 1.1,28.95 V 28.9 L 1.05,28.8 1,28.7 0.95,28.65 V 28.55 28.5 L 0.9,28.4 V 28.3 L 0.85,28.25 0.8,28.15 v -0.1 L 0.75,28 V 27.9 L 0.7,27.85 v -0.1 L 0.65,27.7 V 27.6 L 0.6,27.5 0.55,27.4 0.5,27.35 V 27.25 27.2 L 0.45,27.1 v -0.05 -0.1 -0.1 -0.1 L 0.4,26.7 0.3,26.6 V 26.55 26.45 26.4 26.3 26.2 26.1 26.05 L 0.25,25.95 V 25.9 L 0.2,25.8 v -0.05 -0.1 L 0.15,25.55 V 25.5 L 0.1,25.4 v -0.1 -0.05 -0.1 -0.05 -0.1 -0.1 -0.05 -0.1 -0.1 -0.1 -0.1 -0.1 -0.1 -0.05 -0.1 -0.1 -0.1 -0.1 -0.1 -0.1 -0.05 -0.1 -0.1 -0.1 -0.1 -0.1 -0.1 -0.05 -0.1 -0.1 -0.1 -0.1 -0.1 -0.1 -0.05 l 0.05,-0.1 0.05,-0.1 v -0.1 -0.1 -0.1 -0.05 -0.1 -0.1 L 0.25,21.4 V 21.35 L 0.3,21.3 v -0.1 -0.1 -0.05 -0.1 -0.1 l 0.1,-0.1 h 0.05 v -0.1 -0.1 -0.1 -0.05 -0.1 L 0.5,20.2 V 20.1 20 19.9 l 0.05,-0.1 0.05,-0.05 0.1,-0.1 v -0.1 L 0.75,19.5 v -0.05 -0.1 -0.1 L 0.8,19.15 V 19.1 L 0.9,19 0.95,18.9 V 18.85 L 1,18.8 1.05,18.7 1.1,18.6 v -0.05 -0.1 l 0.05,-0.1 v -0.1 -0.05 l 0.05,-0.05 0.05,-0.1 0.1,-0.1 0.05,-0.05 v -0.1 l 0.05,-0.1 0.1,-0.1 0.1,-0.1 0.05,-0.1 0.05,-0.1 0.05,-0.05 0.05,-0.1 0.05,-0.1 0.1,-0.1 0.05,-0.05 0.1,-0.05 0.1,-0.1 0.1,-0.1 L 2.4,16.6 2.45,16.5 2.55,16.4 2.65,16.3 2.7,16.25 2.8,16.2 2.9,16.1 3,16 l 0.05,-0.05 0.05,-0.1 0.1,-0.1 0.1,-0.05 0.05,-0.1 0.2,-0.05 0.1,-0.1 0.15,-0.1 H 3.95 4.1 l 0.1,-0.1 0.2,-0.1 0.2,-0.1 L 4.8,15 5.05,14.95 5.15,14.9 H 5.2 L 5.4,14.85 5.55,14.8 5.75,14.75 H 5.9 L 6.1,14.7 H 6.15 L 6.35,14.65 6.8,14.6 6.95,14.5 7.15,14.45 7.25,14.4 7.4,14.35 7.45,14.3 h 0.2 L 8.6,14.25 H 8.7 8.85 V 14.2 h 0.5 v -0.15 -0.1 -0.1 -0.05 -0.1 -0.1 -0.1 -0.1 -0.1 -0.1 -0.05 -0.1 -0.1 -0.1 -0.1 -0.1 -0.1 -0.05 -0.1 -0.1 L 9.3,12.2 V 12.1 12 11.9 11.85 11.75 11.65 11.6 11.5 11.45 H 8.9 l -0.05,-0.1 v -0.1 -0.1 H 8.7 v -0.1 -0.1 -0.1 -0.1 V 10.6 10.5 10.4 9.95 9.85 9.75 9.7 9.6 9.5 9.4 9.3 9.2 9.1 9.05 8.95 8.85 8.75 8.65 8.55 8.45 8.4 8.3 8.2 8.1 8 7.9 7.8 7.75 7.65 7.55 7.45 7.35 7.25 7.15 7.1 7 6.9 6.85 6.75 6.7 6.6 6.55 6.45 6.35 6.25 6.2 6.1 6.05 5.95 5.9 5.8 5.7 5.6 5.55 5.45 5.4 5.3 5.25 5.15 5.05 4.95 4.9 4.8 4.75 4.65 4.6 L 7.75,4.65 H 7.6 L 7.4,4.7 H 7.35 7.2 L 6.95,4.65 6.8,4.6 6.55,4.5 6.5,4.4 6.4,4.3 6.35,4.25 6.3,4.15 V 4.1 L 6.25,4 V 3.95 3.85 3.75 L 6.3,3.7 V 3.6 L 6.35,3.5 6.4,3.45 6.5,3.35 6.55,3.3 6.75,3.25 H 6.8 V 3.2 3.1 3.05 2.95 2.85 2.8 L 6.85,2.75 6.95,2.65 7,2.55 7.1,2.45 7.15,2.4 7.25,2.3 7.4,2.25 7.45,2.2 h 0.2 0.7 V 2.15 L 8.45,2.1 8.55,2 8.7,1.95 V 1.9 1.8 h 7.35 V 1.75 1.65 1.55 1.45 1.4 1.3 1.2 1.1 1 0.9 0.85 0.75 0.65 0.6 L 16.2,0.55 V 0.5 h 1.3 v 0.05 0.1 0.1 0.1 L 17.55,0.9 V 1 l 0.05,0.1 0.05,0.05 V 1.2 l 0.05,0.1 v 0.1 l -0.05,0.05 v 0.1 l -0.05,0.1 -0.05,0.1 v 0.1 0.1 h 0.2 l 0.1,0.1 0.1,0.05 0.05,0.1 0.1,0.05 0.05,0.1 0.05,0.05 0.05,0.1 0.05,0.1 v 0.05 l 0.05,0.1 V 2.8 2.9 L 18.3,3 v 0.05 h 0.05 l 0.05,0.1 v 0.1 l 0.05,0.1 0.05,0.05 v 0.1 0.1 l 0.05,0.1 h 0.05 l 0.05,0.1 0.1,0.05 0.05,0.1 0.05,0.05 0.05,0.1 0.05,0.05 v 0.1 L 19,4.3 v 0.1 l 0.05,0.1 v 0.1 l 0.05,0.05 v 0.1 l 0.05,0.05 v 0.1 l 0.05,0.05 0.05,0.1 v 0.1 l 0.1,0.1 0.05,0.05 0.05,0.1 v 0.05 0.1 l 0.05,0.05 0.1,0.1 0.05,0.1 0.05,0.1 v 0.05 l 0.05,0.1 V 6.1 l 0.05,0.1 0.1,0.05 v 0.1 l 0.05,0.1 v 0.1 L 20,6.6 20.05,6.7 v 0.05 l 0.05,0.1 0.05,0.05 0.05,0.1 0.05,0.1 v 0.05 l 0.05,0.1 0.05,0.1 0.05,0.05 0.05,0.05 M 1.6,21.95 v -0.1 -0.1 -0.05 l -0.05,0.05 v 0.1 l -0.05,0.1 v 0.1 0.1 0.1 l 0.05,-0.1 v -0.1 L 1.6,22 v -0.05"
         fill="#ffffff"
         fill-rule="evenodd"
         stroke="none"
         id="path6" />
    </g>
  </defs>
</svg>
