<?xml version="1.0" encoding="UTF-8" standalone="no"?>
<!-- Generator: Adobe Illustrator 16.0.0, SVG Export Plug-In . SVG Version: 6.00 Build 0)  -->

<svg
   version="1.1"
   x="0px"
   y="0px"
   width="108.25"
   height="41"
   viewBox="0 0 108.25 41"
   enable-background="new 0 0 93.25 32"
   xml:space="preserve"
   id="svg665"
   xmlns="http://www.w3.org/2000/svg"
   xmlns:svg="http://www.w3.org/2000/svg"><defs
   id="defs669" />
<g
   id="Selected_Items"
   transform="translate(0,6)">
	<g
   id="g661">
		<g
   id="Selected_Items_10_">
			<path
   fill-rule="evenodd"
   clip-rule="evenodd"
   fill="#ffffff"
   d="m 92.744,12.856 c 0.05,0.352 0.1,0.764 0.15,1.24 0.025,0.501 -0.125,0.789 -0.452,0.865 -0.175,0.025 -0.463,0.062 -0.865,0.112 -0.401,0.026 -0.864,0.038 -1.391,0.038 -0.501,0 -1.002,-0.012 -1.502,-0.038 -0.527,-0.05 -0.941,-0.087 -1.242,-0.112 l -0.338,-0.15 h -5.263 c 0,0.024 -0.075,0.087 -0.226,0.188 -0.025,0.074 -0.05,0.112 -0.075,0.112 L 80.826,15.3 80.451,15.112 H 79.699 L 79.548,15.3 c -0.101,0.075 -0.149,0.163 -0.149,0.262 v 0.151 l -0.301,0.565 h -0.676 v 1.278 l -0.338,0.149 c -0.1,0.05 -0.228,0.075 -0.376,0.075 -0.276,0 -0.477,-0.024 -0.601,-0.075 l -0.979,-0.149 h -2.895 v 0.488 h -0.301 c -0.701,0 -1.103,-0.024 -1.204,-0.075 -0.125,-0.05 -0.224,-0.088 -0.3,-0.113 0,-0.1 0,-0.163 0,-0.188 -0.05,0 -0.075,-0.037 -0.075,-0.112 h 0.075 V 17.404 H 58.909 c -0.35,0.05 -0.765,0.101 -1.24,0.152 -0.476,0.024 -0.915,0.062 -1.314,0.112 -0.453,0.025 -0.829,0.063 -1.13,0.112 -0.25,0.051 -0.413,0.076 -0.488,0.076 -0.226,0.125 -0.438,0.125 -0.639,0 -0.075,-0.05 -0.138,-0.1 -0.188,-0.15 l -0.187,-0.149 v -0.301 h -4.964 c 0.052,0.851 0.127,1.803 0.226,2.856 0.101,1.028 0.188,2.006 0.263,2.933 0.102,0.902 0.176,1.693 0.226,2.368 0.076,0.602 0.114,0.991 0.114,1.166 -0.025,0.05 -0.088,0.163 -0.188,0.338 -0.1,0.1 -0.501,0.201 -1.203,0.3 -0.752,0.126 -1.492,0.275 -2.22,0.452 -0.801,0.125 -1.427,0.213 -1.878,0.263 -0.452,0.075 -0.79,0.138 -1.015,0.188 -0.201,0.025 -0.352,0.025 -0.451,0 -0.051,-0.05 -0.101,-0.1 -0.151,-0.149 0,-0.025 -0.013,-0.101 -0.036,-0.227 0,-0.075 -0.039,-0.4 -0.114,-0.978 -0.05,-0.576 -0.139,-1.39 -0.262,-2.443 -0.076,-1.152 -0.201,-2.719 -0.377,-4.699 h -0.639 l -0.375,0.64 h -0.301 l 0.301,-0.64 h -0.791 v 0.188 c -0.174,0.652 -0.375,1.229 -0.6,1.729 -0.226,0.477 -0.488,0.814 -0.79,1.015 -0.476,0.2 -1.115,0.326 -1.917,0.376 -0.853,0.025 -1.454,-0.05 -1.804,-0.226 L 34.25,22.367 c -0.2,-0.074 -0.389,-0.162 -0.564,-0.262 -0.176,-0.101 -0.312,-0.176 -0.414,-0.227 l -0.188,0.188 c -0.074,0.075 -0.174,0.275 -0.301,0.602 -0.124,0.326 -0.275,0.639 -0.45,0.939 -0.351,0.877 -0.664,1.58 -0.94,2.106 -0.275,0.5 -0.488,0.889 -0.639,1.165 -0.175,0.301 -0.313,0.476 -0.413,0.526 -0.126,0.074 -0.226,0.114 -0.301,0.114 -0.201,0 -0.715,-0.252 -1.542,-0.753 -0.801,-0.501 -1.566,-1.051 -2.293,-1.654 l -0.3,-0.188 0.111,-0.151 c 0.025,-0.049 0.113,-0.226 0.264,-0.526 0.1,-0.25 0.25,-0.552 0.451,-0.902 0.176,-0.326 0.351,-0.64 0.527,-0.94 0.174,-0.3 0.375,-0.526 0.601,-0.676 l 0.15,-0.188 c 0.226,-0.225 0.465,-0.476 0.715,-0.752 0.275,-0.275 0.463,-0.602 0.563,-0.978 0.101,-0.501 0.05,-0.914 -0.15,-1.241 -0.226,-0.275 -0.451,-0.451 -0.677,-0.526 h -5.83 c -0.024,0 -0.101,0.013 -0.225,0.038 -0.1,0.05 -0.238,0.075 -0.415,0.075 -0.2,0.05 -0.412,0.113 -0.639,0.188 -0.15,0.05 -0.663,0.226 -1.54,0.527 -0.878,0.326 -1.918,0.701 -3.122,1.127 -1.127,0.452 -2.369,0.928 -3.721,1.43 -1.279,0.45 -2.495,0.889 -3.647,1.315 -1.077,0.376 -1.992,0.701 -2.744,0.977 -0.727,0.302 -1.129,0.451 -1.203,0.451 -0.251,0.051 -0.564,0.1 -0.941,0.151 -0.426,0.05 -0.828,0.1 -1.203,0.149 C 2.829,24.522 2.454,24.547 2.103,24.547 1.802,24.597 1.552,24.572 1.351,24.471 1.05,24.322 0.863,24.096 0.788,23.795 0.762,23.545 0.75,23.231 0.75,22.855 c 0,-0.175 0,-0.363 0,-0.563 0.025,-0.226 0.088,-0.414 0.188,-0.564 0.075,-0.25 0.113,-0.488 0.113,-0.715 0,-0.226 0,-0.513 0,-0.865 0.1,-0.2 0.163,-0.375 0.188,-0.526 0.024,-0.175 0.038,-0.375 0.038,-0.601 0,-0.652 -0.025,-1.291 -0.076,-1.918 -0.1,-0.626 -0.15,-1.027 -0.15,-1.203 H 0.938 c -0.1,-0.225 -0.163,-0.425 -0.188,-0.601 0,-0.2 0,-0.363 0,-0.488 v -0.49 c 0.101,-0.1 0.163,-0.175 0.188,-0.225 0,-0.05 0.113,-0.075 0.339,-0.075 0.05,-0.05 0.25,-0.101 0.601,-0.15 0.352,-0.025 0.739,-0.063 1.166,-0.113 0.476,0 0.927,0 1.353,0 0.401,-0.025 0.727,-0.038 0.979,-0.038 0.1,-0.251 0.212,-0.526 0.338,-0.827 0.075,-0.251 0.289,-0.426 0.638,-0.526 0.227,-0.077 0.902,-0.113 2.03,-0.113 1.104,-0.025 2.318,-0.05 3.647,-0.075 1.303,-0.051 2.556,-0.076 3.76,-0.076 1.177,-0.024 1.916,-0.038 2.218,-0.038 h 0.188 c 0.099,0.201 0.225,0.364 0.375,0.49 0.075,0.201 0.163,0.375 0.263,0.526 0.1,0.177 0.201,0.275 0.301,0.3 0.151,0 0.351,-0.012 0.602,-0.037 0.225,0 0.375,-0.051 0.451,-0.15 0.275,-0.125 0.726,-0.351 1.353,-0.677 0.627,-0.376 1.053,-0.639 1.279,-0.79 0.326,-0.225 0.602,-0.376 0.827,-0.451 0.225,-0.151 0.538,-0.225 0.939,-0.225 0.377,0 0.916,0 1.618,0 0.727,0 1.277,-0.026 1.653,-0.075 0.026,-0.05 0.063,-0.101 0.113,-0.15 0.025,-0.076 0.087,-0.151 0.188,-0.227 0.074,-0.1 0.137,-0.213 0.188,-0.338 l 0.79,-0.452 0.601,-0.15 c 0.126,0.1 0.239,0.175 0.338,0.225 0.276,0.051 0.452,0.076 0.527,0.076 l 0.602,0.15 0.526,0.639 V 10.9 l -0.226,0.151 h 0.339 V 10.45 L 31.541,10.224 C 31.466,10.148 31.416,10.061 31.391,9.961 L 31.088,9.36 30.901,8.645 v -0.15 c -0.452,0.1 -0.94,0.175 -1.467,0.227 -0.577,0.05 -1.053,0.125 -1.429,0.225 -0.2,0 -0.638,-0.012 -1.315,-0.037 -0.677,0 -1.378,0 -2.106,0 -0.751,0 -1.416,-0.013 -1.992,-0.038 -0.602,-0.049 -0.953,-0.074 -1.053,-0.074 -0.075,0 -0.15,0.025 -0.226,0.074 C 21.238,8.897 21.15,8.91 21.05,8.91 20.899,8.935 20.774,8.947 20.675,8.947 L 18.494,8.798 V 8.495 c 0,-0.025 -0.025,-0.162 -0.075,-0.414 -0.05,-0.3 -0.088,-0.626 -0.113,-0.977 0,-0.325 -0.025,-0.652 -0.075,-0.977 -0.024,-0.375 0,-0.665 0.075,-0.864 0.025,-0.175 0.063,-0.326 0.113,-0.451 0.05,-0.075 0.1,-0.164 0.15,-0.263 0.025,-0.076 0.038,-0.151 0.038,-0.226 l 0.225,-0.114 h 1.843 c 0.099,0 0.388,0 0.864,0 0.401,0 0.928,0.038 1.58,0.114 0.676,0 1.403,0.013 2.18,0.038 0.752,0 1.479,0.024 2.18,0.074 0.678,0 1.278,0.013 1.805,0.038 0.526,0.025 0.914,0.037 1.166,0.037 l 0.94,0.113 c 0.326,0.076 0.602,0.125 0.828,0.151 0.224,0.025 0.413,0.037 0.563,0.037 0.177,-0.05 0.565,-0.075 1.167,-0.075 0.626,-0.026 1.278,-0.051 1.955,-0.076 0.652,-0.025 1.265,-0.038 1.842,-0.038 0.527,0 0.815,0 0.865,0 0.225,0 0.388,-0.024 0.489,-0.074 0.125,0 0.225,-0.013 0.3,-0.039 l 0.15,-0.187 c 0,-0.176 0.176,-0.313 0.527,-0.414 0.476,-0.226 0.965,-0.226 1.466,0 h 0.15 c 0.225,0 0.389,0.024 0.488,0.075 0.101,0.05 0.201,0.163 0.301,0.339 0.1,0.125 0.25,0.187 0.451,0.187 l 0.301,0.113 c 0.476,0 1.14,0.038 1.992,0.114 0.903,0.075 1.655,0.038 2.256,-0.114 0.376,-0.074 0.926,-0.137 1.653,-0.188 0.677,-0.074 1.379,-0.137 2.106,-0.188 0.777,-0.025 1.491,-0.038 2.143,-0.038 0.676,0 1.127,0.038 1.354,0.114 h 0.15 c 0.326,0.075 0.54,0.187 0.64,0.337 0.15,0.126 0.25,0.489 0.301,1.091 0.099,0.626 0.05,1.19 -0.151,1.691 -0.201,0.551 -0.414,0.902 -0.639,1.052 -0.1,0.076 -0.451,0.113 -1.053,0.113 -0.602,0 -1.266,0 -1.992,0 -0.702,0 -1.404,-0.037 -2.104,-0.113 C 49.186,8.468 48.685,8.406 48.385,8.305 48.059,8.23 47.783,8.192 47.558,8.192 c -0.201,0 -0.4,0.038 -0.602,0.113 H 45.6 c 0,0.226 -0.174,0.515 -0.525,0.865 h -0.188 c -0.828,0.426 -1.379,0.726 -1.655,0.902 -0.276,0.125 -0.414,0.25 -0.414,0.376 -0.075,0 -0.138,0.05 -0.188,0.15 0,0.151 -0.051,0.3 -0.151,0.452 h 20.94 c 0.05,-0.026 0.201,-0.038 0.451,-0.038 0.275,-0.024 0.564,-0.063 0.865,-0.114 0.301,-0.05 0.601,-0.074 0.901,-0.074 0.302,-0.05 0.514,-0.076 0.64,-0.076 0.3,0 0.589,-0.013 0.865,-0.038 0.25,-0.075 0.451,-0.113 0.601,-0.113 l 0.302,-0.301 c 0.099,-0.05 0.174,-0.1 0.226,-0.15 h 1.429 c 0.099,0.076 0.174,0.175 0.225,0.301 0.176,0.25 0.3,0.425 0.375,0.526 H 77.93 C 77.83,10.722 77.755,10.447 77.705,10.145 77.654,9.895 77.63,9.668 77.63,9.468 c 0,-0.2 0.013,-0.313 0.037,-0.339 L 77.78,9.018 c 0.174,-0.25 0.363,-0.427 0.563,-0.527 0.176,-0.125 0.326,-0.188 0.451,-0.188 l 0.751,0.188 0.301,0.865 0.3,1.692 v 1.014 c 0.101,0 0.201,0.063 0.301,0.188 0,0.1 0,0.2 0,0.301 l -0.114,0.15 h 0.114 c 0.15,0 0.251,-0.012 0.301,-0.038 l 0.075,-0.112 h 0.79 l 0.112,0.112 c 0.075,0.025 0.138,0.038 0.188,0.038 h 10.676 z m -58.911,6.842 c -0.076,0.101 -0.138,0.188 -0.188,0.263 l 0.488,0.489 c 0.175,0.075 0.326,0.162 0.452,0.264 0.125,0.05 0.225,0.074 0.3,0.074 0.276,0.05 0.54,0.075 0.791,0.075 0.249,0 0.425,0 0.526,0 0.15,0 0.375,0 0.677,0 0.275,0 0.476,-0.025 0.601,-0.075 0.175,0 0.275,-0.074 0.301,-0.225 0,-0.1 0.075,-0.238 0.225,-0.414 0.202,-0.551 0.301,-0.865 0.301,-0.939 v -0.112 c 0,-0.05 -0.05,-0.075 -0.151,-0.075 -0.075,0 -0.213,0.025 -0.414,0.075 -0.201,0.075 -0.388,0.15 -0.563,0.226 h -0.978 c -0.176,0 -0.514,0.025 -1.016,0.074 -0.501,0.076 -0.852,0.15 -1.053,0.226 -0.073,-10e-4 -0.174,0.024 -0.299,0.074 z"
   id="path658" />
		</g>
	</g>
</g>

</svg>
