<?xml version="1.0" encoding="UTF-8" standalone="no"?>
<!-- Generator: Adobe Illustrator 16.0.0, SVG Export Plug-In . SVG Version: 6.00 Build 0)  -->

<svg
   version="1.1"
   x="0px"
   y="0px"
   width="105.25"
   height="41"
   viewBox="0 0 105.25 41"
   enable-background="new 0 0 90.25 32"
   xml:space="preserve"
   id="svg795"
   xmlns="http://www.w3.org/2000/svg"
   xmlns:svg="http://www.w3.org/2000/svg"><defs
   id="defs799" />
<g
   id="Selected_Items"
   transform="translate(0,6)">
	<g
   id="g791">
		<g
   id="Selected_Items_11_">
			<path
   fill-rule="evenodd"
   clip-rule="evenodd"
   fill="#ffffff"
   d="m 88.842,8.021 c 0.247,0 0.37,0.11 0.37,0.334 v 2.447 h -3.931 c -0.123,0 -0.766,0 -1.927,0 -1.139,0.023 -2.411,0.062 -3.82,0.111 -1.384,0 -2.769,0.013 -4.153,0.038 -1.286,0.025 -2.151,0.037 -2.595,0.037 0,0.321 -0.1,0.581 -0.298,0.778 -0.519,0.521 -1.001,0.778 -1.446,0.778 -0.198,0 -0.457,-0.135 -0.778,-0.408 -0.322,-0.32 -0.569,-0.543 -0.743,-0.667 -0.098,0 -0.234,-0.025 -0.406,-0.075 -0.124,-0.024 -0.284,-0.087 -0.482,-0.185 l -0.705,-0.223 c -0.099,-0.049 -0.322,-0.074 -0.668,-0.074 -0.372,-0.049 -0.829,-0.074 -1.372,-0.074 -0.52,0 -1.138,0.025 -1.854,0.074 -0.643,0 -1.297,0.025 -1.966,0.074 0,0.1 -0.024,0.223 -0.073,0.371 -0.075,0.173 -0.111,0.31 -0.111,0.407 l -0.26,0.112 c -0.099,0.025 -0.223,0.038 -0.37,0.038 0,0.073 -0.014,0.197 -0.038,0.371 -0.024,0.098 -0.037,0.247 -0.037,0.445 -0.05,0.196 -0.073,0.443 -0.073,0.741 h -0.298 c -1.014,0 -2.126,0.012 -3.336,0.037 -1.187,0 -2.325,0.012 -3.411,0.037 -1.063,0.05 -1.966,0.074 -2.708,0.074 -0.741,0.025 -1.187,0.037 -1.335,0.037 -0.098,0.025 -0.271,0.049 -0.519,0.074 -0.223,0.025 -0.482,0.049 -0.779,0.074 -0.321,0.073 -0.643,0.124 -0.964,0.149 -0.296,0.074 -0.531,0.124 -0.705,0.148 H 46.94 l -0.186,-0.446 c -0.049,-0.272 -0.074,-0.556 -0.074,-0.853 -0.048,-0.247 -0.074,-0.469 -0.074,-0.668 0,-0.221 0,-0.396 0,-0.518 -0.148,0.075 -0.421,0.136 -0.815,0.185 -0.421,0.049 -0.866,0.124 -1.335,0.222 -0.445,0.076 -0.877,0.161 -1.298,0.262 -0.42,0.048 -0.68,0.073 -0.778,0.073 0,0.148 -0.013,0.296 -0.038,0.444 -0.075,0.149 -0.111,0.26 -0.111,0.334 0,1.26 0.197,2.682 0.594,4.265 0.396,1.507 0.829,2.942 1.297,4.302 0.495,1.309 0.927,2.409 1.3,3.299 0.395,0.866 0.592,1.31 0.592,1.335 l 0.148,0.26 -0.296,0.111 c -0.124,0.074 -0.396,0.198 -0.816,0.372 -0.371,0.198 -0.877,0.444 -1.52,0.742 -0.668,0.272 -1.57,0.715 -2.707,1.334 h -0.26 c -0.419,-0.545 -0.865,-1.483 -1.335,-2.819 -0.47,-1.335 -0.914,-2.731 -1.333,-4.19 -0.421,-1.434 -0.768,-2.794 -1.04,-4.079 -0.296,-1.311 -0.519,-2.165 -0.667,-2.559 -0.222,0.123 -0.544,0.271 -0.964,0.443 -0.099,0 -0.16,0.038 -0.185,0.111 0,0.026 -0.038,0.038 -0.111,0.038 -0.125,0.223 -0.334,0.334 -0.63,0.334 -1.21,0.297 -2.176,0.309 -2.894,0.038 -0.691,-0.271 -1.149,-0.495 -1.371,-0.668 -0.05,0.075 -0.111,0.124 -0.186,0.147 l -0.668,0.335 c -0.766,1.73 -1.223,3.151 -1.371,4.265 -0.124,1.112 -0.186,1.928 -0.186,2.447 v 0.593 c 0,0.1 -0.024,0.162 -0.074,0.186 -0.05,0 -0.075,0.037 -0.075,0.112 -0.419,0 -1.816,-0.631 -4.19,-1.892 l -0.222,-0.111 v -0.112 c 0.296,-0.668 0.605,-1.372 0.927,-2.113 0.273,-0.767 0.544,-1.471 0.816,-2.115 0.247,-0.642 0.445,-1.223 0.593,-1.742 0.148,-0.444 0.234,-0.717 0.26,-0.815 0,-0.098 -0.038,-0.197 -0.111,-0.297 -0.049,-0.098 -0.074,-0.197 -0.074,-0.296 -0.075,-0.049 -0.161,-0.148 -0.259,-0.296 -0.1,-0.099 -0.199,-0.2 -0.298,-0.297 -0.123,-0.1 -0.211,-0.209 -0.26,-0.333 -0.148,-0.073 -0.494,-0.112 -1.038,-0.112 -0.618,0 -1.311,0.013 -2.077,0.039 -0.791,0.049 -1.669,0.085 -2.633,0.11 -0.913,0.075 -1.767,0.125 -2.558,0.148 l -3.115,0.111 c -1.953,0 -4.918,1.768 -8.899,5.303 l -0.297,0.296 c -0.173,0.248 -0.419,0.458 -0.741,0.63 -0.346,0.42 -0.569,0.679 -0.667,0.779 -0.125,0.099 -0.223,0.15 -0.298,0.15 -0.196,0 -0.383,-0.15 -0.555,-0.448 C 1.628,20.082 1.553,19.775 1.553,19.55 1.553,19.427 1.541,19.045 1.516,18.401 1.493,17.782 1.43,17.053 1.331,16.213 1.258,15.397 1.183,14.556 1.108,13.692 1.01,12.851 0.91,12.157 0.813,11.615 0.541,11.071 0.589,10.528 0.96,9.983 1.207,9.71 1.529,9.574 1.924,9.574 c 0.42,0 0.68,0 0.779,0 h 17.243 c 0.125,0 0.273,0 0.445,0 0.149,0 0.26,-0.049 0.334,-0.148 V 9.281 c 0.099,-0.074 0.162,-0.147 0.187,-0.223 0.024,-0.074 0.073,-0.173 0.147,-0.297 0.173,-0.123 0.433,-0.185 0.778,-0.185 0.372,0 0.631,-0.05 0.779,-0.147 0.149,-0.051 0.297,-0.074 0.446,-0.074 0.172,0 0.321,-0.05 0.445,-0.149 0.37,-0.098 0.678,-0.209 0.926,-0.333 0.296,-0.124 0.506,-0.297 0.63,-0.519 0.197,-0.124 0.309,-0.321 0.333,-0.593 0.049,-0.249 0.1,-0.618 0.148,-1.114 V 5.314 c 0,-0.445 0.111,-0.755 0.334,-0.929 0.198,-0.099 0.469,-0.148 0.815,-0.148 h 0.296 l 0.111,0.148 0.817,0.78 c 0,0.173 0.309,0.135 0.926,-0.111 h 0.482 c 0.148,0.073 0.271,0.272 0.37,0.592 0.075,0.322 0.149,0.656 0.224,1.001 0.74,-0.097 1.543,-0.147 2.409,-0.147 0.841,0 1.335,0.05 1.483,0.148 0.099,0.025 0.186,0.038 0.26,0.038 0.098,0.05 0.235,0.075 0.408,0.075 h 9.457 c 0,-0.249 -0.038,-0.458 -0.111,-0.631 L 43.713,5.835 h 1.669 V 6.13 c 0,0.125 0.025,0.198 0.074,0.223 0,0.023 0.025,0.037 0.073,0.037 H 68.41 c 0,-0.048 -0.012,-0.135 -0.037,-0.26 0,-0.098 0,-0.259 0,-0.482 C 68.298,5.5 68.262,5.302 68.262,5.056 L 68.78,4.09 70.338,3.942 h 0.148 v 2.707 l -0.112,0.038 c -0.024,0.05 -0.06,0.075 -0.11,0.075 -0.025,0.023 -0.05,0.061 -0.075,0.111 0.198,0.223 0.581,0.507 1.15,0.852 0.593,0.322 1.249,0.482 1.966,0.482 0.271,0.026 0.765,0.05 1.482,0.075 0.717,0.05 1.508,0.075 2.374,0.075 0.866,0 1.743,-0.025 2.633,-0.075 0.964,-0.024 1.817,-0.038 2.559,-0.038 0.792,0 1.458,-0.011 2.002,-0.037 0.494,0 0.803,0 0.926,0 0.099,0 0.334,-0.036 0.706,-0.111 0.272,-0.048 0.593,-0.111 0.965,-0.184 0.418,-0.025 0.802,-0.051 1.149,-0.076 0.371,-0.051 0.619,0.011 0.741,0.185 z m -57.404,5.006 c -0.199,0 -0.396,0.086 -0.594,0.26 -0.173,0.222 -0.259,0.494 -0.259,0.816 0,0.321 0.086,0.592 0.259,0.815 0.198,0.198 0.395,0.297 0.594,0.297 h 2.706 c 0.223,0 0.445,-0.099 0.668,-0.297 0.173,-0.223 0.259,-0.494 0.259,-0.815 0,-0.322 -0.086,-0.594 -0.259,-0.816 -0.224,-0.173 -0.445,-0.26 -0.668,-0.26 z M 2.735,12.953 c 0.075,0.495 0.148,1.001 0.222,1.521 0.076,0.593 0.125,1.162 0.149,1.706 0.075,0.47 0.136,0.89 0.186,1.26 0.223,-0.222 0.532,-0.494 0.927,-0.816 0.445,-0.346 0.889,-0.717 1.334,-1.111 0.99,-0.717 1.941,-1.434 2.856,-2.152 0.939,-0.668 1.78,-1.273 2.521,-1.816 H 2.55 c 0.024,0.393 0.086,0.863 0.185,1.408 z"
   id="path788" />
		</g>
	</g>
</g>

</svg>
