<?xml version="1.0" encoding="UTF-8" standalone="no"?>
<!-- Generator: Adobe Illustrator 16.0.0, SVG Export Plug-In . SVG Version: 6.00 Build 0)  -->

<svg
   version="1.1"
   x="0px"
   y="0px"
   width="59.875"
   height="41"
   viewBox="0 0 59.875 41"
   enable-background="new 0 0 44.875 32"
   xml:space="preserve"
   id="svg925"
   xmlns="http://www.w3.org/2000/svg"
   xmlns:svg="http://www.w3.org/2000/svg"><defs
   id="defs929" />
<g
   id="Selected_Items"
   transform="translate(0,6)">
	<g
   id="g921">
		<g
   id="Selected_Items_12_">
			<path
   fill-rule="evenodd"
   clip-rule="evenodd"
   fill="#ffffff"
   d="m 43.566,10.77 c -0.084,0.055 -0.22,0.083 -0.412,0.083 -0.381,0.082 -0.997,0.137 -1.844,0.165 -0.875,0.025 -1.82,0.052 -2.831,0.079 -1.013,0.085 -2.01,0.126 -2.997,0.126 -0.981,0.025 -1.789,0.039 -2.422,0.039 -0.709,0 -1.282,0.04 -1.721,0.125 -0.437,0.08 -0.778,0.148 -1.024,0.205 -0.217,0.137 -0.356,0.275 -0.412,0.41 -0.054,0.135 -0.081,0.315 -0.081,0.534 v 0.33 c 0,0.246 0.014,0.545 0.043,0.9 0.027,0.327 0.067,0.643 0.123,0.942 0.078,0.383 0.162,0.753 0.244,1.109 v 0.123 l -0.574,0.656 v 0.124 c -0.191,0.109 -0.685,0.164 -1.479,0.164 -1.584,0.082 -2.922,0.105 -4.018,0.082 -1.039,0 -1.929,-0.028 -2.667,-0.082 -0.655,-0.083 -1.176,-0.164 -1.558,-0.246 -0.329,-0.112 -0.56,-0.207 -0.697,-0.288 -0.219,0 -0.44,0.042 -0.658,0.125 -0.216,0.164 -0.477,0.438 -0.779,0.82 -0.354,0.41 -0.766,1.039 -1.23,1.887 -0.439,0.903 -0.945,2.107 -1.517,3.609 -0.602,1.475 -1.272,3.336 -2.01,5.577 l -0.083,0.084 c 0,0.656 -0.179,1.065 -0.533,1.231 -0.191,0.189 -0.344,0.231 -0.452,0.123 H 2.79 c 0,-0.136 0.016,-0.262 0.042,-0.369 0.106,-0.275 0.166,-0.493 0.166,-0.657 H 2.339 c -0.11,0 -0.22,-0.012 -0.327,-0.041 C 1.381,28.684 0.89,28.397 0.535,27.88 0.342,27.575 0.247,27.194 0.247,26.73 c 0,-0.573 0.08,-1.067 0.245,-1.477 0.138,-0.466 0.205,-0.726 0.205,-0.779 v 0.082 C 0.725,24.528 0.902,24.296 1.231,23.858 1.505,23.42 1.86,22.874 2.298,22.216 2.764,21.535 3.241,20.807 3.735,20.044 4.309,19.277 4.841,18.526 5.334,17.786 5.879,16.747 6.306,15.818 6.604,14.998 6.881,14.176 7.015,13.454 7.015,12.822 7.015,12.413 6.948,12.003 6.813,11.593 6.564,11.072 6.222,10.662 5.787,10.363 5.376,10.115 4.95,9.882 4.514,9.663 4.13,9.583 3.871,9.405 3.735,9.13 3.623,8.83 3.57,8.5 3.57,8.146 c 0,-0.134 0.016,-0.274 0.041,-0.41 0,-0.081 0,-0.178 0,-0.288 L 3.57,7.367 V 5.191 c 0,-0.356 0,-0.654 0,-0.903 C 3.57,4.042 3.529,3.88 3.446,3.796 H 3.405 c -0.027,0 -0.04,-0.041 -0.04,-0.12 0,-0.03 0.013,-0.07 0.04,-0.124 L 3.446,3.467 C 3.474,3.414 3.598,3.334 3.816,3.224 4.009,3.142 4.597,3.073 5.579,3.017 5.635,2.935 5.663,2.853 5.663,2.77 5.663,2.715 5.704,2.662 5.788,2.607 5.841,2.497 5.893,2.402 5.951,2.318 L 6.072,2.197 7.26,2.239 7.386,2.526 c 0.052,0.054 0.08,0.136 0.08,0.245 0.028,0.083 0.042,0.166 0.042,0.247 h 33.884 l 0.081,-0.164 c 0.054,-0.055 0.096,-0.083 0.124,-0.083 l 0.779,-0.245 c 0.028,0.054 0.083,0.11 0.165,0.164 l 0.204,0.202 h 1.477 l 0.288,4.475 c -0.002,1.883 -0.315,3.02 -0.944,3.403 z m -16.205,0.822 h -5.827 c -0.079,0 -0.177,0.066 -0.284,0.204 -0.139,0.138 -0.206,0.328 -0.206,0.577 v 1.968 c 0,0.301 0.067,0.504 0.206,0.613 0.106,0.137 0.205,0.208 0.284,0.208 h 5.827 c 0.139,0 0.249,-0.071 0.328,-0.208 0.137,-0.109 0.208,-0.313 0.208,-0.613 v -1.968 c 0,-0.249 -0.071,-0.438 -0.208,-0.577 C 27.61,11.658 27.5,11.592 27.361,11.592 Z"
   id="path918" />
		</g>
	</g>
</g>

</svg>
