<?xml version="1.0" encoding="UTF-8" standalone="no"?>
<svg
   height="39.400002"
   width="130.64999"
   version="1.1"
   id="svg260"
   xmlns="http://www.w3.org/2000/svg"
   xmlns:svg="http://www.w3.org/2000/svg">
  <defs
     id="defs264" />
  <g
     transform="translate(-0.7,10.5)"
     id="g258">
    <path
       d="m 82.4,9 h 17.75 l 9.95,0.95 q 10.65,1.6 14.25,4.7 -4.05,3.55 -13.55,4.9 l -10.25,0.7 H 82.4 q -0.15,-1.05 -0.55,-1.05 -0.4,0 -0.55,1.05 h -0.1 q -0.15,-1.05 -0.55,-1.05 -0.4,0 -0.55,1.05 h -0.5 q -0.4,-1.05 -1.15,-1.05 -0.75,0 -1.15,1.05 h -0.5 q -0.15,-1.05 -0.55,-1.05 -0.4,0 -0.55,1.05 h -0.1 q -0.15,-1.05 -0.55,-1.05 -0.4,0 -0.55,1.05 H 74 Q 73.7,19.2 72.85,19.2 72.1,19.2 71.7,20.25 H 71.25 Q 71,19.2 70.65,19.2 q -0.4,0 -0.55,1.05 H 70.05 Q 69.9,19.2 69.5,19.2 q -0.35,0 -0.6,1.05 h -0.5 q -0.3,-1.05 -1.1,-1.05 -0.85,0 -1.15,1.05 h -0.5 Q 65.5,19.2 65.1,19.2 q -0.4,0 -0.55,1.05 h -0.1 Q 64.3,19.2 63.9,19.2 q -0.4,0 -0.55,1.05 H 59.1 q -0.75,-0.45 -1.2,-0.35 -0.95,0.4 -1.35,0.55 l -0.9,0.1 v 0.7 L 53,28.9 50,28.05 Q 50.75,27 50.9,25.55 51.2,22.75 48.25,21.1 42.7,20.4 39.65,21.25 38.4,21.65 26.1,21.5 13.25,21.35 12.15,20.45 l -1.3,0.05 -0.4,0.3 Q 7.3,23.6 6.6,23.6 3.4,23.6 2.35,20.8 1.6,18.9 1.45,16.1 H 1.35 Q 0.7,16.1 0.7,14.95 0.7,13.8 1.35,13.8 h 0.1 Q 1.6,10.7 2.65,9.6 3.9,8.25 4.7,7.9 l 2,-0.25 Q 7.75,7.7 8.65,8.1 l 1.65,1 7.4,-0.7 11.7,-0.5 17.4,0.6 Q 50.45,7.75 51.95,6.1 53.4,4.5 54.2,0.5 L 56.95,1.1 57.1,2.75 55.85,6.4 55.7,8.9 56.6,9.3 57.85,9.65 59.35,9 h 4 q 0.2,1.05 0.55,1.05 0.4,0 0.55,-1.05 h 0.1 q 0.2,1.05 0.55,1.05 L 65.65,9 h 0.5 q 0.45,1.05 1.15,1.05 0.65,0 1.1,-1.05 h 0.55 q 0.2,1.05 0.55,1.05 L 70.05,9 h 0.05 q 0.25,1.05 0.55,1.05 0.4,0 0.55,-1.05 h 0.55 q 0.45,1.05 1.1,1.05 0.7,0 1.15,-1.05 h 0.5 q 0.25,1.05 0.55,1.05 0.4,0 0.55,-1.05 h 0.1 q 0.2,1.05 0.55,1.05 0.4,0 0.55,-1.05 h 0.55 q 0.35,1.05 1.1,1.05 0.75,0 1.1,-1.05 h 0.55 q 0.2,1.05 0.55,1.05 0.4,0 0.55,-1.05 h 0.1 q 0.2,1.05 0.55,1.05 0.3,0 0.55,-1.05"
       fill="#ffffff"
       fill-rule="evenodd"
       stroke="none"
       id="path256" />
  </g>
</svg>
