<?xml version="1.0" encoding="UTF-8" standalone="no"?>
<!-- Generator: Adobe Illustrator 16.0.0, SVG Export Plug-In . SVG Version: 6.00 Build 0)  -->

<svg
   version="1.1"
   x="0px"
   y="0px"
   width="111.583"
   height="41"
   viewBox="0 0 111.583 41"
   enable-background="new 0 0 96.583 32"
   xml:space="preserve"
   id="svg9"
   xmlns="http://www.w3.org/2000/svg"
   xmlns:svg="http://www.w3.org/2000/svg"><defs
   id="defs13" />
<g
   id="Selected_Items"
   transform="translate(0,6)">
	<g
   id="g5">
		<g
   id="Selected_Items_32_">
			<path
   fill-rule="evenodd"
   clip-rule="evenodd"
   fill="#ffffff"
   d="m 55.016,3.717 h 0.91 l 0.436,0.145 c 0.073,0.145 0.183,0.231 0.328,0.255 0.121,0 0.23,0 0.327,0 l 0.072,0.146 c 0.121,0 0.206,0.013 0.254,0.036 0.098,0.048 0.182,0.036 0.256,-0.036 0.096,0 0.242,0.013 0.436,0.036 0.169,0.048 0.339,0.122 0.508,0.218 0.194,0.072 0.353,0.157 0.473,0.254 0.146,0.073 0.231,0.122 0.255,0.146 0.072,0.025 0.146,0.037 0.217,0.037 0.099,0.073 0.183,0.109 0.255,0.109 h 0.328 c 0.048,0 0.133,0.012 0.254,0.036 0.146,0.048 0.292,0.122 0.437,0.218 0.169,0.049 0.314,0.097 0.436,0.146 l 0.182,0.108 h 0.109 c 0.072,0.194 0.133,0.375 0.182,0.546 0.072,0.168 0.133,0.363 0.181,0.581 0.049,0.218 0.073,0.424 0.073,0.618 0,0.17 -0.012,0.34 -0.038,0.509 0,0.17 -0.036,0.34 -0.108,0.508 -0.195,0.631 -0.388,1.031 -0.583,1.201 -0.194,0.194 -0.291,0.351 -0.291,0.473 -0.072,0.048 -0.121,0.072 -0.145,0.072 -0.07,0.024 -0.13,0.037 -0.182,0.038 h 9.673 c 0.048,0.097 0.085,0.181 0.109,0.254 0.073,0.17 0.146,0.279 0.218,0.328 0.461,0.073 0.97,0.17 1.528,0.291 0.533,0.146 1.065,0.278 1.6,0.4 0.533,0.098 0.981,0.182 1.345,0.254 0.412,0.098 0.667,0.133 0.764,0.109 0.218,0 0.352,-0.206 0.4,-0.618 0.048,-0.121 0.072,-0.291 0.072,-0.51 l 0.727,-1.454 c 0,-0.024 0,-0.133 0,-0.327 0,-0.17 0.012,-0.365 0.037,-0.583 0.024,-0.266 0.061,-0.534 0.109,-0.799 h 1.164 v 3.999 l -0.038,0.291 v 0.073 c 0,0.072 0.098,0.108 0.291,0.108 0.073,0.073 0.51,0.11 1.31,0.11 0.824,0 1.818,-0.013 2.981,-0.037 1.188,0 2.461,-0.012 3.818,-0.037 1.333,-0.024 2.594,-0.036 3.782,-0.036 0.388,-0.024 0.776,-0.036 1.164,-0.036 0.314,0 0.63,0 0.945,0 0.291,0 0.521,0.012 0.691,0.036 0.266,0 0.534,0 0.799,0 0.292,0 0.57,-0.036 0.837,-0.108 0.534,0 0.897,0 1.09,0 0.17,0 0.255,0.036 0.255,0.108 0.243,0.897 0.352,1.467 0.327,1.71 -0.049,0.194 -0.158,0.291 -0.327,0.291 -0.073,0.072 -0.375,0.109 -0.909,0.109 -0.557,0 -1.151,-0.024 -1.782,-0.073 -0.581,-0.025 -1.15,-0.049 -1.708,-0.073 -0.559,0 -0.874,-0.024 -0.945,-0.072 H 78.762 c 0,0.072 -0.146,0.109 -0.436,0.109 v 0.509 h 1.636 l 0.582,0.619 v 1.709 H 79.78 C 79.683,16.747 79.586,16.698 79.489,16.625 79.416,16.602 79.368,16.566 79.343,16.517 79.27,16.492 79.222,16.48 79.197,16.48 c -0.073,0 -0.158,0.012 -0.254,0.037 -0.098,0 -0.23,0 -0.4,0 -0.169,0.049 -0.363,0.072 -0.581,0.072 l -5.6,0.182 c -0.776,0.073 -1.492,0.132 -2.146,0.181 -0.654,0.025 -0.994,0.037 -1.018,0.037 -0.098,0.169 -0.254,0.401 -0.473,0.691 -0.218,0.314 -0.545,0.473 -0.981,0.473 -0.389,0 -0.837,-0.304 -1.347,-0.909 -0.168,0 -0.314,-0.036 -0.435,-0.11 -0.146,-0.096 -0.255,-0.145 -0.328,-0.145 0.073,0.388 0.109,0.691 0.109,0.909 0,0.219 0,0.449 0,0.692 0,0.339 -0.012,0.593 -0.036,0.763 -0.049,0.146 -0.109,0.267 -0.182,0.364 -0.17,0.024 -0.364,0.024 -0.583,0 -0.169,-0.049 -0.364,-0.122 -0.581,-0.218 -0.097,-0.024 -0.521,-0.036 -1.272,-0.036 -0.8,0 -1.734,0 -2.8,0 -1.091,0 -2.243,0.012 -3.456,0.036 -0.851,0 -1.663,0 -2.436,0 0.037,0.129 0.074,0.263 0.109,0.4 0.291,1.114 0.436,1.999 0.436,2.653 v 6.837 c 0,0.582 -0.06,0.897 -0.182,0.945 -0.169,-0.048 -0.338,-0.072 -0.509,-0.072 H 46.36 c -0.363,0 -0.594,-0.036 -0.691,-0.108 -0.145,-0.073 -0.218,-0.267 -0.218,-0.583 L 45.38,17.861 c 0.049,-0.097 0.073,-0.194 0.073,-0.291 -0.041,-0.165 -0.205,-0.268 -0.49,-0.309 -0.03,0.005 -0.059,0.01 -0.092,0.018 -0.072,0.024 -0.157,0.121 -0.254,0.291 -0.097,0 -0.146,0.085 -0.146,0.255 0,0.17 0.012,0.328 0.035,0.472 0,0.122 0.037,0.219 0.11,0.292 -0.024,0.072 -0.073,0.157 -0.146,0.253 -0.098,0.074 -0.182,0.109 -0.255,0.109 0.073,0.17 0.109,0.327 0.109,0.473 0.024,0.146 0.037,0.328 0.037,0.545 0,0.388 -0.048,0.74 -0.146,1.056 -0.146,0.314 -0.412,0.521 -0.8,0.617 -0.315,0.17 -0.704,0.279 -1.164,0.328 -0.437,0.048 -0.848,0.048 -1.236,0 -0.413,-0.049 -0.752,-0.097 -1.019,-0.146 -0.267,-0.048 -0.399,-0.109 -0.399,-0.182 -0.097,-0.024 -0.195,-0.048 -0.292,-0.072 -0.194,-0.048 -0.316,-0.108 -0.364,-0.183 -0.023,0.074 -0.12,0.364 -0.29,0.873 -0.194,0.485 -0.412,1.031 -0.655,1.637 -0.242,0.582 -0.449,1.127 -0.618,1.635 -0.17,0.461 -0.255,0.716 -0.255,0.765 0.049,0.072 0.122,0.206 0.219,0.399 0.025,0.17 0.037,0.292 0.037,0.364 0,0.097 -0.061,0.206 -0.182,0.327 -0.049,0.17 -0.182,0.376 -0.4,0.619 -0.266,0.217 -0.775,0.217 -1.527,0 -0.387,-0.097 -0.8,-0.219 -1.236,-0.364 -0.437,-0.17 -0.836,-0.328 -1.201,-0.473 -0.412,-0.146 -0.848,-0.316 -1.308,-0.509 h -0.256 l 0.146,-0.219 c 0.291,-0.509 0.631,-1.09 1.019,-1.746 0.412,-0.654 0.788,-1.272 1.127,-1.854 0.363,-0.583 0.654,-1.08 0.872,-1.492 0.243,-0.411 0.364,-0.654 0.364,-0.727 0.073,-0.169 0.061,-0.412 -0.036,-0.727 -0.122,-0.339 -0.303,-0.57 -0.545,-0.692 L 33.742,18.949 C 33.613,18.884 33.485,18.823 33.36,18.768 l -7.181,-0.51 h -6.146 c -1.309,0 -2.654,0.133 -4.036,0.4 -1.551,0.291 -2.4,0.642 -2.545,1.055 -0.097,0.218 -0.122,0.545 -0.073,0.981 0.073,0.533 0.254,0.994 0.545,1.382 0.29,0.364 0.375,0.618 0.255,0.764 -0.049,0.073 -0.134,0.108 -0.255,0.108 l -12.76,0.586 c -0.34,0 -0.619,-0.169 -0.837,-0.509 C 0.108,22.686 0,22.273 0,21.789 V 11.243 c 0.121,-0.17 0.314,-0.303 0.581,-0.399 0.559,-0.243 1.2,-0.219 1.927,0.073 0.51,0.194 2.873,0.521 7.092,0.981 0.412,0.024 0.884,0.351 1.418,0.982 0.533,0.605 1.067,0.945 1.601,1.018 0.508,0.048 1.236,0.024 2.181,-0.072 0.825,-0.073 1.576,-0.182 2.255,-0.328 1.552,-0.291 2.91,-0.654 4.073,-1.092 0.703,-0.266 1.685,-0.69 2.946,-1.271 1.567,-0.669 3.275,-1.02 5.127,-1.056 0.153,-0.024 0.311,-0.048 0.472,-0.072 0.679,-0.096 1.358,-0.194 2.036,-0.292 0.655,-0.071 1.164,-0.096 1.528,-0.071 V 9.353 c 0.146,-0.339 0.267,-0.667 0.364,-0.981 0.073,-0.268 0.182,-0.486 0.327,-0.655 0.169,-0.194 0.388,-0.339 0.655,-0.436 0.242,-0.073 0.583,-0.098 1.019,-0.073 0.363,0.073 0.751,0.158 1.163,0.255 0.413,0.072 0.788,0.157 1.128,0.254 l 1.053,0.363 c 0.074,0.024 0.146,0.11 0.219,0.254 0.073,0.025 0.132,0.122 0.182,0.292 0.048,0.145 0.072,0.327 0.072,0.545 v 0.473 h 5.854 V 9.171 h 3.091 v 0.473 c 0.242,0 0.545,0.012 0.909,0.036 0.413,0 0.823,0 1.236,0 0.412,0 0.788,0.012 1.127,0.035 0.291,0.049 0.473,0.074 0.546,0.074 0.072,0 0.375,-0.024 0.908,-0.074 0.534,-0.023 1.176,-0.06 1.927,-0.108 C 55.769,9.583 56.545,9.523 57.344,9.425 58.193,9.377 58.957,9.292 59.636,9.171 59.708,9.147 59.817,9.05 59.963,8.88 60.084,8.807 60.205,8.687 60.326,8.517 60.424,8.323 60.533,8.044 60.653,7.68 60.362,7.438 60.144,7.293 59.999,7.244 59.878,7.196 59.757,7.135 59.636,7.062 59.393,7.062 59.248,7.002 59.199,6.88 58.957,6.782 58.677,6.698 58.363,6.626 58.024,6.553 57.732,6.493 57.49,6.444 H 57.344 C 57.175,6.323 56.884,6.262 56.472,6.262 L 55.78,6.117 C 55.488,6.043 55.296,5.982 55.197,5.934 55.125,5.886 55.003,5.764 54.833,5.57 V 5.534 H 54.07 c -0.266,0 -0.472,0.013 -0.619,0.037 -0.12,0 -0.242,-0.012 -0.363,-0.037 C 52.871,5.268 52.737,4.977 52.689,4.661 52.616,4.371 52.823,3.825 53.307,3.025 V 2.917 h 0.073 c 0.63,0.169 1.031,0.303 1.199,0.399 0.195,0.146 0.341,0.279 0.437,0.401 z M 43.071,19.098 c -0.414,0.056 -1.256,0.068 -2.527,0.036 -0.146,0.194 -0.219,0.388 -0.219,0.583 0,0.315 0.11,0.57 0.328,0.763 0.194,0.194 0.46,0.291 0.8,0.291 h 0.946 c 0.194,0 0.388,-0.097 0.582,-0.291 0.194,-0.193 0.29,-0.448 0.29,-0.763 0,-0.205 -0.066,-0.412 -0.2,-0.619 z"
   id="path2" />
		</g>
	</g>
</g>

</svg>
