<?xml version="1.0" encoding="UTF-8" standalone="no"?>
<!-- Generator: Adobe Illustrator 16.0.0, SVG Export Plug-In . SVG Version: 6.00 Build 0)  -->

<svg
   version="1.1"
   x="0px"
   y="0px"
   width="59.625"
   height="41"
   viewBox="0 0 59.625 41"
   enable-background="new 0 0 44.625 32"
   xml:space="preserve"
   id="svg145"
   xmlns="http://www.w3.org/2000/svg"
   xmlns:svg="http://www.w3.org/2000/svg"><defs
   id="defs149" />
<g
   id="Selected_Items"
   transform="translate(0,6)">
	<g
   id="g141">
		<g
   id="Selected_Items_33_">
			<path
   fill-rule="evenodd"
   clip-rule="evenodd"
   fill="#ffffff"
   d="M 44.465,6.059 V 7.5 L 43.906,8.106 H 41.624 C 41.563,8.168 41.502,8.2 41.439,8.2 41.376,8.231 41.315,8.247 41.254,8.247 v 2.421 h -6.051 c 0,0.125 0,0.248 0,0.372 0,0.124 0.032,0.25 0.093,0.371 0,0.127 0.015,0.267 0.047,0.42 -0.032,0.031 -0.094,0.079 -0.188,0.141 -0.09,0.031 -0.185,0.108 -0.278,0.234 0.032,0.061 0.079,0.278 0.14,0.649 0.061,0.188 0.093,0.359 0.093,0.513 H 33.9 c -0.746,0 -1.211,-0.015 -1.399,-0.046 -0.092,0.125 -0.216,0.356 -0.372,0.7 -0.124,0.339 -0.325,0.698 -0.604,1.068 -0.249,0.372 -0.542,0.714 -0.884,1.024 -0.341,0.278 -0.729,0.451 -1.164,0.512 -0.683,0.094 -1.473,0.108 -2.375,0.047 -0.93,-0.03 -1.66,-0.249 -2.188,-0.652 -0.184,0 -0.275,-0.06 -0.278,-0.186 v 8.38 c -0.156,0.03 -0.264,0.06 -0.328,0.092 -0.123,0.061 -0.262,0.093 -0.418,0.093 v 7.215 h -5.446 v -7.029 c -0.031,-0.031 -0.062,-0.062 -0.093,-0.092 -0.032,0 -0.078,-0.016 -0.14,-0.047 C 18.18,24.416 18.15,24.4 18.119,24.4 H 15 l -0.652,-0.883 c 0.372,-1.738 0.73,-3.321 1.072,-4.748 0.278,-1.21 0.527,-2.311 0.744,-3.306 l 0.371,-1.535 c -0.341,-0.622 -0.634,-1.164 -0.881,-1.63 -0.311,-0.496 -0.561,-0.774 -0.747,-0.836 -0.187,-0.095 -0.622,-0.141 -1.302,-0.141 -0.652,0 -1.273,0.046 -1.863,0.141 -0.031,0.028 -0.076,0.077 -0.139,0.138 -0.094,0.063 -0.169,0.124 -0.233,0.186 l -0.279,0.279 -0.698,-0.092 c 0,-0.062 -0.03,-0.126 -0.094,-0.187 0,-0.028 -0.015,-0.062 -0.044,-0.093 -0.033,-0.062 -0.063,-0.108 -0.094,-0.14 H 5.738 v 3.445 H 5.506 c -0.062,0.062 -0.279,0.154 -0.652,0.278 -0.373,0.062 -0.729,0.062 -1.069,0 C 3.567,15.215 3.379,15.152 3.226,15.091 3.07,15.028 2.961,14.998 2.9,14.998 c -0.032,0 -0.094,0 -0.188,0 -0.155,0 -0.309,-0.015 -0.465,-0.046 -0.155,0 -0.341,-0.017 -0.559,-0.048 -0.062,0 -0.171,-0.062 -0.326,-0.184 C 1.175,14.563 0.99,14.33 0.802,14.022 0.711,13.927 0.663,13.803 0.663,13.648 c 0,-0.186 0,-0.296 0,-0.327 0,-0.496 0.109,-1.009 0.327,-1.536 0,-0.062 0.03,-0.405 0.092,-1.023 0,-0.59 0,-1.147 0,-1.676 L 1.455,2.105 2.572,0.66 V 0.52 l 2.374,0.14 c 0.531,0.063 1.135,0.125 1.816,0.187 0.622,0.062 1.227,0.091 1.816,0.091 0.56,0.062 1.038,0.11 1.443,0.141 0.372,0.062 0.62,0.092 0.746,0.092 0.061,0 0.34,0.017 0.836,0.048 0.495,0.093 1.04,0.169 1.628,0.232 0.559,0.063 1.086,0.14 1.583,0.232 0.495,0.063 0.792,0.094 0.884,0.094 h 0.139 v 0.14 c 0.093,0 0.156,0.063 0.188,0.186 0.092,0.125 0.092,0.279 0,0.466 -0.095,0.155 -0.312,0.294 -0.651,0.417 -0.249,0.062 -0.56,0.11 -0.932,0.14 -0.434,0 -0.837,0 -1.211,0 -0.403,0 -0.759,0 -1.069,0 C 11.85,3.096 11.681,3.079 11.649,3.079 L 7.274,2.753 H 7.181 C 7.152,2.753 7.137,2.723 7.134,2.662 V 3.08 c 0.186,0 0.465,0.017 0.838,0.047 0.401,0 0.807,0.032 1.21,0.095 0.433,0.03 0.822,0.076 1.163,0.138 0.374,0 0.622,0.016 0.746,0.047 0.093,0 0.728,0 1.909,0 1.21,0 2.654,0 4.328,0 1.739,0 3.601,0 5.587,0 1.955,0 3.799,0 5.538,0 0,-0.031 0,-0.155 0,-0.373 0,-0.186 0.029,-0.371 0.093,-0.558 0.03,-0.248 0.062,-0.496 0.092,-0.747 h 0.095 c 0.155,-0.029 0.418,-0.06 0.791,-0.09 0.311,0 0.621,0 0.933,0 0.309,0 0.588,0 0.835,0 0.282,0.03 0.45,0.074 0.514,0.139 0.093,0.093 0.217,0.264 0.373,0.512 0.122,0.28 0.232,0.512 0.324,0.697 h 4.701 c 0,-0.091 0,-0.171 0,-0.233 0,-0.124 0.032,-0.248 0.093,-0.372 0,-0.124 0.016,-0.248 0.047,-0.372 h 0.095 c 0.154,-0.063 0.387,-0.154 0.698,-0.282 0.247,-0.124 0.544,-0.231 0.885,-0.322 0.247,-0.125 0.509,-0.203 0.791,-0.236 0.279,-0.061 0.481,-0.061 0.605,0 0.31,0.127 0.497,0.28 0.559,0.468 0.091,0.185 0.139,0.309 0.139,0.372 v 3.119 l 0.466,0.418 h 2.562 z m -18.34,9.124 h 3.537 c 0.312,0 0.56,-0.094 0.747,-0.281 0.216,-0.184 0.324,-0.431 0.324,-0.745 v -0.559 c 0,-0.311 -0.108,-0.558 -0.324,-0.745 -0.187,-0.185 -0.435,-0.278 -0.747,-0.278 h -3.537 c -0.311,0 -0.573,0.093 -0.792,0.278 -0.249,0.188 -0.373,0.435 -0.373,0.745 v 0.559 c 0,0.313 0.124,0.561 0.373,0.745 0.22,0.187 0.481,0.281 0.792,0.281 z M 3.784,3.221 c -0.248,0 -0.436,0 -0.559,0 -0.062,0.092 -0.092,0.233 -0.092,0.417 0,0.217 0,0.436 0,0.651 0,0.373 0.013,0.793 0.044,1.257 0.032,0.466 0.078,1.009 0.14,1.629 C 3.441,6.368 3.627,5.593 3.877,4.848 4.094,4.136 4.248,3.637 4.341,3.358 4.157,3.267 3.969,3.221 3.784,3.221 Z"
   id="path138" />
		</g>
	</g>
</g>

</svg>
