<?xml version="1.0" encoding="UTF-8" standalone="no"?>
<!-- Generator: Adobe Illustrator 16.0.0, SVG Export Plug-In . SVG Version: 6.00 Build 0)  -->

<svg
   version="1.1"
   id="Layer_1"
   x="0px"
   y="0px"
   width="97.592003"
   height="45.133999"
   viewBox="0 0 97.592 45.134"
   enable-background="new 0 0 92.592 39.134"
   xml:space="preserve"
   xmlns="http://www.w3.org/2000/svg"
   xmlns:svg="http://www.w3.org/2000/svg"><defs
   id="defs403" />
<path
   fill-rule="evenodd"
   clip-rule="evenodd"
   fill="#ffffff"
   d="m 90.855,16.174 c 0,0.566 -0.084,1.216 -0.25,1.95 -0.066,0.367 -0.15,0.684 -0.25,0.95 h -27.1 v 0.8 l -0.3,0.4 h -24.65 v -1.1 h -1 c -0.167,0.1 -0.184,0.367 -0.05,0.8 l 0.7,2.15 h 0.35 l 0.1,0.35 -0.6,0.25 0.15,0.55 c 0.167,0.434 0.35,0.934 0.55,1.5 0.667,1.733 1.534,3.616 2.6,5.65 1.033,2.033 2.483,4.417 4.35,7.149 0.9,1.334 1.717,2.484 2.45,3.45 l -3.7,2.851 c -0.7,-0.9 -1.517,-2.018 -2.45,-3.351 -1.833,-2.733 -3.316,-5.216 -4.45,-7.45 -1.133,-2.266 -2.117,-4.383 -2.95,-6.35 l -0.95,-2.3 -0.35,0.1 h -1.35 l -0.4,2.1 h -0.3 l 0.3,-2 h -1.45 l -0.35,0.35 -1.75,3.5 c -0.1,0.267 -0.316,0.416 -0.65,0.45 h -5.5 c -0.467,-0.034 -0.867,-0.15 -1.2,-0.351 l -0.2,0.15 c -0.133,0.166 -0.233,0.334 -0.3,0.5 -0.067,0.133 -0.117,0.35 -0.15,0.65 -0.033,0.3 -0.1,0.533 -0.2,0.699 -0.033,0.101 -0.133,0.283 -0.3,0.551 -0.2,0.232 -0.35,0.482 -0.45,0.75 -0.1,0.3 -0.167,0.583 -0.2,0.85 0,0.334 -0.033,0.566 -0.1,0.7 -0.033,0.167 -0.167,0.417 -0.4,0.75 -0.2,0.333 -0.35,0.634 -0.45,0.899 -0.067,0.2 -0.117,0.5 -0.15,0.9 -0.033,0.3 -0.083,0.533 -0.15,0.7 -0.1,0.233 -0.267,0.466 -0.5,0.7 -0.167,0.133 -0.3,0.232 -0.4,0.3 l -5.95,-3.25 c 0.034,-0.3 0.133,-0.7 0.3,-1.2 0.333,-1 0.733,-2.017 1.2,-3.05 0.434,-0.866 0.967,-1.733 1.6,-2.601 0.3,-0.399 0.5,-0.667 0.6,-0.8 0.133,-0.267 0.25,-0.5 0.35,-0.7 0.2,-0.6 0.316,-1.117 0.35,-1.55 0.066,-0.566 -0.017,-1.033 -0.25,-1.4 -0.2,-0.333 -0.483,-0.6 -0.85,-0.8 -0.2,-0.067 -0.35,-0.133 -0.45,-0.2 -0.133,-0.033 -0.217,-0.083 -0.25,-0.15 -0.1,-0.1 -0.167,-0.2 -0.2,-0.3 h -3.8 c -0.333,0 -0.6,-0.25 -0.8,-0.75 l -0.6,-2.9 -0.25,-0.05 -0.1,0.35 0.65,2.15 -0.3,0.55 h -1.55 l -0.35,-0.65 1,-2 -0.05,-0.45 -0.4,0.2 c -0.3,0.267 -0.533,0.567 -0.7,0.9 -0.2,0.367 -0.35,0.733 -0.45,1.1 -0.067,0.167 -0.1,0.3 -0.1,0.4 l -0.55,3.4 c -0.367,2.233 -0.617,3.417 -0.75,3.55 -0.133,0.1 -0.267,0.217 -0.4,0.35 -0.067,0.066 -0.167,0.101 -0.3,0.101 -0.233,0.033 -0.5,0.033 -0.8,0 -0.4,-0.067 -0.667,-0.184 -0.8,-0.351 -0.167,-0.167 -0.267,-0.316 -0.3,-0.45 -0.033,-0.066 -0.017,-0.233 0.05,-0.5 0,-0.033 0.117,-0.783 0.35,-2.25 0.233,-1.367 0.383,-2.4 0.45,-3.1 0.033,-0.433 0.05,-1.75 0.05,-3.95 v -2.7 c -0.033,-0.5 0,-0.85 0.1,-1.05 0.167,-0.167 0.367,-0.25 0.6,-0.25 0.267,-0.033 0.933,0.033 2,0.2 0.533,0.133 1.05,0.25 1.55,0.35 h 1.35 l 0.05,-0.8 c 0.1,-0.333 0.2,-0.684 0.3,-1.05 0.267,-0.7 0.45,-1.133 0.55,-1.3 0.133,-0.133 0.267,-0.217 0.4,-0.25 0.067,0 0.117,0 0.15,0 h 3.65 l 0.35,0.15 h 1.75 l 0.05,-1.4000002 c 0.1,-0.333 0.25,-0.567 0.45,-0.7 0.2,-0.133 0.4,-0.183 0.6,-0.15 0.2,0 0.367,0 0.5,0 l 0.2,0.75 0.4,-1 2.1,0.9 -0.45,0.8 0.45,0.7500002 h 18.9 l 0.4,0.05 h 22.75 v -0.5 h -0.3 V 7.7199998 l 0.2,-0.25 h 0.85 l 0.7,1.95 V 10.62 h 0.45 l 0.35,0.5 v 1.7 h -0.3 v 0.55 h 27.25 l 0.2,0.9 c 0.134,0.704 0.2,1.337 0.2,1.904 z m -62.55,8.8 -0.35,-0.35 h -4.05 l -0.2,0.4 c -0.133,0.267 -0.233,0.534 -0.3,0.8 -0.034,0.233 0,0.533 0.1,0.9 0.067,0.333 0.133,0.583 0.2,0.75 l 0.05,0.5 -0.4,-0.2 c -0.3,-0.433 -0.5,-0.867 -0.6,-1.3 -0.066,-0.4 -0.117,-0.833 -0.15,-1.3 v -0.55 h -1 l -0.45,1.05 c -0.267,0.7 -0.417,1.1 -0.45,1.2 -0.033,0.233 -0.033,0.533 0,0.9 0.267,0.267 0.617,0.45 1.05,0.55 h 5.05 c 0.2,-0.033 0.35,-0.166 0.45,-0.399 z"
   id="path398" />
</svg>
