<?xml version="1.0" encoding="UTF-8" standalone="no"?>
<!-- Generator: Adobe Illustrator 16.0.0, SVG Export Plug-In . SVG Version: 6.00 Build 0)  -->

<svg
   version="1.1"
   x="0px"
   y="0px"
   width="64.125"
   height="41"
   viewBox="0 0 64.125 41"
   enable-background="new 0 0 49.125 32"
   xml:space="preserve"
   id="svg529"
   xmlns="http://www.w3.org/2000/svg"
   xmlns:svg="http://www.w3.org/2000/svg"><defs
   id="defs533" />
<g
   id="Selected_Items"
   transform="translate(0,6)">
	<g
   id="g525">
		<g
   id="Selected_Items_36_">
			<path
   fill-rule="evenodd"
   clip-rule="evenodd"
   fill="#ffffff"
   d="m 28.065,10.277 c 0,-0.029 0,-0.058 0,-0.086 -1.154,0 -2.293,0 -3.418,0 v 0.086 c 0,0.03 0,0.058 0,0.087 v 0.086 c 0.03,0.029 0.044,0.057 0.044,0.085 v 0.045 l 0.044,0.042 v 0.042 c 0.056,0.03 0.114,0.058 0.171,0.086 0.028,0.029 0.057,0.059 0.088,0.088 0.027,0.028 0.043,0.055 0.043,0.083 v 0.043 c 0.028,0.029 0.057,0.045 0.085,0.045 0,0.028 0.015,0.056 0.044,0.085 0,0.03 0.013,0.059 0.042,0.086 0,0.03 0.014,0.044 0.044,0.044 0.027,0.028 0.043,0.055 0.043,0.086 0.028,0.028 0.042,0.058 0.042,0.087 0,0.027 0,0.057 0,0.085 l 0.043,0.043 v 0.044 c 0.029,0.028 0.057,0.057 0.086,0.085 0,0.03 0.016,0.058 0.044,0.087 0.029,0.029 0.058,0.058 0.087,0.086 v 0.044 h 0.042 v 0.045 c 0.029,0.027 0.059,0.056 0.086,0.085 0,0.028 0,0.056 0,0.085 l 0.043,0.045 v 0.042 c 0.028,0 0.057,0.015 0.085,0.044 0,0.029 0.015,0.058 0.043,0.087 0.376,0 0.765,0 1.17,0 0.028,0 0.044,-0.016 0.044,-0.044 0.027,0 0.056,-0.014 0.083,-0.043 V 12.18 c 0.032,0 0.059,0 0.087,0 0,-0.028 0,-0.057 0,-0.087 0.029,-0.029 0.058,-0.057 0.087,-0.085 0.057,0 0.101,-0.017 0.129,-0.044 0,-0.029 0.013,-0.058 0.043,-0.086 v -0.044 c 0,-0.028 0,-0.057 0,-0.086 0,-0.029 0.015,-0.057 0.043,-0.087 0,-0.029 0,-0.057 0,-0.085 v -0.044 c 0.028,0 0.044,-0.015 0.044,-0.043 0.028,-0.029 0.042,-0.058 0.042,-0.085 0.028,-0.029 0.056,-0.059 0.087,-0.087 0,-0.031 0.014,-0.058 0.042,-0.086 v -0.044 c 0.029,-0.028 0.044,-0.057 0.044,-0.086 0,-0.029 0.014,-0.058 0.043,-0.085 0.028,0 0.057,-0.016 0.086,-0.045 0.028,-0.027 0.058,-0.043 0.087,-0.043 v -0.083 c 0,-0.029 0,-0.06 0,-0.088 0,-0.028 0,-0.057 0,-0.086 0,-0.028 0,-0.057 0,-0.085 v -0.045 c 0,-0.028 0.015,-0.056 0.043,-0.085 0,-0.029 -0.016,-0.057 -0.043,-0.086 0.008,-0.035 0.008,-0.063 0.008,-0.093 z M 44.15,6.385 c 0.028,0.03 0.044,0.059 0.044,0.086 0,0.032 0.013,0.044 0.042,0.044 0.202,0 0.405,0 0.607,0 v 0.044 h 3.936 l 0.214,0.217 v 2.333 l -0.257,0.26 h -3.633 v 0.088 c -0.173,0 -0.363,0.012 -0.563,0.042 l -0.044,0.044 c -0.029,0.027 -0.07,0.071 -0.129,0.129 -0.028,0 -0.059,0.015 -0.088,0.042 0.029,0.032 0.045,0.06 0.045,0.088 0.028,0.028 0.043,0.059 0.043,0.087 0,0.028 0.013,0.058 0.042,0.085 v 0.043 c 0,0.03 0,0.059 0,0.086 0,0.031 0,0.06 0,0.088 0,0.028 0,0.057 0,0.086 0,0.03 0,0.058 0,0.087 -0.03,0.03 -0.042,0.058 -0.042,0.086 -0.028,0.029 -0.059,0.057 -0.088,0.085 v 0.045 c 0,0.028 0,0.057 0,0.085 0,0.03 0,0.058 0,0.086 0,0.029 0,0.059 0,0.088 v 0.042 l -0.043,0.042 c -0.029,0.032 -0.042,0.058 -0.042,0.089 -0.059,0.028 -0.114,0.041 -0.172,0.041 -0.058,0 -0.116,-0.013 -0.173,-0.041 -0.03,-0.031 -0.044,-0.057 -0.044,-0.089 -0.03,0 -0.059,-0.013 -0.086,-0.042 l -0.043,-0.042 c 0,-0.029 -0.015,-0.06 -0.044,-0.088 0,-0.028 -0.013,-0.057 -0.043,-0.086 0,-0.028 -0.013,-0.057 -0.042,-0.085 l -0.043,-0.045 c -0.027,-0.028 -0.056,-0.056 -0.086,-0.085 -0.029,-0.029 -0.057,-0.057 -0.086,-0.086 -0.029,-0.029 -0.043,-0.057 -0.043,-0.087 -0.029,0 -0.057,0 -0.087,0 -0.029,-0.029 -0.057,-0.058 -0.086,-0.086 -0.027,-0.028 -0.057,-0.057 -0.085,-0.088 0,-0.027 -0.016,-0.057 -0.043,-0.086 0,-0.028 -0.028,-0.043 -0.086,-0.043 C 42.873,9.946 42.858,9.916 42.858,9.889 42.83,9.861 42.8,9.83 42.772,9.802 42.744,9.774 42.715,9.746 42.687,9.714 L 42.599,9.629 c 0,-0.028 -0.014,-0.059 -0.042,-0.086 h -0.044 c -0.057,0 -0.115,-0.015 -0.173,-0.044 L 42.298,9.457 c -0.058,0 -0.102,0 -0.13,0 -0.029,0.057 -0.058,0.099 -0.087,0.128 -0.028,0.057 -0.043,0.101 -0.043,0.128 -0.028,0.032 -0.072,0.073 -0.128,0.131 -0.059,0.057 -0.117,0.101 -0.173,0.129 -0.059,0.029 -0.13,0.073 -0.216,0.129 -0.059,0 -0.102,0.016 -0.13,0.045 h -0.043 v 0.043 c 0,0.028 -0.015,0.057 -0.043,0.086 -0.059,0 -0.102,0 -0.13,0 -0.058,0.03 -0.1,0.058 -0.129,0.087 0,0.03 -0.016,0.058 -0.043,0.086 0,0.029 0,0.057 0,0.085 0,0.031 -0.016,0.045 -0.042,0.045 0,0.028 0,0.057 0,0.085 -0.031,0 -0.06,0.016 -0.087,0.044 v 0.042 c 0,0.029 0,0.059 0,0.088 v 0.083 c 0,0.032 0,0.058 0,0.089 0,0.028 0,0.056 0,0.085 0,0.03 0,0.059 0,0.086 v 0.044 c 0,0.028 0,0.055 0,0.086 0,0.028 0,0.058 0,0.087 v 0.042 c 0,0.031 0,0.058 0,0.087 v 0.044 c 0,0.028 0,0.057 0,0.085 0,0.03 0,0.058 0,0.087 0,0.029 0,0.058 0,0.086 v 0.044 c 0,0.028 0,0.058 0,0.086 v 0.044 c 0,0.028 0,0.056 0,0.085 0,0.03 0,0.059 0,0.087 v 0.044 c 0,0.029 0,0.058 0,0.087 0,0.027 0,0.055 0,0.084 0,0.029 0,0.06 0,0.087 v 0.087 c 0,0.027 0,0.056 0,0.087 0,0.029 0,0.057 0,0.085 v 0.043 c 0,0.027 0,0.057 0,0.086 0,0.027 0,0.057 0,0.086 0,0.03 0,0.059 0,0.087 0,0.028 0,0.058 0,0.086 0,0.028 0,0.06 0,0.087 0,0.027 0,0.058 0,0.086 0,0.028 0,0.058 0,0.086 v 0.042 c 0,0.03 0,0.06 0,0.087 0,0.029 0,0.057 0,0.086 0,0.03 0,0.06 0,0.086 v 0.087 c 0,0.03 0,0.059 0,0.088 0,0.027 0,0.057 0,0.086 0,0.029 0,0.058 0,0.086 v 0.045 c 0,0.027 0,0.056 0,0.086 0,0.028 0,0.056 0,0.083 V 14.3 c 0,0.029 0,0.057 0,0.086 v 0.042 c 0,0.03 0,0.059 0,0.087 0,0.03 0,0.057 0,0.087 0,0.029 0,0.058 0,0.086 v 0.045 c 0,0.027 0,0.056 0,0.086 v 0.042 c 0,0.03 0,0.059 0,0.087 v 0.042 c 0,0.03 0,0.058 0,0.088 0,0.028 0,0.057 0,0.086 0,0.028 0,0.058 0,0.087 0,0.027 0,0.056 0,0.087 v 0.084 c 0,0.029 0,0.059 0,0.085 0,0.029 0,0.06 0,0.086 v 0.044 c 0,0.027 0,0.056 0,0.088 0,0.028 0,0.056 0,0.085 0,0.028 0,0.057 0,0.087 v 0.086 c 0,0.029 0,0.057 0,0.087 0,0.027 0,0.055 0,0.086 0,0.027 0,0.057 0,0.084 v 0.045 c 0,0.028 0,0.058 0,0.086 0,0.03 0,0.06 0,0.087 0,0.029 0,0.059 0,0.087 v 0.086 c 0,0.028 0,0.057 0,0.086 0,0.028 0,0.06 0,0.086 0,0.028 0,0.058 0,0.088 v 0.041 c 0,0.031 0,0.06 0,0.087 0,0.029 0,0.06 0,0.089 v 0.085 c 0,0.028 0,0.057 0,0.086 0,0.029 0,0.058 0,0.087 0,0.029 0,0.057 0,0.086 0,0.029 0,0.06 0,0.086 v 0.044 c 0,0.029 0,0.057 0,0.085 v 0.044 c 0,0.027 0,0.057 0,0.087 v 0.043 c 0,0.028 0,0.058 0,0.085 0,0.03 0,0.058 0,0.086 0,0.031 0,0.06 0,0.087 v 0.044 c 0,0.028 0,0.057 0,0.086 v 0.043 c 0,0.029 0,0.059 0,0.087 0,0.028 0,0.058 0,0.086 v 0.043 c 0,0.029 0,0.059 0,0.087 0,0.028 0,0.057 0,0.085 0,0.029 0,0.059 0,0.087 v 0.085 c 0,0.03 0,0.059 0,0.089 0,0.028 0,0.057 0,0.085 0,0.031 0,0.058 0,0.086 v 0.044 c 0,0.027 0,0.056 0,0.087 0,0.029 0,0.056 0,0.086 0,0.027 0,0.057 0,0.087 0,0.029 0,0.057 0,0.084 0,0.029 0,0.059 0,0.09 0,0.027 0,0.056 0,0.083 0,0.032 0,0.059 0,0.087 v 0.045 c 0,0.029 0,0.056 0,0.085 0,0.029 0,0.06 0,0.087 v 0.086 c 0,0.029 0,0.056 0,0.086 0,0.028 0,0.058 0,0.087 0,0.029 0,0.057 0,0.087 v 0.043 c 0,0.028 0,0.058 0,0.087 0,0.027 0,0.057 0,0.084 v 0.043 c 0,0.031 0,0.059 0,0.087 v 0.042 c 0,0.029 0,0.06 0,0.087 0,0.029 0,0.059 0,0.086 0,0.029 0,0.059 0,0.086 v 0.042 c 0,0.031 0,0.058 0,0.088 v 0.043 c 0,0.029 0,0.057 0,0.087 0,0.028 0,0.056 0,0.086 v 0.043 c 0,0.028 0,0.058 0,0.086 0,0.028 0,0.058 0,0.085 0,0.03 0,0.058 0,0.088 v 0.084 c 0,0.03 0,0.06 0,0.087 0,0.029 0,0.059 0,0.086 0,0.029 -0.016,0.059 -0.043,0.087 l -0.043,0.043 v 0.086 c -0.03,0 -0.059,0.013 -0.088,0.042 l -0.042,0.044 c -0.059,0 -0.101,0 -0.13,0 -0.028,0 -0.057,0 -0.086,0 -0.058,0 -0.101,0 -0.129,0 -0.029,-0.029 -0.058,-0.044 -0.087,-0.044 -0.145,0 -0.289,-0.014 -0.432,-0.042 -0.059,0 -0.114,-0.015 -0.174,-0.042 -0.056,-0.03 -0.085,-0.059 -0.085,-0.087 -0.029,0 -0.057,0 -0.086,0 -0.03,0 -0.045,-0.015 -0.045,-0.043 -0.056,0 -0.114,-0.014 -0.172,-0.043 -0.029,0 -0.044,-0.013 -0.044,-0.042 -0.056,0 -0.115,-0.015 -0.172,-0.044 -0.057,0 -0.1,0 -0.13,0 v -0.045 c -0.057,0 -0.114,-0.013 -0.172,-0.042 -0.059,0 -0.116,-0.014 -0.171,-0.041 l -0.044,-0.043 c -0.06,0 -0.115,0 -0.172,0 -0.03,0 -0.058,0 -0.088,0 -0.03,-0.03 -0.058,-0.045 -0.086,-0.045 -0.031,0 -0.058,-0.013 -0.087,-0.043 -0.059,0 -0.101,-0.014 -0.13,-0.042 -0.057,-0.03 -0.102,-0.057 -0.13,-0.086 -0.056,-0.03 -0.115,-0.058 -0.173,-0.087 H 37.59 c -0.058,-0.03 -0.101,-0.058 -0.13,-0.086 -0.056,-0.031 -0.099,-0.058 -0.128,-0.087 0,-0.03 -0.015,-0.058 -0.044,-0.086 -0.029,-0.03 -0.059,-0.044 -0.087,-0.044 -0.029,-0.027 -0.043,-0.057 -0.043,-0.085 -0.029,-0.028 -0.056,-0.058 -0.085,-0.086 -0.031,-0.03 -0.044,-0.057 -0.044,-0.089 -0.029,0 -0.057,-0.013 -0.087,-0.042 -0.028,0 -0.057,-0.014 -0.085,-0.042 0,-0.028 -0.014,-0.056 -0.043,-0.087 0,-0.027 -0.015,-0.056 -0.042,-0.088 0,-0.027 -0.015,-0.055 -0.044,-0.083 0,-0.029 -0.014,-0.043 -0.043,-0.043 0,-0.028 0,-0.059 0,-0.088 0,-0.027 -0.015,-0.055 -0.045,-0.086 v -0.043 c -0.028,-0.03 -0.056,-0.057 -0.085,-0.086 l -0.043,-0.044 c 0,-0.028 0,-0.057 0,-0.087 -0.029,-0.027 -0.042,-0.056 -0.042,-0.085 0,-0.028 -0.015,-0.058 -0.043,-0.088 v -0.042 c 0,-0.028 0,-0.058 0,-0.086 v -0.042 c 0,-0.031 0,-0.061 0,-0.09 0,-0.027 0,-0.055 0,-0.084 V 19.23 c 0,-0.031 0,-0.06 0,-0.087 v -0.044 c 0,-0.028 0,-0.055 0,-0.086 0,-0.029 0,-0.058 0,-0.085 0,-0.03 0,-0.059 0,-0.089 v -0.085 c 0,-0.028 0,-0.058 0,-0.087 0,-0.028 0,-0.057 0,-0.085 0,-0.029 0,-0.059 0,-0.087 v -0.043 c 0,-0.028 0,-0.058 0,-0.086 0,-0.028 0,-0.058 0,-0.087 v -0.043 c 0,-0.029 0,-0.058 0,-0.086 v -0.044 c 0,-0.028 0,-0.057 0,-0.087 0,-0.028 0,-0.056 0,-0.086 0,-0.028 0,-0.057 0,-0.085 v -0.043 c 0,-0.031 0,-0.06 0,-0.087 v -0.044 c 0,-0.029 0,-0.057 0,-0.085 v -0.044 c 0,-0.026 0,-0.057 0,-0.086 0.029,-0.029 0.043,-0.057 0.043,-0.086 0.028,-0.029 0.042,-0.058 0.042,-0.087 0,-0.029 0,-0.058 0,-0.086 v -0.085 c 0,-0.029 0,-0.06 0,-0.089 0,-0.028 0,-0.057 0,-0.087 v -0.041 c 0,-0.03 0,-0.06 0,-0.088 0,-0.026 0,-0.059 0,-0.086 0,-0.029 0,-0.059 0,-0.086 v -0.086 c 0.03,-0.028 0.043,-0.058 0.043,-0.087 0.029,-0.027 0.043,-0.057 0.043,-0.087 0.028,-0.028 0.042,-0.058 0.042,-0.086 v -0.045 c 0,-0.027 0,-0.057 0,-0.084 0,-0.031 0,-0.059 0,-0.086 0,-0.03 0,-0.058 0,-0.087 v -0.086 c 0,-0.031 0,-0.06 0,-0.087 0,-0.029 0,-0.057 0,-0.085 0,-0.032 0,-0.061 0,-0.088 V 15.6 c 0,-0.027 0,-0.057 0,-0.086 0,-0.027 0,-0.057 0,-0.085 v -0.084 c 0,-0.031 0,-0.06 0,-0.087 0,-0.03 0,-0.06 0,-0.087 0,-0.029 0,-0.059 0,-0.086 0,-0.03 0,-0.058 0,-0.088 v -0.042 c 0,-0.028 0,-0.057 0,-0.087 V 14.82 c 0,-0.031 0,-0.059 0,-0.086 v -0.045 c 0,-0.028 0,-0.058 0,-0.086 0,-0.03 0,-0.057 0,-0.087 0,-0.028 0,-0.057 0,-0.087 v -0.042 c 0,-0.029 0,-0.057 0,-0.086 v -0.045 c 0,-0.028 0,-0.056 0,-0.083 0,-0.031 0,-0.059 0,-0.086 V 14.04 c 0,-0.028 0,-0.058 0,-0.086 0,-0.029 0,-0.059 0,-0.086 0,-0.029 0,-0.058 0,-0.088 v -0.087 c 0,-0.026 0,-0.056 0,-0.086 0,-0.029 0,-0.057 0,-0.086 0,-0.027 0,-0.057 0,-0.087 v -0.042 c 0,-0.028 0,-0.058 0,-0.086 0,-0.028 0,-0.059 0,-0.086 0,-0.028 0,-0.059 0,-0.087 0,-0.029 0,-0.059 0,-0.086 0,-0.028 0,-0.057 0,-0.087 0,-0.029 0,-0.059 0,-0.086 0,-0.029 0,-0.059 0,-0.086 v -0.043 c 0,-0.029 0,-0.057 0,-0.085 0,-0.031 0,-0.06 0,-0.087 v -0.087 c 0,-0.028 0,-0.058 0,-0.087 0,-0.029 0,-0.057 0,-0.084 0,-0.03 0,-0.058 0,-0.087 V 12.18 c 0,-0.028 0,-0.057 0,-0.087 0,-0.029 0,-0.057 0,-0.085 v -0.044 c 0,-0.029 0,-0.058 0,-0.086 v -0.044 c 0,-0.028 0,-0.057 0,-0.086 0,-0.029 0,-0.057 0,-0.087 0,-0.029 0,-0.057 0,-0.085 v -0.044 c 0,-0.03 0,-0.057 0,-0.087 v -0.042 c 0,-0.029 0,-0.059 0,-0.087 0,-0.031 0,-0.058 0,-0.086 v -0.044 c 0,-0.028 0,-0.057 0,-0.086 0,-0.029 0,-0.058 0,-0.085 0,-0.031 0,-0.057 0,-0.089 v -0.083 c 0,-0.029 0,-0.06 0,-0.088 0,-0.028 0,-0.057 0,-0.086 0,-0.028 0,-0.057 0,-0.085 v -0.045 c 0,-0.028 0,-0.056 0,-0.085 0,-0.029 0,-0.057 0,-0.086 0,-0.029 0,-0.057 0,-0.087 v -0.042 c -0.056,-0.028 -0.099,-0.044 -0.128,-0.044 -2.218,0 -4.453,0 -6.703,0 0,0.028 -0.015,0.044 -0.043,0.044 l 0.043,0.042 c 0.029,0.03 0.043,0.058 0.043,0.087 0,0.03 0,0.058 0,0.086 v 0.043 c 0,0.029 0,0.057 0,0.088 v 0.042 c 0,0.027 0,0.058 0,0.086 0,0.03 0,0.057 0,0.086 0,0.028 0,0.058 0,0.086 v 0.042 c 0,0.032 0,0.058 0,0.089 v 0.041 c -0.029,0.03 -0.058,0.059 -0.086,0.089 0,0.029 0,0.058 0,0.087 v 0.042 c 0,0.03 0,0.058 0,0.087 0,0.029 0,0.059 0,0.085 -0.058,0.031 -0.116,0.058 -0.173,0.087 -0.028,0 -0.058,0.013 -0.087,0.044 -0.027,0.028 -0.056,0.043 -0.086,0.043 -0.029,0.029 -0.044,0.057 -0.044,0.086 -0.027,0.03 -0.057,0.058 -0.085,0.086 -0.057,0.027 -0.102,0.057 -0.13,0.086 v 0.045 c -0.027,0.027 -0.043,0.056 -0.043,0.085 0,0.028 0,0.056 0,0.085 0,0.03 0,0.059 0,0.087 -0.029,0.029 -0.059,0.059 -0.086,0.087 0,0.028 0,0.059 0,0.086 0,0.029 0,0.059 0,0.086 v 0.043 c 0,0.028 0,0.06 0,0.087 0,0.027 0,0.056 0,0.087 0,0.029 0,0.057 0,0.085 v 0.043 c -0.03,0 -0.044,0.014 -0.044,0.044 -0.028,0.028 -0.057,0.055 -0.086,0.087 0,0.027 0,0.057 0,0.084 0,0.028 -0.014,0.057 -0.043,0.088 0,0.027 -0.014,0.042 -0.043,0.042 0,0.028 0,0.06 0,0.087 0,0.027 0,0.058 0,0.086 0,0.028 -0.015,0.042 -0.043,0.042 -0.028,0.031 -0.072,0.06 -0.129,0.087 l -0.043,0.044 c -0.029,0.028 -0.059,0.059 -0.087,0.086 -0.03,0.029 -0.073,0.042 -0.13,0.042 -0.116,0.03 -0.245,0.06 -0.389,0.086 -0.03,0 -0.059,0.015 -0.086,0.045 -0.029,0 -0.058,0 -0.087,0 -0.432,0 -0.864,0 -1.297,0 l -0.043,0.042 c -0.058,0 -0.101,0 -0.129,0 -1.038,0.03 -2.076,0.059 -3.114,0.088 -0.029,0 -0.058,0.014 -0.087,0.043 -0.028,0 -0.057,0 -0.085,0 -0.087,0 -0.159,0 -0.216,0 0,0.028 -0.015,0.042 -0.043,0.042 -0.028,0.029 -0.057,0.058 -0.084,0.086 l -0.046,0.045 h -0.042 c 0,0.027 0,0.056 0,0.086 0,0.028 0,0.056 0,0.083 0,0.03 0,0.06 0,0.087 v 0.044 c 0,0.03 0,0.058 0,0.086 0,0.03 0,0.056 0,0.087 0,0.028 0,0.058 0,0.086 v 0.088 c 0,0.027 0,0.056 0,0.086 0,0.027 0,0.056 0,0.085 0,0.029 0,0.057 0,0.085 v 0.044 c 0,0.027 0,0.058 0,0.087 0,0.029 0,0.056 0,0.085 v 0.045 c 0,0.027 0,0.056 0,0.087 v 0.041 c 0,0.028 0,0.058 0,0.087 0,0.029 0,0.058 0,0.087 0,0.027 0,0.056 0,0.085 -0.028,0 -0.044,0.015 -0.044,0.043 0,0.028 -0.012,0.058 -0.042,0.087 v 0.043 c 0,0.028 0,0.057 0,0.087 v 0.042 c 0,0.029 0,0.058 0,0.085 0,0.028 0,0.058 0,0.088 0,0.027 0,0.059 0,0.085 0,0.03 0,0.06 0,0.088 v 0.086 c 0,0.03 0,0.06 0,0.087 0,0.029 0,0.059 0,0.087 v 0.042 c 0,0.03 0,0.058 0,0.086 0,0.029 0,0.059 0,0.087 0,0.032 0,0.059 0,0.086 v 0.085 c 0,0.031 0,0.06 0,0.087 0,0.029 0,0.06 0,0.089 0,0.027 0,0.056 0,0.085 v 0.043 c 0,0.028 0,0.058 0,0.087 0,0.028 0,0.056 0,0.087 0,0.027 0,0.056 0,0.084 v 0.087 c 0,0.029 0,0.057 0,0.085 0.029,0.03 0.042,0.059 0.042,0.086 0,0.031 0.016,0.06 0.044,0.088 v 0.043 c 0,0.028 0,0.057 0,0.087 0,0.029 0,0.056 0,0.086 v 0.087 c 0,0.028 0,0.057 0,0.086 0,0.028 0,0.058 0,0.087 0,0.03 0,0.058 0,0.088 0,0.027 0,0.055 0,0.083 v 0.044 c 0,0.028 0,0.057 0,0.087 v 0.042 c 0.029,0.029 0.042,0.059 0.042,0.087 l 0.046,0.044 c 0,0.029 0.014,0.057 0.042,0.086 0,0.029 0,0.057 0,0.087 0,0.027 0,0.057 0,0.085 v 0.042 c 0,0.028 0,0.058 0,0.087 v 0.044 c 0,0.029 0,0.056 0,0.086 0.028,0.027 0.042,0.057 0.042,0.087 l 0.043,0.042 c 0,0.029 0,0.058 0,0.086 0,0.028 0,0.057 0,0.086 0,0.028 0,0.058 0,0.086 v 0.088 c 0,0.029 0,0.056 0,0.085 0,0.029 0,0.06 0,0.087 0,0.029 0,0.057 0,0.086 v 0.043 c 0,0.027 0.014,0.058 0.042,0.085 0,0.031 0,0.059 0,0.086 0.03,0.029 0.045,0.06 0.045,0.088 0,0.028 0,0.058 0,0.087 0,0.027 0,0.057 0,0.084 0,0.028 0,0.059 0,0.088 0,0.028 0,0.057 0,0.084 v 0.042 c 0,0.032 0,0.059 0,0.089 0,0.028 0,0.058 0,0.086 v 0.043 l -0.045,0.042 c -0.028,0.031 -0.042,0.058 -0.042,0.088 -0.029,0.029 -0.058,0.043 -0.085,0.043 0,0.029 0,0.057 0,0.087 0,0.028 0,0.056 0,0.086 l -0.042,0.043 c 0,0.028 0,0.058 0,0.086 -0.03,0.028 -0.06,0.058 -0.088,0.085 0,0.03 0,0.058 0,0.088 v 0.084 c 0,0.03 0,0.06 0,0.087 0,0.029 0,0.059 0,0.086 0,0.029 0,0.059 0,0.087 v 0.043 c 0,0.029 0,0.058 0,0.086 0,0.029 0,0.058 0,0.087 0,0.028 0,0.057 0,0.087 0.029,0 0.058,0 0.088,0 0,0.027 0.014,0.057 0.042,0.086 0,0.027 0,0.058 0,0.086 0,0.027 0,0.057 0,0.085 v 0.044 c 0,0.029 0,0.057 0,0.087 0,0.028 0,0.056 0,0.085 0,0.029 0,0.058 0,0.087 v 0.086 c 0,0.03 0,0.059 0,0.088 0,0.028 0,0.056 0,0.085 0,0.03 0,0.057 0,0.086 l 0.042,0.045 c 0.029,0.028 0.043,0.055 0.043,0.084 0,0.03 0,0.06 0,0.087 v 0.043 c 0,0.028 0,0.058 0,0.087 v 0.042 c 0,0.029 0,0.06 0,0.087 0,0.029 0,0.057 0,0.085 0,0.029 0,0.06 0,0.086 v 0.044 c 0,0.028 0.014,0.058 0.042,0.085 0,0.029 0.016,0.043 0.045,0.043 0,0.03 0,0.059 0,0.087 0,0.03 0,0.059 0,0.086 v 0.043 c 0,0.029 0,0.057 0,0.087 0,0.029 0,0.057 0,0.088 0,0.028 0,0.056 0,0.085 v 0.042 c 0.029,0.03 0.058,0.044 0.087,0.044 0,0.03 0,0.059 0,0.088 0,0.027 0,0.055 0,0.083 v 0.044 c 0,0.03 0,0.059 0,0.088 0,0.027 0,0.057 0,0.086 0,0.029 0,0.058 0,0.087 0.028,0.027 0.056,0.057 0.085,0.085 h 0.042 c 0,0.027 0,0.058 0,0.087 0,0.028 0,0.057 0,0.085 0,0.028 0,0.057 0,0.086 v 0.044 c 0,0.029 0,0.057 0,0.086 0,0.03 0,0.058 0,0.087 0,0.027 0,0.057 0,0.086 0,0.028 0.016,0.043 0.044,0.043 v 0.043 c 0,0.027 0,0.057 0,0.086 0,0.028 0,0.058 0,0.087 0,0.028 0,0.058 0,0.086 v 0.042 c 0,0.03 0,0.058 0,0.086 0,0.03 0,0.06 0,0.087 0.03,0.028 0.059,0.043 0.087,0.043 0,0.028 0.013,0.056 0.043,0.085 v 0.045 c 0,0.029 0,0.057 0,0.086 0,0.03 0,0.058 0,0.086 0,0.028 0,0.059 0,0.086 v 0.046 c 0,0.027 0,0.056 0,0.083 v 0.045 c 0.03,0.028 0.057,0.057 0.085,0.087 v 0.044 c 0,0.028 0,0.057 0,0.084 0,0.029 0,0.057 0,0.085 0,0.031 0,0.06 0,0.086 0,0.03 0,0.057 0,0.088 v 0.043 l 0.044,0.042 c 0,0.031 0.013,0.057 0.043,0.087 0,0.03 0,0.059 0,0.086 v 0.044 c 0,0.028 0,0.057 0,0.087 0,0.028 0,0.055 0,0.085 0.029,0.03 0.045,0.058 0.045,0.085 l 0.041,0.045 v 0.042 c 0,0.031 0,0.06 0,0.089 0.031,0.027 0.043,0.057 0.043,0.084 0.031,0.03 0.045,0.056 0.045,0.086 l 0.042,0.044 c 0,0.027 0,0.058 0,0.087 0,0.028 0,0.056 0,0.086 0,0.027 0,0.056 0,0.087 0.028,0.03 0.057,0.042 0.085,0.042 v 0.045 c 0.029,0.026 0.043,0.056 0.043,0.085 0,0.028 0.015,0.057 0.043,0.085 0,0.029 0,0.056 0,0.088 v 0.042 c 0.029,0.029 0.044,0.059 0.044,0.087 0.029,0.028 0.044,0.058 0.044,0.086 0.029,0.029 0.057,0.043 0.087,0.043 0,0.029 0.012,0.044 0.043,0.044 0,0.028 0,0.058 0,0.086 0,0.027 0,0.056 0,0.086 0,0.028 0.013,0.057 0.042,0.087 0,0.028 0,0.06 0,0.086 h 0.043 c 0.058,0 0.116,0.015 0.174,0.042 0.028,0.029 0.042,0.057 0.042,0.085 0,0.028 0.014,0.046 0.044,0.046 0,0.026 0,0.055 0,0.085 v 0.042 c 0,0.028 0,0.059 0,0.087 0,0.028 0,0.06 0,0.087 0,0.029 0,0.057 0,0.086 v 0.045 c 0,0.027 0,0.056 0,0.084 v 0.043 c 0,0.03 0,0.059 0,0.088 0,0.027 0,0.058 0,0.086 v 0.042 c 0,0.031 0,0.06 0,0.088 0,0.029 0,0.059 0,0.086 0.029,0.03 0.043,0.058 0.043,0.086 l 0.044,0.044 v 0.042 c 0,0.031 0,0.057 0,0.086 -0.03,0.03 -0.059,0.059 -0.088,0.087 -0.03,0.03 -0.044,0.059 -0.044,0.087 -0.029,0 -0.071,0 -0.129,0 -0.488,0 -0.981,0 -1.471,0 -0.028,0 -0.071,0.015 -0.13,0.044 h -0.042 c -0.085,0.028 -0.159,0.043 -0.217,0.043 -0.028,0.029 -0.071,0.056 -0.128,0.085 h -0.043 c -0.028,0.029 -0.072,0.043 -0.13,0.043 -0.578,0 -1.153,0 -1.731,0 -0.055,-0.029 -0.127,-0.043 -0.216,-0.043 -0.056,-0.029 -0.114,-0.056 -0.171,-0.085 V 31.08 c -0.059,-0.03 -0.117,-0.044 -0.175,-0.044 -0.23,0 -0.46,0 -0.692,0 -0.028,0 -0.057,0 -0.085,0 -0.028,0 -0.058,0 -0.087,0 -0.057,0 -0.131,0 -0.217,0 V 30.994 H 18.68 c -0.06,0 -0.116,-0.015 -0.173,-0.044 -0.029,-0.028 -0.058,-0.057 -0.086,-0.087 0,-0.029 -0.016,-0.055 -0.044,-0.086 v -0.042 c -0.029,0 -0.057,-0.016 -0.086,-0.044 0,-0.028 -0.015,-0.057 -0.043,-0.086 0,-0.027 0,-0.057 0,-0.086 0,-0.028 0,-0.057 0,-0.088 V 30.43 c -0.029,-0.028 -0.058,-0.059 -0.087,-0.086 0,-0.029 0,-0.058 0,-0.088 v -0.043 c -0.029,-0.028 -0.057,-0.057 -0.086,-0.084 v -0.045 c 0,-0.029 0,-0.057 0,-0.086 0,-0.027 0,-0.059 0,-0.087 0,-0.029 0,-0.059 0,-0.087 v -0.042 c -0.03,-0.03 -0.059,-0.059 -0.087,-0.085 V 29.65 c 0,-0.028 0,-0.056 0,-0.085 0,-0.028 -0.015,-0.042 -0.042,-0.042 0,-0.027 -0.015,-0.059 -0.045,-0.086 0,-0.03 -0.014,-0.059 -0.044,-0.087 0,-0.03 0,-0.059 0,-0.086 0,-0.029 0,-0.059 0,-0.086 v -0.044 l -0.043,-0.043 c 0,-0.028 -0.014,-0.058 -0.042,-0.086 0,-0.028 0,-0.058 0,-0.087 v -0.042 c 0,-0.032 0,-0.059 0,-0.088 0,-0.029 0,-0.058 0,-0.085 -0.029,-0.029 -0.057,-0.059 -0.087,-0.085 v -0.087 c 0,-0.031 0,-0.06 0,-0.087 0,-0.03 0,-0.058 0,-0.086 -0.028,-0.029 -0.041,-0.06 -0.041,-0.087 0,-0.029 -0.016,-0.044 -0.044,-0.044 0,-0.03 0,-0.056 0,-0.086 0,-0.028 0,-0.057 0,-0.084 0,-0.03 0,-0.059 0,-0.089 -0.029,0 -0.059,-0.014 -0.087,-0.042 L 17.47,27.881 c 0,-0.027 0,-0.056 0,-0.085 0,-0.03 0,-0.057 0,-0.085 0,-0.03 0,-0.059 0,-0.087 V 27.58 c 0,-0.027 -0.014,-0.057 -0.042,-0.086 0,-0.03 0,-0.056 0,-0.087 v -0.086 c 0,-0.031 -0.015,-0.058 -0.043,-0.088 0,-0.027 -0.013,-0.056 -0.044,-0.086 0,-0.028 -0.014,-0.056 -0.042,-0.085 0,-0.027 0,-0.057 0,-0.084 v -0.044 c 0,-0.03 0,-0.059 0,-0.087 v -0.045 c 0,-0.027 0,-0.056 0,-0.083 v -0.046 c -0.029,-0.027 -0.043,-0.058 -0.043,-0.086 0,-0.028 -0.014,-0.057 -0.043,-0.086 0,-0.029 0,-0.057 0,-0.086 V 26.37 c 0,-0.029 0,-0.057 0,-0.085 v -0.043 c 0,-0.028 0,-0.057 0,-0.087 0,-0.029 0,-0.056 0,-0.086 V 26.02 c 0,-0.029 0,-0.058 0,-0.086 -0.03,-0.03 -0.043,-0.06 -0.043,-0.087 0,-0.029 -0.015,-0.059 -0.043,-0.086 v -0.086 c 0,-0.029 0,-0.06 0,-0.086 0,-0.029 0,-0.057 0,-0.087 0,-0.029 0,-0.057 0,-0.086 -0.029,0 -0.044,-0.016 -0.044,-0.044 0,-0.029 -0.013,-0.058 -0.042,-0.086 0,-0.029 0,-0.058 0,-0.085 0,-0.029 0,-0.06 0,-0.087 0,-0.029 0,-0.059 0,-0.085 0,-0.03 0,-0.059 0,-0.087 0,-0.028 -0.015,-0.059 -0.043,-0.086 0,-0.029 -0.016,-0.059 -0.044,-0.088 l -0.043,-0.044 c 0,-0.028 0,-0.056 0,-0.083 0,-0.029 0,-0.059 0,-0.088 l -0.043,-0.044 c 0,-0.028 -0.015,-0.042 -0.044,-0.042 0,-0.029 0,-0.057 0,-0.085 0,-0.031 0,-0.059 0,-0.088 0,-0.03 0,-0.058 0,-0.087 v -0.043 c 0,-0.027 0,-0.056 0,-0.086 0,-0.028 0,-0.057 0,-0.087 v -0.043 c 0,-0.028 0,-0.058 0,-0.085 v -0.044 c 0,-0.026 -0.014,-0.057 -0.043,-0.086 0,-0.028 -0.014,-0.056 -0.042,-0.085 0,-0.027 0,-0.058 0,-0.087 v -0.042 c 0,-0.029 0,-0.059 0,-0.087 v -0.043 c 0,-0.027 0,-0.057 0,-0.087 0,-0.029 0,-0.057 0,-0.084 v -0.045 c 0,-0.029 0,-0.057 0,-0.086 0,-0.029 0,-0.057 0,-0.085 0,-0.03 0,-0.058 0,-0.088 v -0.086 c 0,-0.029 0,-0.058 0,-0.087 0,-0.029 0,-0.057 0,-0.085 0,-0.031 0,-0.059 0,-0.087 v -0.044 c 0,-0.028 0,-0.058 0,-0.085 0,-0.029 0,-0.059 0,-0.086 0,-0.03 0,-0.06 0,-0.086 0,-0.03 0,-0.059 0,-0.087 0,-0.029 0,-0.058 0,-0.087 0,-0.028 0,-0.057 0,-0.086 v -0.043 c 0,-0.028 0,-0.058 0,-0.087 0,-0.027 0,-0.057 0,-0.086 0,-0.028 0,-0.058 0,-0.087 v -0.084 c 0,-0.03 0,-0.058 0,-0.088 0,-0.028 0,-0.058 0,-0.085 0,-0.028 0,-0.059 0,-0.086 v -0.043 h -0.172 c -0.029,0 -0.071,0 -0.129,0 -0.029,0 -0.058,-0.016 -0.087,-0.045 -0.028,0 -0.058,-0.013 -0.086,-0.041 h -0.042 c -0.06,0 -0.115,-0.015 -0.174,-0.045 -0.028,-0.028 -0.058,-0.056 -0.086,-0.085 -0.027,-0.03 -0.056,-0.057 -0.085,-0.088 V 20.93 c 0,-0.028 0,-0.058 0,-0.086 0,-0.03 0,-0.057 0,-0.089 v -0.042 c 0,-0.027 -0.016,-0.056 -0.045,-0.084 0,-0.029 -0.013,-0.06 -0.042,-0.088 0,-0.027 0,-0.058 0,-0.084 0,-0.029 0,-0.059 0,-0.087 0,-0.028 0,-0.059 0,-0.088 0,-0.027 0,-0.055 0,-0.086 0,-0.028 0,-0.059 0,-0.085 v -0.043 c 0,-0.029 0,-0.057 0,-0.086 -0.028,-0.028 -0.058,-0.058 -0.087,-0.087 0,-0.029 0,-0.057 0,-0.085 v -0.088 c 0,-0.028 0,-0.058 0,-0.086 0,-0.029 0,-0.058 0,-0.086 0,-0.028 0,-0.057 0,-0.086 v -0.042 c 0,-0.03 0,-0.06 0,-0.087 0,-0.03 0,-0.057 0,-0.086 v -0.044 c 0,-0.029 0,-0.059 0,-0.087 v -0.042 c 0,-0.029 0,-0.058 0,-0.085 0,-0.031 0,-0.059 0,-0.087 0,-0.03 0,-0.058 0,-0.086 v -0.044 c 0,-0.028 0,-0.058 0,-0.087 v -0.042 c 0,-0.03 0,-0.059 0,-0.087 v -0.044 c 0,-0.028 0,-0.057 0,-0.083 0,-0.031 0,-0.059 0,-0.088 0,-0.029 0,-0.059 0,-0.087 0,-0.029 0,-0.058 0,-0.086 v -0.087 c 0,-0.03 0,-0.057 0,-0.086 0,-0.03 0,-0.059 0,-0.087 v -0.043 c 0,-0.029 0,-0.058 0,-0.088 0,-0.027 0,-0.056 0,-0.086 0,-0.029 0,-0.057 0,-0.085 v -0.087 c 0,-0.028 0,-0.058 0,-0.084 0,-0.031 0,-0.059 0,-0.087 0,-0.029 0,-0.059 0,-0.087 V 17.22 c 0,-0.029 0,-0.058 0,-0.085 0,-0.029 0,-0.06 0,-0.089 0,-0.028 0,-0.057 0,-0.087 v -0.085 c 0,-0.027 0,-0.055 0,-0.086 0,-0.028 0,-0.058 0,-0.087 0,-0.028 0,-0.057 0,-0.086 0.029,0 0.044,-0.013 0.044,-0.042 0.029,-0.028 0.043,-0.058 0.043,-0.087 0,-0.027 0,-0.057 0,-0.087 v -0.086 c 0,-0.028 0,-0.058 0,-0.088 0,-0.026 0,-0.058 0,-0.085 0,-0.03 0,-0.06 0,-0.088 0,-0.027 0,-0.056 0,-0.085 v -0.042 c 0,-0.031 0,-0.06 0,-0.087 h 0.042 c 0,-0.029 0,-0.057 0,-0.085 0.029,-0.032 0.045,-0.061 0.045,-0.088 V 15.58 c 0,-0.029 0,-0.058 0,-0.087 0,-0.029 0,-0.059 0,-0.087 v -0.041 c 0,-0.031 0,-0.06 0,-0.087 0.029,0 0.058,-0.016 0.085,-0.045 v -0.085 c 0,-0.03 0,-0.06 0,-0.087 v -0.044 c 0.029,-0.029 0.044,-0.057 0.044,-0.085 0.029,-0.029 0.057,-0.059 0.086,-0.085 0,-0.031 0,-0.059 0,-0.086 v -0.045 c 0.029,0 0.058,-0.015 0.086,-0.043 0,-0.028 0,-0.058 0,-0.086 0,-0.031 0,-0.057 0,-0.087 0,-0.029 0,-0.057 0,-0.086 V 14.37 c 0.03,-0.028 0.044,-0.058 0.044,-0.087 0,-0.028 0.013,-0.056 0.042,-0.083 0,-0.031 0,-0.059 0,-0.086 0.028,0 0.059,0 0.086,0 0,-0.031 0,-0.06 0,-0.089 0,-0.027 0,-0.057 0,-0.085 0,-0.029 0,-0.059 0,-0.087 0.029,-0.029 0.043,-0.057 0.043,-0.086 0.03,0 0.056,-0.014 0.086,-0.045 0,-0.026 0,-0.056 0,-0.086 0,-0.029 0,-0.057 0,-0.086 v -0.043 l 0.044,-0.044 c 0,-0.028 0,-0.057 0,-0.087 0,-0.026 0,-0.056 0,-0.085 0,-0.029 0,-0.057 0,-0.087 v -0.042 c 0,-0.029 0,-0.059 0,-0.086 0,-0.028 0,-0.057 0,-0.087 v -0.041 c 0,-0.033 0,-0.06 0,-0.087 v -0.044 c 0,-0.027 0,-0.057 0,-0.086 0,-0.03 0,-0.058 0,-0.087 0,-0.029 0,-0.056 0,-0.085 v -0.044 c 0.028,-0.028 0.057,-0.058 0.085,-0.087 l 0.043,-0.042 c 0,-0.028 0,-0.058 0,-0.086 0,-0.028 0,-0.058 0,-0.087 v -0.042 c 0,-0.03 0,-0.061 0,-0.088 0,-0.027 0,-0.059 0,-0.086 -0.028,-0.029 -0.043,-0.058 -0.043,-0.086 -0.028,0 -0.057,-0.016 -0.085,-0.044 v -0.042 c 0,-0.029 0,-0.057 0,-0.086 0,-0.029 0,-0.057 0,-0.086 0,-0.029 0,-0.057 0,-0.087 V 11.523 C 16.496,11.494 16.48,11.465 16.48,11.438 16.45,11.409 16.423,11.379 16.394,11.351 16.365,11.32 16.335,11.307 16.308,11.307 l -0.043,0.044 c 0,0.028 0,0.058 0,0.087 0,0.027 -0.016,0.057 -0.042,0.085 v 0.043 c -0.029,0.03 -0.06,0.058 -0.088,0.087 -0.027,0 -0.057,0.014 -0.086,0.042 l -0.042,0.044 c -0.059,0 -0.1,0 -0.129,0 -0.03,0 -0.087,-0.014 -0.174,-0.044 -0.027,-0.029 -0.073,-0.042 -0.13,-0.042 -0.026,0 -0.07,0 -0.128,0 -0.952,0.029 -1.931,0.057 -2.941,0.086 -0.029,0.03 -0.043,0.058 -0.043,0.086 -0.028,0 -0.043,0.015 -0.043,0.042 -0.058,0 -0.101,0 -0.128,0 -0.059,0 -0.118,-0.015 -0.173,-0.042 0,-0.029 -0.016,-0.057 -0.043,-0.086 -0.03,-0.029 -0.057,-0.057 -0.086,-0.086 L 11.947,11.61 c 0,-0.031 -0.016,-0.044 -0.043,-0.044 0,-0.03 -0.014,-0.057 -0.046,-0.087 v -0.042 l -0.043,-0.044 c -0.026,0 -0.056,-0.015 -0.085,-0.043 -0.058,0 -0.1,0 -0.131,0 h -0.041 c -0.03,0 -0.059,0 -0.087,0 -0.086,0 -0.159,0 -0.216,0 -0.03,0 -0.059,0 -0.085,0 h -0.089 c -0.058,0 -0.101,0 -0.128,0 -0.031,0 -0.059,0 -0.087,0 -1.586,0 -3.156,0 -4.714,0 -0.058,0 -0.116,-0.015 -0.173,-0.044 C 5.95,11.277 5.921,11.264 5.893,11.264 5.864,11.235 5.835,11.206 5.807,11.177 c 0,-0.03 0,-0.059 0,-0.089 v -0.041 c 0,-0.031 0,-0.057 0,-0.089 -0.028,0 -0.056,-0.013 -0.087,-0.042 -0.029,0 -0.059,-0.014 -0.087,-0.042 -0.028,-0.029 -0.058,-0.06 -0.086,-0.088 0,-0.028 -0.013,-0.057 -0.044,-0.086 0,-0.028 0,-0.057 0,-0.085 V 10.57 c 0,-0.028 -0.014,-0.056 -0.041,-0.085 0,-0.029 0,-0.057 0,-0.086 0,-0.029 0,-0.057 0,-0.087 -0.031,0 -0.06,0 -0.088,0 -0.027,0 -0.043,0.016 -0.043,0.043 0,0.029 0,0.06 0,0.088 0,0.027 0,0.055 0,0.085 -0.027,0.029 -0.043,0.057 -0.043,0.088 v 0.042 c 0,0.027 -0.015,0.058 -0.041,0.086 v 0.042 c 0,0.029 0,0.059 0,0.088 0,0.028 -0.015,0.055 -0.046,0.083 V 11 c 0,0.029 0,0.059 0,0.086 -0.027,0.03 -0.043,0.059 -0.043,0.089 0,0.029 0,0.058 0,0.087 -0.028,0 -0.042,0.013 -0.042,0.042 v 0.044 c 0,0.028 0,0.058 0,0.087 0,0.027 0,0.057 0,0.085 v 0.043 c 0,0.03 0,0.058 0,0.087 0,0.029 0,0.057 0,0.086 0,0.03 -0.014,0.058 -0.043,0.086 0,0.027 0,0.057 0,0.086 H 5.014 c 0,0.028 -0.015,0.058 -0.043,0.086 0,0.027 0,0.058 0,0.086 0,0.028 0,0.059 0,0.088 v 0.042 c 0,0.029 -0.013,0.059 -0.042,0.087 0,0.028 0,0.059 0,0.086 0,0.029 0,0.059 0,0.086 v 0.087 C 4.9,12.585 4.87,12.613 4.843,12.641 c -0.059,0.058 -0.116,0.117 -0.174,0.174 -0.029,0 -0.043,0.027 -0.043,0.086 -0.03,0.057 -0.044,0.116 -0.044,0.173 0,0.058 -0.015,0.101 -0.043,0.128 -0.029,0.058 -0.043,0.117 -0.043,0.173 -0.029,0.031 -0.042,0.06 -0.042,0.087 -0.06,0.06 -0.102,0.116 -0.131,0.173 0,0.06 0,0.101 0,0.131 -0.029,0.057 -0.044,0.114 -0.044,0.173 0,0.028 0,0.071 0,0.129 -0.058,0.027 -0.101,0.072 -0.128,0.131 -0.03,0.056 -0.045,0.113 -0.045,0.171 -0.028,0.03 -0.072,0.074 -0.129,0.13 0,0.03 0,0.072 0,0.129 -0.028,0.058 -0.057,0.101 -0.085,0.131 -0.03,0.056 -0.057,0.113 -0.087,0.172 0,0.057 -0.015,0.102 -0.043,0.129 0,0.027 0,0.058 0,0.087 0,0.029 0,0.056 0,0.085 L 3.72,15.278 c -0.03,0.027 -0.043,0.056 -0.043,0.087 -0.03,0.027 -0.044,0.069 -0.044,0.128 -0.029,0.058 -0.057,0.114 -0.086,0.173 -0.029,0 -0.057,0.015 -0.086,0.043 l -0.043,0.044 v 0.042 c -0.03,0.029 -0.058,0.058 -0.086,0.085 0,0.028 0,0.059 0,0.088 l -0.044,0.043 c 0,0.029 0,0.057 0,0.087 0,0.027 -0.013,0.055 -0.042,0.086 0,0.027 -0.015,0.042 -0.043,0.042 -0.03,0.03 -0.044,0.06 -0.044,0.088 -0.03,0 -0.058,0.014 -0.086,0.044 0,0.027 0,0.056 0,0.084 0,0.031 -0.013,0.06 -0.043,0.086 0,0.03 0,0.06 0,0.087 -0.028,0 -0.058,0.014 -0.087,0.044 -0.029,0.028 -0.043,0.057 -0.043,0.086 -0.028,0 -0.057,0.015 -0.085,0.043 -0.057,0 -0.086,0.017 -0.086,0.043 -0.029,0.028 -0.044,0.058 -0.044,0.088 -0.028,0 -0.057,0 -0.086,0 0,0.027 -0.015,0.041 -0.043,0.041 -0.028,0 -0.072,0 -0.13,0 -0.057,0 -0.114,0 -0.173,0 -0.058,0 -0.101,0 -0.13,0 -0.027,0 -0.07,0.016 -0.13,0.046 -0.113,0 -0.216,0.014 -0.301,0.042 -0.058,0 -0.13,0 -0.217,0 C 1.331,17.02 1.202,16.991 1.085,16.961 0.999,16.935 0.929,16.92 0.87,16.92 0.783,16.89 0.698,16.875 0.611,16.875 0.552,16.875 0.496,16.86 0.437,16.832 0.437,16.806 0.424,16.773 0.395,16.746 0.366,16.717 0.336,16.687 0.309,16.66 v -0.086 c 0,-0.028 0,-0.058 0,-0.087 0,-0.027 0,-0.057 0,-0.087 0,-0.028 0,-0.058 0,-0.086 v -0.045 c 0,-0.027 0,-0.057 0,-0.084 0,-0.031 0,-0.059 0,-0.086 0,-0.03 0,-0.058 0,-0.087 v -0.086 c 0,-0.031 0,-0.06 0,-0.087 0,-0.029 0,-0.057 0,-0.085 0,-0.032 0,-0.061 0,-0.088 v -0.044 c 0,-0.027 0,-0.057 0,-0.086 0,-0.027 0,-0.057 0,-0.085 v -0.084 c 0,-0.031 0,-0.06 0,-0.087 0,-0.03 0,-0.06 0,-0.087 0,-0.029 0,-0.059 0,-0.086 0,-0.03 0,-0.058 0,-0.088 v -0.042 c 0,-0.028 0,-0.057 0,-0.087 v -0.07 c 0,-0.031 0,-0.059 0,-0.086 v -0.045 c 0,-0.028 0,-0.058 0,-0.086 0,-0.03 0,-0.057 0,-0.087 0,-0.028 0,-0.057 0,-0.087 v -0.042 c 0,-0.029 0,-0.057 0,-0.086 v -0.045 c 0,-0.028 0,-0.056 0,-0.083 0,-0.031 0,-0.059 0,-0.086 V 14.04 c 0,-0.028 0,-0.058 0,-0.086 0,-0.029 0,-0.059 0,-0.086 0,-0.029 0,-0.058 0,-0.088 v -0.087 c 0,-0.026 0,-0.056 0,-0.086 0,-0.029 0,-0.057 0,-0.086 0,-0.027 0,-0.057 0,-0.087 v -0.042 c 0,-0.028 0,-0.058 0,-0.086 0,-0.028 0,-0.059 0,-0.086 0,-0.028 0,-0.059 0,-0.087 0,-0.029 0,-0.059 0,-0.086 0,-0.028 0,-0.057 0,-0.087 0,-0.029 0,-0.059 0,-0.086 0,-0.029 0,-0.059 0,-0.086 v -0.043 c 0,-0.029 0,-0.057 0,-0.085 0,-0.031 0,-0.06 0,-0.087 v -0.087 c 0,-0.028 0,-0.058 0,-0.087 0,-0.029 0,-0.057 0,-0.084 0,-0.03 0,-0.058 0,-0.087 V 12.18 c 0,-0.028 0,-0.057 0,-0.087 0,-0.029 0,-0.057 0,-0.085 v -0.044 c 0,-0.029 0,-0.058 0,-0.086 v -0.044 c 0,-0.028 0,-0.057 0,-0.086 0,-0.029 0,-0.057 0,-0.087 0,-0.029 0,-0.057 0,-0.085 v -0.044 c 0,-0.03 0,-0.057 0,-0.087 v -0.042 c 0,-0.029 0,-0.059 0,-0.087 0,-0.031 0,-0.058 0,-0.086 v -0.044 c 0,-0.028 0,-0.057 0,-0.086 0,-0.029 0,-0.058 0,-0.085 0,-0.031 0,-0.057 0,-0.089 v -0.083 c 0,-0.029 0,-0.06 0,-0.088 0,-0.028 0,-0.057 0,-0.086 0,-0.028 0,-0.057 0,-0.085 v -0.045 c 0,-0.028 0,-0.056 0,-0.085 0,-0.029 0,-0.057 0,-0.086 0,-0.029 0,-0.057 0,-0.087 0,-0.029 0,-0.058 0,-0.086 0,-0.028 0,-0.057 0,-0.088 0,-0.027 0,-0.057 0,-0.086 V 9.974 c 0,-0.028 0,-0.058 0,-0.085 0,-0.028 0,-0.059 0,-0.087 0,-0.028 0,-0.056 0,-0.088 V 9.629 c 0,-0.028 0,-0.059 0,-0.086 0,-0.029 0,-0.06 0,-0.085 0,-0.03 0,-0.06 0,-0.088 V 9.328 c 0,-0.029 0,-0.06 0,-0.086 0,-0.029 0,-0.06 0,-0.089 V 9.109 c 0,-0.029 0,-0.057 0,-0.086 V 8.98 c 0,-0.028 0,-0.059 0,-0.087 0,-0.028 0,-0.058 0,-0.084 0,-0.029 0,-0.061 0,-0.089 V 8.679 c 0,-0.031 0,-0.058 0,-0.087 V 8.548 c 0,-0.029 0,-0.06 0,-0.086 0,-0.03 0,-0.058 0,-0.086 V 8.333 c 0,-0.032 0,-0.059 0,-0.088 0,-0.028 0,-0.058 0,-0.087 0,-0.028 0,-0.058 0,-0.087 V 7.985 c 0,-0.028 0,-0.057 0,-0.085 0,-0.029 0,-0.059 0,-0.087 V 7.77 c 0,-0.03 0,-0.057 0,-0.087 0,-0.03 0,-0.057 0,-0.084 0,-0.032 0,-0.061 0,-0.088 V 7.423 c 0,-0.027 0,-0.057 0,-0.086 0,-0.029 0,-0.057 0,-0.086 0,-0.03 0,-0.057 0,-0.087 V 7.121 c 0,-0.028 0,-0.058 0,-0.087 0,-0.028 0,-0.058 0,-0.086 0,-0.028 0,-0.057 0,-0.088 V 6.776 c 0,-0.029 0,-0.058 0,-0.087 0,-0.029 0,-0.057 0,-0.086 0,-0.03 0,-0.06 0,-0.087 V 6.471 c 0,-0.027 0,-0.056 0,-0.086 0,-0.028 0,-0.057 0,-0.085 V 6.256 c 0,-0.029 0,-0.057 0,-0.086 V 6.125 c 0,-0.027 0,-0.057 0,-0.085 0,-0.029 0,-0.057 0,-0.088 0,-0.028 0,-0.057 0,-0.086 v -0.04 c 0,-0.031 0,-0.059 0,-0.087 V 5.692 c 0,-0.028 0,-0.055 0,-0.084 V 5.565 c 0,-0.029 0,-0.06 0,-0.088 0,-0.03 0,-0.056 0,-0.086 H 0.351 L 0.301,5.348 c 0,-0.029 0,-0.058 0,-0.086 V 5.218 C 0.328,5.19 0.344,5.16 0.344,5.132 0.372,5.104 0.4,5.074 0.43,5.043 0.459,5.016 0.489,4.987 0.517,4.958 L 0.603,4.873 C 0.603,4.843 0.618,4.815 0.646,4.786 0.675,4.756 0.691,4.727 0.691,4.7 0.719,4.67 0.732,4.641 0.732,4.614 c 0.029,0 0.06,-0.016 0.086,-0.043 L 0.862,4.524 C 0.921,4.496 0.962,4.483 0.991,4.483 1.077,4.454 1.137,4.424 1.165,4.396 c 0.057,0 0.128,-0.013 0.216,-0.042 0.028,0 0.043,-0.017 0.043,-0.045 0.057,0 0.102,0 0.129,0 C 1.642,4.28 1.713,4.267 1.77,4.267 V 4.222 h 0.086 c 0.06,0.031 0.117,0.058 0.173,0.088 0.031,0 0.044,0.014 0.044,0.045 0,0.029 0.016,0.042 0.042,0.042 0,0.029 0,0.058 0,0.087 0.775,0 1.555,0 2.338,0 C 4.437,4.469 4.423,4.454 4.409,4.439 4.409,4.41 4.394,4.383 4.366,4.354 V 4.31 C 4.338,4.28 4.309,4.253 4.278,4.222 V 4.18 c 0,-0.029 0,-0.057 0,-0.085 V 3.876 c 0,-0.028 0,-0.057 0,-0.085 V 3.704 C 4.308,3.676 4.338,3.661 4.365,3.661 V 3.616 C 4.394,3.589 4.409,3.56 4.409,3.533 4.437,3.503 4.454,3.473 4.454,3.446 4.48,3.416 4.495,3.387 4.495,3.359 c 0.029,0 0.043,-0.016 0.043,-0.045 0,-0.026 0.015,-0.057 0.043,-0.086 0.028,0 0.058,-0.015 0.087,-0.042 0.028,0 0.072,-0.015 0.129,-0.045 0.029,0 0.059,-0.014 0.087,-0.043 V 3.057 c 0,-0.029 0,-0.059 0,-0.088 0,-0.028 0,-0.058 0,-0.088 V 2.84 c 0,-0.029 0,-0.06 0,-0.086 V 2.709 C 4.912,2.68 4.927,2.652 4.927,2.622 4.984,2.594 5.027,2.565 5.055,2.538 5.084,2.509 5.128,2.478 5.184,2.449 L 5.23,2.407 c 0.026,0 0.071,0 0.127,0 0.116,0 0.245,0 0.39,0 0.029,0 0.072,0.014 0.13,0.042 0.028,0.029 0.057,0.045 0.086,0.045 0.058,0.029 0.115,0.059 0.173,0.087 0,0.028 0.014,0.058 0.042,0.085 0.031,0.029 0.074,0.043 0.13,0.043 0.057,0 0.103,0 0.129,0 v 0.044 c 0.087,-0.028 0.16,-0.044 0.217,-0.044 0.03,0 0.059,-0.014 0.088,-0.043 0.026,0 0.056,-0.014 0.085,-0.043 0.028,0 0.072,-0.013 0.128,-0.042 0.029,0 0.074,0 0.13,0 0,0.028 0.031,0.058 0.086,0.085 0,-0.027 0.015,-0.057 0.045,-0.085 0,-0.028 0,-0.058 0,-0.087 0.029,0 0.057,-0.016 0.085,-0.045 L 7.344,2.407 C 7.374,2.379 7.403,2.349 7.432,2.321 7.466,2.293 7.48,2.262 7.48,2.234 7.508,2.206 7.537,2.177 7.565,2.148 L 7.608,2.106 c 0,-0.03 0,-0.06 0,-0.087 0,-0.029 0,-0.057 0,-0.086 0.029,0 0.057,-0.016 0.088,-0.044 0,-0.028 0,-0.057 0,-0.086 C 7.724,1.775 7.752,1.76 7.78,1.76 7.81,1.73 7.84,1.714 7.869,1.714 7.869,1.687 7.883,1.672 7.913,1.672 7.97,1.642 8.014,1.627 8.04,1.627 8.099,1.6 8.156,1.585 8.215,1.585 V 1.544 h 0.043 c 0.029,0 0.043,-0.018 0.043,-0.045 0.028,0 0.042,-0.015 0.042,-0.042 0.031,0 0.073,0 0.132,0 0.057,0 0.113,0 0.172,0 10.118,0 20.238,0 30.357,0 h 0.043 c 0,-0.031 0.014,-0.045 0.044,-0.045 0.029,0 0.057,0 0.085,0 V 1.371 c 0.031,0 0.061,0 0.089,0 0.058,0.028 0.115,0.056 0.173,0.086 0.057,0 0.116,0.013 0.171,0.042 0.029,0.027 0.06,0.045 0.088,0.045 0.057,0.028 0.099,0.056 0.127,0.083 0.03,0.03 0.074,0.06 0.131,0.086 L 40,1.758 c 0.029,0.03 0.058,0.056 0.086,0.086 0.03,0.029 0.056,0.06 0.087,0.087 0,0.029 0,0.057 0,0.086 0.029,0.028 0.043,0.058 0.043,0.087 0.058,0.027 0.101,0.056 0.13,0.086 0.028,0.029 0.043,0.057 0.043,0.086 0.029,0.028 0.058,0.057 0.086,0.086 0,0.028 0.029,0.043 0.087,0.043 0,0.028 0.012,0.042 0.042,0.042 v 0.045 c 0.059,0 0.101,0 0.131,0 0.029,0.029 0.056,0.044 0.087,0.044 0.028,0 0.043,0.015 0.043,0.043 0.202,0 0.417,0 0.649,0 0,-0.028 0.014,-0.043 0.043,-0.043 0.028,0 0.072,-0.015 0.128,-0.044 0.029,0 0.089,0 0.174,0 0.028,0.029 0.071,0.044 0.129,0.044 0.029,0 0.043,0.015 0.043,0.043 0.03,0 0.059,0 0.087,0 0.058,0.028 0.116,0.058 0.174,0.085 l 0.042,0.043 c 0.058,0 0.101,0.016 0.13,0.044 h 0.042 c 0.058,0.026 0.116,0.057 0.174,0.086 v 0.041 c 0.057,0.03 0.114,0.06 0.172,0.088 0,0.029 0.015,0.059 0.044,0.088 0.029,0 0.058,0 0.086,0 0,0.028 0,0.057 0,0.085 0,0.03 0,0.059 0,0.086 0,0.029 0,0.06 0,0.086 v 0.045 c 0,0.057 0,0.101 0,0.128 0.028,0.058 0.071,0.116 0.128,0.173 l 0.045,0.087 c 0,0.058 0.012,0.116 0.041,0.173 0,0.029 0,0.073 0,0.129 0,0.059 0,0.117 0,0.172 -0.026,0.035 -0.038,0.062 -0.038,0.092 0.055,0 0.099,0 0.128,0 0.029,0 0.073,0.014 0.13,0.045 0,0.029 0.016,0.042 0.044,0.042 0.028,0.029 0.057,0.058 0.086,0.087 0.03,0.028 0.042,0.058 0.042,0.087 0,0.028 0.015,0.043 0.043,0.043 v 0.041 c 0,0.03 0,0.059 0,0.087 0,0.029 -0.013,0.059 -0.043,0.086 0,0.03 0,0.059 0,0.088 l -0.042,0.042 c 0,0.029 0,0.059 0,0.085 0,0.031 0,0.06 0,0.089 v 0.042 c 0,0.03 0,0.057 0,0.087 0,0.028 0.015,0.071 0.042,0.128 0,0.056 0.03,0.115 0.088,0.174 l 0.043,0.085 c 0,0.058 0.014,0.116 0.043,0.175 0,0.027 0,0.069 0,0.126 0,0.059 0,0.117 0,0.173 l -0.043,0.044 h 0.043 c 0.058,0.029 0.115,0.057 0.173,0.086 0,0.029 0.015,0.043 0.044,0.043 0.056,0.033 0.114,0.062 0.171,0.09 z m -20.67,5.234 c -0.03,-0.029 -0.043,-0.057 -0.043,-0.087 -0.03,0 -0.059,-0.015 -0.088,-0.043 -0.027,-0.029 -0.042,-0.058 -0.042,-0.085 0,-0.029 0,-0.059 0,-0.087 -0.03,-0.029 -0.043,-0.058 -0.043,-0.086 0,0.028 -0.015,0.057 -0.044,0.086 0,0.028 0,0.058 0,0.087 0,0.027 0,0.057 0,0.085 v 0.043 c 0,0.03 0,0.058 0,0.087 0,0.029 0.016,0.057 0.044,0.086 0,0.03 0,0.058 0,0.086 0,0.027 0.013,0.042 0.043,0.042 v 0.044 c 0,0.028 0,0.058 0,0.086 0,0.027 0,0.058 0,0.086 0,0.028 0,0.059 0,0.088 v 0.042 c 0.03,0.029 0.057,0.059 0.085,0.087 v 0.044 c 0.202,0 0.418,0 0.651,0 -0.032,-0.001 -0.06,-0.016 -0.087,-0.044 -0.03,-0.028 -0.059,-0.058 -0.088,-0.087 -0.028,0 -0.043,-0.015 -0.043,-0.042 -0.029,-0.03 -0.055,-0.061 -0.085,-0.088 -0.03,-0.027 -0.043,-0.059 -0.043,-0.086 0,-0.029 0,-0.058 0,-0.086 -0.031,0 -0.042,-0.016 -0.042,-0.044 -0.031,0 -0.058,-0.015 -0.089,-0.042 C 23.539,11.762 23.51,11.734 23.481,11.705 23.48,11.676 23.48,11.648 23.48,11.619 Z M 0.863,7.121 c 0,0.029 0,0.059 0,0.085 0,0.03 0,0.06 0,0.086 0,0.031 0,0.061 0,0.088 0,0.031 0,0.057 0,0.085 V 7.51 c 0,0.027 0,0.056 0,0.088 v 0.041 c 0,0.029 0,0.059 0,0.086 V 7.77 c 0,0.029 0,0.056 0,0.085 0,0.031 0,0.058 0,0.085 0,0.03 0,0.06 0,0.089 v 0.042 c 0,0.029 0,0.059 0,0.087 v 0.043 c 0,0.03 0,0.056 0,0.086 0,0.03 0,0.058 0,0.088 v 0.086 c 0.028,-0.03 0.043,-0.058 0.043,-0.086 0,-0.03 0,-0.074 0,-0.13 0,-0.058 0,-0.115 0,-0.174 0,-0.031 0,-0.071 0,-0.131 0,-0.055 0,-0.099 0,-0.127 0,-0.029 0,-0.074 0,-0.13 0,-0.057 0,-0.117 0,-0.173 0,-0.03 0,-0.073 0,-0.13 0,-0.058 0,-0.101 0,-0.129 0,-0.057 0,-0.102 0,-0.13 0,-0.058 0,-0.115 0,-0.173 0,-0.057 0,-0.101 0,-0.128 0,-0.06 0,-0.102 0,-0.131 0,-0.029 -0.015,-0.058 -0.043,-0.086 v 0.042 c 0,0.029 0,0.059 0,0.086 0,0.029 0,0.059 0,0.088 v 0.04 c 0,0.032 0,0.06 0,0.088 0,0.028 0,0.058 0,0.086 z"
   id="path522" />
		</g>
	</g>
</g>

</svg>
