<?xml version="1.0" encoding="UTF-8" standalone="no"?>
<!-- Generator: Adobe Illustrator 16.0.0, SVG Export Plug-In . SVG Version: 6.00 Build 0)  -->

<svg
   version="1.1"
   x="0px"
   y="0px"
   width="88.625"
   height="41"
   viewBox="0 0 88.625 41"
   enable-background="new 0 0 73.625 32"
   xml:space="preserve"
   id="svg659"
   xmlns="http://www.w3.org/2000/svg"
   xmlns:svg="http://www.w3.org/2000/svg"><defs
   id="defs663" />
<g
   id="Selected_Items"
   transform="translate(0,6)">
	<g
   id="g655">
		<g
   id="Selected_Items_37_">
			<path
   fill-rule="evenodd"
   clip-rule="evenodd"
   fill="#ffffff"
   d="m 32.092,2.094 c 0.028,-0.028 0.069,-0.056 0.125,-0.083 0,-0.029 0,-0.056 0,-0.084 V 1.841 c 0,-0.028 0,-0.056 0,-0.083 V 1.673 c 0.169,0.029 0.337,0.042 0.505,0.042 0,0.028 0,0.055 0,0.083 0.167,0 0.335,0.015 0.502,0.042 v 0.084 c 0.029,0 0.071,0.014 0.128,0.041 0,0.029 0,0.057 0,0.084 0.056,0 0.099,0.015 0.126,0.043 0,0.027 0,0.068 0,0.127 0.028,0 0.056,0.028 0.083,0.083 0.028,0.028 0.056,0.056 0.083,0.082 0.057,0.028 0.098,0.059 0.127,0.086 0.055,0.028 0.098,0.069 0.125,0.125 l 0.042,0.042 c 0.113,0.027 0.225,0.058 0.336,0.084 v 0.083 c 0.028,0.028 0.07,0.042 0.126,0.042 0,0.028 0,0.055 0,0.084 10.363,0 20.74,0 31.131,0 0.056,0.028 0.125,0.055 0.21,0.083 0.026,0.028 0.057,0.057 0.082,0.083 0.029,0.029 0.072,0.057 0.127,0.085 l 0.042,0.084 c 0.028,0.028 0.042,0.069 0.042,0.126 0.026,0.029 0.042,0.057 0.042,0.084 v 0.042 h 0.043 c 0.026,0.056 0.055,0.096 0.083,0.124 0.027,0.028 0.168,0.521 0.42,1.472 0.279,0.98 0.532,1.47 0.756,1.47 h 1.303 L 68.931,6.5 h 0.253 V 6.462 h 1.218 l 0.293,0.042 0.253,0.083 h 1.805 l 0.17,0.084 0.083,0.126 0.462,0.042 -0.042,4.032 -0.043,0.083 -0.042,0.129 -0.167,0.167 H 73.006 L 72.8,11.208 v 0.044 h -3.698 l 1.639,3.695 c 0,0.056 0,0.099 0,0.127 0,0.029 0,0.057 0,0.084 0,0.027 0.014,0.068 0.043,0.125 v 0.042 c 0,0.056 0,0.097 0,0.126 0,0.029 0,0.055 0,0.085 0,0.028 0,0.068 0,0.124 v 0.798 c 0,0.028 -0.561,0.043 -1.682,0.043 -0.054,-0.028 -0.6,-1.021 -1.638,-2.983 -0.446,0.029 -0.896,0.057 -1.342,0.084 -0.085,0 -0.156,0.013 -0.211,0.041 -0.086,0 -0.154,0 -0.209,0 h -0.084 c 0,0.028 -0.013,0.055 -0.042,0.084 0,0.059 -0.015,0.084 -0.042,0.084 0,0.056 0,0.099 0,0.125 0,0.031 0,0.06 0,0.087 0,0.027 -0.014,0.056 -0.044,0.083 0,0.056 -0.013,0.098 -0.041,0.124 0,0.028 0,0.059 0,0.086 0,0.027 0,0.069 0,0.125 v 0.041 c 0,0.058 0,0.099 0,0.128 0,0.026 0,0.056 0,0.083 0,0.029 0,0.071 0,0.126 0,0.028 0,0.056 0,0.083 0,0.027 0,0.056 0,0.086 v 0.083 c 0,0.029 0,0.07 0,0.125 0,0.027 0,0.056 0,0.084 0,0.028 0,0.057 0,0.084 0,0.054 0,0.096 0,0.125 v 0.084 c 0,0.028 0,0.071 0,0.125 v 0.042 c 0,0.057 0,0.099 0,0.127 0,0.028 0,0.056 0,0.083 0,0.027 0,0.072 0,0.128 v 0.041 c 0,0.056 0,0.098 0,0.125 0,0.029 0,0.057 0,0.084 0,0.027 0,0.07 0,0.125 v 0.043 c 0,0.056 0,0.097 0,0.126 v 0.042 c 0,0.028 0,0.069 0,0.125 0,0.028 0,0.056 0,0.083 0.028,0.029 0.056,0.057 0.084,0.084 0,0.058 0,0.098 0,0.126 v 0.083 c 0,0.029 0,0.07 0,0.127 v 0.042 c 0,0.056 0,0.097 0,0.125 0,0.029 0,0.056 0,0.084 0,0.028 0,0.071 0,0.127 v 0.041 c 0,0.058 0,0.1 0,0.126 v 0.083 c 0,0.028 0,0.07 0,0.127 0.028,0.029 0.042,0.055 0.042,0.084 0.029,0.026 0.055,0.055 0.083,0.083 0,0.059 0.015,0.099 0.044,0.127 v 0.083 c 0,0.029 0,0.057 0,0.084 0,0.029 0,0.057 0,0.084 0,0.055 0,0.098 0,0.125 v 0.084 c 0,0.028 0,0.07 0,0.126 v 0.041 c 0,0.056 0,0.1 0,0.127 0,0.027 0,0.056 0,0.084 0,0.028 0,0.068 0,0.125 0,0.029 0.012,0.041 0.042,0.041 0,0.057 0.014,0.1 0.041,0.127 0,0.029 0.016,0.056 0.041,0.085 0,0.027 0,0.068 0,0.124 0,0.028 0,0.056 0,0.084 0,0.028 0.016,0.057 0.044,0.084 0,0.056 0.013,0.098 0.042,0.125 v 0.086 c 0,0.027 0,0.055 0,0.083 0.028,0.028 0.041,0.056 0.041,0.083 0.028,0.056 0.042,0.099 0.042,0.126 0.028,0.028 0.042,0.058 0.042,0.084 0.026,0.027 0.042,0.056 0.042,0.083 v 0.084 c 0.029,0.056 0.057,0.096 0.084,0.125 0,0.028 0.014,0.059 0.042,0.086 0,0.028 0,0.069 0,0.125 0,0.028 0,0.055 0,0.084 0,0.029 0.012,0.058 0.042,0.084 0,0.027 0,0.07 0,0.125 0.028,0 0.041,0.028 0.041,0.084 0.029,0.028 0.044,0.056 0.044,0.084 0.029,0.028 0.042,0.056 0.042,0.083 0.028,0.056 0.041,0.099 0.041,0.127 0.028,0 0.042,0.028 0.042,0.083 0,0.028 0,0.055 0,0.084 0.028,0.026 0.057,0.057 0.084,0.085 0,0.056 0.015,0.096 0.041,0.124 0,0.028 0,0.056 0,0.085 0,0.028 0,0.055 0,0.083 v 0.082 c 0,0.057 0,0.101 0,0.128 0.028,0.028 0.057,0.056 0.085,0.083 0,0.028 0,0.069 0,0.126 0,0.028 0,0.056 0,0.083 0,0.029 0,0.057 0,0.084 0.028,0.028 0.056,0.071 0.083,0.126 0.028,0 0.042,0.03 0.042,0.084 0.028,0.028 0.042,0.056 0.042,0.083 0,0.029 0,0.057 0,0.084 0,0.027 0,0.07 0,0.125 0.028,0.028 0.043,0.056 0.043,0.084 0,0.028 0.014,0.056 0.042,0.084 0.029,0.056 0.057,0.083 0.083,0.083 0,0.056 0,0.1 0,0.127 0,0.027 0,0.057 0,0.084 0,0.027 0,0.055 0,0.083 0.03,0.057 0.058,0.1 0.085,0.127 0,0.028 0,0.056 0,0.083 0,0.028 0,0.071 0,0.127 v 0.042 c 0,0.056 0.014,0.098 0.043,0.126 0.028,0.029 0.056,0.057 0.083,0.084 0,0.028 0,0.069 0,0.125 v 0.085 c 0,0.027 0,0.056 0,0.083 0.028,0.028 0.042,0.054 0.042,0.083 0.028,0.027 0.056,0.069 0.083,0.127 0,0.028 0.014,0.055 0.042,0.083 0,0.029 0,0.057 0,0.084 v 0.084 c 0,0.028 0.013,0.068 0.041,0.126 0,0.027 0.015,0.055 0.042,0.084 0,0.027 0,0.056 0,0.083 0,0.056 0,0.097 0,0.125 0,0.029 0,0.057 0,0.086 0,0.027 0,0.068 0,0.124 l 0.043,0.043 c 0.027,0.057 0.055,0.099 0.083,0.126 0.028,0.027 0.042,0.056 0.042,0.084 0,0.028 0,0.07 0,0.126 v 0.042 c 0,0.056 0,0.097 0,0.125 v 0.087 c 0,0.027 0,0.068 0,0.122 0,0.029 0,0.057 0,0.087 0,0.026 0,0.056 0,0.082 0,0.056 0,0.098 0,0.127 v 0.084 c 0,0.028 0,0.055 0,0.083 0,0.028 0,0.056 0,0.083 0,0.056 0,0.1 0,0.128 v 0.082 c 0,0.031 0,0.072 0,0.129 v 0.04 c 0,0.057 0,0.099 0,0.127 0,0.029 0,0.057 0,0.084 0,0.027 0,0.069 0,0.125 v 0.041 c 0,0.059 0,0.1 0,0.128 v 0.083 c 0,0.028 0,0.071 0,0.126 0,0.029 0,0.056 0,0.083 0,0.027 0,0.057 0,0.084 0,0.057 -0.015,0.097 -0.042,0.126 v 0.042 c 0.028,0.027 0.042,0.07 0.042,0.126 v 0.042 c -0.028,0.057 -0.057,0.098 -0.084,0.125 0,0.056 -0.014,0.085 -0.041,0.085 -0.029,0.028 -0.043,0.056 -0.043,0.083 -0.027,0 -0.042,0.014 -0.042,0.041 -0.111,0.028 -0.196,0.057 -0.25,0.084 -0.085,0 -0.154,0.016 -0.21,0.042 -0.057,0.028 -0.1,0.056 -0.127,0.084 -0.028,0.028 -0.083,0.042 -0.167,0.042 -0.057,0.029 -0.126,0.042 -0.21,0.042 -0.028,0.028 -0.056,0.055 -0.083,0.084 -0.057,0 -0.111,0.015 -0.168,0.04 -0.142,0 -0.281,0.016 -0.421,0.043 -0.027,0 -0.057,0 -0.083,0 -0.057,0.028 -0.113,0.043 -0.169,0.043 -0.196,0 -0.378,0.013 -0.547,0.041 -0.056,0.028 -0.125,0.056 -0.209,0.084 -0.477,0.028 -0.953,0.042 -1.428,0.042 -0.029,0.028 -0.057,0.056 -0.084,0.084 -0.056,0 -0.111,0.015 -0.168,0.042 -0.28,0.029 -0.56,0.058 -0.84,0.085 -0.028,0 -0.057,0.013 -0.084,0.041 -0.083,0.028 -0.154,0.056 -0.209,0.083 -0.084,-0.028 -0.154,-0.056 -0.21,-0.083 -0.056,-0.027 -0.098,-0.041 -0.126,-0.041 h -0.042 c -0.084,0 -0.155,-0.015 -0.211,-0.043 -0.083,-0.057 -0.139,-0.098 -0.169,-0.125 -0.026,-0.03 -0.067,-0.058 -0.124,-0.085 -0.028,-0.029 -0.058,-0.07 -0.084,-0.125 V 29.45 c -0.028,-0.056 -0.042,-0.097 -0.042,-0.126 0,-0.028 0,-0.056 0,-0.084 -0.028,-0.028 -0.041,-0.07 -0.041,-0.126 -0.03,-0.026 -0.056,-0.042 -0.086,-0.042 0,-0.057 0,-0.097 0,-0.125 v -0.083 c -0.028,-0.03 -0.056,-0.072 -0.083,-0.128 -0.029,-0.026 -0.058,-0.054 -0.084,-0.083 0,-0.03 -0.014,-0.056 -0.042,-0.086 0,-0.056 0,-0.097 0,-0.125 l -0.044,-0.083 c 0,-0.028 0,-0.071 0,-0.128 V 28.188 C 60.549,28.133 60.52,28.092 60.493,28.063 60.465,28.035 60.439,28.007 60.41,27.98 c 0,-0.027 0,-0.07 0,-0.125 v -0.044 c 0,-0.056 -0.015,-0.097 -0.041,-0.125 -0.03,-0.056 -0.058,-0.083 -0.085,-0.083 0,-0.028 -0.013,-0.071 -0.041,-0.128 0,-0.028 0,-0.056 0,-0.083 0,-0.029 0,-0.057 0,-0.085 0,-0.056 -0.015,-0.099 -0.042,-0.125 v -0.083 c 0,-0.028 0,-0.057 0,-0.085 0,-0.028 0,-0.056 0,-0.083 0,-0.056 0,-0.098 0,-0.126 v -0.084 c -0.028,-0.028 -0.056,-0.069 -0.083,-0.125 -0.029,0 -0.058,-0.015 -0.085,-0.043 C 60,26.53 59.986,26.488 59.986,26.46 c -0.028,-0.028 -0.057,-0.056 -0.084,-0.083 0,-0.03 -0.013,-0.072 -0.042,-0.128 v -0.041 c 0,-0.056 0,-0.097 0,-0.126 v -0.084 c 0,-0.028 0,-0.069 0,-0.124 0,-0.028 -0.013,-0.059 -0.041,-0.087 0,-0.027 -0.014,-0.056 -0.042,-0.082 0,-0.056 0,-0.099 0,-0.128 v -0.083 c 0,-0.028 0,-0.056 0,-0.084 0,-0.027 0,-0.055 0,-0.084 0,-0.055 0,-0.099 0,-0.126 C 59.748,25.172 59.72,25.144 59.691,25.118 59.663,25.087 59.65,25.047 59.65,24.99 v -0.043 c 0,-0.054 0,-0.098 0,-0.125 0,-0.029 0,-0.057 0,-0.084 0,-0.027 0,-0.069 0,-0.125 0,-0.028 0,-0.057 0,-0.085 0,-0.027 0,-0.057 0,-0.084 0,-0.027 0,-0.069 0,-0.125 v -0.083 c -0.028,-0.028 -0.041,-0.057 -0.041,-0.084 -0.03,-0.027 -0.042,-0.056 -0.042,-0.085 0,-0.056 -0.015,-0.097 -0.043,-0.125 v -0.084 c 0,-0.029 0,-0.057 0,-0.084 0,-0.027 0,-0.056 0,-0.083 0,-0.057 0,-0.097 0,-0.126 0,-0.028 0,-0.056 0,-0.083 0,-0.027 0,-0.056 0,-0.084 v -0.085 c 0,-0.056 0,-0.097 0,-0.125 0,-0.028 0,-0.056 0,-0.084 0,-0.03 0,-0.071 0,-0.126 0,-0.027 0,-0.055 0,-0.084 0,-0.027 0,-0.055 0,-0.084 0,-0.027 0,-0.069 0,-0.126 v -0.083 c 0,-0.029 -0.013,-0.057 -0.041,-0.084 -0.03,-0.028 -0.058,-0.056 -0.084,-0.083 -0.029,-0.028 -0.043,-0.07 -0.043,-0.128 0,-0.027 0,-0.056 0,-0.083 0,-0.028 0,-0.057 0,-0.084 v -0.085 c 0,-0.054 0,-0.097 0,-0.125 0,-0.028 0,-0.057 0,-0.084 0,-0.028 0,-0.056 0,-0.084 0,-0.056 0,-0.098 0,-0.125 0,-0.027 0,-0.056 0,-0.084 0,-0.028 0,-0.069 0,-0.125 v -0.043 c 0,-0.058 0,-0.098 0,-0.126 0,-0.028 0,-0.056 0,-0.084 0,-0.027 0,-0.068 0,-0.125 v -0.084 c 0,-0.028 0,-0.056 0,-0.083 0,-0.027 0,-0.056 0,-0.084 -0.027,-0.028 -0.056,-0.072 -0.083,-0.127 0,-0.026 0,-0.054 0,-0.083 0,-0.027 0,-0.057 0,-0.084 v -0.083 c 0,-0.028 0,-0.069 0,-0.128 0,-0.028 0,-0.056 0,-0.083 0,-0.027 0,-0.055 0,-0.083 0,-0.056 0,-0.1 0,-0.127 0,-0.028 0,-0.057 0,-0.084 0,-0.027 0,-0.069 0,-0.125 v -0.043 c 0,-0.054 0,-0.097 0,-0.123 0,-0.03 0,-0.057 0,-0.087 0,-0.027 0,-0.068 0,-0.125 V 19.37 c 0,-0.057 0,-0.098 0,-0.125 V 19.16 c 0,-0.028 0,-0.068 0,-0.125 0,-0.028 0,-0.056 0,-0.083 0,-0.029 0,-0.057 0,-0.084 -0.028,-0.056 -0.042,-0.098 -0.042,-0.126 -0.028,0 -0.057,-0.028 -0.084,-0.083 0,-0.028 0,-0.056 0,-0.083 0,-0.027 0,-0.058 0,-0.084 0,-0.058 0,-0.099 0,-0.126 v -0.084 c 0,-0.028 0,-0.07 0,-0.125 v -0.042 c 0,-0.057 0,-0.099 0,-0.127 0,-0.028 0,-0.056 0,-0.083 0,-0.027 0,-0.069 0,-0.127 v -0.042 c 0,-0.055 0,-0.097 0,-0.125 v -0.084 c 0,-0.028 0,-0.071 0,-0.125 0,-0.029 0,-0.057 0,-0.084 0,-0.029 0,-0.057 0,-0.084 0,-0.056 0,-0.099 0,-0.126 v -0.084 c 0,-0.028 0,-0.069 0,-0.126 V 16.84 c 0,-0.056 -0.013,-0.099 -0.041,-0.127 -0.028,-0.028 -0.072,-0.041 -0.127,-0.041 0,-0.029 -0.013,-0.071 -0.042,-0.127 v -0.042 c 0,-0.057 0,-0.098 0,-0.127 v -0.125 c -0.056,-0.028 -0.097,-0.07 -0.125,-0.125 -0.029,-0.028 -0.058,-0.041 -0.085,-0.041 0,-0.057 0,-0.101 0,-0.128 0,-0.027 0,-0.056 0,-0.083 0,-0.027 0,-0.07 0,-0.127 0,-0.028 -0.013,-0.042 -0.041,-0.042 -0.028,-0.028 -0.056,-0.055 -0.085,-0.083 l -0.083,-0.043 c -0.111,-0.028 -0.195,-0.058 -0.252,-0.084 -0.026,0 -0.068,-0.029 -0.124,-0.084 V 15.37 c -0.029,-0.028 -0.057,-0.043 -0.084,-0.043 -0.085,0 -0.169,-0.014 -0.252,-0.042 h -0.083 c -0.028,0 -0.07,0 -0.126,0 -0.056,0 -0.142,0 -0.253,0 -0.057,0 -0.139,0 -0.252,0 -0.056,0 -0.126,0.015 -0.209,0.042 0,0.056 -0.013,0.097 -0.041,0.126 -0.085,0.029 -0.141,0.055 -0.169,0.085 -0.057,0.028 -0.112,0.068 -0.169,0.124 0,0.029 -0.013,0.042 -0.041,0.042 0,0.056 0,0.098 0,0.126 -0.056,0.057 -0.099,0.084 -0.126,0.084 -0.027,0.027 -0.056,0.069 -0.084,0.126 -0.056,0.028 -0.099,0.057 -0.126,0.084 -0.057,0.027 -0.083,0.056 -0.083,0.082 l -0.042,0.087 c -0.056,0.027 -0.097,0.069 -0.126,0.125 -0.028,0.028 -0.069,0.057 -0.126,0.084 -0.028,0.028 -0.055,0.056 -0.083,0.083 l -0.044,0.085 c -0.056,0 -0.125,0.028 -0.208,0.082 -0.029,0.03 -0.07,0.071 -0.126,0.127 -0.028,0 -0.056,0.016 -0.083,0.043 0,0.055 -0.015,0.099 -0.045,0.126 -0.054,0.028 -0.096,0.056 -0.124,0.083 -0.028,0.027 -0.056,0.069 -0.084,0.125 -0.027,0.029 -0.055,0.042 -0.084,0.042 -0.055,0.055 -0.125,0.098 -0.208,0.124 -0.029,0.059 -0.057,0.086 -0.085,0.086 -0.028,0.029 -0.071,0.069 -0.126,0.125 -0.056,0.03 -0.098,0.057 -0.124,0.084 -0.028,0.028 -0.058,0.058 -0.085,0.085 -0.028,0.056 -0.056,0.097 -0.083,0.125 l -0.083,0.083 c -0.029,0.029 -0.058,0.059 -0.085,0.086 -0.083,0.027 -0.167,0.042 -0.25,0.042 -0.057,0.026 -0.112,0.055 -0.17,0.083 -0.027,0.059 -0.056,0.099 -0.083,0.127 -0.028,0 -0.068,0.028 -0.126,0.083 -0.084,0.029 -0.167,0.057 -0.251,0.084 -0.112,0.029 -0.209,0.057 -0.295,0.084 -0.083,0.055 -0.14,0.098 -0.169,0.125 -0.054,0 -0.109,0.028 -0.167,0.084 -0.056,0.028 -0.111,0.056 -0.167,0.083 -0.111,0 -0.21,0.015 -0.294,0.043 -0.029,0 -0.056,0 -0.083,0 -0.058,0 -0.113,0 -0.169,0 -0.224,0.028 -0.463,0.056 -0.715,0.083 -0.083,0.029 -0.153,0.057 -0.209,0.084 -0.587,0 -1.176,0 -1.765,0 -0.055,-0.028 -0.139,-0.056 -0.251,-0.084 -0.14,-0.028 -0.295,-0.056 -0.462,-0.083 -0.055,0 -0.125,0 -0.21,0 0,-0.057 -0.028,-0.099 -0.084,-0.126 -0.028,-0.056 -0.071,-0.084 -0.126,-0.084 0,-0.028 -0.015,-0.071 -0.042,-0.125 -0.056,-0.028 -0.097,-0.056 -0.125,-0.084 -0.058,-0.028 -0.142,-0.056 -0.252,-0.084 0,-0.056 -0.028,-0.083 -0.085,-0.083 -0.056,-0.028 -0.097,-0.068 -0.125,-0.127 -0.029,-0.028 -0.071,-0.057 -0.127,-0.083 0,0.026 -0.015,0.055 -0.043,0.083 -0.027,0.059 -0.041,0.099 -0.041,0.127 -0.029,0 -0.058,0.028 -0.085,0.083 0,0.029 0,0.057 0,0.084 -0.026,0.029 -0.041,0.057 -0.041,0.084 -0.029,0.055 -0.042,0.098 -0.042,0.125 -0.027,0 -0.056,0.028 -0.083,0.084 0,0.028 -0.015,0.07 -0.043,0.126 -0.028,0 -0.056,0.014 -0.083,0.041 0,0.056 0,0.1 0,0.127 0,0.027 0,0.056 0,0.084 -0.028,0.028 -0.042,0.068 -0.042,0.125 l -0.042,0.041 c -0.028,0.057 -0.043,0.1 -0.043,0.127 -0.027,0.029 -0.056,0.056 -0.083,0.085 0,0.027 0,0.068 0,0.124 0,0.028 0,0.056 0,0.084 0,0.028 0,0.057 0,0.084 0,0.056 -0.014,0.098 -0.042,0.125 l -0.044,0.086 c -0.027,0.027 -0.055,0.055 -0.083,0.083 0,0.028 0,0.056 0,0.083 0,0.056 0,0.099 0,0.126 0,0.028 0,0.058 0,0.084 -0.029,0.027 -0.042,0.056 -0.042,0.083 0,0.057 -0.014,0.084 -0.043,0.084 -0.029,0.056 -0.041,0.096 -0.041,0.125 -0.029,0.028 -0.043,0.059 -0.043,0.086 -0.029,0.028 -0.056,0.069 -0.085,0.125 0,0.028 0,0.055 0,0.084 0,0.029 0,0.058 0,0.084 0,0.026 -0.013,0.07 -0.041,0.125 -0.028,0 -0.056,0.028 -0.083,0.084 0,0.028 -0.015,0.056 -0.042,0.084 0,0.028 0,0.056 0,0.083 -0.028,0.056 -0.042,0.099 -0.042,0.127 V 21.7 c 0,0.028 0,0.055 0,0.084 0,0.026 0,0.057 0,0.085 0,0.056 0,0.096 0,0.124 0,0.028 0,0.056 0,0.085 0,0.028 0,0.055 0,0.083 l -0.042,0.082 c -0.028,0.057 -0.041,0.101 -0.041,0.128 -0.03,0.028 -0.058,0.056 -0.086,0.083 0,0.028 0,0.069 0,0.126 0,0.028 0,0.056 0,0.083 0,0.029 0,0.057 0,0.084 0,0.027 0,0.071 0,0.126 v 0.084 c 0,0.028 0,0.056 0,0.083 -0.028,0.029 -0.042,0.057 -0.042,0.084 0,0.027 -0.014,0.07 -0.042,0.125 -0.028,0.028 -0.057,0.056 -0.083,0.084 0,0.028 0,0.056 0,0.084 V 23.5 c 0,0.056 0,0.1 0,0.127 0,0.027 0,0.057 0,0.084 0,0.027 0,0.055 0,0.083 0,0.057 0,0.1 0,0.127 -0.028,0.028 -0.042,0.056 -0.042,0.083 -0.029,0.028 -0.042,0.071 -0.042,0.127 v 0.042 c 0,0.056 0,0.098 0,0.126 0,0.029 0,0.057 0,0.084 0,0.027 0,0.069 0,0.125 v 0.085 c 0,0.027 0,0.056 0,0.083 0,0.027 0,0.054 0,0.083 0,0.027 0,0.069 0,0.127 0,0.028 0,0.055 0,0.083 0,0.029 0,0.057 0,0.084 v 0.084 c 0,0.028 0,0.068 0,0.126 0,0.027 0,0.055 0,0.084 0,0.027 0,0.056 0,0.083 0,0.056 0,0.097 0,0.125 0,0.029 0,0.057 0,0.086 0,0.027 0,0.068 0,0.124 v 0.043 c 0,0.057 0,0.099 0,0.126 0,0.027 0,0.056 0,0.084 0,0.028 0,0.07 0,0.126 v 0.042 c 0,0.056 0,0.097 0,0.125 v 0.087 c 0,0.027 0,0.068 0,0.122 0,0.029 0,0.057 0,0.087 0,0.026 0,0.056 0,0.082 0,0.056 0,0.098 0,0.127 V 26.9 c 0,0.028 0,0.055 0,0.083 0,0.028 0,0.056 0,0.083 0,0.056 0,0.1 0,0.128 v 0.082 c 0,0.031 0,0.072 0,0.129 v 0.04 c 0,0.057 0,0.099 0,0.127 0,0.029 0,0.057 0,0.084 0,0.027 0,0.069 0,0.125 v 0.041 c 0,0.059 0,0.1 0,0.128 v 0.083 c 0,0.028 0,0.071 0,0.126 0,0.029 0,0.056 0,0.083 0,0.027 0,0.057 0,0.084 0,0.057 0,0.097 0,0.126 v 0.083 c 0,0.028 0,0.071 0,0.127 v 0.042 c 0,0.056 0,0.097 0,0.125 0,0.029 0,0.059 0,0.086 0,0.026 0,0.069 0,0.123 v 0.043 c 0,0.057 0,0.098 0,0.126 0,0.028 0,0.056 0,0.084 0,0.028 0,0.071 0,0.125 0,0.031 0,0.059 0,0.086 0,0.027 0,0.055 0,0.083 l -0.044,0.084 c -0.026,0.028 -0.054,0.07 -0.082,0.126 -0.027,0.029 -0.058,0.058 -0.085,0.085 -0.056,0 -0.111,0 -0.169,0 v 0.041 c 0,0.056 0,0.098 0,0.125 0,0.027 0,0.056 0,0.084 0,0.028 0,0.071 0,0.127 v 0.041 c 0,0.056 0,0.099 0,0.126 0,0.03 0,0.058 0,0.084 0,0.026 0,0.07 0,0.126 0,0.029 0,0.057 0,0.084 -2.435,0 -4.871,0 -7.31,0 v -0.042 c 0,-0.028 0,-0.056 0,-0.084 v -0.083 c 0,-0.027 0,-0.069 0,-0.126 0,-0.029 0,-0.057 0,-0.084 0,-0.027 0,-0.056 0,-0.083 0,-0.057 0,-0.1 0,-0.126 v -0.06 c 0,-0.028 0,-0.068 0,-0.124 v -0.043 c -0.278,0 -0.559,0 -0.839,0 -0.028,0 -0.056,0.016 -0.083,0.043 -0.056,0 -0.113,0 -0.168,0 -0.084,0 -0.154,0 -0.211,0 -0.055,0 -0.099,0 -0.126,0 -0.057,0 -0.111,0 -0.168,0 -0.083,0 -0.152,0 -0.208,0 -0.086,0 -0.155,-0.015 -0.211,-0.043 -0.056,-0.057 -0.098,-0.098 -0.125,-0.125 -0.03,-0.03 -0.057,-0.058 -0.085,-0.085 0,-0.029 0,-0.07 0,-0.125 v -0.043 c 0,-0.056 0,-0.097 0,-0.126 -0.028,-0.028 -0.057,-0.056 -0.083,-0.084 -0.028,-0.028 -0.057,-0.07 -0.086,-0.126 v -0.042 c 0,-0.057 0,-0.097 0,-0.125 v -0.083 c 0,-0.03 0,-0.072 0,-0.128 0,-0.026 0,-0.054 0,-0.083 0,-0.03 0,-0.056 0,-0.086 0,-0.056 0,-0.097 0,-0.125 v -0.083 c 0,-0.028 0,-0.071 0,-0.128 v -0.043 c 0,-0.055 0,-0.096 0,-0.125 0,-0.028 0,-0.056 0,-0.083 -0.027,-0.027 -0.041,-0.07 -0.041,-0.125 v -0.044 c 0,-0.056 0,-0.097 0,-0.125 v -0.083 c 0,-0.028 0,-0.071 0,-0.128 0,-0.028 0,-0.056 0,-0.083 0,-0.029 0,-0.057 0,-0.085 0,-0.056 0,-0.099 0,-0.125 v -0.083 c 0,-0.028 0,-0.057 0,-0.085 0,-0.028 0,-0.056 0,-0.083 0,-0.056 0,-0.098 0,-0.126 v -0.084 c 0,-0.028 0,-0.069 0,-0.125 v -0.043 c 0,-0.056 0,-0.098 0,-0.125 0,-0.027 0,-0.056 0,-0.083 0,-0.03 0,-0.072 0,-0.128 v -0.041 c 0,-0.056 0,-0.097 0,-0.126 v -0.084 c 0,-0.028 0,-0.069 0,-0.124 0.028,-0.028 0.041,-0.059 0.041,-0.087 0,-0.027 0,-0.056 0,-0.082 0,-0.056 0,-0.099 0,-0.128 v -0.083 c 0,-0.028 0,-0.056 0,-0.084 0,-0.027 0,-0.055 0,-0.084 0,-0.055 0,-0.099 0,-0.126 0,-0.027 0,-0.056 0,-0.082 0,-0.031 0,-0.071 0,-0.128 V 24.95 c 0,-0.054 0,-0.098 0,-0.125 0,-0.029 0,-0.057 0,-0.084 0,-0.027 0,-0.069 0,-0.125 0,-0.028 0,-0.057 0,-0.085 0,-0.027 0,-0.057 0,-0.084 0,-0.027 0,-0.069 0,-0.125 v -0.083 c 0,-0.028 0,-0.057 0,-0.084 0,-0.027 0,-0.056 0,-0.085 0,-0.056 0,-0.097 0,-0.125 v -0.084 c 0,-0.029 0,-0.057 0,-0.084 0.03,-0.028 0.043,-0.056 0.043,-0.083 0.057,-0.057 0.098,-0.097 0.126,-0.126 0,-0.028 0,-0.056 0,-0.083 0,-0.027 0,-0.056 0,-0.084 v -0.085 c 0,-0.056 0,-0.097 0,-0.125 0,-0.028 0,-0.056 0,-0.084 0,-0.03 0,-0.071 0,-0.126 0,-0.027 0.014,-0.055 0.043,-0.084 0.026,-0.027 0.056,-0.055 0.083,-0.084 0,-0.027 0.014,-0.069 0.041,-0.126 v -0.083 c 0,-0.029 0,-0.057 0,-0.084 0,-0.027 0.015,-0.056 0.043,-0.083 0,-0.028 0,-0.07 0,-0.128 0,-0.027 0,-0.056 0,-0.083 0,-0.028 0,-0.057 0,-0.084 v -0.085 c 0,-0.054 0,-0.097 0,-0.125 0,-0.028 0,-0.057 0,-0.084 0.028,-0.028 0.042,-0.056 0.042,-0.084 0.057,-0.056 0.098,-0.098 0.125,-0.125 0.028,-0.028 0.044,-0.056 0.044,-0.084 0.026,-0.028 0.057,-0.069 0.084,-0.125 l 0.041,-0.043 c 0,-0.058 0,-0.098 0,-0.126 0,-0.028 0.013,-0.056 0.043,-0.084 0,-0.027 0.013,-0.068 0.041,-0.125 v -0.084 c 0,-0.028 0,-0.056 0,-0.083 0.028,-0.028 0.043,-0.056 0.043,-0.084 0.028,-0.028 0.042,-0.072 0.042,-0.127 0.026,-0.026 0.041,-0.054 0.041,-0.083 0,-0.027 0,-0.057 0,-0.084 l 0.042,-0.083 c 0,-0.028 0.014,-0.069 0.042,-0.128 0.029,-0.028 0.071,-0.056 0.127,-0.083 0.028,-0.027 0.056,-0.055 0.083,-0.083 0,-0.056 0,-0.1 0,-0.127 0.028,-0.028 0.041,-0.057 0.041,-0.084 0.029,-0.028 0.044,-0.069 0.044,-0.125 v -0.043 c 0,-0.054 0,-0.097 0,-0.123 0.027,-0.03 0.055,-0.057 0.084,-0.087 0,-0.027 0.015,-0.068 0.041,-0.125 0.03,-0.028 0.056,-0.043 0.085,-0.043 0.028,-0.057 0.056,-0.098 0.083,-0.125 v -0.085 c 0,-0.028 0.014,-0.068 0.041,-0.125 0.028,-0.028 0.043,-0.056 0.043,-0.083 0,-0.029 0,-0.057 0,-0.084 0,-0.056 0,-0.098 0,-0.126 0.027,0 0.056,-0.028 0.084,-0.083 0.028,-0.028 0.042,-0.056 0.042,-0.083 0,-0.027 0.014,-0.058 0.041,-0.084 0.028,-0.058 0.055,-0.099 0.083,-0.126 0.03,0 0.058,-0.028 0.086,-0.084 0,-0.028 0.014,-0.07 0.042,-0.125 v -0.042 c 0,-0.057 0,-0.099 0,-0.127 0.027,-0.028 0.056,-0.056 0.082,-0.083 0.03,-0.028 0.058,-0.069 0.085,-0.127 v -0.042 c 0,-0.055 0,-0.097 0,-0.125 V 17.53 c 0,-0.028 0.015,-0.071 0.043,-0.125 0.028,-0.029 0.056,-0.057 0.083,-0.084 0,-0.029 0.013,-0.057 0.041,-0.084 0,-0.056 0,-0.099 0,-0.126 v -0.084 c 0,-0.028 0,-0.069 0,-0.126 V 16.84 c 0,-0.056 0.015,-0.099 0.043,-0.127 v -0.041 c 0,-0.029 0,-0.071 0,-0.127 v -0.042 c 0,-0.057 0,-0.098 0,-0.127 v -0.082 c 0,-0.03 0,-0.071 0,-0.128 0,-0.026 0,-0.056 0,-0.082 -0.028,-0.029 -0.043,-0.057 -0.043,-0.085 v -0.084 c 0,-0.028 0,-0.07 0,-0.126 C 37.748,15.76 37.735,15.732 37.735,15.705 37.707,15.677 37.679,15.65 37.652,15.622 37.624,15.566 37.609,15.521 37.609,15.495 L 37.524,15.411 C 37.498,15.383 37.469,15.343 37.442,15.286 V 15.243 C 37.413,15.189 37.4,15.146 37.4,15.118 37.371,15.09 37.343,15.062 37.314,15.034 37.286,15.005 37.259,14.964 37.231,14.908 L 37.19,14.867 c 0,-0.056 -0.014,-0.098 -0.042,-0.128 -0.029,-0.027 -0.072,-0.056 -0.128,-0.083 -0.027,-0.029 -0.041,-0.071 -0.041,-0.126 0,-0.027 0,-0.057 0,-0.084 -0.028,-0.028 -0.07,-0.056 -0.126,-0.083 -0.056,-0.056 -0.083,-0.1 -0.083,-0.128 l -6.891,0.044 c -1.597,0.028 -3.194,0.042 -4.788,0.042 -0.029,0.028 -0.057,0.069 -0.086,0.125 -0.027,0 -0.056,0.013 -0.084,0.041 -0.055,0 -0.097,0 -0.125,0 -0.056,0 -0.112,0 -0.169,0 -0.055,0 -0.125,-0.013 -0.21,-0.041 -0.056,-0.028 -0.109,-0.056 -0.167,-0.083 -0.028,-0.056 -0.057,-0.1 -0.085,-0.128 -0.026,0 -0.054,-0.026 -0.083,-0.083 0,-0.028 0,-0.056 0,-0.083 V 14.028 C 24.054,14 24.025,13.984 23.998,13.984 23.969,13.927 23.957,13.885 23.957,13.857 23.928,13.83 23.899,13.802 23.871,13.775 c 0,-0.03 0,-0.058 0,-0.085 v -0.083 c 0,-0.056 0,-0.098 0,-0.126 0,-0.03 0,-0.058 0,-0.084 0,-0.028 0,-0.071 0,-0.126 0,-0.026 0,-0.058 0,-0.083 0,-0.028 0,-0.059 0,-0.086 0,-0.027 0,-0.054 0,-0.083 0,-0.029 0,-0.071 0,-0.127 0,-0.028 0,-0.056 0,-0.084 0,-0.026 0,-0.054 0,-0.084 0,-0.026 0,-0.067 0,-0.124 v -0.084 c 0,-0.029 0,-0.056 0,-0.083 0,-0.03 0,-0.059 0,-0.086 0,-0.056 0,-0.097 0,-0.125 0,-0.028 0,-0.056 0,-0.085 0,-0.027 0,-0.055 0,-0.083 v -0.085 c 0,-0.056 0,-0.097 0,-0.125 0,-0.029 0,-0.056 0,-0.084 0,-0.026 0,-0.057 0,-0.083 0,-0.057 0,-0.097 0,-0.126 0,-0.028 0,-0.056 0,-0.084 0,-0.028 0,-0.071 0,-0.127 v -0.082 c 0,-0.029 0,-0.057 0,-0.085 0,-0.028 0,-0.056 0,-0.083 0,-0.029 0,-0.073 0,-0.129 0,-0.028 0,-0.056 0,-0.083 0,-0.027 0,-0.056 0,-0.083 v -0.084 c 0,-0.028 0,-0.07 0,-0.125 0,-0.03 0,-0.057 0,-0.084 v -0.043 c -0.167,0 -0.349,0 -0.545,0 -0.083,0 -0.152,0 -0.21,0 -0.083,-0.027 -0.167,-0.056 -0.25,-0.083 -0.028,-0.028 -0.056,-0.056 -0.083,-0.083 -0.03,0 -0.058,0.015 -0.085,0.042 -0.083,-0.028 -0.154,-0.056 -0.21,-0.084 -0.029,-0.027 -0.056,-0.071 -0.085,-0.127 -0.028,0 -0.055,-0.026 -0.083,-0.083 0,-0.028 0,-0.056 0,-0.084 V 9.907 H 2.894 v 0.756 L 2.853,10.747 2.808,10.79 v 0.504 h 0.044 l 0.041,0.041 -0.041,0.084 -0.759,8.235 -0.041,0.041 v 0.084 L 2.01,19.822 1.631,21.083 0.286,21.209 V 7.386 H 0.372 L 0.54,7.345 V 7.304 H 0.624 L 0.75,7.386 0.833,7.47 V 7.554 H 3.02 l 0.125,0.042 0.043,0.041 0.083,0.042 h 19.283 c 0.252,0 0.49,0 0.715,0 0.7,0 1.4,-0.014 2.099,-0.042 0.029,0 0.058,0 0.085,0 0.057,0 0.112,0 0.168,0 V 7.598 c 0,-0.028 0,-0.056 0,-0.086 V 7.427 c 0,-0.027 0,-0.069 0,-0.124 0,-0.028 0,-0.058 0,-0.083 0,-0.028 0,-0.057 0,-0.085 0,-0.057 0,-0.098 0,-0.126 V 6.923 c 0,-0.028 0,-0.068 0,-0.124 V 6.757 c 0,-0.059 0,-0.098 0,-0.127 0,-0.028 0,-0.056 0,-0.083 0,-0.027 0,-0.071 0,-0.126 V 6.377 c 0,-0.054 0,-0.097 0,-0.125 V 6.168 c 0,-0.028 0,-0.07 0,-0.126 0,-0.027 0,-0.056 0,-0.083 0,-0.029 0,-0.057 0,-0.084 0,-0.057 0,-0.097 0,-0.125 V 5.665 c 0,-0.028 0,-0.071 0,-0.127 V 5.497 c 0,-0.056 0,-0.098 0,-0.126 0,-0.03 0,-0.057 0,-0.083 0,-0.028 0,-0.07 0,-0.127 V 5.118 c 0,-0.056 0,-0.098 0,-0.125 0,-0.027 0,-0.056 0,-0.084 0,-0.028 0,-0.07 0,-0.127 V 4.74 c 0,-0.056 0,-0.099 0,-0.126 V 4.53 c 0,-0.027 0,-0.07 0,-0.127 0,-0.028 0,-0.056 0,-0.083 0,-0.027 0,-0.055 0,-0.083 0,-0.056 0,-0.1 0,-0.127 V 4.025 c 0,-0.028 0,-0.056 0,-0.083 0,-0.029 0,-0.057 0,-0.084 0,-0.055 0,-0.098 0,-0.126 0,-0.027 0,-0.057 0,-0.084 0,-0.027 0,-0.068 0,-0.124 V 3.48 c 0,-0.056 0,-0.099 0,-0.127 0,-0.028 0.014,-0.056 0.042,-0.083 0.056,-0.028 0.097,-0.07 0.125,-0.126 0.03,0 0.085,0 0.169,0 C 25.985,3.115 26,3.088 26,3.06 l 0.042,-0.043 c 0.027,-0.028 0.056,-0.042 0.083,-0.042 0.056,0 0.111,0 0.169,0 V 2.934 c 1.819,0 3.626,0 5.417,0 0,-0.03 0,-0.057 0,-0.084 0,-0.027 0,-0.07 0,-0.126 0,-0.027 0,-0.058 0,-0.084 0,-0.029 0,-0.057 0,-0.084 0,-0.027 0,-0.055 0,-0.083 V 2.43 c 0.059,0 0.126,-0.016 0.21,-0.044 0,-0.026 0,-0.054 0,-0.082 V 2.221 c 0.058,-0.059 0.114,-0.1 0.171,-0.127 z m 17.853,14.787 c -0.7,-0.7 -1.091,-1.511 -1.175,-2.437 -0.112,0.084 -0.211,0.169 -0.294,0.252 -0.364,0.365 -0.645,0.769 -0.841,1.218 0.028,0.027 0.07,0.069 0.128,0.126 0.754,0.728 1.624,1.134 2.604,1.218 -0.14,-0.111 -0.283,-0.235 -0.422,-0.377 z m 4.621,-2.015 c -0.056,-0.056 -0.111,-0.114 -0.167,-0.169 -0.814,-0.813 -1.794,-1.218 -2.942,-1.218 -0.446,0 -0.868,0.07 -1.26,0.209 -0.057,0.25 -0.085,0.532 -0.085,0.84 0,1.038 0.337,1.947 1.01,2.73 0.979,-0.084 1.833,-0.491 2.563,-1.218 0.364,-0.363 0.657,-0.755 0.881,-1.174 z M 36.208,28.77 c 0,-0.026 0,-0.054 0,-0.083 h -0.043 c 0,0.057 0.015,0.098 0.043,0.125 z"
   id="path652" />
		</g>
	</g>
</g>

</svg>
