<?xml version="1.0" encoding="UTF-8" standalone="no"?>
<!-- Generator: Adobe Illustrator 16.0.0, SVG Export Plug-In . SVG Version: 6.00 Build 0)  -->

<svg
   version="1.1"
   x="0px"
   y="0px"
   width="96.466003"
   height="41"
   viewBox="0 0 96.466 41"
   enable-background="new 0 0 81.466 32"
   xml:space="preserve"
   id="svg789"
   xmlns="http://www.w3.org/2000/svg"
   xmlns:svg="http://www.w3.org/2000/svg"><defs
   id="defs793" />
<g
   id="Selected_Items"
   transform="translate(0,6)">
	<g
   id="g785">
		<g
   id="Selected_Items_38_">
			<path
   fill-rule="evenodd"
   clip-rule="evenodd"
   fill="#ffffff"
   d="m 80.762,7.29 c 0.032,0.032 0.063,0.079 0.094,0.141 0.063,0.063 0.125,0.11 0.188,0.142 0,0.062 0,0.125 0,0.187 0.032,0.031 0.078,0.078 0.142,0.141 0,0.032 0.016,0.047 0.046,0.047 0.032,0 0.063,0.016 0.095,0.049 0,0.03 0.015,0.062 0.047,0.09 0.03,0.033 0.063,0.048 0.093,0.048 v 0.048 c 0,0.032 0,0.063 0,0.093 0,0.032 0,0.062 0,0.095 v 0.048 c 0,0.031 0,0.062 0,0.092 0,0.032 0,0.063 0,0.094 L 81.42,8.653 c 0,0.03 0.016,0.046 0.046,0.046 0,0.031 0,0.062 0,0.093 0,0.031 0,0.063 0,0.094 0,0.032 -0.016,0.063 -0.046,0.094 0,0.032 -0.017,0.063 -0.047,0.093 l -0.094,0.048 c -0.031,0 -0.063,0 -0.094,0 h -0.047 l 0.047,0.046 c 0,0.032 0,0.063 0,0.095 0,0.03 0,0.063 0,0.093 -0.032,0 -0.047,0.016 -0.047,0.047 0,0.031 -0.017,0.047 -0.048,0.047 -0.031,0.031 -0.047,0.063 -0.047,0.094 -0.031,0 -0.063,0 -0.093,0 V 9.59 c -0.032,0 -0.063,0 -0.094,0 0,0.032 -0.014,0.047 -0.046,0.047 h -0.047 c -0.846,0.031 -1.674,0.047 -2.488,0.047 l -0.046,0.047 c -0.063,0 -0.111,0 -0.143,0 H 78.04 c -0.031,0 -0.063,0 -0.094,0 -0.031,0 -0.063,0 -0.095,0 -6.573,0.03 -13.116,0.063 -19.626,0.094 -0.031,0 -0.063,0 -0.094,0 v 0.046 c 0,0.032 0,0.063 0,0.094 v 0.094 c 0,0.032 0,0.063 0,0.095 0,0.032 0,0.062 0,0.092 v 0.049 c 0,0.03 -0.015,0.062 -0.046,0.092 0,0.033 -0.016,0.063 -0.047,0.094 v 0.283 c 0,0.031 0,0.062 0,0.093 v 0.047 c 0,0.031 0,0.063 0,0.094 0,0.032 0,0.063 0,0.094 v 0.094 c 0,0.033 0,0.064 0,0.095 v 0.14 c 0.031,0 0.064,0 0.094,0 0.032,0 0.063,0.017 0.094,0.048 h 0.046 c 0.031,0.03 0.08,0.046 0.142,0.046 0.03,0 0.062,0.014 0.093,0.046 0.03,0.03 0.047,0.063 0.047,0.094 H 58.6 c 0,0.032 0,0.063 0,0.094 v 0.047 c 0.031,0 0.063,0 0.093,0 v 0.047 c 0,0.03 0,0.063 0,0.095 0,0.03 0.017,0.062 0.047,0.093 v 0.046 l 0.047,0.047 c -0.063,0.032 -0.094,0.063 -0.094,0.094 v 0.094 c 0,0.031 0,0.063 0,0.093 0,0.033 0,0.063 0,0.096 v 0.093 c 0,0.031 0,0.062 0,0.094 v 0.093 c 0,0.032 0,0.064 0,0.095 0,0.032 0,0.063 0,0.096 v 0.045 c 0,0.032 0,0.063 0,0.093 0,0.033 0,0.063 0,0.095 v 0.046 c 0,0.031 0,0.063 0,0.095 v 0.047 c 0,0.031 0,0.063 0,0.093 0,0.031 0,0.063 0,0.096 0,0.031 0,0.063 0,0.093 v 0.045 c 0,0.032 0,0.064 0,0.095 0,0.031 0,0.062 0,0.093 0,0.033 0,0.063 0,0.095 0,0.032 0,0.063 0,0.094 v 0.046 c 0,0.032 0,0.063 0,0.094 0,0.032 0,0.063 0,0.094 v 0.14 c 0,0.034 0,0.065 0,0.096 v 0.046 c 0,0.031 0,0.063 0,0.093 0,0.034 0,0.063 0,0.095 v 0.046 c 0,0.031 0,0.062 0,0.093 0,0.033 0,0.063 0,0.095 0,0.033 0,0.063 0,0.094 0,0.031 0,0.063 0,0.094 v 0.047 l -0.045,0.046 v 0.047 c -0.063,0 -0.112,0.016 -0.143,0.048 -0.093,0 -0.188,0 -0.281,0 -0.031,0 -0.078,-0.016 -0.141,-0.048 h -0.047 v 0.048 c 0,0.031 0,0.063 0,0.094 v 0.047 c 0,0.03 0,0.063 0,0.093 0,0.032 0,0.065 0,0.095 v 0.046 c 0,0.031 0,0.063 0,0.093 0,0.032 0,0.064 0,0.095 0,0.031 0,0.062 0,0.093 0,0.031 0,0.063 0,0.094 v 0.094 c 0,0.031 0,0.062 0,0.093 v 0.047 c 0,0.032 0,0.063 0,0.094 v 0.046 c 0,0.032 0,0.063 0,0.095 v 0.046 c 0,0.033 0,0.063 0,0.094 0,0.031 0,0.063 0,0.095 v 0.047 c 0,0.03 0,0.063 0,0.093 0,0.031 0,0.063 0,0.095 0,0.03 0,0.062 0,0.093 v 0.095 c 0,0.032 0,0.063 0,0.094 0,0.031 0,0.062 0,0.093 v 0.048 c 0,0.032 0,0.063 0,0.093 v 0.048 c -0.031,0.031 -0.048,0.063 -0.048,0.094 v 0.047 h 0.142 l 0.047,0.046 c 0.032,0 0.062,0.016 0.093,0.048 0,0.031 0,0.063 0,0.094 l 0.046,0.046 c 0,0.033 0.017,0.063 0.048,0.095 v 0.045 c 0,0.033 0.016,0.048 0.047,0.048 h 0.045 c 0.031,0.031 0.047,0.062 0.047,0.095 0,0.032 0,0.062 0,0.093 v 0.048 c 0,0.03 -0.016,0.062 -0.047,0.094 l -0.045,0.046 c 0,0.032 0,0.063 0,0.094 v 0.048 c 0,0.031 0,0.062 0,0.093 0,0.032 0,0.063 0,0.094 v 0.095 c 0,0.03 0,0.062 0,0.093 0,0.031 0,0.063 0,0.094 0,0.033 0,0.063 0,0.095 v 0.046 c 0,0.03 0,0.063 0,0.094 0,0.032 0,0.063 0,0.095 v 0.046 c 0,0.03 0,0.063 0,0.094 v 0.047 c 0,0.032 0,0.063 0,0.093 v 0.046 c 0,0.033 0,0.063 0,0.095 v 0.095 c 0,0.031 0,0.063 0,0.094 0,0.031 0,0.062 0,0.093 v 0.093 c 0,0.033 0,0.064 0,0.095 0,0.031 0,0.062 0,0.093 v 0.048 c 0,0.033 0,0.064 0,0.095 0,0.032 0,0.063 0,0.094 v 0.186 c 0,0.033 0,0.063 0,0.095 0,0.032 0,0.064 0,0.095 v 0.047 c 0,0.03 0,0.063 0,0.095 0,0.031 0,0.063 0,0.093 v 0.093 c 0,0.032 0,0.063 0,0.094 0,0.032 0,0.062 0,0.093 v 0.047 c 0,0.032 0,0.064 0,0.096 v 0.139 c 0,0.031 0,0.062 0,0.095 0,0.03 0,0.063 0,0.093 v 0.046 c 0,0.031 0,0.063 0,0.095 0,0.031 0,0.062 0,0.094 v 0.046 c 0,0.031 0,0.063 0,0.094 v 0.094 c 0,0.031 0,0.061 0,0.093 v 0.096 c 0,0.03 0,0.062 0,0.092 0,0.031 0,0.063 0,0.094 v 0.095 c 0,0.03 0,0.061 0,0.093 0,0.031 0,0.063 0,0.095 v 0.045 c 0,0.032 0,0.063 0,0.095 0,0.032 0,0.063 0,0.093 v 0.047 c 0,0.032 0,0.063 0,0.094 v 0.048 c 0,0.03 0,0.062 0,0.093 0,0.032 0,0.063 0,0.095 v 0.047 c 0,0.031 0,0.063 0,0.093 0,0.032 0,0.063 0,0.094 v 0.094 c 0,0.032 0,0.063 0,0.095 0,0.03 0,0.063 0,0.093 v 0.046 c 0,0.033 0,0.064 0,0.096 v 0.093 c 0,0.031 0,0.062 0,0.094 v 0.047 c 0,0.03 0,0.063 0,0.093 v 0.047 c 0,0.031 0,0.063 0,0.093 0,0.032 0,0.064 0,0.095 v 0.047 c 0,0.032 0,0.062 0,0.093 0,0.031 0,0.063 0,0.095 0,0.031 0,0.063 0,0.093 0,0.03 0,0.061 0,0.093 0,0.032 0,0.065 0,0.096 0,0.031 0,0.062 0,0.093 v 0.046 c 0,0.033 0,0.064 0,0.095 v 0.045 c 0,0.032 0,0.062 0,0.095 v 0.047 c 0,0.032 0,0.063 0,0.094 0,0.031 0,0.062 0,0.094 v 0.047 c 0,0.032 0,0.062 0,0.093 0,0.031 0,0.063 0,0.094 v 0.047 c 0,0.031 0,0.061 0,0.093 0,0.03 0,0.063 0,0.094 v 0.047 c 0,0.032 0,0.063 0,0.094 0,0.031 0,0.063 0,0.094 v 0.093 c 0,0.032 0,0.064 0,0.095 v 0.047 c 0,0.032 0,0.063 0,0.094 0,0.031 0,0.063 0,0.093 0,0.032 0,0.064 0,0.095 0,0.031 0,0.063 0,0.094 v 0.095 c 0,0.031 0,0.063 0,0.093 0,0.032 0,0.063 0,0.094 v 0.047 c 0,0.032 0,0.063 0,0.095 0,0.031 0,0.062 0,0.094 v 0.094 c 0,0.032 0,0.063 0,0.094 v 0.094 c 0,0.033 0,0.063 0,0.095 v 0.046 c 0,0.031 0,0.062 0,0.094 0,0.033 0,0.063 0,0.095 v 0.091 c 0,0.032 0,0.063 0,0.097 0,0.031 0,0.062 0,0.091 v 0.048 c -0.032,0.031 -0.047,0.063 -0.047,0.095 0.031,0 0.063,0.015 0.093,0.046 0.031,0.031 0.047,0.062 0.047,0.094 0,0.031 0,0.062 0,0.094 0,0.03 -0.016,0.062 -0.047,0.094 -0.062,0 -0.108,0 -0.141,0 -0.124,0 -0.25,0 -0.375,0 -0.031,0.032 -0.048,0.063 -0.048,0.093 -0.031,0.033 -0.062,0.063 -0.093,0.094 v 0.047 c 0,0.031 0,0.062 0,0.093 0,0.032 0,0.063 0,0.094 v 0.048 c 0,0.031 0,0.062 0,0.093 v 0.048 c 0,0.031 0,0.063 0,0.094 0,0.03 0,0.062 0,0.093 0,0.031 0,0.063 0,0.094 v 0.048 c 0,0.03 0,0.062 0,0.092 0,0.032 0,0.065 0,0.096 0,0.032 0,0.063 0,0.094 0,0.032 0,0.063 0,0.094 v 0.047 c 0,0.031 0,0.063 0,0.093 0,0.032 0,0.063 0,0.095 0,0.031 0,0.062 0,0.093 v 0.047 c 0,0.031 0,0.063 0,0.095 v 0.047 c 0,0.031 0,0.062 0,0.093 0,0.031 0,0.063 0,0.094 v 0.047 c 0,0.032 0,0.062 0,0.093 v 0.048 c 0.031,0.033 0.077,0.047 0.141,0.047 l 0.046,0.047 c 0,0.031 0.017,0.063 0.048,0.093 -0.031,0.032 -0.048,0.065 -0.048,0.095 0,0.031 -0.015,0.047 -0.046,0.047 -0.063,0 -0.11,0.014 -0.141,0.046 -0.377,0 -0.752,0 -1.127,0 -0.063,-0.033 -0.11,-0.046 -0.143,-0.046 -0.03,0 -0.062,-0.016 -0.092,-0.047 0,-0.03 0,-0.063 0,-0.095 0,-0.03 0,-0.062 0,-0.093 0.03,0 0.062,-0.015 0.092,-0.047 0.033,0 0.079,-0.015 0.143,-0.047 h 0.046 c 0,-0.031 0,-0.063 0,-0.094 v -0.047 c 0,-0.03 0,-0.063 0,-0.093 0,-0.031 0,-0.063 0,-0.094 V 31.19 c 0,-0.031 0,-0.064 0,-0.095 v -0.094 c 0,-0.031 0,-0.063 0,-0.094 0,-0.033 0,-0.063 0,-0.094 V 30.72 c 0,-0.031 0,-0.062 0,-0.094 0,-0.031 0,-0.062 0,-0.094 v -0.047 c 0,-0.032 0,-0.062 0,-0.094 0,-0.031 0,-0.062 0,-0.094 V 30.25 c 0,-0.031 0,-0.063 0,-0.093 V 30.11 c 0,-0.031 0,-0.063 0,-0.094 0,-0.031 0,-0.063 0,-0.095 v -0.046 c 0,-0.032 0,-0.063 0,-0.094 0,-0.03 0,-0.064 0,-0.094 V 29.64 h -0.046 c 0,-0.031 0,-0.063 0,-0.093 -0.063,-0.031 -0.11,-0.049 -0.143,-0.049 -0.03,-0.03 -0.045,-0.061 -0.045,-0.093 H 56.44 c -0.032,0 -0.063,0 -0.095,0 -0.062,-0.032 -0.11,-0.064 -0.141,-0.094 0,-0.032 -0.016,-0.063 -0.048,-0.094 V 29.123 L 56.11,29.077 c 0,-0.033 -0.016,-0.064 -0.047,-0.095 l -0.046,-0.048 c 0,-0.03 0,-0.061 0,-0.091 0,-0.034 -0.017,-0.065 -0.048,-0.097 v -0.091 c 0,-0.032 0,-0.063 0,-0.095 0,-0.032 0,-0.063 0,-0.094 V 28.42 c 0,-0.032 0,-0.063 0,-0.095 v -0.094 c 0,-0.031 0,-0.062 0,-0.094 v -0.094 c 0,-0.032 0,-0.063 0,-0.094 0,-0.031 0,-0.063 0,-0.095 v -0.047 c 0,-0.031 0,-0.062 0,-0.094 0,-0.031 0,-0.063 0,-0.093 v -0.095 c 0,-0.031 0,-0.063 0,-0.094 0,-0.03 0,-0.063 0,-0.095 0,-0.03 0,-0.062 0,-0.093 0,-0.031 0,-0.062 0,-0.094 v -0.047 c 0,-0.03 0,-0.063 0,-0.095 v -0.093 c 0,-0.03 0,-0.063 0,-0.094 0,-0.031 0,-0.062 0,-0.094 v -0.047 c 0,-0.03 0,-0.063 0,-0.094 0,-0.032 0,-0.062 0,-0.093 v -0.047 c 0,-0.031 0,-0.063 0,-0.094 0,-0.031 0,-0.062 0,-0.093 v -0.047 c 0,-0.032 0,-0.063 0,-0.094 0,-0.031 0,-0.062 0,-0.094 v -0.047 c 0,-0.033 0,-0.063 0,-0.095 v -0.045 c 0,-0.031 0,-0.063 0,-0.095 v -0.046 c 0,-0.031 0,-0.062 0,-0.093 0,-0.03 0,-0.063 0,-0.096 0,-0.032 0,-0.062 0,-0.093 0,-0.031 0,-0.063 0,-0.093 0,-0.032 0,-0.064 0,-0.095 0,-0.031 0,-0.061 0,-0.093 v -0.047 c 0,-0.031 0,-0.063 0,-0.095 0,-0.031 0,-0.062 0,-0.093 V 24.85 c 0,-0.031 0,-0.063 0,-0.093 V 24.71 c 0,-0.032 0,-0.063 0,-0.094 v -0.093 c 0,-0.032 0,-0.063 0,-0.096 v -0.046 c 0,-0.031 0,-0.063 0,-0.093 0,-0.033 0,-0.063 0,-0.095 v -0.094 c 0,-0.031 0,-0.062 0,-0.094 0,-0.031 0,-0.062 0,-0.093 v -0.047 c 0,-0.032 0,-0.063 0,-0.095 0,-0.031 0,-0.063 0,-0.093 V 23.63 c 0,-0.031 0,-0.063 0,-0.094 v -0.047 c 0,-0.03 0,-0.062 0,-0.093 0,-0.031 0,-0.063 0,-0.095 v -0.045 c 0,-0.033 0,-0.064 0,-0.095 0,-0.032 0,-0.063 0,-0.093 v -0.095 c 0,-0.031 0,-0.063 0,-0.094 0,-0.03 0,-0.062 0,-0.092 V 22.69 c 0,-0.032 0,-0.062 0,-0.093 v -0.094 c 0,-0.031 0,-0.063 0,-0.094 v -0.046 c 0,-0.032 0,-0.063 0,-0.094 0,-0.032 0,-0.064 0,-0.095 v -0.046 c 0,-0.031 0,-0.063 0,-0.093 0,-0.033 0,-0.064 0,-0.095 V 21.8 c 0,-0.032 0,-0.064 0,-0.096 v -0.047 c 0,-0.032 0,-0.062 0,-0.093 0,-0.031 0,-0.062 0,-0.094 v -0.093 c 0,-0.031 0,-0.062 0,-0.093 0,-0.032 0,-0.065 0,-0.095 v -0.047 c 0,-0.031 0,-0.063 0,-0.095 0,-0.031 0,-0.062 0,-0.095 v -0.186 c 0,-0.031 0,-0.062 0,-0.094 0,-0.03 0,-0.062 0,-0.095 V 20.53 c 0,-0.031 0,-0.062 0,-0.093 0,-0.031 0,-0.062 0,-0.095 V 20.25 c 0,-0.031 0,-0.063 0,-0.093 0,-0.031 0,-0.063 0,-0.094 v -0.095 c 0,-0.032 0,-0.062 0,-0.095 v -0.046 c 0,-0.031 0,-0.062 0,-0.093 v -0.047 c 0,-0.031 0,-0.064 0,-0.094 v -0.046 c 0,-0.031 0,-0.063 0,-0.095 0,-0.031 0,-0.064 0,-0.094 v -0.046 c 0,-0.032 0,-0.062 0,-0.095 0,-0.03 0,-0.063 0,-0.094 0,-0.032 0,-0.063 0,-0.093 v -0.095 c 0,-0.031 0,-0.063 0,-0.094 0,-0.031 0,-0.062 0,-0.093 V 18.7 c 0,-0.031 0,-0.062 0,-0.094 V 18.56 c 0,-0.033 0,-0.064 0,-0.094 v -0.048 c 0,-0.031 0,-0.062 0,-0.093 0,-0.033 0,-0.063 0,-0.095 0,-0.032 0,-0.063 0,-0.093 V 18.09 c 0,-0.031 0.016,-0.048 0.048,-0.048 0.031,0 0.078,0 0.139,0 v -0.046 c 0,-0.031 0,-0.063 0,-0.094 0.032,-0.032 0.048,-0.063 0.048,-0.094 0.03,0 0.062,-0.016 0.093,-0.047 l 0.048,-0.047 V 17.62 c 0,-0.03 0,-0.061 0,-0.093 v -0.094 c 0,-0.032 0,-0.063 0,-0.093 v -0.048 c 0,-0.031 0,-0.063 0,-0.095 v -0.093 c 0,-0.032 0,-0.064 0,-0.095 0,-0.03 0,-0.063 0,-0.093 v -0.095 c 0,-0.031 0,-0.062 0,-0.093 0,-0.031 0,-0.063 0,-0.094 v -0.048 c 0,-0.031 0,-0.063 0,-0.094 0,-0.031 0,-0.062 0,-0.094 v -0.187 c 0,-0.032 0,-0.063 0,-0.096 0,-0.03 0,-0.063 0,-0.093 v -0.047 c 0,-0.031 0,-0.063 0,-0.095 0,-0.031 0,-0.062 0,-0.093 v -0.093 c 0,-0.032 0,-0.063 0,-0.094 0,-0.032 0,-0.062 0,-0.094 V 15.46 c 0,-0.032 0,-0.063 0,-0.095 -0.031,0 -0.062,0 -0.093,0 -0.031,0 -0.063,0 -0.095,0 -0.062,0 -0.124,0 -0.187,0 -0.031,0 -0.063,0 -0.094,0 v 0.048 l -0.094,-0.095 v -0.046 c 0,-0.032 0,-0.063 0,-0.094 0,-0.032 0,-0.063 0,-0.094 v -0.047 c 0,-0.032 0,-0.062 0,-0.095 0,-0.031 0,-0.062 0,-0.093 v -0.093 c 0.032,-0.03 0.048,-0.064 0.048,-0.094 0,-0.031 0.016,-0.047 0.046,-0.047 -0.03,-0.031 -0.063,-0.046 -0.094,-0.046 0,-0.03 0,-0.062 0,-0.096 V 14.38 c 0.032,0 0.048,-0.017 0.048,-0.047 0,-0.03 0.016,-0.062 0.046,-0.094 0,-0.031 0,-0.062 0,-0.094 v -0.046 c 0,-0.031 0,-0.062 0,-0.094 0,-0.031 0,-0.062 0,-0.095 0,-0.031 -0.016,-0.062 -0.046,-0.093 0,-0.031 -0.016,-0.063 -0.048,-0.095 v -0.045 c 0,-0.031 0,-0.063 0,-0.093 0,-0.032 0,-0.064 0,-0.096 0,-0.03 0,-0.062 0,-0.093 0.032,0 0.064,0 0.094,0 -0.03,-0.032 -0.063,-0.047 -0.094,-0.047 l -0.047,-0.095 c -0.062,0 -0.124,-0.016 -0.187,-0.046 L 55.5,13.16 c -0.03,-0.032 -0.062,-0.063 -0.092,-0.095 0,-0.03 0,-0.063 0,-0.092 0,-0.033 0,-0.064 0,-0.096 0,-0.03 -0.016,-0.063 -0.047,-0.095 0,-0.03 -0.015,-0.045 -0.048,-0.045 0,-0.032 0,-0.063 0,-0.096 v -0.093 l -0.094,-0.094 c -0.031,0.032 -0.078,0.048 -0.141,0.048 v 0.093 c 0,0.031 0,0.062 0,0.094 v 0.093 c 0,0.032 -0.015,0.064 -0.047,0.095 0,0.032 -0.016,0.063 -0.046,0.096 l -0.046,0.045 c -0.063,0.032 -0.11,0.047 -0.141,0.047 -0.125,0.032 -0.234,0.063 -0.328,0.095 -0.032,0.031 -0.064,0.046 -0.095,0.046 v 0.046 c 0,0.031 0,0.063 0,0.095 0,0.031 0,0.063 0,0.094 0,0.031 -0.015,0.045 -0.045,0.045 l -0.048,0.047 c 0,0.032 -0.015,0.063 -0.047,0.095 0,0.03 -0.015,0.046 -0.046,0.046 -0.032,0 -0.048,0.015 -0.048,0.045 h -0.094 c -0.063,0.032 -0.141,0.048 -0.235,0.048 l -0.047,0.047 c -0.031,0 -0.063,0 -0.092,0 -0.063,0 -0.126,-0.016 -0.189,-0.047 v -0.048 c -0.062,0 -0.125,0 -0.188,0 -0.032,0 -0.047,0.016 -0.047,0.048 l -0.049,0.05 h -0.093 c -0.031,0 -0.063,0 -0.095,0 -0.094,0 -0.156,0 -0.188,0 -0.156,0 -0.296,0 -0.423,0 -0.03,0 -0.062,0 -0.092,0 -0.126,0.031 -0.267,0.062 -0.423,0.093 -0.031,0 -0.063,0 -0.095,0 -0.062,0 -0.11,0 -0.14,0 h -0.047 c -0.063,0 -0.125,0 -0.187,0 0,-0.031 -0.017,-0.062 -0.049,-0.093 -0.031,0 -0.063,0 -0.093,0 -0.032,0 -0.079,-0.016 -0.142,-0.047 -0.031,-0.032 -0.047,-0.062 -0.047,-0.093 -0.031,0 -0.062,-0.017 -0.093,-0.046 0,-0.032 0,-0.063 0,-0.095 v -0.047 c 0,-0.03 0,-0.062 0,-0.093 0,-0.032 0,-0.063 0,-0.096 0,-0.03 0,-0.062 0,-0.093 V 13.16 c 0,-0.032 0,-0.063 0,-0.095 0,-0.03 0,-0.063 0,-0.092 0,-0.033 0,-0.064 0,-0.096 -0.063,0 -0.141,0 -0.236,0 -0.032,0 -0.078,0 -0.14,0 h -9.956 c 0,0.032 0,0.063 0,0.096 0,0.029 0,0.062 0,0.092 0,0.032 0,0.063 0,0.095 v 0.046 c 0,0.031 0,0.063 0,0.093 0,0.033 0,0.064 0,0.096 0,0.031 0,0.063 0,0.093 v 0.047 c 0,0.032 0,0.063 0,0.095 v 0.092 c 0.032,0 0.062,0 0.095,0 0.03,0 0.063,0 0.093,0 0.062,0.032 0.111,0.064 0.142,0.095 0,0.031 0.016,0.062 0.047,0.093 h 0.047 c 0,0.033 0,0.063 0,0.095 0,0.032 0,0.063 0,0.094 v 0.095 c 0,0.03 0,0.063 0,0.093 0,0.031 0,0.063 0,0.093 v 0.093 c 0,0.034 0,0.065 0,0.096 v 0.14 c 0.03,0.063 0.077,0.11 0.141,0.142 0,0.062 0.016,0.125 0.046,0.188 0.032,0.033 0.062,0.079 0.093,0.142 0.032,0.031 0.064,0.047 0.096,0.047 0.031,0.031 0.062,0.047 0.094,0.047 h 0.046 c 0.032,0 0.079,0.016 0.141,0.046 0,0.032 0.016,0.047 0.048,0.047 0.03,0.032 0.062,0.048 0.093,0.048 0,0.031 0,0.063 0,0.094 v 0.047 c 0,0.03 0,0.063 0,0.093 0,0.032 0,0.065 0,0.095 v 0.046 c 0,0.031 0,0.063 0,0.093 0,0.032 0,0.064 0,0.095 0,0.031 0,0.062 0,0.093 0,0.031 0,0.063 0,0.094 v 0.094 c 0,0.031 0,0.062 0,0.093 V 16.4 c 0,0.032 0,0.063 0,0.094 v 0.046 c 0,0.032 0,0.063 0,0.095 v 0.046 c 0,0.033 0,0.063 0,0.094 0,0.031 0,0.063 0,0.095 v 0.047 c 0,0.03 0,0.063 0,0.093 0,0.031 0,0.063 0,0.095 0,0.03 0,0.062 0,0.093 v 0.095 c 0,0.032 0,0.063 0,0.094 0,0.031 0,0.062 0,0.093 v 0.048 c 0,0.032 0,0.063 0,0.093 v 0.048 c 0,0.031 0,0.063 0,0.094 v 0.047 c 0,0.032 0,0.063 0,0.094 0,0.031 0,0.063 0,0.094 v 0.046 c 0,0.033 0,0.063 0,0.095 v 0.142 c 0,0.03 0,0.062 0,0.093 0,0.031 0,0.063 0,0.095 v 0.047 c 0,0.032 0,0.063 0,0.093 0,0.032 0,0.063 0,0.094 v 0.094 c 0,0.031 0,0.062 0,0.093 v 0.047 c 0,0.032 0,0.063 0,0.095 v 0.093 c 0,0.031 0,0.063 0,0.094 0,0.033 0,0.063 0,0.095 v 0.091 c 0,0.033 0,0.065 0,0.096 0,0.032 0,0.063 0,0.094 v 0.046 c 0,0.032 0,0.063 0,0.095 0,0.032 0,0.063 0,0.093 v 0.141 c 0,0.031 0,0.064 0,0.095 v 0.046 c 0,0.032 0,0.063 0,0.095 0,0.031 0,0.063 0,0.093 v 0.046 c 0,0.033 0,0.064 0,0.095 v 0.093 c 0,0.033 0,0.065 0,0.096 0,0.03 0,0.062 0,0.092 v 0.048 c 0,0.031 0,0.063 0,0.094 v 0.141 c 0,0.031 0,0.063 0,0.093 0,0.032 0,0.063 0,0.094 v 0.047 c 0,0.032 0,0.062 0,0.094 0,0.031 0,0.062 0,0.093 v 0.047 c 0,0.032 0,0.063 0,0.094 v 0.093 c 0,0.032 0,0.064 0,0.095 v 0.094 c 0,0.031 0,0.063 0,0.093 0,0.03 0,0.062 0,0.095 0,0.03 0,0.063 0,0.093 0,0.032 0,0.062 0,0.094 0,0.031 0,0.063 0,0.094 v 0.047 c 0,0.031 0,0.062 0,0.093 0,0.032 0,0.064 0,0.095 v 0.047 c 0,0.031 0,0.061 0,0.093 v 0.143 c 0,0.03 0,0.062 0,0.092 0,0.033 0,0.064 0,0.096 v 0.047 c 0,0.03 0,0.061 0,0.093 0,0.031 0,0.063 0,0.095 0,0.03 0,0.062 0,0.093 0,0.031 0,0.063 0,0.094 v 0.046 c 0,0.031 0,0.063 0,0.094 0,0.031 0,0.063 0,0.095 0,0.03 0,0.062 0,0.093 v 0.046 c 0,0.033 0,0.065 0,0.095 v 0.047 c 0,0.031 0,0.062 0,0.094 0,0.032 0,0.063 0,0.095 v 0.045 c 0,0.032 0,0.063 0,0.095 0,0.03 0,0.063 0,0.093 v 0.094 c 0,0.031 0,0.063 0,0.093 v 0.093 c 0,0.033 0,0.063 0,0.096 0,0.03 0,0.063 0,0.093 v 0.093 c 0,0.032 0,0.063 0,0.093 v 0.049 c 0,0.03 0,0.062 0,0.093 0,0.03 0,0.062 0,0.093 v 0.049 c 0,0.031 0,0.063 0,0.093 0,0.03 0,0.061 0,0.093 v 0.049 c 0,0.031 0,0.063 0,0.093 0,0.03 0,0.062 0,0.093 v 0.048 c 0,0.031 0,0.062 0,0.092 0,0.032 0,0.062 0,0.095 v 0.094 c 0,0.032 0,0.063 0,0.094 v 0.047 c 0,0.031 0,0.063 0,0.094 v 0.235 c 0,0.031 0,0.063 0,0.094 v 0.046 c 0,0.033 0,0.063 0,0.094 v 0.047 c -0.031,0.031 -0.063,0.063 -0.093,0.094 v 0.047 c 0,0.031 0,0.062 0,0.095 0,0.031 0,0.062 0,0.093 v 0.047 c 0,0.03 0,0.062 0,0.095 v 0.045 c 0,0.032 0,0.064 0,0.095 -0.032,0.031 -0.048,0.063 -0.048,0.094 -0.031,0.033 -0.062,0.046 -0.093,0.046 -0.031,0.032 -0.079,0.048 -0.141,0.048 -2.786,0 -5.556,0 -8.311,0 -0.031,0 -0.077,0 -0.142,0 h -0.046 c -0.031,0 -0.062,0 -0.093,0 -0.063,0 -0.11,0 -0.141,0 -0.032,0 -0.078,-0.017 -0.141,-0.048 -0.063,0 -0.126,-0.014 -0.188,-0.046 0,-0.031 -0.016,-0.063 -0.047,-0.094 -0.03,-0.03 -0.062,-0.063 -0.093,-0.095 h -0.141 c -0.062,0 -0.111,0 -0.141,0 -0.031,0 -0.063,-0.013 -0.094,-0.045 -0.03,-0.033 -0.046,-0.064 -0.046,-0.095 v -0.094 c 0,-0.03 0,-0.063 0,-0.095 0,-0.03 0,-0.061 0,-0.093 V 26.87 c 0,-0.031 0,-0.063 0,-0.094 0,-0.031 0,-0.062 0,-0.094 v -0.094 c 0,-0.032 0,-0.062 0,-0.093 V 26.4 c 0,-0.031 0,-0.062 0,-0.093 0,-0.031 0,-0.063 0,-0.094 v -0.047 c 0,-0.032 0,-0.063 0,-0.094 v -0.094 c 0,-0.033 0,-0.063 0,-0.095 0,-0.03 0,-0.062 0,-0.092 v -0.048 c 0,-0.031 0,-0.063 0,-0.093 0,-0.03 0,-0.062 0,-0.093 v -0.049 c 0,-0.032 0,-0.062 0,-0.093 0,-0.031 0,-0.063 0,-0.093 v -0.049 c 0,-0.031 0,-0.063 0,-0.093 0,-0.031 0,-0.063 0,-0.093 v -0.049 c 0,-0.03 0,-0.061 0,-0.093 v -0.093 c 0,-0.031 0,-0.063 0,-0.093 0,-0.032 0,-0.063 0,-0.096 V 24.57 c 0,-0.03 0,-0.063 0,-0.093 v -0.094 c 0,-0.031 0,-0.063 0,-0.093 0,-0.033 0,-0.063 0,-0.095 V 24.15 c 0,-0.032 0,-0.063 0,-0.095 0,-0.032 0,-0.063 0,-0.094 v -0.047 c 0,-0.03 0,-0.063 0,-0.095 v -0.046 c 0,-0.031 0,-0.063 0,-0.093 0,-0.031 0,-0.063 0,-0.095 0,-0.032 0,-0.063 0,-0.094 v -0.046 c 0,-0.032 0,-0.063 0,-0.094 0,-0.031 0,-0.063 0,-0.093 0,-0.033 0,-0.064 0,-0.095 0,-0.032 0,-0.063 0,-0.093 v -0.047 c 0,-0.032 0,-0.063 0,-0.096 0,-0.03 0,-0.062 0,-0.092 V 22.69 c 0,-0.032 0,-0.062 0,-0.093 V 22.55 c 0,-0.03 0,-0.063 0,-0.095 0,-0.031 0,-0.062 0,-0.093 v -0.047 c 0,-0.031 0,-0.063 0,-0.094 0,-0.032 0,-0.063 0,-0.094 0,-0.031 0,-0.063 0,-0.093 0,-0.033 0,-0.064 0,-0.095 0,-0.031 0,-0.062 0,-0.093 v -0.094 c 0,-0.031 0,-0.063 0,-0.095 v -0.093 c 0,-0.031 0,-0.062 0,-0.094 v -0.047 c 0,-0.032 0,-0.063 0,-0.093 0,-0.032 0,-0.062 0,-0.094 v -0.047 c 0,-0.031 0,-0.063 0,-0.094 0,-0.03 0,-0.063 0,-0.093 V 20.86 c 0,-0.031 0,-0.063 0,-0.094 v -0.048 c 0,-0.031 0,-0.062 0,-0.092 0,-0.031 0,-0.063 0,-0.096 v -0.093 c 0,-0.031 0,-0.062 0,-0.095 v -0.046 c 0,-0.03 0,-0.062 0,-0.093 0,-0.032 0,-0.063 0,-0.095 v -0.046 c 0,-0.031 0,-0.063 0,-0.095 v -0.141 c 0,-0.031 0,-0.062 0,-0.093 0,-0.033 0,-0.063 0,-0.095 v -0.046 c 0,-0.031 0,-0.062 0,-0.094 0,-0.031 0,-0.063 0,-0.096 v -0.091 c 0,-0.032 0,-0.062 0,-0.095 0,-0.03 0,-0.063 0,-0.094 v -0.093 c 0,-0.031 0,-0.063 0,-0.095 v -0.047 c 0,-0.032 0,-0.063 0,-0.093 V 18.7 c 0,-0.031 0,-0.062 0,-0.094 0,-0.03 0,-0.062 0,-0.093 v -0.047 c 0,-0.032 0,-0.063 0,-0.095 0,-0.032 0,-0.063 0,-0.093 v -0.142 c 0,-0.032 0,-0.062 0,-0.095 v -0.046 c 0,-0.031 0,-0.063 0,-0.094 0,-0.032 0,-0.063 0,-0.094 V 17.76 c 0,-0.031 0,-0.063 0,-0.094 v -0.048 c 0,-0.03 0,-0.061 0,-0.093 v -0.048 c 0,-0.031 0,-0.062 0,-0.093 0,-0.032 0,-0.063 0,-0.094 v -0.095 c 0,-0.031 0,-0.063 0,-0.093 0,-0.032 0,-0.064 0,-0.095 0,-0.03 0,-0.063 0,-0.093 v -0.047 c 0,-0.031 0,-0.063 0,-0.095 0,-0.031 0,-0.062 0,-0.094 v -0.046 c 0,-0.032 0,-0.063 0,-0.095 v -0.046 c 0,-0.031 0,-0.062 0,-0.094 V 16.35 c 0,-0.032 0,-0.063 0,-0.093 v -0.046 c -0.032,0 -0.048,-0.017 -0.048,-0.048 0,-0.032 -0.016,-0.063 -0.047,-0.094 0,-0.032 0,-0.062 0,-0.093 0,-0.031 0,-0.063 0,-0.095 0,-0.031 0,-0.062 0,-0.093 v -0.093 c 0,-0.032 0,-0.063 0,-0.094 0,-0.032 0,-0.062 0,-0.094 V 15.46 c 0,-0.032 0,-0.063 0,-0.095 v -0.14 c 0,-0.031 0,-0.063 0,-0.094 0,-0.031 0,-0.062 0,-0.094 v -0.046 c 0,-0.031 0,-0.063 0,-0.095 0.032,-0.03 0.047,-0.062 0.047,-0.093 l 0.048,-0.047 h 0.046 c -0.03,-0.03 -0.046,-0.064 -0.046,-0.094 v -0.094 c 0,-0.03 0,-0.062 0,-0.096 l 0.092,-0.093 c 0.033,-0.031 0.048,-0.062 0.048,-0.093 0.03,0 0.063,-0.016 0.095,-0.048 0.031,-0.031 0.077,-0.045 0.141,-0.045 v -0.049 c 0,-0.03 0.015,-0.061 0.046,-0.092 0,-0.031 0,-0.063 0,-0.094 l 0.046,-0.048 c 0.032,-0.029 0.063,-0.045 0.094,-0.046 -0.564,0 -1.127,0.016 -1.69,0.046 -0.031,0 -0.063,0 -0.094,0 v 0.048 c 0,0.063 0,0.126 0,0.187 0,0.032 0,0.079 0,0.142 0,0.063 0,0.107 0,0.14 v 0.095 c 0,0.031 0,0.077 0,0.14 -0.03,0.064 -0.046,0.109 -0.046,0.141 0,0.031 0.016,0.063 0.046,0.093 0,0.032 0.016,0.064 0.047,0.095 l 0.047,0.046 c 0.032,0.033 0.063,0.063 0.094,0.094 0.03,0.031 0.062,0.063 0.093,0.094 v 0.14 c 0,0.032 0.016,0.063 0.048,0.095 v 0.046 c 0,0.032 0,0.062 0,0.094 -0.032,0.031 -0.048,0.063 -0.048,0.094 l -0.046,0.093 H 30.85 v 0.047 c 0,0.032 -0.017,0.063 -0.047,0.094 0,0.032 -0.016,0.048 -0.047,0.048 l -0.094,0.093 c -0.03,0 -0.062,0 -0.093,0 -0.156,0.031 -0.313,0.063 -0.47,0.094 -0.032,0 -0.063,0.016 -0.094,0.048 h -0.047 c -0.062,0 -0.11,0 -0.142,0 H 29.77 c -0.189,0 -0.375,0 -0.563,0 l -0.047,0.046 h -0.047 c 0,0.031 0,0.062 0,0.093 v 0.047 c 0,0.032 0,0.063 0,0.094 v 0.046 c -0.031,0.032 -0.046,0.063 -0.046,0.095 -0.033,0 -0.063,0.016 -0.094,0.046 0,0.033 0,0.063 0,0.094 0,0.031 -0.016,0.063 -0.048,0.095 l -0.046,0.047 c 0,0.03 0,0.063 0,0.093 0,0.031 0,0.063 0,0.095 0,0.03 0,0.062 0,0.093 -0.031,0 -0.063,0.016 -0.094,0.047 v 0.047 c 0,0.032 -0.016,0.063 -0.047,0.094 0,0.031 -0.017,0.062 -0.048,0.093 v 0.048 c 0,0.032 0,0.063 0,0.093 v 0.048 c 0,0.031 0,0.063 0,0.094 l -0.046,0.047 c 0,0.032 -0.016,0.063 -0.046,0.094 0,0.031 0,0.063 0,0.094 v 0.046 c -0.032,0.033 -0.047,0.063 -0.047,0.095 l -0.048,0.045 v 0.096 c -0.031,0.03 -0.046,0.062 -0.046,0.093 -0.031,0.031 -0.063,0.063 -0.094,0.095 v 0.047 c 0,0.032 0,0.063 0,0.093 0,0.032 0,0.063 0,0.094 v 0.048 c 0,0.031 -0.016,0.046 -0.047,0.046 0,0.031 0,0.062 0,0.093 v 0.047 c 0,0.032 0,0.063 0,0.095 l -0.047,0.046 v 0.047 c -0.031,0.031 -0.063,0.063 -0.093,0.094 0,0.033 0,0.063 0,0.095 V 19.4 c 0,0.033 0,0.065 0,0.096 0,0.032 -0.016,0.063 -0.047,0.094 v 0.046 c -0.031,0.032 -0.063,0.063 -0.094,0.095 0,0.032 0,0.063 0,0.093 v 0.141 c -0.03,0.031 -0.063,0.064 -0.093,0.095 v 0.046 c 0,0.032 0,0.063 0,0.095 0,0.031 0,0.063 0,0.093 v 0.046 c 0,0.033 0,0.064 0,0.095 v 0.093 c 0,0.033 0,0.065 0,0.096 0,0.03 0,0.062 0,0.092 v 0.048 c 0,0.031 0,0.063 0,0.094 -0.032,0.031 -0.062,0.046 -0.095,0.046 v 0.095 c 0,0.031 0,0.063 0,0.093 -0.031,0.032 -0.063,0.063 -0.094,0.094 v 0.047 c 0,0.032 0,0.062 0,0.094 0,0.031 0,0.062 0,0.093 l -0.046,0.047 c 0,0.032 0,0.063 0,0.094 -0.032,0 -0.063,0.016 -0.095,0.047 -0.03,0 -0.077,0 -0.141,0 l -0.047,0.046 c -0.031,0.032 -0.046,0.064 -0.046,0.095 -0.031,0 -0.062,0.017 -0.094,0.048 h -0.047 c -0.063,0 -0.124,-0.016 -0.188,-0.048 l -0.047,-0.047 c -0.031,0.032 -0.063,0.047 -0.093,0.047 0,0.032 -0.016,0.048 -0.047,0.048 -0.031,0 -0.063,0 -0.094,0 -0.594,0 -1.188,0 -1.784,0 -0.062,0 -0.141,-0.016 -0.235,-0.048 v -0.047 c -0.094,0 -0.173,-0.016 -0.234,-0.047 -0.032,0 -0.064,0 -0.095,0 h -0.046 c -0.033,0 -0.079,-0.015 -0.143,-0.046 -0.061,0 -0.124,-0.016 -0.186,-0.047 L 23.95,21.468 c -0.063,0 -0.109,-0.016 -0.141,-0.047 -0.033,0 -0.063,-0.016 -0.096,-0.046 -0.03,-0.031 -0.063,-0.062 -0.093,-0.093 v -0.095 c -0.031,0 -0.078,0 -0.142,0 0,-0.031 -0.015,-0.063 -0.046,-0.094 C 23.4,21.063 23.385,21.03 23.385,21 v -0.14 c 0,-0.031 0,-0.063 0,-0.094 -0.032,-0.031 -0.063,-0.062 -0.094,-0.094 v -0.046 c 0,-0.031 0,-0.063 0,-0.096 v -0.045 c 0,-0.032 0,-0.063 0,-0.094 0.031,-0.031 0.047,-0.063 0.047,-0.095 0.031,0 0.047,-0.016 0.047,-0.046 0,-0.031 0,-0.063 0,-0.093 0,-0.031 0,-0.063 0,-0.094 0,-0.031 0,-0.063 0,-0.095 0.031,0 0.047,-0.016 0.047,-0.047 0.031,-0.03 0.046,-0.063 0.046,-0.093 0.032,0 0.048,-0.016 0.048,-0.047 0.032,-0.031 0.047,-0.063 0.047,-0.093 0,-0.031 0,-0.064 0,-0.094 V 19.5 c 0,-0.031 0.015,-0.063 0.046,-0.096 v -0.045 c 0,-0.032 0,-0.063 0,-0.094 0.03,-0.03 0.047,-0.063 0.047,-0.096 l 0.045,-0.045 c 0,-0.032 0,-0.063 0,-0.093 v -0.047 c 0.032,0 0.063,-0.016 0.096,-0.048 v -0.047 c 0,-0.032 0,-0.063 0,-0.093 0,-0.031 0,-0.062 0,-0.094 0.032,0 0.046,-0.016 0.046,-0.047 0.032,-0.031 0.047,-0.063 0.047,-0.093 0,-0.033 0,-0.064 0,-0.094 V 18.42 c 0.031,0 0.062,-0.016 0.092,-0.047 0,-0.031 0.016,-0.063 0.049,-0.093 v -0.05 c 0,-0.031 0,-0.063 0,-0.093 V 18.09 l 0.046,-0.048 c 0,-0.03 0,-0.063 0,-0.094 0,-0.032 0,-0.063 0,-0.094 v -0.046 c 0.031,0 0.047,-0.016 0.047,-0.047 0.032,-0.031 0.047,-0.063 0.047,-0.094 0.03,-0.032 0.046,-0.062 0.046,-0.094 v -0.046 c 0,-0.032 0,-0.062 0,-0.094 0,-0.032 0,-0.063 0,-0.093 0.032,-0.032 0.064,-0.048 0.095,-0.048 v -0.095 c 0.031,-0.031 0.048,-0.063 0.048,-0.093 0.031,0 0.046,-0.016 0.046,-0.048 0,-0.03 0,-0.062 0,-0.093 0.031,-0.031 0.047,-0.063 0.047,-0.093 v -0.048 c 0,-0.031 0,-0.062 0,-0.093 v -0.094 c 0.031,-0.032 0.048,-0.063 0.048,-0.095 0,-0.029 0,-0.062 0,-0.092 L 24.557,16.4 c 0,-0.031 0,-0.063 0,-0.093 v -0.093 c 0.031,0 0.063,-0.017 0.094,-0.048 0,-0.032 0,-0.063 0,-0.094 0,-0.032 0,-0.062 0,-0.093 v -0.048 c 0.031,-0.031 0.047,-0.062 0.047,-0.094 0.032,-0.031 0.047,-0.062 0.047,-0.093 v -0.047 c 0,-0.032 0,-0.063 0,-0.094 v -0.047 l 0.046,-0.047 c 0,-0.031 0.016,-0.063 0.048,-0.094 V 15.367 L 24.791,15.32 c 0,-0.03 -0.015,-0.046 -0.046,-0.046 0,-0.032 0,-0.063 0,-0.094 0,-0.032 -0.015,-0.063 -0.047,-0.094 0,-0.031 -0.016,-0.047 -0.047,-0.047 0,-0.032 0,-0.062 0,-0.095 -0.031,-0.031 -0.063,-0.062 -0.094,-0.093 -0.031,0 -0.046,-0.015 -0.046,-0.046 l -0.048,-0.047 c 0,-0.03 0,-0.064 0,-0.094 -0.031,-0.031 -0.062,-0.063 -0.093,-0.094 l -0.048,-0.046 c 0,-0.031 -0.031,-0.064 -0.095,-0.095 -0.03,0 -0.061,-0.016 -0.093,-0.047 -0.031,0 -0.062,0 -0.093,0 v -0.047 c -0.064,0 -0.142,-0.015 -0.235,-0.046 l -0.049,-0.093 c -0.062,0 -0.123,-0.017 -0.186,-0.049 -0.032,0 -0.078,-0.016 -0.141,-0.046 -0.032,-0.031 -0.047,-0.062 -0.047,-0.094 -0.032,0 -0.063,-0.015 -0.094,-0.046 V 13.91 c -0.063,0 -0.127,0 -0.189,0 -0.031,-0.031 -0.063,-0.062 -0.093,-0.093 -0.063,-0.031 -0.094,-0.063 -0.094,-0.095 -0.031,0 -0.063,-0.014 -0.094,-0.045 -0.031,0 -0.046,-0.017 -0.046,-0.046 -0.063,-0.032 -0.095,-0.063 -0.095,-0.095 0,-0.031 -0.016,-0.047 -0.048,-0.047 v -0.045 c -0.029,-0.031 -0.062,-0.063 -0.092,-0.094 0,-0.033 -0.017,-0.064 -0.049,-0.095 0,-0.03 -0.015,-0.046 -0.046,-0.046 l -0.046,-0.046 c 0,-0.032 -0.015,-0.063 -0.046,-0.095 0,-0.03 0,-0.063 0,-0.092 v -0.048 c 0,-0.032 0,-0.063 0,-0.094 -0.033,-0.032 -0.047,-0.063 -0.047,-0.094 -0.03,0 -0.048,-0.016 -0.048,-0.048 0,-0.032 0,-0.063 0,-0.094 H 22.21 c 0,-0.031 -0.016,-0.047 -0.047,-0.047 0,-0.031 0,-0.062 0,-0.094 0,-0.03 0,-0.063 0,-0.094 V 12.27 c -0.031,0 -0.063,0 -0.094,0 -0.031,0 -0.063,0 -0.095,0 -0.032,0 -0.061,0 -0.093,0 -0.062,0 -0.11,0 -0.14,0 -0.031,0 -0.079,-0.016 -0.141,-0.048 -0.032,-0.03 -0.048,-0.062 -0.048,-0.094 -0.063,-0.032 -0.109,-0.047 -0.142,-0.047 -0.03,0 -0.062,-0.015 -0.093,-0.046 0,-0.031 0,-0.063 0,-0.093 0,-0.032 0,-0.065 0,-0.095 V 11.75 c -1.691,0 -3.411,0 -5.165,0 -0.032,0 -0.079,-0.015 -0.141,-0.046 v -0.048 c -0.063,0 -0.126,0 -0.188,0 L 15.777,11.609 C 15.745,11.578 15.714,11.546 15.682,11.516 L 15.635,11.47 c 0,-0.031 -0.015,-0.048 -0.046,-0.048 -0.031,-0.031 -0.063,-0.063 -0.095,-0.094 v -0.045 c 0,-0.031 0,-0.062 0,-0.095 V 11.14 c 0,-0.031 0,-0.062 0,-0.093 0,-0.03 0,-0.062 0,-0.095 v -0.046 c 0,-0.032 0,-0.062 0,-0.094 0,-0.031 0,-0.063 0,-0.095 v -0.046 c 0,-0.03 0,-0.063 0,-0.094 -0.75,0 -1.487,0 -2.207,0 -0.125,-0.032 -0.22,-0.047 -0.281,-0.047 -0.095,-0.032 -0.157,-0.048 -0.188,-0.048 -0.032,0.031 -0.079,0.079 -0.142,0.141 -0.063,0.062 -0.142,0.094 -0.234,0.094 h -0.188 c -0.032,0 -0.078,0 -0.141,0 v 0.095 C 12.082,10.906 12.034,11 11.971,11.093 l -6.526,5.071 c -0.062,0.063 -0.157,0.079 -0.282,0.048 -0.031,0 -0.063,0 -0.094,0 -0.063,0 -0.109,0.016 -0.142,0.046 -0.062,0.031 -0.126,0.062 -0.188,0.093 0.032,0.063 0.032,0.141 0,0.234 -0.031,0.094 -0.078,0.188 -0.141,0.283 l -0.187,0.14 c -0.063,0.031 -0.126,0.047 -0.188,0.047 0,0.033 -0.016,0.048 -0.047,0.048 H 4.134 c -0.033,0.03 -0.064,0.062 -0.095,0.093 l -0.046,0.047 c 0,0.031 -0.015,0.047 -0.047,0.047 -0.063,0.032 -0.11,0.063 -0.142,0.094 L 3.758,17.43 c 0,0.032 -0.015,0.046 -0.047,0.046 -0.03,0 -0.063,0.016 -0.093,0.048 -0.033,0 -0.063,0 -0.094,0 -0.032,0.032 -0.063,0.063 -0.094,0.093 H 3.382 C 3.35,17.649 3.318,17.665 3.287,17.665 H 2.865 c -0.063,0 -0.126,-0.016 -0.189,-0.048 -0.03,0 -0.046,-0.014 -0.046,-0.046 -0.031,0 -0.063,-0.015 -0.093,-0.046 -0.063,0 -0.124,0 -0.188,0 C 2.317,17.493 2.254,17.463 2.161,17.431 2.161,17.399 2.146,17.368 2.115,17.338 2.052,17.306 2.005,17.29 1.973,17.29 1.943,17.29 1.927,17.273 1.927,17.243 1.895,17.212 1.865,17.196 1.832,17.196 1.8,17.166 1.77,17.134 1.738,17.104 c -0.031,0 -0.047,-0.016 -0.047,-0.048 0,-0.03 -0.016,-0.062 -0.047,-0.093 C 1.614,16.932 1.598,16.9 1.598,16.87 1.565,16.87 1.551,16.855 1.551,16.822 1.519,16.791 1.488,16.76 1.456,16.729 v -0.094 c 0,-0.032 0,-0.063 0,-0.095 0,-0.029 0,-0.062 0,-0.092 0,-0.032 -0.015,-0.048 -0.047,-0.048 0,-0.031 0,-0.063 0,-0.093 V 16.214 L 1.363,16.166 c 0,-0.032 -0.016,-0.063 -0.047,-0.094 0,-0.032 0,-0.062 0,-0.093 V 15.931 C 1.284,15.9 1.27,15.869 1.27,15.837 c 0,-0.031 0,-0.062 0,-0.093 v -0.047 c 0,-0.032 0,-0.063 0,-0.094 -0.032,0 -0.062,-0.017 -0.095,-0.047 0,-0.031 -0.017,-0.047 -0.047,-0.047 0,-0.031 0,-0.063 0,-0.094 v -0.048 c 0,-0.03 0,-0.062 0,-0.093 V 15.227 C 1.096,15.196 1.065,15.164 1.034,15.133 c 0,-0.031 0,-0.062 0,-0.094 0,-0.032 0,-0.062 0,-0.095 0,-0.031 0,-0.062 0,-0.093 v -0.046 c 0,-0.032 -0.016,-0.062 -0.046,-0.095 0,-0.031 -0.016,-0.062 -0.047,-0.093 v -0.046 c 0,-0.03 0,-0.062 0,-0.096 V 14.429 L 0.847,14.335 c 0,-0.03 0,-0.062 0,-0.094 0,-0.031 0,-0.062 0,-0.094 v -0.046 c 0,-0.031 0,-0.062 0,-0.094 0,-0.031 0,-0.062 0,-0.095 C 0.815,13.881 0.8,13.85 0.8,13.819 0.8,13.788 0.785,13.756 0.754,13.724 v -0.045 c 0,-0.031 0,-0.063 0,-0.093 0,-0.032 0,-0.064 0,-0.096 C 0.723,13.46 0.691,13.428 0.661,13.397 V 13.35 c 0,-0.033 0,-0.064 0,-0.095 0,-0.03 -0.017,-0.046 -0.049,-0.046 0,-0.032 -0.015,-0.062 -0.046,-0.095 0,-0.03 0,-0.062 0,-0.093 v -0.045 c 0,-0.033 0,-0.064 0,-0.096 0,-0.03 0,-0.063 0,-0.095 V 12.74 L 0.519,12.692 c 0,-0.032 -0.015,-0.063 -0.046,-0.094 v -0.093 c 0,-0.032 0,-0.063 0,-0.096 0,-0.03 0,-0.062 0,-0.093 V 12.27 L 0.424,12.22 c 0,-0.03 -0.016,-0.062 -0.047,-0.094 v -0.047 c 0,-0.031 0,-0.062 0,-0.093 0,-0.03 0,-0.062 0,-0.093 v -0.048 c 0,-0.031 0,-0.063 0,-0.094 0,-0.031 -0.015,-0.062 -0.047,-0.094 V 11.61 c 0,-0.031 0,-0.063 0,-0.093 0,-0.031 -0.017,-0.062 -0.048,-0.094 L 0.236,11.376 c 0,-0.031 -0.016,-0.062 -0.046,-0.092 0,-0.031 0,-0.062 0,-0.095 v -0.094 c 0,-0.031 0,-0.062 0,-0.094 0,-0.031 0,-0.063 0,-0.094 V 10.86 c 0,-0.031 0,-0.062 0,-0.093 v -0.048 c -0.031,0 -0.047,-0.015 -0.047,-0.046 0,-0.03 0,-0.063 0,-0.094 v -0.095 c 0,-0.031 0,-0.062 0,-0.094 0,-0.03 0,-0.063 0,-0.092 V 10.249 C 0.112,10.219 0.097,10.188 0.097,10.157 0.064,10.124 0.032,10.092 0,10.06 V 9.966 C 0,9.936 0,9.904 0,9.872 V 9.778 C 0,9.747 0,9.716 0,9.685 0,9.654 0,9.622 0,9.591 V 9.544 C 0,9.513 0,9.48 0,9.45 V 9.355 C 0,9.325 0,9.292 0,9.262 0,9.23 0,9.199 0,9.167 V 9.122 C 0,9.091 0,9.059 0,9.028 0,8.997 0,8.965 0,8.935 V 8.886 C 0,8.855 0,8.823 0,8.792 0,8.761 0,8.729 0,8.699 V 8.653 C 0,8.62 0,8.589 0,8.557 0,8.526 0,8.494 0,8.466 V 8.418 C 0.032,8.386 0.064,8.353 0.096,8.321 L 0.142,8.275 c 0,-0.03 0,-0.061 0,-0.093 L 0.189,8.134 c 0,-0.031 0,-0.063 0,-0.092 0.03,-0.032 0.046,-0.063 0.046,-0.095 0.031,0 0.063,0 0.094,0 0,-0.03 0,-0.062 0,-0.095 0.032,-0.03 0.047,-0.062 0.047,-0.093 0.032,0 0.062,0 0.094,0 0,-0.032 0,-0.063 0,-0.095 C 0.501,7.633 0.533,7.602 0.564,7.572 0.564,7.54 0.58,7.524 0.61,7.524 H 0.659 C 0.721,7.494 0.768,7.478 0.799,7.478 0.862,7.448 0.924,7.431 0.987,7.431 V 7.384 c 0.031,0 0.093,0 0.188,0 L 1.221,7.431 V 7.384 c 0.033,0 0.049,-0.015 0.049,-0.046 0.031,0 0.062,0 0.093,0 L 1.409,7.29 c 0.032,0 0.078,0 0.142,0 0.063,0 0.109,0 0.14,0 0.031,0.032 0.079,0.048 0.14,0.048 0.033,0 0.063,0.015 0.095,0.046 C 1.957,7.322 2.035,7.29 2.161,7.29 h 9.389 c 0.127,0 0.205,0.016 0.236,0.048 C 11.85,7.305 11.913,7.275 11.974,7.243 12.037,7.212 12.099,7.18 12.162,7.15 12.194,7.118 12.225,7.101 12.257,7.101 12.32,7.07 12.382,7.055 12.445,7.055 c 0.063,0 0.14,0 0.234,0 1.847,0 3.709,0 5.587,0 V 7.009 C 18.298,6.977 18.313,6.946 18.313,6.915 V 6.82 c 0.031,-0.03 0.046,-0.062 0.046,-0.094 0,-0.031 0,-0.062 0,-0.093 0.032,-0.032 0.063,-0.048 0.094,-0.048 H 18.5 c 0,-0.031 0,-0.062 0,-0.094 0,-0.03 0,-0.063 0,-0.092 V 6.352 C 18.532,6.32 18.563,6.29 18.594,6.257 V 6.21 c 0.063,-0.032 0.125,-0.063 0.187,-0.094 0.032,0 0.063,0 0.095,0 0.031,-0.031 0.046,-0.062 0.046,-0.095 l 0.094,-0.093 c 0.031,0 0.079,0 0.139,0 0.096,0 0.205,0 0.331,0 0.031,0 0.063,0 0.093,0 0.031,0 0.046,0.016 0.046,0.047 L 19.719,5.928 V 5.881 c 0,-0.031 0,-0.063 0,-0.094 0,-0.031 0,-0.062 0,-0.094 0.033,0 0.064,0 0.095,0 0,-0.03 0,-0.062 0,-0.093 0,-0.031 0,-0.063 0,-0.094 V 5.459 C 19.845,5.428 19.86,5.397 19.86,5.366 19.86,5.333 19.845,5.302 19.814,5.271 V 5.224 C 19.783,5.194 19.751,5.178 19.719,5.178 L 19.674,5.132 c 0,-0.033 -0.018,-0.065 -0.049,-0.096 V 4.989 c 0,-0.03 0,-0.062 0,-0.093 0,-0.032 0,-0.063 0,-0.095 V 4.754 c 0,-0.031 0,-0.063 0,-0.093 0,-0.031 0,-0.063 0,-0.094 0.031,-0.033 0.049,-0.065 0.049,-0.095 0.03,-0.031 0.045,-0.062 0.045,-0.095 V 4.333 c 0.033,-0.033 0.064,-0.047 0.095,-0.047 0.031,0 0.062,0 0.093,0 h 0.046 V 4.237 c 0.033,-0.03 0.064,-0.046 0.095,-0.046 0,-0.03 0.015,-0.047 0.046,-0.047 0.031,0 0.063,-0.015 0.094,-0.046 0.032,0 0.063,0 0.095,0 0.031,0 0.063,0 0.093,0 0.03,0 0.061,-0.016 0.093,-0.047 0.032,0 0.08,-0.016 0.142,-0.046 0.031,-0.032 0.046,-0.064 0.046,-0.095 V 3.862 c 0,-0.032 0,-0.063 0,-0.094 0.031,-0.031 0.047,-0.063 0.047,-0.093 0.03,-0.032 0.063,-0.048 0.094,-0.048 0,-0.031 0.016,-0.063 0.048,-0.093 0,-0.031 0.015,-0.063 0.046,-0.094 0.031,0 0.063,-0.016 0.093,-0.048 0.063,0 0.11,0 0.142,0 V 3.345 c 0.188,0 0.376,0 0.564,0 0.031,0.033 0.077,0.046 0.141,0.046 0.031,0.032 0.063,0.048 0.094,0.048 0,0.031 0.015,0.063 0.046,0.094 0.031,0.03 0.064,0.062 0.095,0.093 0.031,0 0.047,0.016 0.047,0.048 0.032,0.03 0.047,0.062 0.047,0.093 0.031,0.031 0.047,0.062 0.047,0.094 0.031,0 0.08,0 0.142,0 0.124,0 0.234,0 0.327,0 0.063,0 0.126,0.016 0.188,0.047 0.032,0.031 0.063,0.063 0.095,0.095 0.031,0.03 0.063,0.046 0.093,0.046 0,0.031 0.016,0.047 0.047,0.047 0,0.031 0,0.063 0,0.093 0,0.033 0,0.063 0,0.095 h 0.048 c 0,0.031 0.031,0.062 0.094,0.092 0.063,0 0.109,0.018 0.141,0.048 0.031,0 0.047,0.016 0.047,0.047 0.063,0 0.109,0 0.141,0 0.532,0 1.048,0 1.549,0 0.219,0 0.469,0 0.751,0 0.031,-0.031 0.062,-0.047 0.094,-0.047 0.032,0 0.078,0 0.141,0 V 4.378 H 26.2 c 0.062,0.033 0.108,0.063 0.14,0.095 V 4.426 h 0.096 V 4.378 c 0.062,0.033 0.107,0.063 0.139,0.095 0.033,0.03 0.048,0.062 0.048,0.095 0.032,0 0.062,0 0.094,0 0,0.03 0.016,0.063 0.046,0.094 0.031,0.03 0.046,0.062 0.046,0.093 v 0.093 c 0.033,-0.031 0.063,-0.046 0.095,-0.046 0.03,0 0.078,0 0.141,0 0.032,0 0.079,0.016 0.141,0.046 0.031,0.033 0.046,0.063 0.046,0.095 v 0.093 c 0,0.031 0,0.063 0,0.096 v 0.093 c 0,0.03 0,0.062 0,0.093 0,0.031 0,0.064 0,0.095 l 0.047,0.046 c 0,0.031 0.016,0.047 0.048,0.047 0,0.03 0,0.063 0,0.094 0,0.032 0,0.063 0,0.093 0.03,0 0.046,0.016 0.046,0.048 v 0.046 l 0.046,0.048 c 0,0.031 0,0.062 0,0.093 v 0.047 c 0,0.031 0,0.064 0,0.095 v 0.046 h 0.141 c 1.157,0 2.333,-0.016 3.521,-0.046 V 6.021 L 31.13,5.975 c 0,-0.031 0.015,-0.047 0.046,-0.047 0.031,0 0.078,0 0.14,0 0.033,0 0.095,-0.014 0.188,-0.046 0,-0.031 0,-0.063 0,-0.094 0.033,-0.031 0.063,-0.062 0.095,-0.094 h 0.047 C 31.677,5.664 31.708,5.632 31.74,5.601 31.772,5.57 31.786,5.538 31.786,5.507 l 0.095,-0.093 c 0,-0.031 0.016,-0.046 0.046,-0.046 0.031,0 0.063,0 0.094,0 V 5.317 c 0.063,0 0.141,0 0.236,0 0.03,0.031 0.077,0.064 0.139,0.095 l 0.094,0.093 c 0,0.03 0,0.063 0,0.094 0.063,-0.063 0.142,-0.11 0.235,-0.141 0.063,0 0.142,-0.031 0.235,-0.093 0.093,0 0.188,0 0.283,0 V 5.317 c 0.124,0.031 0.233,0.049 0.327,0.049 0.032,0.031 0.063,0.062 0.095,0.093 0.03,-0.062 0.046,-0.11 0.046,-0.142 0.095,-0.063 0.189,-0.093 0.283,-0.093 h 2.3 c 0.096,0 0.174,0.03 0.236,0.093 0.03,0.064 0.062,0.126 0.094,0.188 0.155,0 0.298,-0.016 0.422,-0.047 0.063,0 0.126,0 0.188,0 0.032,0 0.078,-0.015 0.141,-0.046 1.001,0 1.987,0 2.958,0 0.063,0.031 0.111,0.046 0.142,0.046 0.062,0 0.109,0 0.14,0 0.063,0.031 0.108,0.062 0.142,0.093 0.03,0.032 0.078,0.063 0.14,0.095 l 0.047,0.046 c 0.031,0 0.047,-0.014 0.047,-0.046 0.031,-0.031 0.063,-0.063 0.094,-0.095 0,-0.031 0.014,-0.062 0.045,-0.093 h 0.048 c 0.031,0 0.078,0 0.141,0 V 5.413 c 0.031,0.031 0.078,0.046 0.141,0.046 0.031,0.031 0.062,0.047 0.094,0.047 0,0.03 0.015,0.063 0.046,0.094 0,0.032 0,0.063 0,0.093 v 0.048 h 0.047 c 0.031,0 0.079,-0.016 0.141,-0.048 0.062,0 0.124,0 0.187,0 0.032,0.032 0.063,0.048 0.094,0.048 V 5.787 C 42.665,5.756 43.275,5.741 43.901,5.741 V 5.693 c 0.03,-0.03 0.063,-0.062 0.095,-0.093 0.032,-0.031 0.062,-0.063 0.094,-0.094 0.03,0 0.045,-0.016 0.045,-0.047 0.063,0 0.127,-0.015 0.19,-0.046 0.218,0 0.438,-0.016 0.656,-0.046 0.031,-0.033 0.048,-0.064 0.048,-0.095 0.031,-0.031 0.062,-0.047 0.093,-0.047 0.032,-0.03 0.063,-0.046 0.094,-0.046 0.032,0 0.048,-0.016 0.048,-0.046 0.063,-0.033 0.125,-0.065 0.187,-0.096 0.063,0 0.157,0 0.282,0 h 0.047 c 0.032,0 0.047,-0.016 0.047,-0.047 l 0.094,-0.093 c 0.063,-0.032 0.109,-0.049 0.141,-0.049 0.094,-0.031 0.156,-0.046 0.188,-0.046 0.03,0 0.062,0 0.093,0 h 0.047 l 0.046,-0.046 h 0.049 c 0.029,-0.031 0.062,-0.046 0.093,-0.046 0.062,0 0.094,-0.016 0.094,-0.046 h 0.047 c 0.03,0 0.063,0 0.093,0 V 4.568 c 0,-0.033 0,-0.065 0,-0.095 0,-0.031 0,-0.062 0,-0.095 -0.031,0 -0.063,-0.015 -0.093,-0.045 0,-0.033 -0.016,-0.047 -0.047,-0.047 V 4.237 L 43.011,2.97 C 42.948,2.938 42.886,2.876 42.823,2.782 42.793,2.719 42.777,2.657 42.777,2.596 H 42.73 C 42.698,2.564 42.667,2.548 42.635,2.548 c -0.031,0 -0.061,-0.014 -0.093,-0.047 h -0.095 c -0.062,0 -0.107,0 -0.14,0 -0.125,-0.031 -0.219,-0.063 -0.281,-0.093 -0.031,0 -0.079,0 -0.142,0 h -0.047 c -0.031,0 -0.062,-0.016 -0.094,-0.047 -0.062,0 -0.108,0 -0.141,0 C 41.539,2.329 41.477,2.314 41.414,2.314 41.384,2.282 41.351,2.266 41.321,2.266 41.289,2.234 41.258,2.204 41.227,2.173 41.196,2.142 41.164,2.11 41.132,2.079 41.101,2.047 41.07,2.03 41.04,2.03 c -0.063,0 -0.11,-0.015 -0.142,-0.046 -0.063,0 -0.11,-0.015 -0.14,-0.046 C 40.725,1.907 40.71,1.875 40.71,1.845 40.679,1.812 40.647,1.796 40.616,1.796 40.585,1.765 40.569,1.733 40.569,1.702 L 40.523,1.655 H 40.477 V 1.609 L 40.429,1.561 C 40.398,1.529 40.367,1.514 40.335,1.514 40.303,1.483 40.272,1.452 40.241,1.422 L 40.195,1.326 c 0,-0.03 0,-0.063 0,-0.094 C 40.164,1.201 40.147,1.17 40.147,1.139 L 40.1,1.092 c 0,-0.031 0,-0.063 0,-0.094 0,-0.031 0,-0.062 0,-0.093 V 0.857 c 0.031,0 0.046,-0.015 0.046,-0.046 0,-0.032 0.017,-0.062 0.048,-0.094 V 0.669 c 0,-0.031 0,-0.063 0,-0.094 V 0.528 L 40.24,0.482 c 0.031,-0.032 0.062,-0.063 0.094,-0.094 0.032,0 0.063,0 0.094,0 V 0.341 C 40.46,0.246 40.523,0.17 40.616,0.105 40.679,0.011 40.773,-0.019 40.898,0.011 l 0.282,0.094 c 0.125,0.031 0.219,0.096 0.282,0.188 0.062,0.095 0.078,0.189 0.046,0.283 0.031,0 0.063,0 0.094,0 h 0.094 c 0.032,0.031 0.078,0.046 0.14,0.046 0.032,0.032 0.063,0.048 0.095,0.048 0.063,0 0.109,0 0.14,0 l 0.048,0.047 c 0.03,0 0.062,0 0.093,0 0.063,0.032 0.11,0.046 0.141,0.046 l 0.046,0.048 c 0,-0.062 0.032,-0.109 0.094,-0.142 0.064,-0.063 0.157,-0.094 0.283,-0.094 0.062,0 0.125,0.015 0.188,0.046 l 4.883,1.316 c 0.093,0 0.17,0.046 0.234,0.141 0,0.031 0.016,0.063 0.048,0.094 0.031,0.032 0.063,0.047 0.093,0.047 0.032,0.03 0.079,0.046 0.141,0.046 0.062,0 0.109,0.017 0.141,0.048 0,0.031 0,0.063 0,0.094 0.031,0 0.063,0.015 0.094,0.046 0.032,0.031 0.063,0.047 0.094,0.047 0,0.033 0.015,0.063 0.047,0.095 0.031,-0.032 0.063,-0.048 0.094,-0.048 V 2.5 H 48.88 C 48.943,2.469 49.005,2.453 49.068,2.453 V 2.407 c 0.063,0.031 0.109,0.062 0.14,0.093 h 0.049 c 0.032,0.033 0.062,0.063 0.093,0.095 0,0.03 0,0.062 0,0.092 v 0.047 c 0,0.032 0,0.063 0,0.095 0,0.032 0,0.063 0,0.094 V 2.97 c 0,0.032 0,0.063 0,0.093 v 0.049 c 0,0.03 0,0.061 0,0.093 v 0.047 c 0,0.031 0,0.063 0,0.093 V 3.44 c 0,0.031 0,0.063 0,0.094 0,0.03 0,0.062 0,0.093 0,0.032 0,0.063 0,0.095 0,0.031 0,0.062 0,0.093 v 0.047 c 0,0.03 0,0.063 0,0.095 0,0.032 0,0.062 0,0.093 v 0.047 c 0,0.031 0,0.063 0,0.093 v 0.142 c 0,0.031 0,0.063 0,0.093 0,0.031 0,0.063 0,0.093 v 0.049 c 0,0.03 0,0.063 0,0.094 0,0.03 0,0.062 0,0.093 v 0.093 c 0,0.033 0,0.063 0,0.095 0,0.031 0,0.063 0,0.093 v 0.047 c 0,0.034 0,0.064 0,0.095 v 0.14 c 0,0.031 0,0.064 0,0.095 v 0.046 c 0,0.031 0,0.062 0,0.093 0,0.032 0,0.063 0,0.095 v 0.046 c 0,0.032 0,0.063 0,0.094 0,0.031 0,0.063 0,0.094 v 0.046 c -0.031,0 -0.061,0.016 -0.093,0.047 -0.032,0.031 -0.049,0.064 -0.049,0.095 -0.031,0.03 -0.078,0.046 -0.14,0.046 -0.031,0 -0.063,0 -0.094,0 H 48.928 L 48.88,6.163 c 0,0.031 -0.015,0.048 -0.047,0.048 0,0.031 -0.015,0.046 -0.046,0.046 h -0.094 c -0.5,0 -1.002,0 -1.504,0 0,0.034 -0.016,0.048 -0.045,0.048 v 0.047 l -0.047,0.047 c 0,0.03 -0.017,0.046 -0.047,0.046 -0.063,0 -0.11,0 -0.141,0 -0.064,0.032 -0.141,0.063 -0.234,0.094 v 0.094 c 0,0.031 0,0.063 0,0.093 0,0.032 0,0.064 0,0.094 v 0.094 c 2.285,0 4.602,0 6.949,0 V 6.868 c 0,-0.033 0,-0.063 0,-0.095 0,-0.032 0,-0.063 0,-0.094 V 6.539 C 53.656,6.508 53.671,6.477 53.671,6.445 53.7,6.414 53.717,6.382 53.717,6.352 53.748,6.32 53.779,6.305 53.81,6.305 c 0.032,0 0.08,-0.015 0.141,-0.048 0.031,0 0.078,-0.015 0.142,-0.046 0.031,-0.032 0.046,-0.063 0.046,-0.094 0.031,0 0.064,0 0.094,0 L 54.28,6.07 V 6.021 c 0,-0.03 0,-0.063 0,-0.093 V 5.881 c 0,-0.031 0,-0.063 0,-0.094 0,-0.031 0,-0.062 0,-0.094 0,-0.03 0,-0.062 0,-0.093 0,-0.031 0,-0.063 0,-0.094 V 5.459 c 0,-0.031 0,-0.062 0,-0.093 0,-0.033 0,-0.064 0,-0.095 L 54.233,5.224 C 54.203,5.194 54.17,5.178 54.139,5.178 V 5.131 c 0,-0.033 0,-0.065 0,-0.096 0.031,0 0.048,-0.016 0.048,-0.047 0.031,-0.03 0.046,-0.062 0.046,-0.093 0.032,-0.032 0.063,-0.063 0.095,-0.095 0.03,0 0.045,-0.016 0.045,-0.046 0.031,0 0.063,-0.016 0.095,-0.046 0.031,-0.032 0.077,-0.046 0.14,-0.046 0,-0.031 0,-0.063 0,-0.094 0.031,0 0.063,-0.018 0.095,-0.049 0.031,-0.031 0.047,-0.063 0.047,-0.093 0.03,-0.03 0.047,-0.063 0.047,-0.093 L 54.844,4.286 V 4.237 c 0.031,0 0.063,0 0.094,0 0,-0.03 0,-0.061 0,-0.093 l 0.046,-0.046 h 0.046 c 0.033,0 0.063,-0.016 0.096,-0.047 0.187,0 0.389,-0.016 0.609,-0.046 0.032,0 0.047,-0.016 0.047,-0.047 0.032,0 0.064,0 0.094,0 V 3.909 c 0.063,0 0.125,0 0.188,0 0.063,0.031 0.11,0.063 0.141,0.095 l 0.047,0.046 c 0.031,0 0.045,-0.016 0.045,-0.046 0.064,-0.032 0.111,-0.047 0.143,-0.047 V 3.909 c 0.062,0.031 0.125,0.063 0.188,0.095 l 0.047,0.046 c 0,0.031 0.016,0.047 0.046,0.047 0,0.031 0,0.063 0,0.093 0,0.033 0,0.063 0,0.095 0,0.031 0,0.062 0,0.092 0,0.033 0,0.063 0,0.095 0,0.03 0,0.062 0,0.095 0,0.03 0,0.063 0,0.094 0,0.03 0,0.062 0,0.093 V 4.8 h 0.047 c 0.03,0 0.047,0.016 0.047,0.046 h 0.047 c 0.063,0.033 0.125,0.063 0.188,0.095 0,0.031 0.017,0.046 0.047,0.046 0,0.031 0.016,0.047 0.046,0.047 0,0.031 0,0.063 0,0.096 0.031,0.031 0.062,0.046 0.095,0.046 l 0.046,0.046 v 0.047 c 0,0.031 0,0.063 0,0.095 0,0.031 0,0.062 0,0.093 v 0.047 c 0,0.03 0,0.063 0,0.094 0,0.032 0,0.063 0,0.093 0,0.032 0,0.063 0,0.094 0,0.031 0,0.063 0,0.094 v 0.046 c 0,0.031 0,0.063 0,0.093 0,0.033 0,0.064 0,0.095 0,0.031 0,0.063 0,0.094 v 0.046 c 0,0.034 0,0.063 0,0.095 v 0.187 l 0.095,0.046 c 0.03,0.032 0.061,0.048 0.095,0.048 0.062,0.031 0.108,0.063 0.14,0.093 0,0.032 0.015,0.064 0.046,0.094 0.031,0.031 0.063,0.048 0.094,0.048 V 6.91 c 0,0.031 0,0.063 0,0.094 V 7.05 c 7.387,0 14.775,0 22.162,0 0.125,0 0.236,0 0.329,0 0.094,0.032 0.187,0.063 0.282,0.095 0.063,0.067 0.141,0.114 0.235,0.145 z m -22.445,7.747 c 0,-0.031 0,-0.062 0,-0.095 0,0.033 -0.017,0.064 -0.046,0.095 z M 56.675,5.459 c 0,0.031 0,0.062 0,0.093 0,0.032 0,0.063 0,0.095 v 0.046 c 0.03,0.03 0.046,0.062 0.046,0.094 V 5.693 c 0,-0.03 0,-0.062 0,-0.093 0,-0.031 0,-0.063 0,-0.094 V 5.459 Z m -1.972,1.08 -0.047,0.046 h 0.047 z M 54.515,6.726 C 54.578,6.695 54.608,6.664 54.608,6.633 54.545,6.664 54.482,6.696 54.42,6.726 V 6.773 C 54.453,6.742 54.482,6.726 54.515,6.726 Z M 47.377,4.378 c 0,0.033 0,0.063 0,0.095 l 0.047,0.046 V 4.473 c 0,-0.031 0,-0.062 0,-0.095 0,-0.031 0,-0.062 0,-0.092 h -0.047 z m -2.535,1.643 c -0.095,0.001 -0.205,0.018 -0.329,0.049 0.093,0 0.188,0 0.282,0 0,-0.031 0.016,-0.047 0.047,-0.049 z m 11.598,8.97 -0.047,-0.049 v 0.049 z M 22.022,11.609 v -0.093 h -0.048 c 0,0.03 0,0.062 0,0.093 z m 3.005,2.818 c 0.032,0.031 0.063,0.046 0.095,0.046 v -0.046 c -0.037,0 -0.069,0 -0.095,0 z m 5.213,0.938 c -0.032,0.063 -0.063,0.111 -0.094,0.142 0.032,0 0.077,0 0.14,0 0,-0.031 -0.016,-0.063 -0.046,-0.094 z M 11.082,9.591 H 3.241 c 0,0.032 0,0.063 0,0.094 0.031,0.062 0.046,0.11 0.046,0.141 0,0.03 0,0.078 0,0.14 0,0.032 0.016,0.079 0.048,0.142 0,0.032 0,0.079 0,0.14 0.032,0.032 0.047,0.079 0.047,0.141 0.031,0.063 0.063,0.11 0.093,0.142 0,0.062 0.016,0.125 0.047,0.187 v 0.048 c 0,0.062 0,0.108 0,0.14 0,0.063 0,0.125 0,0.188 0.031,0.062 0.079,0.11 0.141,0.142 0,0.032 0.016,0.078 0.046,0.14 v 0.047 c 0.063,0 0.141,0 0.235,0 0.063,0.063 0.125,0.14 0.188,0.234 l 0.703,2.065 1.221,-0.89 c 0.094,-0.063 0.189,-0.094 0.281,-0.094 0.095,0.03 0.157,0.077 0.188,0.14 0.032,-0.03 0.063,-0.063 0.094,-0.095 L 6.714,12.69 C 6.744,12.658 6.76,12.627 6.76,12.596 l 0.047,-0.047 c 0.032,0 0.063,-0.015 0.095,-0.046 0.03,-0.032 0.047,-0.063 0.047,-0.096 0.093,-0.03 0.172,-0.062 0.234,-0.093 L 7.23,12.268 c 0.032,0 0.062,-0.016 0.094,-0.048 0.032,-0.03 0.063,-0.062 0.093,-0.094 0.032,-0.032 0.063,-0.047 0.094,-0.047 0.03,-0.031 0.079,-0.046 0.141,-0.046 0,-0.031 0.031,-0.063 0.094,-0.093 0.032,-0.032 0.063,-0.065 0.093,-0.095 0.032,-0.031 0.064,-0.063 0.095,-0.094 0.063,-0.031 0.109,-0.062 0.14,-0.094 H 8.17 c 0.033,0 0.079,-0.015 0.141,-0.047 0,-0.031 0.015,-0.063 0.048,-0.093 0.031,0 0.063,-0.016 0.093,-0.046 0.031,-0.031 0.062,-0.048 0.094,-0.048 0,-0.031 0.016,-0.063 0.047,-0.094 0.063,-0.031 0.109,-0.061 0.141,-0.093 L 8.781,11.188 C 8.812,11.156 8.859,11.124 8.923,11.094 8.985,11.062 9.016,11.031 9.016,11 9.079,10.969 9.125,10.937 9.158,10.906 h 0.046 c 0.032,-0.032 0.048,-0.062 0.048,-0.094 0.031,-0.031 0.062,-0.063 0.093,-0.095 0.031,0 0.063,0 0.093,0 0.033,-0.032 0.08,-0.062 0.143,-0.094 0.03,-0.031 0.045,-0.063 0.045,-0.093 0.032,-0.032 0.064,-0.048 0.097,-0.048 0,-0.031 0.014,-0.062 0.045,-0.094 0.062,0 0.108,-0.013 0.14,-0.046 C 9.94,10.31 9.97,10.279 10,10.247 c 0.032,0 0.065,-0.014 0.095,-0.046 0.032,-0.03 0.063,-0.062 0.095,-0.094 0.03,-0.032 0.077,-0.063 0.141,-0.095 0.031,0 0.063,-0.015 0.093,-0.046 0.063,-0.03 0.11,-0.062 0.142,-0.094 0.031,-0.031 0.077,-0.046 0.14,-0.046 h 0.047 C 10.784,9.795 10.8,9.763 10.8,9.732 10.863,9.701 10.908,9.669 10.941,9.638 10.97,9.608 11.018,9.593 11.082,9.591 Z"
   id="path782" />
		</g>
	</g>
</g>

</svg>
