<?xml version="1.0" encoding="UTF-8" standalone="no"?>
<!-- Generator: Adobe Illustrator 16.0.0, SVG Export Plug-In . SVG Version: 6.00 Build 0)  -->

<svg
   version="1.1"
   x="0px"
   y="0px"
   width="115.25"
   height="41"
   viewBox="0 0 115.25 41"
   enable-background="new 0 0 100.25 32"
   xml:space="preserve"
   id="svg919"
   xmlns="http://www.w3.org/2000/svg"
   xmlns:svg="http://www.w3.org/2000/svg"><defs
   id="defs923" />
<g
   id="Selected_Items"
   transform="translate(0,6)">
	<g
   id="g915">
		<g
   id="Selected_Items_39_">
			<path
   fill-rule="evenodd"
   clip-rule="evenodd"
   fill="#ffffff"
   d="m 97.74,7.175 c 0,0.047 0.012,0.096 0.035,0.143 0,0.048 0,0.096 0,0.145 0,0.022 0,0.06 0,0.106 0,0.049 0,0.096 0,0.145 v 0.323 c 0.551,0 1.1,0 1.651,0 0.072,0 0.131,0.011 0.178,0.035 0.026,0 0.048,0.012 0.073,0.036 h 0.036 V 8.072 c 0.024,0 0.047,0 0.072,0 0.047,0.023 0.108,0.049 0.18,0.07 0.023,0.024 0.047,0.062 0.07,0.109 0.025,0 0.038,0.023 0.038,0.07 0.024,0.024 0.035,0.049 0.035,0.073 v 0.071 c -0.024,0.048 -0.035,0.083 -0.035,0.107 -0.018,0.017 -0.029,0.042 -0.038,0.073 0.026,0 0.049,0 0.073,0 0,0.047 0,0.094 0,0.143 0,0.048 0,0.096 0,0.144 0,0.048 0,0.096 0,0.144 0,0.023 0,0.06 0,0.107 0,0.03 0,0.06 0,0.09 0.012,0.013 0.024,0.029 0.036,0.054 0.024,0.024 0.037,0.06 0.037,0.107 l 0.035,0.037 c 0,0.047 0,0.084 0,0.107 0,0.023 0,0.06 0,0.107 v 0.071 c 0,0.024 -0.011,0.047 -0.035,0.072 -0.023,0.022 -0.048,0.047 -0.072,0.07 0,0.037 0,0.072 0,0.109 0,0.046 0,0.095 0,0.143 0,0.024 0,0.06 0,0.107 0,0.047 0,0.097 0,0.145 0,0.047 0,0.096 0,0.143 0,0.048 0,0.095 0,0.144 0,0.024 0,0.048 0,0.072 -0.175,0 -0.348,0 -0.52,0 l 0.016,0.035 c 0,0.024 0.013,0.049 0.038,0.072 0.022,0.024 0.047,0.048 0.071,0.072 0,0.048 0,0.084 0,0.106 l -0.019,0.018 c -3.121,-0.011 -6.238,-0.017 -9.347,-0.018 -0.047,0.025 -0.083,0.049 -0.107,0.073 -0.144,0.006 -0.288,0.012 -0.431,0.017 0,0.03 0,0.061 0,0.09 h -0.034 v -0.035 c 0,-0.02 0,-0.036 0,-0.055 -0.396,0.022 -0.792,0.046 -1.185,0.072 v 0.018 c -0.048,0 -0.096,0 -0.144,0 0,0.024 0,0.05 0,0.072 -0.175,-0.006 -0.347,-0.013 -0.521,-0.019 -0.018,0.02 -0.035,0.037 -0.053,0.055 -0.024,0.047 -0.036,0.095 -0.036,0.143 -0.035,0.007 -0.072,0.015 -0.107,0.02 0,0.044 0,0.085 0,0.124 0,0.049 0,0.097 0,0.145 0,0.023 0,0.06 0,0.107 0,0.047 0,0.097 0,0.144 v 0.019 c 0.061,0.004 0.121,0.009 0.178,0.018 0,0.048 0,0.096 0,0.144 0,0.048 0,0.096 0,0.144 0,0.047 0,0.096 0,0.144 0,0.023 0,0.059 0,0.106 0,0.049 0,0.097 0,0.144 0,0.049 0,0.098 0,0.145 0,0.048 0,0.096 0,0.144 0,0.023 0,0.061 0,0.106 0,0.05 0,0.096 0,0.145 0,0.049 0,0.096 0,0.145 0,0.047 0,0.094 0,0.142 0,0.024 0,0.061 0,0.108 0,0.047 0,0.097 0,0.145 0,0.048 0,0.094 0,0.143 0,0.048 0,0.096 0,0.144 0,0.023 0,0.048 0,0.072 -0.118,-0.003 -0.238,-0.003 -0.358,0 0,0.033 0,0.068 0,0.107 0,0.023 0,0.048 0,0.072 -0.119,0 -0.24,0 -0.358,0 -0.204,0 -0.407,0 -0.61,0 v 0.035 c 0,0.023 0,0.049 0,0.072 0,0.023 -0.013,0.048 -0.037,0.071 -0.023,0.025 -0.036,0.061 -0.036,0.108 -0.023,0.024 -0.047,0.035 -0.07,0.035 -0.025,0 -0.049,0.013 -0.074,0.037 -0.023,0.022 -0.047,0.035 -0.07,0.035 l -0.036,0.035 c -0.048,0.024 -0.096,0.035 -0.145,0.035 -0.072,0 -0.143,0 -0.215,0 -0.048,0 -0.095,0 -0.143,0 v 0.036 c -0.24,0.049 -0.479,0.098 -0.718,0.145 0,0.023 0,0.048 0,0.071 -0.215,0.024 -0.418,0.061 -0.61,0.108 -0.048,0.023 -0.084,0.048 -0.108,0.07 -0.622,0.024 -1.244,0.062 -1.865,0.108 -0.048,0.023 -0.085,0.049 -0.108,0.072 -0.492,-0.013 -0.981,-0.026 -1.472,-0.035 -0.024,0.023 -0.048,0.047 -0.072,0.071 h -0.037 c -0.047,0.025 -0.108,0.036 -0.179,0.036 -3.366,0 -6.732,0 -10.101,0 -0.111,0.011 -0.225,0.022 -0.341,0.036 0,0.023 0,0.047 0,0.07 -0.526,0.024 -1.065,0.061 -1.616,0.108 0,0.023 0,0.048 0,0.071 -0.573,0.023 -1.136,0.06 -1.686,0.107 -0.047,0.024 -0.083,0.048 -0.107,0.073 -0.455,0.023 -0.898,0.059 -1.328,0.106 -0.048,0.024 -0.084,0.048 -0.108,0.072 -0.406,0.023 -0.825,0.06 -1.255,0.108 0,0.023 0,0.047 0,0.071 -0.479,0.023 -0.958,0.06 -1.437,0.107 0,0.023 0,0.048 0,0.071 -0.454,0.024 -0.897,0.06 -1.328,0.107 -0.047,0.023 -0.083,0.049 -0.107,0.072 -0.575,0.024 -1.137,0.061 -1.687,0.106 -0.047,0.024 -0.084,0.049 -0.108,0.072 -0.741,-0.023 -1.471,-0.035 -2.189,-0.035 -0.023,-0.024 -0.059,-0.06 -0.107,-0.107 -0.383,-0.024 -0.765,-0.048 -1.148,-0.072 -0.024,-0.024 -0.06,-0.061 -0.107,-0.108 -0.12,-0.023 -0.25,-0.047 -0.395,-0.071 0,-0.024 0,-0.06 0,-0.108 -0.12,-0.021 -0.239,-0.046 -0.359,-0.069 0,-0.024 0,-0.062 0,-0.109 -0.048,-0.022 -0.107,-0.047 -0.178,-0.071 0,-0.023 0,-0.06 0,-0.107 -0.12,-0.023 -0.24,-0.048 -0.359,-0.072 0,-0.023 0,-0.06 0,-0.107 -0.048,-0.024 -0.108,-0.048 -0.18,-0.072 C 54.332,15.7 54.319,15.652 54.319,15.604 54.296,15.557 54.26,15.51 54.214,15.461 54.166,15.413 54.129,15.376 54.105,15.353 54.011,15.306 53.913,15.257 53.818,15.209 53.795,15.161 53.782,15.114 53.782,15.065 53.757,15.017 53.721,14.97 53.674,14.92 c -2.52,0.021 -5.042,0.045 -7.572,0.073 0,0.023 0,0.048 0,0.071 -0.79,-0.023 -1.58,-0.036 -2.368,-0.036 -0.024,-0.023 -0.061,-0.059 -0.108,-0.108 -0.12,-0.022 -0.251,-0.047 -0.395,-0.071 0,-0.027 0,-0.058 0,-0.088 -0.021,0.011 -0.044,0.017 -0.072,0.017 0,0.024 -0.011,0.035 -0.035,0.035 l -0.107,0.107 c -0.024,0.026 -0.048,0.037 -0.073,0.037 0,0.024 -0.012,0.036 -0.036,0.036 0,0.023 -0.012,0.035 -0.036,0.035 l -0.035,0.036 c -0.025,0 -0.05,0.013 -0.073,0.036 h -0.035 c -0.048,0.024 -0.083,0.037 -0.108,0.037 l -0.035,0.035 H 42.55 v 0.035 l -0.072,0.035 -0.036,0.036 h -0.019 c -0.016,0.005 -0.034,0.017 -0.052,0.037 h -0.038 c -0.048,0.023 -0.083,0.035 -0.107,0.035 0,0.023 -0.011,0.037 -0.036,0.037 -0.023,0 -0.036,0.012 -0.036,0.035 -0.023,0 -0.036,0.012 -0.036,0.036 -0.024,0 -0.036,0.012 -0.036,0.036 -0.023,0 -0.037,0.013 -0.037,0.036 -0.023,0 -0.047,0.011 -0.07,0.036 -0.024,0 -0.036,0.011 -0.036,0.034 -0.025,0 -0.048,0.012 -0.072,0.036 H 41.83 c 0,0.024 -0.012,0.036 -0.035,0.036 -0.023,0.023 -0.047,0.036 -0.071,0.036 0,0.023 -0.012,0.035 -0.037,0.035 v 0.036 c -0.121,0.023 -0.24,0.036 -0.359,0.036 l -0.036,0.035 c -0.025,0.024 -0.049,0.036 -0.073,0.036 l -0.071,0.073 v 0.035 l -0.036,0.035 v 0.036 c -0.048,0.024 -0.084,0.036 -0.107,0.036 l -0.036,0.036 v 0.035 h -0.035 c -0.024,0.024 -0.048,0.036 -0.072,0.036 l -0.108,0.108 v 0.07 c -0.048,0.025 -0.083,0.037 -0.108,0.037 l -0.072,0.071 v 0.072 c -0.048,0.022 -0.084,0.035 -0.108,0.035 -0.023,0.023 -0.047,0.036 -0.072,0.036 v 0.072 c -0.046,0 -0.083,0 -0.108,0 v 0.036 c -0.023,0.023 -0.047,0.034 -0.071,0.034 0,0.024 -0.011,0.037 -0.035,0.037 -0.024,0 -0.035,0.012 -0.035,0.035 L 40.107,16.9 v 0.07 c -0.067,0 -0.139,0 -0.213,0 0,0.024 -0.013,0.037 -0.037,0.037 v 0.07 c -0.024,0 -0.06,0 -0.107,0 -0.024,0.025 -0.048,0.038 -0.072,0.038 -0.071,0.023 -0.155,0.035 -0.25,0.035 -0.073,0.023 -0.155,0.035 -0.252,0.035 v 0.072 c -0.071,0 -0.143,0 -0.215,0 -0.047,0.023 -0.095,0.036 -0.143,0.036 -0.288,0.023 -0.574,0.035 -0.861,0.035 -0.286,0 -0.562,0 -0.826,0 -0.047,0 -0.097,-0.012 -0.145,-0.035 -0.047,0 -0.083,-0.013 -0.106,-0.036 -0.025,0 -0.048,-0.012 -0.073,-0.036 v -0.036 c -0.045,-0.022 -0.093,-0.035 -0.143,-0.035 0.024,0 0.036,0.013 0.036,0.035 v 0.287 c 0.012,0.013 0.024,0.024 0.037,0.036 l 0.036,0.036 v 0.036 c 0,0.048 0,0.083 0,0.107 -0.013,0.012 -0.024,0.024 -0.036,0.036 -0.013,-0.012 -0.024,-0.024 -0.037,-0.036 -0.191,0 -0.394,0 -0.611,0 -0.024,0 -0.06,-0.012 -0.108,-0.036 l -0.07,-0.071 v -0.072 c -0.048,-0.023 -0.085,-0.036 -0.108,-0.036 v -0.036 l -0.035,-0.035 v -0.036 c -0.025,0 -0.037,-0.012 -0.037,-0.036 l -0.036,-0.035 c -0.024,0 -0.049,-0.013 -0.072,-0.036 0,-0.025 -0.011,-0.036 -0.036,-0.036 v -0.071 l -0.036,-0.035 v -0.038 l -0.216,-0.215 v -0.035 c -0.024,0 -0.035,-0.013 -0.035,-0.037 l -0.073,-0.07 v -0.036 c 0,-0.023 -0.012,-0.036 -0.036,-0.036 v -0.071 c -0.023,-0.023 -0.047,-0.037 -0.07,-0.037 l -0.036,-0.035 c 0,-0.023 -0.012,-0.036 -0.037,-0.036 v -0.035 c -0.022,0 -0.035,-0.012 -0.035,-0.037 V 16.36 l -0.036,-0.034 v -0.035 c -0.024,0 -0.035,-0.013 -0.035,-0.036 l -0.038,-0.037 v -0.036 h -0.036 v -0.035 c 0,-0.024 -0.012,-0.036 -0.036,-0.036 0,-0.023 -0.012,-0.036 -0.036,-0.036 l -0.072,-0.071 v -0.035 c 0,-0.025 -0.013,-0.037 -0.036,-0.037 V 15.896 L 34.652,15.86 v -0.215 h -0.036 c 0,-0.024 -0.011,-0.036 -0.036,-0.036 V 15.575 L 34.544,15.539 V 15.5 H 34.51 c -0.061,-0.005 -0.12,-0.017 -0.179,-0.036 -0.432,0 -0.85,0 -1.257,0 -0.233,0.018 -0.46,0.029 -0.683,0.036 v 0.036 c -0.047,0 -0.094,0 -0.143,0 -0.072,0.023 -0.143,0.047 -0.215,0.07 -0.263,0.024 -0.539,0.048 -0.826,0.072 -0.024,0 -0.06,0.012 -0.108,0.036 -0.048,0 -0.083,0.012 -0.107,0.035 -0.072,0 -0.119,0.013 -0.144,0.036 -0.024,0 -0.048,0.012 -0.071,0.036 -0.073,0 -0.121,0.013 -0.144,0.035 -0.048,0.024 -0.084,0.036 -0.108,0.036 -0.047,0.024 -0.096,0.036 -0.143,0.036 -0.071,0.024 -0.12,0.049 -0.143,0.072 -0.073,0.023 -0.144,0.048 -0.216,0.071 0,0.024 -0.023,0.048 -0.071,0.072 -0.048,0 -0.084,0.013 -0.108,0.035 -0.047,0.024 -0.083,0.048 -0.107,0.073 -0.048,0.023 -0.096,0.036 -0.143,0.036 v 0.035 c -0.014,0.008 -0.032,0.013 -0.054,0.019 -0.002,0.018 -0.01,0.035 -0.018,0.052 -0.024,0.025 -0.048,0.048 -0.072,0.072 l -0.036,0.036 h -0.037 v 0.035 c -0.047,0.048 -0.095,0.096 -0.142,0.145 -0.049,0.048 -0.096,0.096 -0.144,0.144 -0.072,0.048 -0.144,0.097 -0.216,0.143 0,0.024 0,0.062 0,0.107 0,0.049 0,0.085 0,0.108 v 0.036 c -0.047,0.024 -0.106,0.06 -0.18,0.107 0,0.024 0,0.048 0,0.072 -0.047,0.023 -0.107,0.06 -0.18,0.107 0,0.024 0,0.06 0,0.108 0,0.047 0,0.083 0,0.107 v 0.035 c -0.047,0.024 -0.106,0.061 -0.179,0.108 0,0.023 0,0.06 0,0.107 0,0.049 0,0.084 0,0.107 v 0.035 c -0.046,0.024 -0.107,0.061 -0.18,0.108 0,0.024 0,0.06 0,0.107 0,0.047 0,0.096 0,0.145 0,0.047 0,0.096 0,0.144 0,0.048 0,0.095 0,0.143 0,0.024 0,0.061 0,0.107 0,0.048 0,0.096 0,0.144 0,0.048 0,0.096 0,0.145 0,0.047 0,0.096 0,0.143 0,0.024 0,0.061 0,0.108 0,0.047 0,0.096 0,0.142 0,0.05 0,0.098 0,0.145 0,0.048 0,0.097 0,0.144 -0.023,0.023 -0.035,0.061 -0.035,0.108 -0.023,0.048 -0.06,0.084 -0.108,0.107 l -0.035,0.036 c -0.06,-0.002 -0.12,-0.002 -0.18,0 -0.024,0.023 -0.037,0.049 -0.037,0.071 -0.024,0.049 -0.047,0.085 -0.072,0.108 l -0.071,0.035 c -0.049,0 -0.108,0.013 -0.179,0.036 h -0.073 c -0.071,-0.023 -0.144,-0.036 -0.215,-0.036 -0.022,-0.048 -0.047,-0.084 -0.071,-0.106 -0.024,-0.024 -0.036,-0.06 -0.036,-0.108 v -0.017 c -0.167,-0.008 -0.334,-0.013 -0.502,-0.02 v 0.036 c -0.049,0.023 -0.108,0.061 -0.18,0.108 0,0.022 0,0.048 0,0.071 -0.06,0.012 -0.119,0.028 -0.179,0.053 0,0.026 0,0.058 0,0.091 0,0.049 0,0.096 0,0.144 0,0.023 0,0.047 0,0.071 -0.048,0.024 -0.108,0.06 -0.18,0.107 0,0.023 0,0.048 0,0.071 -0.28,-0.008 -0.563,-0.014 -0.843,-0.017 -0.389,-0.012 -0.777,-0.017 -1.166,-0.019 0,0.024 0,0.047 0,0.071 0.022,0.023 0.048,0.048 0.071,0.072 0.024,0.024 0.06,0.061 0.107,0.107 0.024,0.024 0.035,0.048 0.035,0.071 v 0.038 l 0.037,0.034 c 0,0.049 0,0.084 0,0.107 -0.024,0.025 -0.037,0.049 -0.037,0.073 -0.023,0.022 -0.035,0.059 -0.035,0.106 -0.023,0.024 -0.047,0.035 -0.072,0.035 -0.024,0 -0.048,0 -0.072,0 -0.024,0.024 -0.06,0.037 -0.108,0.037 -0.072,0 -0.12,0 -0.143,0 -0.073,-0.024 -0.144,-0.037 -0.215,-0.037 -0.025,-0.023 -0.06,-0.047 -0.108,-0.07 -0.024,-0.049 -0.048,-0.084 -0.072,-0.107 -0.024,0 -0.048,-0.025 -0.072,-0.072 0,-0.023 0,-0.061 0,-0.106 v -0.038 c 0,-0.047 0,-0.083 0,-0.106 0,-0.048 0,-0.084 0,-0.107 -0.023,0 -0.048,-0.025 -0.071,-0.073 0,-0.023 -0.013,-0.048 -0.036,-0.071 0,-0.024 0,-0.048 0,-0.071 -0.047,-0.048 -0.084,-0.084 -0.108,-0.107 -0.048,-0.024 -0.071,-0.048 -0.071,-0.072 0,-0.022 -0.012,-0.048 -0.036,-0.071 -0.025,-0.048 -0.049,-0.084 -0.072,-0.108 -0.024,-0.023 -0.048,-0.048 -0.072,-0.071 -0.023,-0.023 -0.035,-0.06 -0.035,-0.108 -0.024,-0.023 -0.037,-0.047 -0.037,-0.071 v -0.036 c -0.071,-0.023 -0.144,-0.048 -0.215,-0.071 -0.025,-0.048 -0.048,-0.072 -0.072,-0.072 -0.023,-0.023 -0.047,-0.059 -0.071,-0.106 -0.072,-0.025 -0.132,-0.049 -0.179,-0.073 -0.073,0 -0.145,0 -0.215,0 -0.049,0 -0.108,0.012 -0.18,0.036 -0.048,-0.024 -0.107,-0.036 -0.179,-0.036 -0.024,-0.023 -0.047,-0.047 -0.072,-0.07 -0.023,-0.049 -0.047,-0.085 -0.072,-0.108 0,-0.024 0,-0.049 0,-0.072 0,-0.022 0,-0.047 0,-0.071 v -0.072 c 0,-0.047 0,-0.083 0,-0.107 0,-0.018 0,-0.042 0,-0.071 -0.096,0.023 -0.18,0.059 -0.251,0.107 -0.096,0.048 -0.191,0.096 -0.287,0.144 0,0.049 0,0.095 0,0.144 -0.096,0.048 -0.18,0.097 -0.251,0.145 -0.096,0.022 -0.192,0.046 -0.289,0.07 -0.118,0.023 -0.237,0.061 -0.357,0.107 -0.048,0.023 -0.107,0.048 -0.18,0.072 -0.095,0.023 -0.179,0.06 -0.25,0.107 -0.047,0.024 -0.084,0.048 -0.107,0.072 -0.119,0.023 -0.24,0.061 -0.359,0.108 0,0.022 0,0.048 0,0.071 -0.119,0.023 -0.24,0.06 -0.359,0.107 0,0.022 0,0.048 0,0.071 -0.12,0.025 -0.239,0.061 -0.358,0.108 0,0.023 0,0.047 0,0.071 -0.144,0.024 -0.287,0.06 -0.432,0.107 -0.047,0.023 -0.083,0.048 -0.107,0.071 -0.048,0.024 -0.106,0.06 -0.18,0.108 0,0.024 0,0.049 0,0.072 -0.143,0.023 -0.286,0.06 -0.43,0.106 -0.047,0.024 -0.083,0.049 -0.108,0.072 -0.119,0.024 -0.239,0.06 -0.357,0.107 0,0.025 0,0.049 0,0.073 -0.121,0.022 -0.239,0.059 -0.359,0.106 0,0.024 0,0.048 0,0.072 -0.144,0.022 -0.288,0.06 -0.43,0.107 -0.048,0.023 -0.084,0.048 -0.109,0.071 -0.118,0.024 -0.239,0.061 -0.357,0.109 0,0.022 0,0.046 0,0.07 -0.048,0.024 -0.109,0.06 -0.181,0.108 v 0.071 c -0.094,0.024 -0.179,0.06 -0.251,0.107 -0.046,0.024 -0.084,0.048 -0.108,0.072 -0.119,0.023 -0.239,0.061 -0.358,0.107 0,0.023 0,0.047 0,0.071 -0.121,0.023 -0.239,0.061 -0.359,0.107 0,0.023 0,0.049 0,0.072 -0.096,0.023 -0.179,0.061 -0.252,0.107 -0.048,0.024 -0.083,0.049 -0.106,0.072 -0.097,0.023 -0.18,0.06 -0.253,0.107 -0.047,0.024 -0.083,0.049 -0.107,0.072 -0.095,0.024 -0.179,0.06 -0.251,0.107 -0.047,0.023 -0.084,0.048 -0.108,0.072 -0.048,0.022 -0.107,0.06 -0.179,0.107 0,0.023 0,0.047 0,0.07 -0.12,0.024 -0.238,0.061 -0.358,0.109 0,0.024 0,0.048 0,0.07 -0.12,0.025 -0.239,0.061 -0.36,0.109 0,0.023 0,0.047 0,0.071 -0.119,0.022 -0.24,0.06 -0.357,0.107 0,0.023 0,0.048 0,0.071 -0.168,0.023 -0.348,0.06 -0.539,0.107 0,0.024 0,0.048 0,0.072 -0.096,0.023 -0.18,0.061 -0.252,0.107 -0.048,0.023 -0.083,0.049 -0.106,0.072 -0.12,0.024 -0.24,0.06 -0.359,0.107 0,0.023 0,0.048 0,0.072 -0.12,0.023 -0.24,0.061 -0.36,0.107 0,0.023 0,0.047 0,0.071 -0.119,0.024 -0.239,0.061 -0.358,0.107 0,0.023 0,0.049 0,0.071 -0.168,0.025 -0.347,0.061 -0.538,0.108 0,0.023 0,0.048 0,0.072 -0.12,0.023 -0.241,0.06 -0.359,0.106 0,0.025 0,0.049 0,0.073 -0.12,0.023 -0.239,0.06 -0.36,0.107 0,0.023 0,0.048 0,0.071 -0.119,0.023 -0.238,0.06 -0.358,0.108 0,0.023 0,0.047 0,0.071 -0.12,0.022 -0.239,0.06 -0.359,0.108 0,0.023 0,0.047 0,0.071 -0.095,0.023 -0.18,0.059 -0.251,0.107 -0.047,0.023 -0.084,0.048 -0.107,0.071 -0.12,0.024 -0.241,0.061 -0.36,0.109 0,0.022 0,0.047 0,0.07 -0.119,0.024 -0.239,0.061 -0.358,0.108 0,0.023 0,0.047 0,0.071 -0.167,0.023 -0.347,0.061 -0.539,0.107 0,0.023 0,0.048 0,0.072 -0.144,0.022 -0.287,0.06 -0.43,0.106 -0.048,0.024 -0.085,0.049 -0.108,0.072 -0.144,0.023 -0.287,0.061 -0.43,0.106 -0.048,0.024 -0.085,0.05 -0.108,0.073 -0.119,0.023 -0.24,0.061 -0.358,0.107 0,0.023 0,0.049 0,0.072 -0.097,-0.003 -0.192,-0.003 -0.288,0 0,0.024 0,0.06 0,0.107 0,0.023 0,0.06 0,0.107 v 0.035 C 4.703,27.181 4.679,27.216 4.655,27.24 l -0.036,0.036 c -0.023,0 -0.037,0.012 -0.037,0.035 -0.023,0 -0.059,0.012 -0.106,0.036 -0.048,0 -0.084,0 -0.107,0 C 4.321,27.323 4.273,27.299 4.225,27.276 H 4.188 c -0.023,0 -0.061,0 -0.108,0 -0.047,0.023 -0.095,0.047 -0.143,0.071 -0.047,0 -0.095,0 -0.144,0 -0.046,-0.024 -0.107,-0.048 -0.179,-0.071 -0.024,0 -0.047,-0.023 -0.07,-0.072 V 27.169 C 3.519,27.144 3.495,27.12 3.471,27.097 c 0,0.023 0,0.047 0,0.072 v 0.035 c -0.024,0.024 -0.047,0.049 -0.072,0.072 l -0.036,0.071 c 0,0.024 -0.012,0.061 -0.036,0.107 -0.049,0.023 -0.096,0.037 -0.144,0.037 -0.048,0.022 -0.107,0.048 -0.179,0.07 -0.095,0 -0.204,0 -0.323,0 -0.072,-0.022 -0.13,-0.048 -0.18,-0.07 -0.024,0 -0.048,0 -0.072,0 C 2.382,27.466 2.333,27.442 2.285,27.418 2.261,27.395 2.237,27.371 2.215,27.347 2.166,27.323 2.106,27.299 2.035,27.276 1.987,27.276 1.963,27.263 1.963,27.24 1.868,27.216 1.796,27.191 1.748,27.169 1.7,27.173 1.651,27.15 1.604,27.126 1.58,27.103 1.555,27.078 1.532,27.055 1.484,27.006 1.448,26.971 1.424,26.948 1.4,26.923 1.389,26.9 1.389,26.876 c 0,-0.026 -0.013,-0.061 -0.037,-0.108 0,-0.023 -0.012,-0.048 -0.035,-0.072 0,-0.025 -0.013,-0.048 -0.037,-0.071 0,-0.024 -0.012,-0.06 -0.035,-0.107 v -0.072 c 0,-0.023 0,-0.049 0,-0.071 v -0.072 c 0,-0.023 0,-0.059 0,-0.107 0,-0.024 0,-0.048 0,-0.071 0,-0.024 0,-0.048 0,-0.072 0,-0.048 0,-0.084 0,-0.106 0,-0.025 0,-0.049 0,-0.074 0,-0.023 0,-0.059 0,-0.106 0,-0.023 -0.011,-0.049 -0.035,-0.072 C 1.185,25.671 1.173,25.647 1.173,25.624 1.15,25.577 1.137,25.54 1.137,25.515 v -0.07 c 0,-0.023 0,-0.048 0,-0.071 v -0.072 c 0,-0.048 0,-0.083 0,-0.107 0,-0.023 0,-0.048 0,-0.071 0,-0.024 0,-0.061 0,-0.108 0,-0.022 0,-0.048 0,-0.071 C 1.113,24.921 1.101,24.896 1.101,24.873 1.078,24.849 1.054,24.813 1.03,24.765 c 0,-0.022 -0.012,-0.048 -0.037,-0.071 0,-0.025 0,-0.047 0,-0.07 0,-0.049 0,-0.085 0,-0.108 v -0.072 c 0,-0.023 0,-0.06 0,-0.107 v -0.036 c 0,-0.047 0,-0.084 0,-0.108 v -0.07 c 0,-0.024 0,-0.06 0,-0.107 0,-0.025 0,-0.049 0,-0.072 0,-0.024 0,-0.049 0,-0.072 0,-0.048 0,-0.083 0,-0.107 0,-0.023 -0.012,-0.049 -0.036,-0.071 0,-0.024 0,-0.048 0,-0.071 0,-0.049 -0.011,-0.084 -0.036,-0.109 0,-0.022 0,-0.046 0,-0.07 0,-0.024 0,-0.061 0,-0.109 0,-0.023 0,-0.047 0,-0.07 0,-0.025 0,-0.048 0,-0.072 v -0.071 c 0,-0.025 0,-0.06 0,-0.107 0,-0.024 0,-0.06 0,-0.108 v -0.035 c 0,-0.049 0,-0.084 0,-0.108 0,-0.023 0,-0.048 0,-0.071 0,-0.024 0,-0.06 0,-0.107 0,-0.025 0,-0.048 0,-0.072 0,-0.023 0,-0.049 0,-0.072 0,-0.048 0,-0.084 0,-0.107 v -0.071 c 0,-0.024 -0.012,-0.048 -0.036,-0.072 0,-0.048 -0.011,-0.071 -0.036,-0.071 C 0.825,22.072 0.8,22.036 0.776,22.014 c 0,-0.024 0,-0.06 0,-0.108 v -0.07 c 0,-0.024 0,-0.049 0,-0.073 0,-0.023 0,-0.048 0,-0.072 0,-0.023 0,-0.059 0,-0.107 0,-0.023 0,-0.048 0,-0.072 0,-0.023 0,-0.047 0,-0.07 0,-0.049 0,-0.084 0,-0.107 v -0.072 c 0,-0.023 0,-0.061 0,-0.106 v -0.038 c 0,-0.047 0,-0.083 0,-0.106 0,-0.048 0,-0.084 0,-0.107 V 20.81 c 0,-0.023 0,-0.048 0,-0.071 0,-0.024 0,-0.048 0,-0.071 0,-0.048 0,-0.084 0,-0.107 0,-0.024 0,-0.048 0,-0.072 0,-0.022 0,-0.048 0,-0.071 0,-0.048 0,-0.084 0,-0.108 -0.023,-0.023 -0.047,-0.048 -0.071,-0.071 0,-0.023 -0.012,-0.06 -0.035,-0.108 0,-0.023 0,-0.047 0,-0.071 0,-0.023 0,-0.047 0,-0.071 0,-0.049 0,-0.084 0,-0.108 V 19.81 c 0,-0.024 0,-0.061 0,-0.108 v -0.034 c 0,-0.048 0,-0.085 0,-0.11 0,-0.023 0,-0.046 0,-0.07 0,-0.023 0,-0.059 0,-0.107 0,-0.023 0,-0.048 0,-0.072 0,-0.023 0,-0.047 0,-0.071 0,-0.049 0,-0.084 0,-0.107 0,-0.025 0,-0.047 0,-0.072 0,-0.023 0,-0.048 0,-0.071 v -0.072 c 0,-0.049 0,-0.083 0,-0.107 -0.024,-0.024 -0.048,-0.06 -0.072,-0.107 -0.024,0 -0.035,-0.012 -0.035,-0.035 0,-0.049 0,-0.084 0,-0.108 v -0.071 c 0,-0.023 0,-0.061 0,-0.108 0,-0.023 0,-0.048 0,-0.072 0,-0.023 0,-0.047 0,-0.071 0,-0.048 0,-0.084 0,-0.108 0,-0.022 0,-0.047 0,-0.07 0,-0.023 0,-0.06 0,-0.108 v -0.036 c 0,-0.048 0,-0.083 0,-0.107 0,-0.023 0,-0.06 0,-0.107 V 17.63 C 0.539,17.606 0.514,17.581 0.491,17.558 L 0.455,17.486 c 0,-0.048 0,-0.084 0,-0.107 0,-0.024 0,-0.048 0,-0.071 0,-0.023 0,-0.048 0,-0.072 0,-0.048 0,-0.083 0,-0.106 0,-0.024 0,-0.049 0,-0.073 0,-0.023 0,-0.06 0,-0.106 V 16.9 c 0,-0.049 0,-0.085 0,-0.109 0,-0.046 0,-0.082 0,-0.106 v -0.072 c 0,-0.024 0,-0.059 0,-0.107 V 16.47 C 0.432,16.423 0.408,16.387 0.384,16.362 c 0,-0.021 -0.011,-0.046 -0.038,-0.069 0,-0.024 0,-0.062 0,-0.109 0,-0.022 0,-0.047 0,-0.071 0,-0.023 0,-0.048 0,-0.072 0,-0.047 0,-0.083 0,-0.107 0,-0.023 0,-0.048 0,-0.072 0,-0.022 0,-0.048 0,-0.071 0,-0.048 0,-0.084 0,-0.107 0,-0.024 0,-0.048 0,-0.072 0,-0.023 -0.012,-0.06 -0.035,-0.106 -0.024,0 -0.047,-0.011 -0.072,-0.036 0,-0.048 -0.011,-0.085 -0.036,-0.108 V 15.29 c 0,-0.023 0,-0.059 0,-0.106 0,-0.023 0,-0.06 0,-0.108 V 15.04 c 0,-0.047 0,-0.082 0,-0.108 0,-0.022 0,-0.047 0,-0.071 0,-0.023 0,-0.059 0,-0.106 0,-0.024 0,-0.049 0,-0.072 0.025,-0.023 0.036,-0.046 0.036,-0.07 0.024,-0.024 0.048,-0.062 0.072,-0.109 0.023,0 0.048,-0.012 0.073,-0.035 L 0.42,14.434 h 0.035 c 0,-0.025 0,-0.049 0,-0.072 V 14.28 c 0,-0.048 0,-0.083 0,-0.107 0,-0.024 0.012,-0.061 0.036,-0.108 0.023,0 0.048,-0.012 0.072,-0.036 0.023,-0.047 0.059,-0.083 0.107,-0.107 0.023,-0.024 0.047,-0.047 0.072,-0.071 0.023,-0.023 0.048,-0.059 0.072,-0.107 0.024,-0.024 0.048,-0.048 0.071,-0.072 0.047,0 0.072,-0.012 0.072,-0.035 0.072,-0.024 0.131,-0.049 0.18,-0.073 0.024,-0.024 0.048,-0.048 0.073,-0.071 0.048,0 0.094,0 0.142,0 0.072,-0.023 0.144,-0.048 0.215,-0.07 0.097,-0.024 0.168,-0.061 0.215,-0.108 0.024,0 0.061,-0.012 0.108,-0.036 0.048,0 0.084,0 0.109,0 0.094,0 0.179,0 0.25,0 0.048,0 0.097,0.012 0.144,0.036 0.047,0 0.083,0.013 0.107,0.036 0.024,0 0.049,0 0.073,0 0.047,0.023 0.106,0.048 0.179,0.072 0.023,0.047 0.047,0.07 0.072,0.07 0.024,0.023 0.047,0.06 0.07,0.109 0.039,0 0.075,0 0.109,0 0.144,-0.025 0.287,-0.05 0.43,-0.073 0.023,-0.022 0.036,-0.048 0.036,-0.071 h 0.036 c 0.024,0 0.048,0 0.072,0 0.358,0 0.717,0 1.075,0 l 0.018,0.018 c 0.49,0.012 0.976,0.018 1.454,0.018 0.034,0.035 0.058,0.06 0.071,0.071 l 0.018,0.019 c 0.143,0.007 0.279,0.012 0.413,0.02 0.192,0.022 0.371,0.035 0.539,0.035 0.024,0.023 0.047,0.048 0.071,0.071 0.239,0 0.478,0 0.718,0 0.023,-0.023 0.047,-0.048 0.072,-0.071 h 0.035 c 0.622,0 1.245,-0.013 1.867,-0.035 0.047,0 0.083,0 0.107,0 0.048,-0.025 0.083,-0.038 0.107,-0.038 0.059,-0.005 0.119,-0.012 0.18,-0.018 V 13.13 c 0.143,0 0.274,0 0.394,0 0.023,0 0.048,0 0.071,0 0.073,-0.023 0.145,-0.035 0.217,-0.035 0,-0.023 0.011,-0.035 0.036,-0.035 v -0.036 c 0.072,0 0.156,0 0.25,0 h 0.035 c 0.025,0 0.037,-0.012 0.037,-0.035 0.144,0 0.287,0 0.432,0 h 0.035 c 0.024,0 0.036,-0.013 0.036,-0.037 0.071,0 0.144,0 0.214,0 0.024,0 0.048,0 0.072,0 0.025,0 0.049,0 0.072,0 0.12,-0.023 0.251,-0.035 0.395,-0.035 0.024,-0.023 0.049,-0.036 0.072,-0.036 0.023,0 0.047,-0.013 0.072,-0.036 0.071,0 0.142,0 0.214,0 0.024,0 0.048,0 0.072,0 0.024,0 0.048,-0.011 0.071,-0.036 h 0.036 c 0.024,0 0.048,0 0.072,0 0.023,0 0.046,-0.012 0.071,-0.036 0.12,0 0.252,0 0.396,0 0.143,-0.023 0.288,-0.036 0.43,-0.036 0.023,-0.022 0.048,-0.035 0.072,-0.035 0.022,0 0.035,-0.012 0.035,-0.035 0.145,0 0.287,0 0.431,0 0.024,0 0.048,0 0.072,0 v -0.036 c 0.272,0.02 0.535,0.031 0.79,0.036 0.048,0 0.096,0 0.144,0 0.012,-0.004 0.024,-0.01 0.036,-0.019 0.182,-10e-4 0.362,-0.007 0.539,-0.018 0.024,0 0.048,0 0.071,0 h 0.037 l 0.035,-0.037 c 0.024,0 0.05,0 0.073,0 h 0.071 c 0.144,-0.023 0.275,-0.035 0.396,-0.035 0.047,0 0.095,0 0.142,0 0.048,0 0.096,0 0.144,0 0.025,-0.023 0.062,-0.035 0.108,-0.035 0.048,0 0.096,0 0.144,0 0.047,0 0.095,0 0.143,0 0.024,0 0.06,-0.013 0.108,-0.036 0.048,0 0.096,0 0.142,0 0.048,0 0.084,0 0.108,0 0.216,0 0.42,-0.012 0.612,-0.035 0.023,0 0.047,0 0.072,0 0.023,0 0.047,0 0.071,0 0.024,0 0.036,-0.013 0.036,-0.037 0.023,0 0.048,0 0.071,0 0.024,0 0.048,0 0.071,0 0.024,0 0.048,0 0.073,0 0,-0.024 0.012,-0.036 0.036,-0.036 0.047,0 0.107,0 0.179,0 0.047,0 0.095,0 0.143,0 0.048,-0.023 0.097,-0.035 0.143,-0.035 0.073,0 0.133,0 0.18,0 0.047,0 0.108,0 0.18,0 0.047,0 0.095,-0.013 0.143,-0.036 0.047,0 0.096,0 0.143,0 0.048,0 0.096,0 0.144,0 0.048,0 0.095,-0.012 0.143,-0.036 0.024,0 0.047,0 0.072,0 0.025,0 0.048,0 0.071,0 0.024,0 0.049,-0.012 0.073,-0.034 0.023,0 0.048,0 0.072,0 0.024,0 0.047,0 0.072,0 0.024,0 0.047,0 0.071,0 0.024,-0.025 0.049,-0.037 0.072,-0.037 0.048,0 0.096,0 0.145,0 0.047,0 0.095,0 0.143,0 0.048,-0.024 0.095,-0.035 0.143,-0.035 0.049,0 0.109,0 0.18,0 0.049,0 0.097,0 0.144,0 0.047,0 0.096,-0.013 0.143,-0.036 0.049,0 0.096,0 0.144,0 0.048,0 0.096,0 0.143,0 0.192,0 0.384,-0.013 0.575,-0.036 0.024,0 0.048,0 0.072,0 h 0.035 c 0.024,0 0.048,-0.012 0.072,-0.036 h 0.036 c 0.023,0 0.048,0 0.072,0 h 0.037 l 0.036,-0.036 c 0.047,0 0.095,0 0.144,0 0.024,0 0.059,0 0.107,0 0.047,-0.024 0.083,-0.036 0.107,-0.036 0.048,0 0.084,0 0.107,0 0.024,0 0.062,0 0.107,0 0.107,0 0.216,-0.011 0.323,-0.036 v 0.036 c 0.048,0 0.095,0 0.144,0 v 0.181 l 0.036,0.035 v 0.037 l 0.037,0.034 v 0.036 c 0.047,0 0.083,0.012 0.107,0.036 0.071,0 0.131,0.012 0.179,0.035 0.024,0.024 0.048,0.036 0.072,0.036 v 0.037 c 0.072,0 0.143,0.012 0.216,0.035 0.096,0 0.179,0.012 0.25,0.036 0.144,0 0.275,0 0.395,0 0.072,-0.024 0.132,-0.036 0.18,-0.036 0.024,-0.023 0.048,-0.035 0.072,-0.035 l 0.036,-0.037 c 0.049,0 0.096,-0.012 0.145,-0.036 0.023,0 0.047,-0.013 0.072,-0.035 0.047,0 0.095,0 0.143,0 0.022,-0.024 0.059,-0.036 0.108,-0.036 0.048,-0.024 0.095,-0.036 0.144,-0.036 v -0.034 c 0.047,0 0.083,-0.014 0.107,-0.037 0.023,0 0.035,-0.012 0.035,-0.035 0.05,0 0.096,0 0.145,0 0.024,-0.024 0.06,-0.036 0.108,-0.036 0.023,0 0.047,0 0.072,0 h 0.036 c 0,-0.024 0.011,-0.036 0.035,-0.036 v -0.036 c 0.048,0 0.084,-0.012 0.107,-0.036 0.024,0 0.037,-0.012 0.037,-0.036 0.047,0 0.095,0 0.143,0 0.024,-0.023 0.06,-0.036 0.107,-0.036 0.049,-0.023 0.095,-0.036 0.143,-0.036 V 11.88 c 0.048,0 0.097,-0.013 0.145,-0.035 v -0.037 c 0.024,0 0.048,0 0.071,0 0.072,-0.023 0.132,-0.035 0.179,-0.035 0.023,-0.023 0.061,-0.036 0.108,-0.036 v -0.036 c 0.024,0 0.048,-0.012 0.072,-0.035 v -0.037 c 0.072,0 0.131,0 0.18,0 0.047,-0.024 0.083,-0.036 0.107,-0.036 0.048,-0.023 0.083,-0.034 0.108,-0.034 l 0.035,-0.037 c 0.024,0 0.061,-0.012 0.108,-0.036 v -0.035 c 0.071,0 0.132,0 0.179,0 0.048,-0.024 0.083,-0.036 0.108,-0.036 0.024,-0.024 0.049,-0.035 0.072,-0.035 v -0.036 c 0.047,0 0.083,-0.012 0.106,-0.036 0.025,0 0.037,-0.011 0.037,-0.036 0.048,0 0.084,0 0.108,0 0.024,-0.024 0.048,-0.036 0.073,-0.036 0.024,-0.023 0.046,-0.035 0.071,-0.035 l 0.036,-0.036 c 0.047,0 0.095,-0.013 0.142,-0.035 0.025,0 0.048,-0.013 0.073,-0.036 h 0.035 c 0.024,-0.025 0.06,-0.037 0.108,-0.037 0.024,-0.022 0.047,-0.035 0.071,-0.035 l 0.036,-0.036 c 0.025,0 0.06,-0.012 0.108,-0.035 v -0.036 c 0.047,0 0.096,0 0.144,0 0.024,-0.023 0.048,-0.036 0.071,-0.036 0.047,-0.023 0.096,-0.035 0.143,-0.035 l 0.036,-0.037 c 0.023,0 0.047,-0.012 0.072,-0.035 0.024,0 0.048,-0.013 0.072,-0.036 h 0.036 c 0.047,-0.024 0.096,-0.036 0.143,-0.036 0.024,-0.023 0.049,-0.036 0.072,-0.036 v -0.036 c 0.024,0 0.06,-0.011 0.107,-0.034 v -0.037 c 0.024,0 0.049,0 0.073,0 0.023,0 0.047,0 0.071,0 l 0.036,-0.034 h 0.035 c 0.048,-0.025 0.096,-0.037 0.144,-0.037 v -0.035 c 0.024,0 0.047,-0.013 0.071,-0.036 v -0.037 c 0.048,0 0.084,0 0.108,0 0.024,-0.022 0.048,-0.034 0.072,-0.034 0.047,-0.025 0.096,-0.036 0.144,-0.036 V 10.26 c 0.023,0 0.047,-0.012 0.071,-0.036 0.023,0 0.048,-0.012 0.071,-0.035 0.025,0 0.049,0 0.073,0 0.048,-0.023 0.083,-0.036 0.107,-0.036 0.024,-0.023 0.047,-0.035 0.072,-0.035 V 10.08 c 0.047,0 0.095,-0.011 0.143,-0.034 V 10.01 c 0.048,0 0.096,0 0.144,0 C 32.164,9.986 32.189,9.973 32.212,9.973 32.26,9.95 32.309,9.938 32.356,9.938 V 9.901 c 0.048,0 0.097,-0.012 0.144,-0.036 V 9.831 c 0.024,0 0.048,0 0.072,0 0.048,-0.025 0.096,-0.037 0.143,-0.037 0.023,-0.022 0.047,-0.035 0.072,-0.035 l 0.036,-0.037 c 0.023,0 0.049,-0.01 0.071,-0.034 V 9.652 c 0.024,0 0.06,0 0.108,0 C 33.026,9.627 33.05,9.615 33.073,9.615 33.123,9.59 33.17,9.58 33.217,9.58 V 9.542 c 0.026,0 0.049,-0.011 0.073,-0.035 V 9.472 c 0.048,0 0.083,0 0.107,0 C 33.446,9.448 33.493,9.435 33.541,9.435 33.565,9.411 33.588,9.4 33.612,9.4 V 9.364 c 0.024,0 0.048,-0.012 0.072,-0.036 0.024,0 0.048,-0.012 0.072,-0.035 0.024,0 0.048,0 0.073,0 C 33.876,9.268 33.924,9.256 33.972,9.256 33.996,9.233 34.02,9.22 34.044,9.22 l 0.035,-0.035 c 0.024,0 0.061,-0.012 0.108,-0.036 V 9.112 c 0.049,0 0.083,0 0.108,0 0.024,-0.023 0.047,-0.035 0.071,-0.035 0.048,-0.024 0.095,-0.036 0.144,-0.036 V 9.004 c 0.023,0 0.036,-0.013 0.036,-0.035 V 8.933 c 0.048,0 0.084,0 0.107,0 C 34.677,8.909 34.7,8.897 34.725,8.897 34.774,8.874 34.808,8.862 34.832,8.862 V 8.825 c 0.024,0 0.048,-0.011 0.072,-0.035 V 8.753 c 0.048,0 0.096,0 0.144,0 L 35.085,8.717 C 35.132,8.694 35.179,8.682 35.227,8.682 V 8.647 c 0.025,0 0.049,-0.013 0.073,-0.037 0.023,0 0.048,-0.012 0.072,-0.036 V 8.539 c 0.023,0 0.047,0 0.071,0 0.047,-0.024 0.096,-0.036 0.144,-0.036 V 8.466 c 0.024,0 0.047,-0.013 0.071,-0.036 0.024,0 0.048,-0.012 0.072,-0.035 h 0.037 C 35.79,8.371 35.825,8.358 35.873,8.358 35.898,8.336 35.922,8.322 35.947,8.322 V 8.288 c 0.046,0 0.095,-0.013 0.142,-0.036 V 8.215 c 0.025,0 0.048,0 0.072,0 0.048,-0.023 0.084,-0.037 0.108,-0.037 L 36.306,8.142 V 8.108 c 0.024,0 0.047,-0.013 0.071,-0.036 0.024,0 0.047,-0.012 0.071,-0.035 h 0.036 L 36.52,8 C 36.568,7.976 36.604,7.963 36.628,7.963 V 7.929 c 0.024,0 0.048,-0.013 0.071,-0.037 V 7.857 c 0.048,0 0.084,0 0.106,0 l 0.037,-0.035 c 0.023,-0.025 0.047,-0.038 0.072,-0.038 l 0.035,-0.035 c 0.024,0 0.048,-0.013 0.071,-0.035 V 7.676 c 0.025,0 0.062,0 0.108,0 0,-0.023 0.011,-0.035 0.036,-0.035 0,-0.023 0.012,-0.036 0.036,-0.036 V 7.569 c 0.023,0 0.036,-0.012 0.036,-0.035 V 7.498 c 0.024,0 0.06,0 0.107,0 V 7.462 c 0.024,0 0.049,0 0.072,0 V 6.959 c 0.121,0.004 0.239,0.01 0.359,0.018 V 6.6 c 0.395,0.018 0.788,0.029 1.184,0.036 V 6.6 c 0.188,0.021 0.369,0.033 0.539,0.036 0.024,0 0.047,0 0.072,0 v 0.359 c 0.095,0 0.192,0 0.287,0 V 7.03 c 0.134,0 0.265,0 0.396,0 v 0.037 c 0.023,0 0.034,0.012 0.034,0.035 v 0.359 c 2.179,0.007 4.355,0.012 6.532,0.018 0,0.018 0,0.035 0,0.054 0.071,0 0.143,0 0.215,0 C 47.01,7.51 46.985,7.497 46.962,7.497 V 7.48 c 0.144,0 0.287,0 0.43,0 v 0.018 l -0.036,0.036 c 0.742,0 1.471,0 2.189,0 V 7.498 c 0.156,-0.002 0.312,-0.002 0.467,0 v 0.036 c 0.047,0 0.083,0 0.107,0 V 7.498 c 0.144,0 0.287,0 0.431,0 v 0.036 c 0.096,0 0.18,0 0.251,0 V 7.498 c 0.143,0 0.287,0 0.431,0 v 0.036 c 0.429,0 0.849,0 1.256,0 V 7.498 c 0.142,0 0.285,0 0.43,0 v 0.036 c 0.119,0 0.228,0 0.323,0 V 7.498 c 0.299,-0.002 0.599,-0.002 0.898,0 v 0.036 c 0.131,0 0.262,0 0.395,0 0.023,0.023 0.035,0.06 0.035,0.107 0.024,0.023 0.048,0.061 0.072,0.107 0.415,0 0.835,0 1.256,0 0.023,0.048 0.035,0.084 0.035,0.108 v 0.072 c 0.024,0 0.048,0 0.071,0 0.025,0.023 0.062,0.059 0.108,0.107 V 8.07 l 0.036,-0.035 c 0.048,0 0.096,0 0.144,0 12.464,0 24.928,0 37.392,0 -0.024,-0.023 -0.047,-0.049 -0.072,-0.073 0,-0.047 0,-0.083 0,-0.106 V 7.822 c 0.298,0.015 0.597,0.026 0.898,0.035 0.024,0.023 0.047,0.047 0.072,0.072 0.167,0.002 0.334,0.01 0.501,0.017 0,-0.021 0,-0.039 0,-0.054 0,-0.096 0,-0.179 0,-0.251 0,-0.048 0,-0.096 0,-0.144 0,-0.048 0,-0.096 0,-0.144 0,-0.049 0,-0.095 0,-0.144 0.072,-0.048 0.131,-0.083 0.18,-0.107 0,-0.023 0,-0.047 0,-0.072 V 6.996 c 0.79,0.022 1.579,0.035 2.368,0.035 0.05,0.049 0.085,0.096 0.11,0.144 z m -62.655,6.997 c -0.039,0.006 -0.075,0.011 -0.107,0.019 0.027,-0.001 0.056,-0.001 0.089,0 z m 1.578,1.149 c -0.023,0.023 -0.047,0.035 -0.071,0.035 0,0.023 0.012,0.037 0.036,0.037 v 0.681 c 0.024,0 0.048,0 0.071,0 v 0.144 c 0.024,0.025 0.048,0.037 0.072,0.037 0,0.023 0.012,0.036 0.034,0.036 v 0.035 c 0,0.023 0.014,0.034 0.037,0.034 v 0.036 c 0.023,0 0.036,0.013 0.036,0.037 0.023,0 0.059,0.011 0.106,0.035 v 0.071 h 0.036 c 0.019,0 0.037,0.007 0.054,0.02 0.031,0.005 0.06,0.012 0.09,0.018 v 0.018 c 0.015,0.003 0.026,0.008 0.036,0.018 0.048,0 0.096,0.012 0.143,0.036 v 0.036 c 0.024,0.024 0.049,0.036 0.072,0.036 0.025,0 0.061,0.012 0.108,0.036 0.049,0 0.107,0 0.178,0 0.241,-0.024 0.48,-0.036 0.72,-0.036 0.07,-0.024 0.142,-0.036 0.214,-0.036 v -0.072 c 0.047,0 0.096,0 0.145,0 0.119,-0.024 0.239,-0.035 0.357,-0.035 0.025,-0.023 0.049,-0.037 0.073,-0.037 0.048,-0.023 0.084,-0.035 0.107,-0.035 V 16.47 c 0.023,0 0.035,-0.012 0.035,-0.035 v -0.037 c 0.048,0 0.096,0 0.144,0 V 15.035 C 38.551,15.017 37.606,15.006 36.661,15 v 0.321 z m 3.444,-0.844 c -0.284,0.003 -0.573,0.01 -0.859,0.018 0.287,-10e-4 0.574,-10e-4 0.859,0 z m -39.149,0.27 c 0,0.023 -0.011,0.035 -0.036,0.035 l -0.036,0.035 c 0,0.024 0,0.048 0,0.072 v 0.035 C 0.91,14.877 0.947,14.841 0.993,14.817 1.018,14.77 1.042,14.722 1.066,14.674 v -0.035 c -0.001,0.024 -0.013,0.048 -0.037,0.072 -0.023,0.023 -0.048,0.036 -0.071,0.036 z m 0.215,-0.252 c 0.024,-0.012 0.049,-0.023 0.072,-0.035 0,-0.027 0,-0.053 0,-0.072 -0.023,0.023 -0.048,0.049 -0.072,0.072 z m 0.359,-0.25 c 0,-0.018 0.005,-0.035 0.018,-0.054 l -0.018,0.018 c -0.073,0.023 -0.132,0.048 -0.18,0.071 -0.017,0.019 -0.04,0.041 -0.072,0.072 0.048,10e-4 0.096,10e-4 0.144,0 V 14.28 c 0.024,-0.024 0.06,-0.035 0.108,-0.035 z M 1.21,17.437 c 0.008,0.01 0.02,0.021 0.035,0.036 v -0.036 z m 2.152,9.511 c 0.024,0.023 0.047,0.059 0.071,0.107 0.023,0.023 0.035,0.047 0.036,0.071 v -0.035 c 0,-0.049 0,-0.085 0,-0.107 0.024,-0.024 0.036,-0.048 0.036,-0.072 0.009,-0.01 0.021,-0.021 0.037,-0.035 -0.075,0.001 -0.148,0.001 -0.216,0 0.024,0.023 0.036,0.046 0.036,0.071 z"
   id="path912" />
		</g>
	</g>
</g>

</svg>
