<?xml version="1.0" encoding="UTF-8" standalone="no"?>
<!-- Generator: Adobe Illustrator 16.0.0, SVG Export Plug-In . SVG Version: 6.00 Build 0)  -->

<svg
   version="1.1"
   x="0px"
   y="0px"
   width="52.75"
   height="41"
   viewBox="0 0 52.75 41"
   enable-background="new 0 0 37.75 32"
   xml:space="preserve"
   id="svg1179"
   xmlns="http://www.w3.org/2000/svg"
   xmlns:svg="http://www.w3.org/2000/svg"><defs
   id="defs1183" />
<g
   id="Selected_Items"
   transform="translate(0,6)">
	<g
   id="g1175">
		<g
   id="Selected_Items_41_">
			<path
   fill-rule="evenodd"
   clip-rule="evenodd"
   fill="#ffffff"
   d="m 37.073,2.483 v 0.083 c 0,0.029 0,0.056 0,0.083 0,0.056 0,0.099 0,0.125 0,0.029 0,0.054 0,0.083 0.137,0 0.278,0 0.418,0 0,0.026 0,0.055 0,0.084 0,0.167 0,0.319 0,0.458 0,0.138 0,0.278 0,0.416 0,0.168 0,0.321 0,0.46 0,0.14 0,0.276 0,0.417 0,0.168 0,0.319 0,0.46 0,0.138 0,0.277 0,0.416 0,0.167 0,0.32 0,0.457 0,0.141 0,0.279 0,0.417 0,0.167 0,0.323 0,0.461 0,0.14 0,0.278 0,0.416 0,0.168 0,0.323 0,0.46 0,0.137 0,0.279 0,0.416 0,0.168 0,0.32 0,0.46 0,0.14 0,0.277 0,0.417 0,0.166 0,0.307 0,0.418 0,0.138 0,0.249 0,0.332 0,0.056 0,0.099 0,0.125 0,0.026 0,0.069 0,0.125 v 0.292 c 0,0.056 0,0.099 0,0.125 0,0.056 0,0.097 0,0.125 v 0.083 c 0,0.028 0,0.069 0,0.125 0,0.028 0,0.07 0,0.126 v 0.081 c 0,0.031 0,0.056 0,0.087 v 0.04 c 0,0.028 0,0.056 0,0.083 -3.368,0 -6.746,0 -10.139,0 l -0.041,0.044 v 0.042 c 0,0.024 0,0.056 0,0.081 -0.028,0.029 -0.057,0.042 -0.084,0.042 -0.054,0.028 -0.097,0.054 -0.124,0.083 l -0.043,0.041 v 0.042 c -0.025,0 -0.068,0.014 -0.124,0.044 0,0.026 -0.014,0.053 -0.042,0.082 h -0.041 c -0.027,0.029 -0.056,0.056 -0.083,0.083 -0.028,0 -0.043,0.015 -0.043,0.044 v 0.041 c -0.027,0 -0.056,0.015 -0.083,0.042 -0.027,0 -0.055,0 -0.083,0 0,0.056 0,0.111 0,0.166 0,0.113 0,0.237 0,0.375 0,0.112 0,0.237 0,0.377 0,0.139 0,0.263 0,0.375 0,0.138 0,0.262 0,0.374 0,0.143 0,0.265 0,0.376 0,0.14 0,0.266 0,0.375 0,0.141 0,0.279 0,0.419 0,0.111 0,0.234 0,0.376 0,0.111 0,0.234 0,0.375 0,0.112 0,0.234 0,0.375 0,0.029 0,0.056 0,0.083 0.083,0 0.153,0 0.209,0 0,0.029 0,0.056 0,0.085 v 0.082 c 0,0.03 0,0.057 0,0.085 0,0.027 0,0.056 0,0.083 v 0.04 c 0,0.03 0,0.058 0,0.084 v 0.083 c 0,0.028 0,0.056 0,0.085 v 0.085 h -0.043 v 0.04 c 0,0.026 0,0.056 0,0.084 v 0.083 c 0,0.027 0,0.056 0,0.083 v 0.041 c 0,0.03 0,0.054 0,0.085 0,0.026 0,0.056 0,0.082 -4.116,0 -8.245,0 -12.388,0 0,0.056 0,0.097 0,0.125 0,0.058 0,0.097 0,0.124 -0.03,0.029 -0.043,0.056 -0.043,0.085 -0.028,0.056 -0.055,0.099 -0.083,0.127 0,0.026 0,0.067 0,0.123 0,0.029 0,0.071 0,0.125 V 18 c 0,0.027 0,0.056 0,0.083 0,0.057 0,0.098 0,0.124 0,0.056 0,0.099 0,0.126 -0.027,0.028 -0.04,0.056 -0.04,0.084 -0.057,0.027 -0.097,0.069 -0.127,0.125 0,0.027 0,0.07 0,0.125 0,0.028 0,0.056 0,0.084 0,0.026 0,0.07 0,0.123 0,0.028 0,0.056 0,0.084 0,0.056 0,0.097 0,0.126 -0.026,0.056 -0.042,0.097 -0.042,0.125 -0.054,0.028 -0.082,0.054 -0.082,0.083 0,0.026 0,0.07 0,0.126 0,0.025 0,0.068 0,0.124 0,0.028 0,0.056 0,0.083 0,0.027 0,0.054 0,0.082 0,0.058 0,0.098 0,0.127 0,0.055 0,0.096 0,0.124 -0.055,0.028 -0.112,0.07 -0.167,0.126 0,0.028 0,0.056 0,0.083 0,0.027 0,0.069 0,0.125 0,0.027 0,0.069 0,0.125 0,0.027 0,0.055 0,0.083 0,0.028 0,0.058 0,0.085 -0.028,0 -0.07,0.026 -0.125,0.082 0,0.028 0,0.056 0,0.084 0,0.028 0,0.07 0,0.126 0,0.027 0,0.068 0,0.124 0,0.028 0,0.056 0,0.085 -0.026,0.027 -0.041,0.055 -0.041,0.081 -0.029,0.056 -0.07,0.097 -0.126,0.128 0,0.056 0,0.096 0,0.122 0,0.029 0,0.07 0,0.126 -0.026,0 -0.041,0.028 -0.041,0.084 -0.028,0.028 -0.055,0.069 -0.084,0.125 0,0.028 0,0.056 0,0.083 0,0.056 0,0.098 0,0.124 -0.027,0.028 -0.042,0.058 -0.042,0.085 -0.026,0.056 -0.07,0.097 -0.125,0.125 0,0.056 0,0.098 0,0.125 0,0.027 0,0.069 0,0.125 -0.027,0 -0.04,0.029 -0.04,0.085 -0.028,0.026 -0.057,0.068 -0.084,0.124 0,0.029 0,0.056 0,0.085 0,0.054 0,0.096 0,0.124 0,0.028 0,0.056 0,0.083 -0.056,0 -0.111,0.026 -0.166,0.083 -0.029,0 -0.042,0.028 -0.042,0.084 -0.028,0.028 -0.054,0.068 -0.085,0.124 0,0.029 0,0.056 0,0.085 0,0.054 0,0.095 0,0.125 0,0.027 0,0.056 0,0.083 v 0.126 c -0.054,0.027 -0.11,0.055 -0.166,0.083 0,0.028 0,0.056 0,0.083 0,0.056 0,0.098 0,0.125 0,0.028 0,0.069 0,0.125 -0.026,0.029 -0.07,0.07 -0.126,0.125 v 0.083 c 0,0.028 0,0.056 0,0.084 0,0.056 0,0.097 0,0.124 -0.054,0.057 -0.109,0.099 -0.165,0.125 0,0.03 0,0.058 0,0.085 0,0.056 0,0.097 0,0.124 0,0.029 0,0.069 0,0.126 -0.028,0.027 -0.042,0.069 -0.042,0.123 -0.056,0 -0.083,0.029 -0.083,0.084 0,0.029 0,0.056 0,0.086 0,0.053 0,0.095 0,0.123 0,0.056 0,0.097 0,0.125 v 0.042 c -0.057,0.029 -0.112,0.071 -0.167,0.125 v 0.083 c 0,0.027 0,0.056 0,0.083 0,0.056 0,0.099 0,0.125 0,0.056 0,0.1 0,0.125 v 0.042 c -0.029,0.03 -0.07,0.056 -0.127,0.084 0,0.027 0,0.07 0,0.126 0,0.026 0,0.053 0,0.081 0,0.056 0,0.1 0,0.127 0,0.056 0,0.096 0,0.123 0,0.029 0,0.056 0,0.087 0,0.025 0,0.054 0,0.081 v 0.042 c -0.056,0.029 -0.111,0.056 -0.167,0.084 0,0.029 0,0.056 0,0.083 0,0.029 0,0.071 0,0.126 0,0.028 0,0.069 0,0.126 0,0.025 0,0.055 0,0.082 0,0.028 0,0.056 0,0.084 0,0.056 0,0.097 0,0.124 0,0.056 0,0.099 0,0.126 0,0.027 0,0.067 0,0.125 0,0.028 0,0.056 0,0.083 0,0.03 0,0.071 0,0.127 0,0.028 0,0.069 0,0.124 0,0.027 0,0.056 0,0.083 0,0.03 0,0.058 0,0.085 v 0.125 h 0.045 c 0.026,0 0.041,0.013 0.041,0.04 v 0.21 l 0.041,0.042 v 0.125 c 0.028,0 0.04,0.012 0.04,0.041 v 0.042 c 0,0.029 0.017,0.041 0.045,0.041 v 0.044 c 0,0.026 0.012,0.041 0.042,0.041 v 0.042 l 0.04,0.042 v 0.167 c 0.027,0 0.056,0.014 0.083,0.04 v 0.043 l 0.043,0.043 v 0.04 h 0.042 v 0.042 c 0,0.029 0.013,0.041 0.042,0.041 h 0.041 V 29.6 c 0.029,0 0.042,0.012 0.042,0.041 v 0.042 c 0.028,0 0.056,0 0.083,0 v 0.041 c 0.028,0.028 0.056,0.043 0.082,0.043 0.03,0 0.056,0 0.086,0 v 0.041 c 0,0.028 0.014,0.043 0.04,0.043 h 0.085 c 0.055,0 0.095,0 0.123,0 v 0.041 h 0.043 v 0.043 c 0.056,0 0.097,0 0.125,0 v 0.041 c 0.028,0 0.055,0 0.083,0 0,0.027 0.015,0.043 0.043,0.043 v 0.333 c -0.196,0 -0.378,0 -0.543,0 -0.086,0 -0.167,0 -0.251,0 v -0.04 c -0.028,0 -0.059,0 -0.083,0 l -0.042,0.04 c -0.167,0 -0.319,0 -0.461,0 -0.107,0 -0.206,0.016 -0.29,0.042 -0.333,0 -0.683,0 -1.042,0 -0.087,-0.026 -0.154,-0.042 -0.208,-0.042 v -0.127 h -0.042 c -0.112,0 -0.209,0 -0.293,0 C 9.78,30.2 9.724,30.184 9.669,30.184 v -0.165 c -0.11,0 -0.234,0 -0.375,0 C 9.155,29.991 9.018,29.976 8.878,29.976 V 29.89 C 8.76,29.864 8.636,29.85 8.497,29.85 8.358,29.85 8.219,29.835 8.08,29.807 V 29.766 H 8.038 c -0.057,0 -0.097,0 -0.125,0 H 7.83 C 7.497,29.738 7.15,29.723 6.788,29.723 c 0,-0.028 0,-0.056 0,-0.083 -0.336,-0.029 -0.64,-0.057 -0.919,-0.084 -0.026,0 -0.056,-0.027 -0.082,-0.083 -0.166,0 -0.333,-0.013 -0.5,-0.04 C 5.258,29.403 5.23,29.377 5.203,29.346 5.036,29.32 4.868,29.29 4.701,29.265 4.677,29.265 4.648,29.236 4.62,29.18 4.453,29.18 4.285,29.166 4.121,29.138 4.092,29.112 4.062,29.082 4.036,29.055 3.869,29.026 3.716,28.999 3.576,28.97 V 28.89 C 3.464,28.89 3.353,28.876 3.244,28.849 3.216,28.819 3.188,28.793 3.159,28.764 3.104,28.738 3.034,28.708 2.951,28.682 c -0.084,0 -0.166,0 -0.251,0 0,-0.029 0,-0.055 0,-0.083 0,-0.057 0,-0.099 0,-0.128 0,-0.027 0,-0.056 0,-0.083 0,-0.056 0,-0.096 0,-0.124 0,-0.028 0,-0.07 0,-0.126 v -0.083 c -0.778,0 -1.555,0 -2.333,0 v -0.04 c 0,-0.03 0,-0.056 0,-0.086 v -0.082 c -0.031,0 -0.086,0 -0.167,0 0,-0.056 0,-0.099 0,-0.125 0,-0.056 0,-0.097 0,-0.124 0,-0.029 0,-0.056 0,-0.085 0,-0.056 0,-0.097 0,-0.126 0,-0.025 0,-0.068 0,-0.123 0,-0.03 0,-0.07 0,-0.126 0,-0.028 0,-0.056 0,-0.082 0,-0.029 0,-0.058 0,-0.085 0,-0.056 0,-0.097 0,-0.126 0,-0.054 0,-0.097 0,-0.122 0,-0.031 0,-0.058 0,-0.087 0,-0.027 0,-0.067 0,-0.123 0,-0.028 0,-0.071 0,-0.127 0,-0.028 0,-0.055 0,-0.081 0,-0.056 0,-0.099 0,-0.126 0,-0.028 0,-0.055 0,-0.084 0,-0.056 0,-0.097 0,-0.125 0,-0.056 0,-0.098 0,-0.125 0,-0.029 0,-0.056 0,-0.085 0,-0.025 0,-0.068 0,-0.124 0,-0.028 0,-0.069 0,-0.125 0,-0.026 0,-0.056 0,-0.083 v -0.085 c 0,-0.056 0,-0.097 0,-0.123 0,-0.03 0,-0.057 0,-0.086 v -0.041 c 0.081,-0.028 0.137,-0.043 0.167,-0.043 0,-0.053 0,-0.096 0,-0.123 0,-0.058 0,-0.097 0,-0.126 0,-0.026 0,-0.068 0,-0.124 0,-0.028 0,-0.056 0,-0.085 0,-0.026 0,-0.069 0,-0.125 0,-0.027 0,-0.068 0,-0.124 0,-0.028 0,-0.056 0,-0.084 0.025,-0.056 0.054,-0.083 0.081,-0.083 0.027,-0.054 0.042,-0.095 0.042,-0.125 0,-0.056 0,-0.098 0,-0.125 0,-0.026 0,-0.069 0,-0.125 0,-0.028 0,-0.056 0,-0.083 0,-0.028 0,-0.056 0,-0.083 0.085,-0.029 0.141,-0.04 0.167,-0.04 0,-0.057 0,-0.101 0,-0.128 0,-0.054 0,-0.099 0,-0.125 0,-0.026 0,-0.069 0,-0.125 0,-0.026 0,-0.056 0,-0.082 0,-0.03 0,-0.07 0,-0.125 0,-0.028 0,-0.057 0,-0.083 0,-0.056 0,-0.097 0,-0.126 0.056,-0.056 0.097,-0.081 0.126,-0.081 0,-0.056 0,-0.1 0,-0.126 0,-0.029 0,-0.069 0,-0.126 0,-0.027 0,-0.068 0,-0.124 0,-0.028 0,-0.056 0,-0.085 0,-0.027 0,-0.055 0,-0.083 0.082,-0.028 0.138,-0.042 0.167,-0.042 0,-0.056 0,-0.096 0,-0.125 0,-0.028 0,-0.069 0,-0.125 0,-0.029 0,-0.069 0,-0.125 0,-0.028 0,-0.056 0,-0.083 0,-0.025 0,-0.055 0,-0.081 0.056,-0.03 0.096,-0.044 0.122,-0.044 0,-0.056 0,-0.097 0,-0.126 0,-0.026 0,-0.066 0,-0.122 0,-0.031 0,-0.072 0,-0.128 0.085,-0.026 0.141,-0.054 0.168,-0.081 0,-0.029 0,-0.057 0,-0.085 0,-0.056 0,-0.097 0,-0.124 0,-0.056 0,-0.098 0,-0.126 0.056,-0.028 0.098,-0.056 0.125,-0.084 0,-0.056 0,-0.097 0,-0.125 0,-0.029 0,-0.07 0,-0.125 0.059,-0.026 0.098,-0.07 0.126,-0.125 0,-0.028 0.015,-0.056 0.042,-0.084 0,-0.027 0,-0.056 0,-0.083 0.055,0 0.097,-0.013 0.125,-0.041 0,-0.056 0,-0.099 0,-0.126 0,-0.027 0,-0.069 0,-0.124 0.056,-0.029 0.096,-0.069 0.124,-0.127 0,-0.028 0.013,-0.054 0.043,-0.082 0,-0.028 0,-0.056 0,-0.083 0,-0.027 0,-0.056 0,-0.086 v -0.038 c 0.056,-0.029 0.096,-0.056 0.124,-0.084 0,-0.027 0,-0.056 0,-0.083 0,-0.059 0,-0.099 0,-0.127 0,-0.056 0,-0.096 0,-0.124 0.056,-0.028 0.112,-0.056 0.167,-0.083 0,-0.029 0,-0.072 0,-0.127 0,-0.026 0,-0.068 0,-0.125 0.028,-0.026 0.069,-0.056 0.125,-0.083 0,-0.056 0,-0.098 0,-0.125 0.026,-0.028 0.042,-0.054 0.042,-0.083 0.028,-0.056 0.056,-0.099 0.083,-0.125 0,-0.054 0.013,-0.099 0.042,-0.125 0.027,-0.029 0.055,-0.056 0.083,-0.085 0.029,-0.026 0.044,-0.067 0.044,-0.125 0,-0.026 0,-0.069 0,-0.125 0,-0.026 0,-0.056 0,-0.082 0.054,-0.057 0.111,-0.085 0.164,-0.085 0,-0.056 0,-0.097 0,-0.122 0,-0.056 0,-0.102 0,-0.128 0.029,-0.027 0.07,-0.069 0.126,-0.125 0,-0.026 0,-0.056 0,-0.083 0,-0.026 0,-0.072 0,-0.126 0,-0.027 0,-0.067 0,-0.124 0.056,-0.028 0.098,-0.056 0.125,-0.083 0,-0.058 0.014,-0.084 0.042,-0.084 v -0.082 c 0.056,-0.028 0.097,-0.056 0.126,-0.085 0,-0.029 0,-0.069 0,-0.126 v -0.084 c 0.053,-0.025 0.111,-0.053 0.166,-0.081 0,-0.028 0,-0.07 0,-0.126 0.056,-0.026 0.098,-0.056 0.127,-0.082 0,-0.056 0,-0.099 0,-0.126 0.029,-0.056 0.053,-0.081 0.083,-0.081 0.026,-0.057 0.056,-0.102 0.082,-0.126 0,-0.056 0,-0.097 0,-0.128 0,-0.025 0,-0.066 0,-0.123 0,-0.029 0.028,-0.056 0.083,-0.084 0.027,-0.027 0.044,-0.066 0.044,-0.123 0,-0.029 0,-0.056 0,-0.086 0.053,-0.056 0.096,-0.096 0.124,-0.125 0,-0.057 0.015,-0.083 0.042,-0.083 0,-0.055 0,-0.097 0,-0.125 0.056,-0.028 0.095,-0.069 0.125,-0.125 0,-0.028 0,-0.07 0,-0.126 0,-0.028 0,-0.056 0,-0.083 0,-0.026 0,-0.056 0,-0.083 0.055,-0.028 0.111,-0.04 0.167,-0.04 0,-0.056 0,-0.1 0,-0.126 0,-0.026 0,-0.07 0,-0.125 0,-0.027 0,-0.068 0,-0.125 0.057,-0.028 0.096,-0.056 0.124,-0.083 0,-0.028 0,-0.07 0,-0.125 0,-0.027 0,-0.054 0,-0.083 0,-0.056 0,-0.097 0,-0.126 0,-0.025 0,-0.056 0,-0.081 0,-0.056 0,-0.099 0,-0.127 0,-0.028 0,-0.056 0,-0.083 v -0.041 c 0.056,0 0.112,-0.015 0.168,-0.043 0,-0.057 0,-0.098 0,-0.125 0,-0.029 0,-0.07 0,-0.126 v -0.125 c -0.056,0 -0.112,-0.012 -0.168,-0.042 0,-0.027 0,-0.069 0,-0.126 v -0.041 c 0,-0.027 0,-0.056 0,-0.083 -0.056,0 -0.11,-0.016 -0.164,-0.043 -0.029,-0.029 -0.072,-0.068 -0.126,-0.124 0,-0.029 0,-0.07 0,-0.124 0,-0.028 -0.014,-0.056 -0.043,-0.087 -0.082,-0.027 -0.165,-0.056 -0.248,-0.083 0,-0.029 0,-0.054 0,-0.085 C 3.647,12.015 3.592,11.987 3.536,11.959 3.508,11.932 3.465,11.888 3.411,11.832 V 11.749 C 3.353,11.72 3.3,11.693 3.244,11.667 3.216,11.637 3.188,11.608 3.159,11.582 3.104,11.553 3.049,11.541 2.993,11.541 c 0,-0.029 0,-0.056 0,-0.083 -0.057,-0.028 -0.111,-0.056 -0.167,-0.083 0,-0.029 0,-0.057 0,-0.082 -0.083,-0.031 -0.178,-0.044 -0.29,-0.044 0,-0.028 0,-0.056 0,-0.083 C 2.48,11.138 2.423,11.111 2.368,11.083 2.34,11.056 2.313,11.028 2.285,11 2.228,10.972 2.174,10.959 2.118,10.959 c 0,-0.029 0,-0.056 0,-0.083 C 1.951,10.847 1.797,10.819 1.66,10.792 1.632,10.764 1.603,10.735 1.575,10.708 1.52,10.68 1.451,10.667 1.366,10.667 c 0,-0.029 0,-0.057 0,-0.083 -0.192,-0.029 -0.388,-0.056 -0.582,-0.085 0,-0.026 0,-0.069 0,-0.125 0,-0.026 0,-0.056 0,-0.082 0,-0.029 0,-0.057 0,-0.085 -0.112,0 -0.25,0 -0.416,0 0,-0.026 0,-0.068 0,-0.125 0,-0.028 0,-0.056 0,-0.083 v -0.09 c 0,-0.056 0,-0.097 0,-0.126 0,-0.056 0,-0.097 0,-0.125 0,-0.027 0,-0.068 0,-0.124 0,-0.03 0,-0.056 0,-0.085 0,-0.026 0,-0.068 0,-0.124 0,-0.029 0,-0.07 0,-0.126 0,-0.028 0,-0.056 0,-0.083 V 9.032 c 0,-0.056 0,-0.098 0,-0.125 0,-0.056 0,-0.096 0,-0.122 0,-0.03 0,-0.072 0,-0.127 0.05,-0.03 0.092,-0.056 0.118,-0.083 0,-0.03 0,-0.071 0,-0.127 0,-0.028 0,-0.054 0,-0.083 0,-0.056 0,-0.098 0,-0.127 V 8.157 c 0,-0.056 0,-0.097 0,-0.126 0,-0.056 0,-0.097 0,-0.124 0,-0.028 0,-0.07 0,-0.126 0,-0.026 0,-0.056 0,-0.083 0,-0.029 0,-0.054 0,-0.084 0.167,-0.027 0.32,-0.041 0.461,-0.041 0,-0.056 0,-0.097 0,-0.125 0,-0.026 0,-0.071 0,-0.126 0,-0.026 0,-0.068 0,-0.124 0,-0.029 0,-0.056 0,-0.084 0,-0.028 0,-0.068 0,-0.124 0,-0.029 0,-0.056 0,-0.084 0,-0.056 0,-0.098 0,-0.126 V 6.696 c 0,-0.054 0,-0.097 0,-0.125 0,-0.028 0,-0.07 0,-0.127 0,-0.026 0,-0.067 0,-0.123 0.056,-0.026 0.096,-0.057 0.122,-0.085 0,-0.026 0,-0.056 0,-0.082 0,-0.056 0,-0.097 0,-0.126 0.059,-0.056 0.1,-0.095 0.128,-0.124 0,-0.028 0.013,-0.056 0.04,-0.085 0,-0.054 0,-0.096 0,-0.122 0,-0.029 0,-0.059 0,-0.086 V 5.57 c 0.056,0 0.098,-0.015 0.125,-0.042 0,-0.056 0,-0.098 0,-0.125 0,-0.03 0,-0.07 0,-0.127 0,-0.028 0,-0.07 0,-0.123 0.085,-0.029 0.141,-0.056 0.169,-0.085 0,-0.026 0,-0.056 0,-0.083 0,-0.028 0,-0.071 0,-0.125 0.055,-0.029 0.097,-0.056 0.125,-0.085 0,-0.026 0,-0.056 0,-0.083 0,-0.029 0,-0.054 0,-0.085 V 4.568 C 1.712,4.541 1.767,4.513 1.823,4.485 c 0,-0.029 0,-0.056 0,-0.084 0.056,0 0.096,-0.014 0.124,-0.042 0,-0.028 0,-0.07 0,-0.127 0,-0.025 0,-0.054 0,-0.081 v -0.04 c 0.056,0 0.112,-0.014 0.167,-0.044 0,-0.026 0,-0.053 0,-0.082 C 2.17,3.956 2.21,3.929 2.239,3.902 c 0,-0.028 0,-0.059 0,-0.085 0,-0.026 0,-0.056 0,-0.082 V 3.692 C 2.295,3.664 2.351,3.636 2.407,3.61 c 0,-0.026 0,-0.057 0,-0.083 0.055,0 0.097,-0.015 0.126,-0.044 0,-0.026 0,-0.054 0,-0.082 0.054,-0.029 0.111,-0.056 0.164,-0.085 0,-0.027 0,-0.055 0,-0.083 0.056,0 0.099,-0.013 0.126,-0.042 0,-0.026 0,-0.056 0,-0.082 0.056,-0.028 0.111,-0.042 0.167,-0.042 0,-0.029 0,-0.056 0,-0.083 V 2.9 c 0,-0.029 0,-0.071 0,-0.125 V 2.65 c 0.389,0 0.779,0.014 1.168,0.043 0,-0.029 0,-0.056 0,-0.086 0,-0.026 0,-0.068 0,-0.124 0,-0.028 0,-0.07 0,-0.125 0,-0.026 0,-0.057 0,-0.085 V 2.19 c 0,-0.056 0,-0.096 0,-0.125 0,-0.027 0,-0.056 0,-0.083 V 1.941 c 4.756,0.025 9.51,0.041 14.267,0.041 0,0.027 0,0.056 0,0.083 0,0.056 0,0.098 0,0.125 0,0.056 0,0.097 0,0.126 0,0.027 0,0.056 0,0.083 0.194,0 0.388,0 0.583,0 v 0.084 c 0.056,0.027 0.097,0.056 0.127,0.083 0,0.029 0,0.056 0,0.083 0,0.056 0,0.099 0,0.125 0,0.054 0,0.096 0,0.125 0,0.026 0,0.056 0,0.085 0,0.054 0,0.096 0,0.125 0,0.026 0,0.069 0,0.124 v 0.042 c 1.749,0 3.502,0 5.255,0 V 3.234 c 0,-0.03 0,-0.055 0,-0.084 V 3.067 c 0,-0.056 0,-0.097 0,-0.125 0,-0.058 0,-0.1 0,-0.128 0,-0.026 0,-0.066 0,-0.122 0,-0.029 0,-0.056 0,-0.086 0,-0.026 0,-0.068 0,-0.124 0,-0.028 0,-0.07 0,-0.125 0,-0.026 0,-0.057 0,-0.085 V 2.19 c 0,-0.056 0,-0.096 0,-0.125 0,-0.027 0,-0.056 0,-0.083 V 1.941 c 3.56,0.025 7.103,0.041 10.636,0.041 V 1.941 c 0.335,0.025 0.653,0.041 0.961,0.041 h 0.331 c 0.196,0 0.39,0 0.586,0 0,0.027 0,0.056 0,0.083 0.056,0 0.111,0.013 0.167,0.044 0,0.054 0,0.096 0,0.122 0,0.029 0,0.07 0,0.126 0.002,0.03 0.002,0.071 0.002,0.126 z M 17.55,11.704 c -0.085,0.026 -0.155,0.056 -0.208,0.082 -0.028,0.029 -0.071,0.056 -0.126,0.085 -0.029,0.026 -0.069,0.067 -0.125,0.123 0,0.029 0,0.072 0,0.126 -0.028,0.027 -0.067,0.056 -0.124,0.083 0,0.031 0,0.059 0,0.087 0,0.054 0,0.095 0,0.124 -0.056,0.027 -0.111,0.056 -0.167,0.081 0,0.029 0,0.056 0,0.085 0,0.056 0,0.096 0,0.124 -0.028,0.028 -0.069,0.057 -0.127,0.083 0,0.029 0,0.058 0,0.084 0,0.054 0,0.097 0,0.125 0,0.056 0,0.097 0,0.126 -0.028,0.027 -0.056,0.068 -0.083,0.125 -0.027,0.028 -0.056,0.055 -0.083,0.083 0,0.027 0,0.067 0,0.123 0,0.031 0,0.071 0,0.127 0,0.028 -0.014,0.055 -0.042,0.082 -0.026,0.029 -0.057,0.058 -0.083,0.084 0,0.056 0,0.098 0,0.127 0,0.054 0,0.097 0,0.124 -0.029,0.029 -0.042,0.071 -0.042,0.126 l 0.042,0.085 c 0,0.026 0,0.066 0,0.123 0,0.028 0,0.056 0,0.084 0.026,0.056 0.057,0.097 0.083,0.124 0.028,0.028 0.042,0.056 0.042,0.083 0,0.057 0,0.099 0,0.126 0.056,0.056 0.097,0.097 0.125,0.125 0,0.028 0.013,0.069 0.041,0.125 0.028,0 0.041,0.026 0.041,0.083 0.03,0.028 0.058,0.068 0.086,0.125 0,0.031 0,0.058 0,0.086 0,0.056 0,0.096 0,0.123 0,0.029 0,0.056 0,0.084 0,0.056 0,0.098 0,0.123 0,0.031 0,0.072 0,0.128 0,0.025 0,0.07 0,0.126 v 0.081 c 0,0.028 0,0.071 0,0.126 0,0.026 0,0.056 0,0.082 0,0.057 0,0.099 0,0.126 0,0.027 0,0.056 0,0.081 0,0.058 0,0.1 0,0.127 2.779,0 5.546,0 8.301,0 v -0.127 c 0,-0.025 0,-0.053 0,-0.081 V 16.25 c 0,-0.029 0,-0.056 0,-0.085 v -0.208 c 0.221,0 0.443,0.015 0.665,0.042 v -0.042 c 0,-0.026 0,-0.056 0,-0.081 v -0.043 c 0.03,0 0.058,-0.014 0.085,-0.044 v -0.04 c 0,-0.112 0,-0.224 0,-0.335 0,-0.11 0,-0.209 0,-0.29 0,-0.143 0,-0.251 0,-0.335 0,-0.111 0,-0.237 0,-0.375 0,-0.084 0,-0.181 0,-0.292 0,-0.112 0,-0.224 0,-0.335 0,-0.112 0,-0.224 0,-0.335 0,-0.107 0,-0.219 0,-0.331 0,-0.085 0,-0.196 0,-0.335 0,-0.111 0,-0.207 0,-0.292 0,-0.138 0,-0.248 0,-0.333 0,-0.026 0,-0.07 0,-0.126 -0.11,0 -0.235,0 -0.377,0 v -0.041 c 0,-0.027 0,-0.055 0,-0.082 -0.025,0 -0.054,-0.015 -0.082,-0.041 v -0.044 h -0.083 c 0,-0.027 -0.013,-0.053 -0.042,-0.083 v -0.041 c 0,-0.029 -0.012,-0.042 -0.042,-0.042 v -0.044 c -0.028,0 -0.067,0 -0.124,0 v -0.083 h -0.084 c 0,-0.029 -0.015,-0.056 -0.042,-0.083 l -0.083,-0.042 c -0.028,-0.025 -0.057,-0.041 -0.084,-0.041 -0.054,-0.029 -0.095,-0.04 -0.124,-0.04 v -0.085 h -0.042 c -1.5,0 -2.989,0 -4.464,0 0,0.029 0,0.056 0,0.085 v 0.04 c 0,0.028 0,0.056 0,0.083 0,0.027 0,0.054 0,0.083 v 0.126 c -0.056,0.026 -0.112,0.053 -0.167,0.082 0,0.056 0,0.097 0,0.126 0,0.026 0,0.067 0,0.123 0,0.029 0,0.072 0,0.126 0,0.027 0,0.056 0,0.083 0,0.031 0,0.059 0,0.087 0,0.054 0,0.095 0,0.124 0,0.056 0,0.095 0,0.124 0,0.057 0,0.112 0,0.167 v 0.043 c 0,0.027 0,0.069 0,0.125 0,0.028 0,0.069 0,0.125 0,0.028 0,0.056 0,0.083 0,0.029 0,0.056 0,0.085 0,0.056 0,0.097 0,0.126 0,0.056 0,0.095 0,0.123 0,0.028 0,0.055 0,0.084 v 0.083 c 0.028,0.028 0.043,0.055 0.043,0.082 0.026,0 0.04,0.015 0.04,0.045 0,0.026 0.013,0.04 0.043,0.04 0,0.03 0.013,0.042 0.041,0.042 0,0.031 0.014,0.042 0.043,0.042 0,0.028 0,0.056 0,0.084 0.026,0.027 0.053,0.041 0.081,0.041 0.028,0.028 0.058,0.056 0.084,0.083 v 0.042 c 0,0.028 0.014,0.043 0.042,0.043 0.027,0.028 0.042,0.056 0.042,0.085 l 0.042,0.04 c 0.028,0 0.056,0 0.084,0 0,0.027 0,0.056 0,0.083 0.027,0 0.056,0.016 0.083,0.04 l 0.042,0.044 c 0.028,0 0.054,0.012 0.083,0.04 v 0.083 c 0.026,0 0.056,0 0.081,0 0.031,0.028 0.056,0.056 0.086,0.083 v 0.042 c 0.025,0 0.056,0.015 0.081,0.043 0.056,0 0.113,0.014 0.167,0.042 v 0.083 c 0.083,0 0.142,0 0.168,0 0.056,0.028 0.096,0.055 0.125,0.082 v 0.044 c 0.083,0 0.153,0.011 0.208,0.04 0.054,0 0.126,0.016 0.209,0.042 v 0.085 c 0.194,0 0.389,0 0.583,0 0,0.025 0,0.056 0,0.081 v 0.086 c 0,0.025 0,0.056 0,0.081 0,0.026 0,0.056 0,0.082 v 0.044 c 0,0.027 0,0.056 0,0.083 v 0.084 c 0,0.027 0,0.055 0,0.083 v 0.083 c -0.445,0 -0.889,0 -1.334,0 v -0.044 c -0.056,-0.025 -0.112,-0.04 -0.167,-0.04 -0.056,-0.028 -0.126,-0.056 -0.208,-0.083 v -0.045 c -0.029,-0.025 -0.07,-0.04 -0.126,-0.04 -0.056,0 -0.112,-0.015 -0.167,-0.042 V 15.496 C 20.483,15.467 20.441,15.452 20.385,15.452 20.328,15.426 20.273,15.396 20.22,15.37 v -0.041 l -0.043,-0.04 C 20.149,15.26 20.121,15.245 20.093,15.245 v -0.042 c -0.055,-0.025 -0.097,-0.056 -0.125,-0.081 -0.028,0 -0.056,-0.015 -0.086,-0.043 0,-0.027 0,-0.057 0,-0.083 -0.025,-0.029 -0.053,-0.04 -0.081,-0.04 -0.028,-0.03 -0.056,-0.044 -0.084,-0.044 -0.028,-0.026 -0.04,-0.054 -0.04,-0.082 l -0.043,-0.042 c 0,-0.028 -0.012,-0.056 -0.041,-0.083 -0.027,-0.028 -0.057,-0.043 -0.084,-0.043 V 14.62 C 19.482,14.592 19.457,14.564 19.426,14.537 V 14.495 C 19.399,14.469 19.371,14.44 19.344,14.413 l -0.043,-0.044 v -0.04 c -0.026,0 -0.053,-0.016 -0.082,-0.042 V 14.246 C 19.19,14.217 19.163,14.19 19.136,14.162 v -0.04 c 0,-0.028 -0.03,-0.043 -0.085,-0.043 v -0.042 c 0,-0.028 0,-0.056 0,-0.083 -0.056,0 -0.125,0 -0.207,0 0,-0.028 0,-0.056 0,-0.082 0,-0.029 -0.014,-0.043 -0.043,-0.043 0,-0.027 -0.015,-0.054 -0.04,-0.083 V 13.58 c 0,-0.028 0,-0.057 0,-0.083 v -0.044 c 0,-0.025 0,-0.056 0,-0.081 V 13.29 c 0,-0.029 0,-0.056 0,-0.085 v -0.126 c 0,-0.027 0,-0.055 0,-0.083 0.053,0 0.083,-0.013 0.083,-0.041 0,-0.029 0,-0.056 0,-0.083 0,-0.055 0,-0.098 0,-0.125 0,-0.058 0,-0.111 0,-0.167 0,-0.056 0,-0.111 0,-0.167 0,-0.057 0,-0.113 0,-0.167 0,-0.056 0,-0.112 0,-0.167 0,-0.056 0,-0.112 0,-0.167 0,-0.057 0,-0.112 0,-0.167 0,-0.055 0,-0.112 0,-0.167 0,-0.055 0,-0.097 0,-0.125 0,-0.083 0,-0.153 0,-0.209 -0.252,0 -0.489,0 -0.71,0 v 0.044 c 0,0.025 0,0.053 0,0.082 v 0.041 c -0.141,0.029 -0.292,0.057 -0.46,0.084 v 0.042 c -0.028,0.026 -0.069,0.056 -0.124,0.083 0,0.028 0,0.054 0,0.084 z M 7.161,29.6 c 0.085,0 0.156,0.012 0.212,0.041 V 29.6 C 7.286,29.571 7.19,29.556 7.079,29.556 Z"
   id="path1172" />
		</g>
	</g>
</g>

</svg>
