<?xml version="1.0" encoding="UTF-8" standalone="no"?>
<!-- Generator: Adobe Illustrator 16.0.0, SVG Export Plug-In . SVG Version: 6.00 Build 0)  -->

<svg
   version="1.1"
   x="0px"
   y="0px"
   width="83.375"
   height="41"
   viewBox="0 0 83.375 41"
   enable-background="new 0 0 68.375 32"
   xml:space="preserve"
   id="svg1049"
   xmlns="http://www.w3.org/2000/svg"
   xmlns:svg="http://www.w3.org/2000/svg"><defs
   id="defs1053" />
<g
   id="Selected_Items"
   transform="translate(0,6)">
	<g
   id="g1045">
		<g
   id="Selected_Items_40_">
			<path
   fill-rule="evenodd"
   clip-rule="evenodd"
   fill="#ffffff"
   d="m 46.44,18.814 c -0.434,0.165 -0.746,0.353 -0.937,0.571 -0.163,0.243 -0.242,0.596 -0.242,1.058 0,0.653 0.012,1.221 0.04,1.709 h 1.628 v 0.814 l 0.285,0.082 c 0.216,0.083 0.34,0.148 0.367,0.204 0.162,0.216 0.407,0.366 0.732,0.446 0.543,0.163 1.126,0.015 1.75,-0.446 0.677,-0.488 0.881,-1.139 0.61,-1.954 C 50.428,20.591 49.98,20.09 49.33,19.791 49.167,19.709 48.976,19.492 48.761,19.139 l -0.286,-0.486 c -0.189,-0.028 -0.408,-0.042 -0.649,-0.042 -0.544,-0.028 -1.006,0.042 -1.386,0.203 z m -11.071,3.175 c 0.434,-0.407 0.652,-0.855 0.652,-1.343 0,-0.462 -0.122,-0.936 -0.367,-1.424 l -0.327,-0.568 h -5.574 c -0.706,0.678 -1.248,1.193 -1.63,1.545 -0.188,0.163 -0.27,0.393 -0.242,0.692 0,0.162 0.026,0.446 0.081,0.854 0,0.924 0.258,1.588 0.773,1.995 0.624,0.515 1.206,0.747 1.75,0.694 0.244,-0.059 0.828,-0.274 1.75,-0.652 0.813,-0.38 1.451,-0.694 1.913,-0.936 0.571,-0.327 0.977,-0.612 1.221,-0.857 z M 55.476,10.511 c 0.055,-0.081 -0.054,-0.244 -0.325,-0.489 -3.122,0 -5.156,0 -6.106,0 C 48.42,9.996 47.35,9.941 45.83,9.86 L 43.671,9.737 v 1.224 h 11.642 c 0.027,-0.055 0.041,-0.11 0.041,-0.164 0.056,-0.136 0.094,-0.232 0.122,-0.286 z M 56.9,9.86 c -0.082,-0.027 -0.216,-0.027 -0.408,0 H 56.25 v 0.772 l 0.326,0.044 c 0.216,0.082 0.325,0.23 0.325,0.446 0,0.19 -0.067,0.368 -0.204,0.529 l -0.204,0.204 0.165,1.994 h 0.488 V 10.39 c 0,-0.163 -0.012,-0.272 -0.04,-0.326 C 57.077,9.956 57.008,9.885 56.9,9.86 Z m 10.867,7.041 c -0.107,0.219 -0.298,0.325 -0.569,0.325 h -5.617 l -0.203,-0.243 c -0.055,0.026 -0.121,0.067 -0.204,0.122 -0.135,0.081 -0.204,0.136 -0.204,0.163 0,0.027 0.177,0.231 0.529,0.611 0.327,0.432 0.477,0.774 0.449,1.017 -0.054,0.326 -0.162,1.194 -0.326,2.605 -0.134,1.409 -0.202,2.225 -0.202,2.441 0,0.164 -0.056,0.272 -0.162,0.326 -0.056,0.053 -0.192,0.081 -0.408,0.081 h -2.36 c -0.108,0 -0.204,-0.096 -0.287,-0.285 -0.107,-0.218 -0.162,-0.501 -0.162,-0.854 0,-0.461 -0.014,-0.91 -0.041,-1.344 -0.056,-0.487 -0.122,-0.77 -0.204,-0.854 -0.055,-0.082 -0.462,-0.162 -1.22,-0.245 -0.734,-0.054 -1.154,-0.026 -1.263,0.083 -0.162,0.162 -0.298,0.298 -0.406,0.407 -0.191,0.189 -0.285,0.366 -0.285,0.528 -0.028,0.108 -0.095,0.842 -0.204,2.198 -0.299,1.467 -0.869,2.618 -1.709,3.46 -0.868,0.895 -2.227,1.521 -4.069,1.873 -1.414,0.27 -2.566,0.338 -3.461,0.203 -0.543,-0.082 -0.869,-0.176 -0.977,-0.286 -0.055,-0.028 -0.055,-0.148 0,-0.366 0.651,-2.251 0.95,-3.487 0.896,-3.703 -0.055,-0.19 -0.108,-0.329 -0.164,-0.407 -0.107,-0.137 -0.256,-0.204 -0.446,-0.204 -0.163,-0.028 -0.612,-0.041 -1.344,-0.041 -0.378,-0.027 -0.774,-0.04 -1.18,-0.04 -0.081,0 -0.163,0.066 -0.244,0.203 -0.083,0.161 -0.165,0.285 -0.245,0.365 -0.082,0.109 -0.407,0.382 -0.976,0.815 -0.706,0.569 -1.44,1.086 -2.197,1.547 -2.308,1.438 -4.262,2.156 -5.863,2.156 -1.544,0 -3.201,-0.054 -4.965,-0.164 l -2.158,-0.203 -0.039,-1.343 c -3.31,-1.355 -5.197,-2.061 -5.656,-2.115 -0.275,-0.028 -0.573,-0.042 -0.896,-0.042 l -0.408,-0.042 -0.325,0.571 c -0.244,0.354 -0.476,0.529 -0.694,0.529 H 1.465 c -0.244,0 -0.46,-0.175 -0.65,-0.529 C 0.679,25.922 0.611,25.597 0.611,25.244 V 18.45 C 0.611,17.039 0.585,15.476 0.529,13.767 0.475,12.409 0.447,11.705 0.447,11.65 0.529,11.135 0.651,10.878 0.815,10.878 h 20.552 c 0.138,0 0.517,-0.068 1.141,-0.202 0.597,-0.111 1.02,-0.165 1.262,-0.165 h 14.653 l 0.042,-1.749 c 0,-0.109 0.216,-0.626 0.648,-1.547 0.436,-0.952 0.653,-1.52 0.653,-1.71 0.027,-0.164 0.203,-0.34 0.529,-0.53 0.163,-0.081 0.325,-0.149 0.49,-0.204 0,-0.243 0.026,-0.487 0.081,-0.732 0.08,-0.488 0.148,-0.774 0.202,-0.854 0.354,-0.517 0.652,-0.775 0.896,-0.775 0.271,0 0.474,0.148 0.611,0.446 0.055,0.165 0.108,0.395 0.163,0.694 0.054,0.19 0.054,0.597 0,1.22 -0.027,0 -0.069,0.015 -0.122,0.042 -0.055,0.054 -0.083,0.149 -0.083,0.285 V 5.99 h 11.559 l 1.465,-0.854 c 0.272,0 0.408,-0.093 0.408,-0.284 V 4.202 H 55.72 V 3.186 l 0.204,-0.205 0.448,-0.284 0.937,-0.082 c 0.053,0 0.108,0.068 0.162,0.204 0.028,0.107 0.042,0.23 0.042,0.367 v 1.79 l 0.163,0.608 c 0.134,0.383 0.232,0.586 0.284,0.612 0.11,0.027 0.476,0.027 1.101,0 1.627,1.764 2.482,2.687 2.563,2.769 0.191,0.244 0.286,0.501 0.286,0.772 v 4.397 h 5.576 l 0.244,0.244 c 0.189,0.245 0.286,0.625 0.286,1.139 -0.003,0.679 -0.086,1.141 -0.249,1.384 z"
   id="path1042" />
		</g>
	</g>
</g>

</svg>
