<?xml version="1.0" encoding="UTF-8" standalone="no"?>
<!-- Generator: Adobe Illustrator 16.0.0, SVG Export Plug-In . SVG Version: 6.00 Build 0)  -->

<svg
   version="1.1"
   x="0px"
   y="0px"
   width="67.5"
   height="41"
   viewBox="0 0 67.5 41"
   enable-background="new 0 0 52.5 32"
   xml:space="preserve"
   id="svg9"
   xmlns="http://www.w3.org/2000/svg"
   xmlns:svg="http://www.w3.org/2000/svg"><defs
   id="defs13" />
<g
   id="Selected_Items"
   transform="translate(0,6)">
	<g
   id="g5">
		<g
   id="Selected_Items_42_">
			<path
   fill-rule="evenodd"
   clip-rule="evenodd"
   fill="#ffffff"
   d="m 52.271,6.917 -0.543,1.315 v 2.45 h -2.541 v -0.318 h -0.589 v 0.364 H 44.741 V 10.32 l -3.901,-0.046 -0.682,0.273 h -5.851 c -0.182,0 -0.392,0.03 -0.636,0.091 -0.454,0.089 -0.801,0.227 -1.043,0.407 l -0.046,0.047 c -0.362,0.302 -0.573,0.483 -0.635,0.543 -0.21,0.271 -0.332,0.575 -0.363,0.907 -0.029,0.332 -0.043,0.848 -0.043,1.542 0,0.333 0,0.652 0,0.953 -0.426,-0.03 -0.862,-0.047 -1.316,-0.047 h -0.047 c -0.423,0 -0.801,0 -1.133,0 -0.333,0 -0.592,0.033 -0.772,0.093 -0.392,0.089 -0.68,0.211 -0.861,0.362 -0.12,0.091 -0.241,0.257 -0.364,0.5 -0.058,0.061 -0.107,0.122 -0.136,0.181 -0.121,0.243 -0.21,0.574 -0.27,0.998 -0.063,0.484 -0.137,0.785 -0.228,0.906 -0.211,0.425 -0.425,0.756 -0.635,1.001 -0.484,0.482 -1.09,0.862 -1.816,1.133 -0.058,0.031 -0.122,0.059 -0.181,0.092 -0.757,0.211 -1.481,0.377 -2.177,0.498 -0.665,0.06 -1.271,0.077 -1.814,0.045 -0.122,0 -0.256,-0.029 -0.409,-0.089 -0.272,-0.091 -0.56,-0.259 -0.862,-0.5 -0.122,-0.122 -0.242,-0.242 -0.362,-0.363 l -0.181,-0.181 -0.272,0.271 c -0.152,-0.029 -0.302,-0.06 -0.455,-0.09 -0.213,-0.032 -0.408,-0.06 -0.589,-0.092 -0.182,0 -0.348,-0.014 -0.499,-0.045 -0.365,-0.06 -0.68,-0.104 -0.954,-0.136 -0.575,-0.061 -0.983,-0.044 -1.225,0.045 -0.392,0.181 -0.71,0.392 -0.952,0.636 -0.272,0.271 -0.423,0.574 -0.453,0.907 -0.03,0.454 0.09,0.861 0.363,1.225 0.06,0.121 0.15,0.258 0.272,0.407 0.06,0.122 0.075,0.228 0.045,0.319 0,0.06 -0.06,0.152 -0.182,0.271 -0.06,0.06 -0.181,0.153 -0.364,0.272 -0.332,0.303 -0.515,0.636 -0.544,0.998 -0.089,0.485 0,0.923 0.272,1.317 l 0.227,0.407 c 0.061,0.123 0.075,0.242 0.044,0.363 -0.03,0.092 -0.09,0.181 -0.182,0.273 -0.09,0.061 -0.241,0.135 -0.452,0.227 -0.425,0.21 -0.713,0.422 -0.863,0.633 -0.15,0.213 -0.272,0.485 -0.361,0.819 -0.064,0.301 -0.183,0.528 -0.365,0.679 -0.271,0.212 -0.984,0.422 -2.131,0.636 C 7.175,30.189 6.162,30.263 5.315,30.235 4.107,30.173 3.109,30.053 2.321,29.872 1.142,29.57 0.493,29.146 0.371,28.601 c -0.059,-0.212 0,-0.5 0.182,-0.861 0.06,-0.063 0.105,-0.137 0.133,-0.229 0.153,-0.302 0.275,-0.544 0.365,-0.724 0.151,-0.302 0.287,-0.59 0.407,-0.864 0.122,-0.271 0.273,-0.694 0.455,-1.27 0.272,-0.725 0.482,-1.299 0.635,-1.723 0.543,-1.513 1.012,-2.647 1.405,-3.402 0.424,-0.757 1.12,-1.876 2.087,-3.358 1.029,-1.542 1.68,-2.541 1.951,-2.995 0.244,-0.332 0.394,-0.665 0.454,-0.998 0.03,-0.242 0.03,-0.544 0,-0.907 0,-0.425 0,-0.682 0,-0.772 0,-0.272 0.059,-0.53 0.181,-0.772 0.182,-0.301 0.666,-0.527 1.453,-0.68 0.272,-0.061 0.561,-0.105 0.862,-0.135 h 0.317 c 0.121,-0.122 0.259,-0.243 0.411,-0.362 0.33,-0.244 0.633,-0.41 0.907,-0.501 0.241,-0.089 0.529,-0.196 0.861,-0.317 L 13.891,7.64 13.618,6.96 C 13.377,6.537 13.122,6.233 12.848,6.052 12.577,5.901 12.196,5.796 11.713,5.735 11.652,5.704 11.577,5.691 11.486,5.691 11.184,5.659 10.91,5.644 10.67,5.644 L 10.627,5.416 c 0.27,-0.029 0.558,-0.045 0.86,-0.045 0.666,-0.061 1.134,-0.061 1.408,0 0.242,0.061 0.543,0.227 0.907,0.5 0.03,0.029 0.059,0.046 0.09,0.046 0.272,0.209 0.469,0.316 0.59,0.316 0.151,0 0.392,-0.227 0.726,-0.681 C 15.36,5.37 15.51,5.175 15.662,4.963 L 16.705,5.007 17.114,4.055 17.023,4.009 C 16.961,3.978 16.918,3.934 16.888,3.873 16.736,3.692 16.705,3.479 16.795,3.238 16.858,3.087 16.948,2.979 17.067,2.919 17.098,2.89 17.128,2.876 17.158,2.876 c 0.09,-0.031 0.151,-0.031 0.183,0 L 17.43,2.421 17.975,2.512 17.93,2.924 h 1.587 l 0.5,0.319 h 2.449 V 2.607 l 0.635,-0.59 0.907,0.047 v 0.453 h 0.816 V 2.064 h 0.954 v 0.453 h 0.816 v -0.5 h 0.953 v 0.5 h 0.862 v -0.5 h 0.817 v 0.5 h 0.952 V 2.064 h 0.817 v 0.453 h 0.907 v -0.5 h 0.861 v 0.5 h 0.908 v -0.5 h 0.908 v 0.5 h 0.863 v -0.5 h 0.814 v 0.5 h 0.908 V 2.064 h 0.816 v 0.408 h 0.908 V 2.064 h 0.636 L 39.977,2.2 c 0.334,0.121 0.62,0.226 0.863,0.317 0.393,0.151 0.937,0.424 1.633,0.817 H 47.78 V 2.517 h 2.587 l 0.182,0.044 c 0.149,0.032 0.271,0.107 0.361,0.228 0.062,0.121 0.108,0.257 0.137,0.408 l -0.045,0.227 1.268,1.044 v 2.449 z m -29.804,7.666 0.271,0.229 c -0.122,0.304 -0.242,0.544 -0.364,0.726 -0.06,0.121 -0.163,0.287 -0.316,0.498 -0.031,0 -0.061,0.017 -0.091,0.045 -0.211,0.242 -0.363,0.455 -0.454,0.636 -0.062,0.333 -0.062,0.635 0,0.908 0.06,0.271 0.243,0.543 0.545,0.817 0.242,0.241 0.558,0.483 0.953,0.725 0.181,0.12 0.347,0.212 0.5,0.272 l -0.138,0.272 c -0.211,-0.06 -0.468,-0.149 -0.771,-0.272 -0.543,-0.241 -1.012,-0.545 -1.405,-0.907 -0.242,-0.273 -0.437,-0.65 -0.59,-1.134 l -0.182,-0.728 0.228,-0.179 0.045,-0.545 c -0.119,0 -0.257,-0.017 -0.406,-0.044 -0.365,-0.032 -0.636,-0.077 -0.818,-0.137 -0.182,-0.061 -0.346,-0.183 -0.499,-0.364 l -0.182,-0.227 -0.181,0.138 c -0.12,0.119 -0.227,0.27 -0.317,0.453 -0.333,0.453 -0.499,0.892 -0.499,1.315 0,0.061 0,0.122 0,0.181 0.029,0.424 0.107,0.817 0.226,1.181 0.123,0.452 0.273,0.785 0.455,0.997 0.212,0.212 0.467,0.392 0.77,0.545 0.364,0.152 0.833,0.24 1.408,0.272 0.544,0.029 1.166,-0.017 1.861,-0.138 0.392,-0.091 0.726,-0.167 0.998,-0.225 0.149,-0.064 0.271,-0.106 0.363,-0.139 0.149,-0.059 0.302,-0.135 0.454,-0.225 0.181,-0.092 0.392,-0.228 0.636,-0.41 0.512,-0.362 0.815,-0.665 0.904,-0.906 0.154,-0.273 0.243,-0.561 0.275,-0.863 0.06,-0.302 0.06,-0.682 0,-1.134 V 16.171 C 26.114,15.808 25.918,15.491 25.554,15.217 25.313,15.006 24.981,14.78 24.557,14.538 24.254,14.386 23.801,14.31 23.195,14.31 H 22.42 Z"
   id="path2" />
		</g>
	</g>
</g>

</svg>
