<?xml version="1.0" encoding="UTF-8" standalone="no"?>
<!-- Generator: Adobe Illustrator 16.0.0, SVG Export Plug-In . SVG Version: 6.00 Build 0)  -->

<svg
   version="1.1"
   x="0px"
   y="0px"
   width="99.75"
   height="41"
   viewBox="0 0 99.75 41"
   enable-background="new 0 0 84.75 32"
   xml:space="preserve"
   id="svg145"
   xmlns="http://www.w3.org/2000/svg"
   xmlns:svg="http://www.w3.org/2000/svg"><defs
   id="defs149" />
<g
   id="Selected_Items"
   transform="translate(0,6)">
	<g
   id="g141">
		<g
   id="Selected_Items_43_">
			<path
   fill-rule="evenodd"
   clip-rule="evenodd"
   fill="#ffffff"
   d="m 20.6,7.498 c 4.583,0 9.146,0 13.686,0 0.086,0.021 0.151,0.043 0.195,0.066 0.064,0.043 0.107,0.086 0.129,0.128 l 0.033,0.033 h 0.032 c 0.022,0.021 0.065,0.054 0.131,0.097 0.021,0.044 0.042,0.088 0.063,0.13 0,0.021 0.011,0.044 0.032,0.064 0,0.022 0,0.055 0,0.099 0.022,0 0.055,0 0.099,0 V 8.051 c 0.087,0 0.182,0 0.292,0 0.042,0.042 0.107,0.074 0.193,0.097 0.043,0.021 0.087,0.044 0.13,0.064 16.173,0 32.356,0.012 48.551,0.033 0.085,0.043 0.161,0.075 0.226,0.096 0.023,0.021 0.055,0.044 0.099,0.066 0.022,0.043 0.043,0.086 0.064,0.13 0.021,0.042 0.033,0.075 0.033,0.097 0,0.022 0,0.064 0,0.128 0,0.023 -0.011,0.035 -0.033,0.035 0.021,0.021 0.033,0.042 0.033,0.063 0,0.065 0,0.109 0,0.132 0,0.041 0,0.074 0,0.097 0,0.043 0,0.086 0,0.13 0,0.022 0,0.043 0,0.065 0,0.063 0,0.107 0,0.128 0,0.044 0,0.076 0,0.098 0,0.043 0,0.088 0,0.131 0,0.021 0,0.042 0,0.064 0,0.063 0,0.107 0,0.13 0,0.043 0,0.074 0,0.096 0,0.044 0,0.088 0,0.131 0,0.022 0,0.065 0,0.13 0,0.021 0,0.043 0,0.064 0,0.043 0,0.076 0,0.097 0,0.045 0,0.088 0,0.131 0,0.021 0,0.064 0,0.129 0,0.022 0,0.043 0,0.065 0,0.043 0,0.076 0,0.099 0,0.042 0,0.085 0,0.129 0,0.021 0,0.065 0,0.129 -0.022,0 -0.054,0.011 -0.097,0.033 -0.044,0.043 -0.088,0.076 -0.13,0.097 -0.022,0.064 -0.044,0.107 -0.066,0.129 -0.064,0.022 -0.108,0.055 -0.129,0.099 -0.022,0.043 -0.033,0.075 -0.033,0.099 -0.087,-0.023 -0.152,-0.056 -0.195,-0.099 L 83.906,11.36 c -0.562,0 -1.125,0 -1.686,0 0,0.021 0,0.054 0,0.097 0,0.022 0,0.044 0,0.066 0,0.021 0,0.042 0,0.063 0,0.022 0,0.054 0,0.099 v 0.032 c 0,0.021 0,0.042 0,0.064 0,0.021 0,0.056 0,0.098 v 0.032 c 0,0.022 0.01,0.044 0.032,0.066 l 0.033,0.031 c 0.173,0 0.336,0.011 0.487,0.031 v -0.031 c 0,-0.044 0,-0.075 0,-0.098 0.518,0 1.038,0 1.556,0 0,0.022 0,0.044 0,0.066 0,0.042 0,0.095 0,0.161 0,0.043 0,0.097 0,0.161 0,0.043 0,0.088 0,0.131 0,0.021 0,0.063 0,0.13 0,0.043 0,0.097 0,0.161 0,0.043 0,0.086 0,0.13 0,0.065 0,0.119 0,0.162 0,0.021 0,0.066 0,0.129 0,0.044 0,0.088 0,0.131 0,0.064 0,0.12 0,0.162 0,0.044 0,0.097 0,0.162 v 0.031 c 0,0.022 0,0.045 0,0.065 v 0.098 c 0,0.022 0,0.043 0,0.065 v 0.065 c 0,0.042 0,0.075 0,0.097 v 0.064 c 0,0.022 0,0.054 0,0.097 v 0.098 c 0,0.022 0,0.044 0,0.065 v 0.097 c 0,0.022 0,0.044 0,0.065 V 14.6 c 0,0.023 0,0.044 0,0.065 v 0.194 c 0,0.021 0,0.044 0,0.065 v 0.162 c 0,0.021 0,0.043 0,0.065 0,0.021 0,0.064 0,0.129 -0.497,0 -0.983,-0.011 -1.458,-0.032 v 0.032 c -0.13,0 -0.26,0 -0.39,0 -0.022,0 -0.034,0.012 -0.034,0.032 -0.021,0.021 -0.053,0.032 -0.097,0.032 -0.021,0.021 -0.043,0.055 -0.064,0.098 0,0.022 0,0.043 0,0.064 -0.021,0.022 -0.033,0.043 -0.033,0.065 -0.022,0.021 -0.032,0.054 -0.032,0.098 0,0.021 -0.011,0.044 -0.033,0.063 0,0.022 -0.022,0.045 -0.064,0.065 -0.022,0.044 -0.043,0.076 -0.065,0.099 0,0.021 -0.012,0.031 -0.033,0.031 0,0.022 0,0.043 0,0.065 -0.064,0.021 -0.108,0.055 -0.129,0.098 -0.021,0.021 -0.042,0.043 -0.065,0.064 0,0.021 -0.011,0.043 -0.031,0.064 -0.022,0.043 -0.056,0.075 -0.098,0.097 -0.021,0.021 -0.034,0.043 -0.034,0.065 -0.021,0.021 -0.032,0.054 -0.032,0.097 v 0.033 c -0.042,0 -0.085,0.011 -0.129,0.032 v 0.064 c -0.043,0.022 -0.098,0.033 -0.162,0.033 -0.043,0.043 -0.075,0.076 -0.097,0.098 v 0.064 c -0.151,0 -0.313,0 -0.487,0 v 0.033 c 0,0.043 0,0.075 0,0.098 v 0.063 c -6.984,0.022 -13.957,0.032 -20.918,0.032 0,0.022 0,0.054 0,0.098 0,0.021 0,0.043 0,0.063 v 0.066 c -0.541,0 -1.083,-0.011 -1.623,-0.032 0,-0.021 0,-0.044 0,-0.066 0,-0.021 0,-0.054 0,-0.097 v -0.032 c 0,-0.021 0,-0.043 0,-0.064 0,-0.021 0,-0.044 0,-0.064 -0.064,-0.044 -0.141,-0.064 -0.228,-0.064 -0.086,-0.022 -0.172,-0.044 -0.259,-0.067 V 16.71 c -0.086,0 -0.151,-0.022 -0.194,-0.065 -0.065,-0.022 -0.13,-0.044 -0.196,-0.065 v -0.064 c -0.107,0 -0.205,-0.011 -0.291,-0.033 -0.109,-0.043 -0.206,-0.075 -0.293,-0.097 0,-0.022 0,-0.044 0,-0.065 -3.459,0 -6.939,0 -10.442,0 C 46.23,16.3 46.143,16.267 46.057,16.224 46.013,16.203 45.981,16.18 45.96,16.16 45.917,16.139 45.862,16.116 45.798,16.096 45.777,16.053 45.744,16.009 45.7,15.964 c -0.043,-0.021 -0.075,-0.042 -0.097,-0.063 0,-0.064 0,-0.11 0,-0.131 0,-0.021 0,-0.053 0,-0.097 0,-0.044 0,-0.087 0,-0.13 -0.821,0 -1.632,0 -2.432,0 0,0.021 0,0.043 0,0.064 0,0.042 0,0.077 0,0.098 v 0.031 c 0,0.022 0,0.045 0,0.065 0,0.044 0,0.076 0,0.099 0,0.021 0,0.042 0,0.063 v 0.065 c -0.237,0 -0.465,0 -0.682,0 v 0.066 c 0,0.021 0,0.043 0,0.064 0,0.021 0,0.043 0,0.064 0,0.043 0,0.075 0,0.097 0,0.022 0,0.043 0,0.065 v 0.031 c -0.498,0 -1.016,-0.01 -1.557,-0.031 -0.021,-0.022 -0.043,-0.044 -0.064,-0.065 v -0.032 c 0,-0.042 0,-0.076 0,-0.097 0,-0.021 0,-0.043 0,-0.065 0,-0.021 0,-0.054 0,-0.098 -2.617,0 -5.233,0 -7.849,0 H 32.99 c -0.022,0 -0.055,0.023 -0.097,0.066 -0.043,0 -0.076,0 -0.098,0 -0.021,0.021 -0.055,0.031 -0.098,0.031 -0.065,0.022 -0.108,0.044 -0.129,0.065 -0.044,0.021 -0.098,0.055 -0.162,0.097 -0.022,0 -0.054,0 -0.097,0 -0.065,0.022 -0.108,0.032 -0.131,0.032 -0.042,0.021 -0.086,0.043 -0.129,0.065 0,0.021 -0.022,0.054 -0.065,0.097 -0.042,0.022 -0.086,0.044 -0.13,0.065 0,0.021 -0.022,0.032 -0.064,0.032 0,0.021 -0.012,0.032 -0.034,0.032 -0.042,0.022 -0.075,0.033 -0.096,0.033 -0.043,0.043 -0.077,0.076 -0.098,0.098 v 0.064 c -0.042,0.021 -0.077,0.033 -0.097,0.033 0,0.043 0,0.075 0,0.098 v 0.063 c -0.022,0 -0.055,0 -0.098,0 h -0.063 v 0.161 c -0.152,0 -0.304,0.012 -0.455,0.032 h -0.032 c -0.109,0 -0.205,0.013 -0.293,0.034 h -0.032 c -0.043,0 -0.075,0.01 -0.097,0.032 H 30.33 c -0.087,0 -0.185,0.021 -0.292,0.064 h -0.032 c -0.086,0 -0.173,0.012 -0.259,0.032 h -0.066 c -0.021,0 -0.053,0.011 -0.097,0.033 h -0.032 c -0.043,0 -0.076,0.012 -0.097,0.031 h -0.032 c -0.023,0 -0.043,0.012 -0.064,0.034 h -0.033 c -0.066,0 -0.109,0.009 -0.131,0.031 h -0.032 c -0.022,0 -0.033,0.022 -0.033,0.065 h -0.065 c -0.043,0 -0.076,0.011 -0.098,0.032 h -0.033 c -0.064,0 -0.107,0.011 -0.129,0.032 h -0.032 c -0.043,0 -0.097,0.012 -0.163,0.032 h -0.031 c -0.022,0 -0.043,0.011 -0.064,0.033 h -0.067 c -0.021,0 -0.032,0.022 -0.032,0.064 h -0.033 c -0.021,0 -0.043,0.011 -0.064,0.033 h -0.033 c -0.043,0 -0.076,0.01 -0.098,0.031 h -0.032 c 0,0.021 -0.011,0.032 -0.033,0.032 -0.022,0 -0.054,0.013 -0.097,0.032 h -0.033 c -0.021,0 -0.042,0.012 -0.064,0.032 h -0.032 c -0.022,0 -0.055,0.022 -0.098,0.065 h -0.032 c -0.022,0 -0.043,0.013 -0.066,0.033 h -0.032 l -0.064,0.032 h -0.032 c -0.022,0 -0.043,0.011 -0.065,0.032 h -0.033 c -0.022,0 -0.032,0.01 -0.032,0.034 h -0.066 c -0.021,0 -0.042,0.021 -0.064,0.063 H 27.28 c 0,0.022 -0.011,0.032 -0.032,0.032 -0.044,0 -0.076,0.011 -0.097,0.033 h -0.032 c -0.022,0 -0.032,0.011 -0.032,0.033 h -0.034 c -0.021,0 -0.032,0.011 -0.032,0.032 h -0.064 c -0.021,0 -0.033,0.01 -0.033,0.031 h -0.032 c -0.023,0 -0.044,0.021 -0.066,0.066 -0.042,0 -0.075,0.009 -0.096,0.032 h -0.034 c -0.02,0 -0.032,0.011 -0.032,0.032 h -0.032 c 0,0.021 -0.011,0.032 -0.031,0.032 -0.044,0 -0.076,0.011 -0.099,0.033 -0.021,0 -0.032,0.021 -0.032,0.063 h -0.032 c 0,0.022 -0.011,0.032 -0.033,0.032 -0.065,0 -0.107,0.011 -0.13,0.034 h -0.032 l -0.065,0.063 v 0.033 h -0.064 c -0.021,0 -0.033,0.021 -0.033,0.063 h -0.032 c 0,0.022 -0.011,0.033 -0.033,0.033 -0.021,0 -0.053,0.011 -0.097,0.033 h -0.031 c 0,0.021 -0.012,0.031 -0.035,0.031 -0.021,0 -0.042,0.012 -0.064,0.034 h -0.033 c 0,0.042 -0.021,0.064 -0.065,0.064 -0.022,0 -0.043,0.01 -0.064,0.032 h -0.032 c -0.022,0 -0.033,0.009 -0.033,0.031 h -0.064 c -0.022,0 -0.034,0.011 -0.034,0.033 h -0.031 c -0.022,0 -0.032,0.011 -0.032,0.033 h -0.034 c -0.021,0 -0.032,0.011 -0.032,0.032 H 25.27 c 0,0.042 -0.011,0.064 -0.032,0.064 -0.021,0 -0.032,0.011 -0.032,0.033 h -0.033 c -0.022,0 -0.032,0.01 -0.032,0.031 h -0.066 l -0.064,0.065 c -0.021,0 -0.033,0.021 -0.033,0.063 h -0.032 c -0.043,0 -0.065,0.011 -0.065,0.032 h -0.032 c 0,0.023 -0.011,0.034 -0.032,0.034 -0.022,0 -0.033,0.011 -0.033,0.032 h -0.032 c 0,0.021 -0.011,0.032 -0.032,0.032 -0.043,0 -0.064,0.021 -0.064,0.065 h -0.035 c 0,0.021 -0.011,0.031 -0.031,0.031 -0.022,0 -0.033,0.01 -0.033,0.032 h -0.033 c -0.042,0 -0.063,0.011 -0.063,0.033 h -0.033 c -0.021,0 -0.033,0.011 -0.033,0.031 h -0.032 v 0.034 c -0.021,0 -0.032,0.02 -0.032,0.064 h -0.032 c -0.044,0 -0.067,0.011 -0.067,0.033 H 24.2 c -0.021,0 -0.032,0.009 -0.032,0.031 h -0.033 l -0.097,0.065 c -0.022,0 -0.043,0.021 -0.064,0.063 0,0.021 -0.01,0.035 -0.032,0.035 -0.022,0 -0.033,0.009 -0.033,0.031 h -0.032 l -0.129,0.097 c -0.022,0 -0.032,0.022 -0.032,0.065 h -0.032 l -0.131,0.098 c -0.021,0 -0.032,0.01 -0.032,0.031 h -0.032 c -0.022,0 -0.031,0.021 -0.031,0.065 h -0.066 c -0.021,0 -0.032,0.011 -0.032,0.032 h -0.032 c -0.021,0 -0.043,0.012 -0.064,0.032 -0.044,0 -0.076,0.011 -0.097,0.032 -0.022,0 -0.043,0.011 -0.065,0.032 h -0.033 c -0.022,0 -0.054,0.011 -0.097,0.032 -0.021,0 -0.044,0.022 -0.065,0.066 H 22.87 c -0.022,0 -0.054,0.01 -0.098,0.032 -0.021,0 -0.043,0.011 -0.065,0.031 h -0.032 c -0.021,0 -0.032,0.012 -0.032,0.033 h -0.031 c -0.066,0 -0.109,0.012 -0.13,0.032 h -0.033 c -0.022,0 -0.032,0.021 -0.032,0.064 h -0.066 c -0.021,0 -0.042,0.012 -0.065,0.034 h -0.031 c -0.021,0 -0.044,0.009 -0.065,0.031 h -0.065 c -0.043,0 -0.075,0.011 -0.097,0.031 h -0.034 c -0.042,0 -0.085,0.013 -0.129,0.034 -0.108,0 -0.194,0.011 -0.259,0.032 h -0.033 c -0.065,0 -0.107,0.021 -0.129,0.065 h -0.033 c -0.064,0 -0.119,0.011 -0.162,0.031 h -0.034 c -0.107,0 -0.214,0.012 -0.324,0.033 H 20.86 c -0.369,0 -0.746,0 -1.136,0 l -0.032,-0.033 c -0.065,0 -0.12,0 -0.163,0 v -0.031 c -0.044,0 -0.086,0 -0.13,0 l -0.032,-0.065 c -0.043,0 -0.097,0 -0.164,0 l -0.032,-0.032 c -0.064,0 -0.14,0 -0.227,0 l -0.032,-0.034 c -0.022,0 -0.044,0 -0.066,0 v -0.031 c -0.063,0 -0.107,0 -0.129,0 l -0.032,-0.031 c -0.021,0 -0.054,0 -0.097,0 l -0.033,-0.034 c -0.022,0 -0.054,0 -0.098,0 l -0.031,-0.064 c -0.045,0 -0.077,0 -0.098,0 v -0.032 c -0.042,0 -0.076,0 -0.097,0 L 18.166,20.738 H 18.134 L 18.1,20.707 c -0.02,0 -0.042,0 -0.063,0 L 18.004,20.675 H 17.94 l -0.032,-0.066 c -0.021,0 -0.043,0 -0.064,0 v -0.032 c -0.022,0 -0.055,0 -0.098,0 l -0.033,-0.032 c -0.021,0 -0.043,0 -0.063,0 l -0.033,-0.032 c -0.021,0 -0.055,0 -0.097,0 v -0.032 h -0.034 l -0.064,-0.098 h -0.033 v -0.031 c -0.043,0 -0.076,0 -0.096,0 V 20.319 H 17.259 V 20.286 H 17.227 V 20.255 H 17.195 V 20.19 h -0.033 v -0.033 h -0.065 v -0.032 l -0.032,-0.031 h -0.032 l -0.131,-0.13 V 19.932 H 16.87 V 19.92 L 16.807,19.856 V 19.792 H 16.773 V 19.758 H 16.741 V 19.727 L 16.643,19.662 V 19.631 L 16.577,19.533 V 19.501 H 16.546 V 19.467 L 16.482,19.435 V 19.372 L 16.45,19.339 H 16.416 V 19.307 L 16.384,19.276 V 19.243 L 16.352,19.179 V 19.147 C 16.33,19.125 16.298,19.114 16.254,19.114 V 19.081 L 16.19,19.018 V 18.954 L 16.156,18.92 c 0,-0.021 -0.009,-0.031 -0.031,-0.031 V 18.823 L 16.027,18.726 V 18.695 L 15.995,18.663 V 18.629 L 15.93,18.533 V 18.5 L 15.898,18.468 H 15.833 V 18.404 L 15.8,18.33 V 18.299 L 15.767,18.267 V 18.234 L 15.702,18.169 V 18.106 L 15.54,17.974 v -0.065 l -0.032,-0.032 v -0.032 c -0.044,0 -0.065,-0.011 -0.065,-0.032 l -0.292,-0.324 v -0.031 h -0.032 v -0.065 c -0.021,0 -0.033,-0.011 -0.033,-0.033 h -0.065 l -0.098,-0.129 c 0,-0.021 -0.01,-0.034 -0.032,-0.034 v -0.032 l -0.195,-0.193 c -0.174,0 -0.368,0 -0.583,0 -0.023,0.021 -0.043,0.032 -0.064,0.032 -0.218,0.022 -0.412,0.064 -0.584,0.13 -0.043,0.021 -0.086,0.043 -0.129,0.063 -0.022,0 -0.055,0.013 -0.099,0.034 0,-0.021 0,-0.044 0,-0.066 0,-0.063 0,-0.106 0,-0.129 0,-0.021 0,-0.054 0,-0.096 h -0.032 v 0.031 l -0.032,0.032 c -0.065,0.022 -0.12,0.032 -0.163,0.032 -0.064,0.022 -0.119,0.054 -0.162,0.098 -0.021,0.021 -0.043,0.043 -0.065,0.063 -0.022,0.023 -0.054,0.034 -0.098,0.034 l -0.031,0.032 c -0.043,0 -0.075,0.021 -0.098,0.064 -0.043,0.021 -0.077,0.043 -0.097,0.065 l -0.066,0.065 c -0.043,0 -0.097,0.009 -0.162,0.031 -0.021,0.043 -0.042,0.076 -0.063,0.098 0,0.021 -0.011,0.032 -0.033,0.032 l -0.065,0.032 c -0.042,0 -0.076,0.011 -0.097,0.033 -0.021,0.043 -0.055,0.064 -0.097,0.064 v 0.033 c -0.044,0.021 -0.097,0.031 -0.163,0.031 -0.044,0.021 -0.077,0.045 -0.097,0.064 v 0.098 c -0.042,0.022 -0.098,0.033 -0.164,0.033 -0.064,0.021 -0.119,0.043 -0.162,0.064 -0.043,0.022 -0.076,0.055 -0.097,0.097 0,0.022 -0.011,0.032 -0.033,0.032 l -0.031,0.033 c -0.065,0 -0.109,0.011 -0.13,0.033 -0.021,0.021 -0.042,0.042 -0.064,0.063 l -0.065,0.099 c -0.064,0 -0.12,0.011 -0.162,0.032 v 0.032 l -0.032,0.033 c -0.065,0.043 -0.119,0.063 -0.163,0.063 -0.021,0.022 -0.043,0.043 -0.065,0.066 -0.043,0.021 -0.063,0.041 -0.063,0.063 0,0.065 0,0.109 0,0.13 -0.023,0 -0.044,0.011 -0.066,0.033 -0.022,0.021 -0.043,0.043 -0.065,0.065 -0.063,0.064 -0.118,0.118 -0.161,0.161 -0.086,0.021 -0.162,0.065 -0.228,0.13 l -0.032,0.033 c 0,0.021 0,0.043 0,0.063 -0.043,0 -0.075,0 -0.097,0 -0.022,0.022 -0.044,0.033 -0.065,0.033 -0.021,0.043 -0.042,0.074 -0.064,0.096 0,0.023 -0.021,0.045 -0.064,0.066 -0.021,0.021 -0.043,0.054 -0.064,0.098 -0.043,0.021 -0.087,0.041 -0.13,0.063 -0.021,0.021 -0.044,0.044 -0.065,0.064 0,0.022 -0.011,0.054 -0.032,0.099 C 9.23,19.87 9.208,19.891 9.188,19.913 9.145,19.935 9.11,19.946 9.09,19.946 9.067,19.967 9.047,19.999 9.026,20.042 9,20.07 8.967,20.093 8.924,20.115 8.902,20.136 8.892,20.158 8.892,20.178 8.871,20.2 8.849,20.234 8.828,20.277 v 0.064 c -0.065,0 -0.108,0.011 -0.129,0.033 -0.022,0.021 -0.044,0.053 -0.065,0.097 v 0.064 c -0.044,0 -0.087,0.011 -0.131,0.032 -0.021,0.021 -0.043,0.043 -0.064,0.064 -0.022,0.045 -0.043,0.076 -0.064,0.099 -0.043,0.021 -0.076,0.043 -0.097,0.064 -0.023,0.021 -0.034,0.054 -0.034,0.097 0,0.022 -0.011,0.034 -0.033,0.034 0,0.02 -0.011,0.042 -0.032,0.063 -0.021,0.022 -0.064,0.045 -0.129,0.066 0,0.043 -0.011,0.076 -0.033,0.097 -0.021,0.021 -0.043,0.043 -0.064,0.065 -0.043,0.021 -0.076,0.054 -0.099,0.097 -0.02,0.021 -0.031,0.043 -0.031,0.064 -0.021,0.022 -0.042,0.044 -0.065,0.064 -0.021,0.022 -0.053,0.032 -0.097,0.032 0,0.045 0,0.076 0,0.099 -0.022,0.021 -0.044,0.043 -0.065,0.064 -0.021,0.021 -0.032,0.054 -0.032,0.097 -0.021,0.022 -0.055,0.045 -0.099,0.066 -0.021,0.021 -0.042,0.041 -0.063,0.064 -0.021,0.021 -0.045,0.054 -0.066,0.098 -0.021,0.021 -0.032,0.043 -0.032,0.064 0,0.022 -0.022,0.032 -0.065,0.032 0,0.021 -0.011,0.054 -0.032,0.098 -0.022,0.022 -0.054,0.043 -0.097,0.063 0,0.022 0,0.044 0,0.066 0,0.022 -0.023,0.054 -0.065,0.097 0,0.021 -0.011,0.043 -0.033,0.064 0,0.023 0,0.045 0,0.065 v 0.064 c -0.043,0.022 -0.074,0.032 -0.096,0.032 -0.021,0.022 -0.033,0.045 -0.033,0.065 -0.042,0.021 -0.064,0.044 -0.064,0.065 0,0.042 -0.011,0.076 -0.032,0.096 0,0.022 -0.011,0.044 -0.033,0.065 -0.021,0.023 -0.033,0.055 -0.033,0.098 0,0.022 -0.01,0.033 -0.032,0.033 0,0.021 -0.021,0.042 -0.064,0.064 0,0.021 0,0.054 0,0.097 0,0.022 0,0.043 0,0.065 v 0.064 C 6.583,23.34 6.549,23.352 6.528,23.352 6.505,23.394 6.496,23.425 6.496,23.447 6.473,23.468 6.463,23.492 6.463,23.513 v 0.097 c -0.065,0 -0.108,0.011 -0.13,0.032 0,0.021 -0.011,0.045 -0.032,0.066 0,0.021 -0.011,0.042 -0.033,0.064 0,0.042 0,0.074 0,0.097 -0.046,0.029 -0.068,0.05 -0.068,0.072 -0.021,0.021 -0.042,0.032 -0.065,0.032 0,0.042 0,0.076 0,0.098 -0.021,0.021 -0.043,0.043 -0.064,0.065 0,0.021 0,0.042 0,0.065 0,0.042 0,0.075 0,0.097 0,0.02 0,0.042 0,0.064 0,0.022 0,0.054 0,0.097 0,0.022 0,0.043 0,0.066 v 0.032 c -0.065,0 -0.108,0 -0.13,0 0,0.021 0,0.042 0,0.064 0,0.044 0,0.074 0,0.097 v 0.033 C 5.399,24.751 4.859,24.739 4.319,24.718 4.254,24.696 4.2,24.665 4.157,24.621 V 24.557 C 4.092,24.557 4.048,24.545 4.026,24.525 3.94,24.502 3.876,24.481 3.832,24.459 3.832,24.416 3.821,24.385 3.8,24.362 L 3.768,24.33 C 3.681,24.309 3.617,24.289 3.573,24.267 V 24.168 C 3.509,24.168 3.454,24.157 3.411,24.137 3.39,24.115 3.368,24.093 3.346,24.072 L 3.249,23.974 C 3.226,23.974 3.205,23.963 3.183,23.942 3.14,23.92 3.086,23.899 3.021,23.878 c 0,-0.022 -0.01,-0.055 -0.032,-0.097 -0.021,0 -0.054,-0.011 -0.098,-0.033 0,-0.021 0,-0.043 0,-0.063 C 2.849,23.662 2.816,23.641 2.794,23.619 2.752,23.576 2.719,23.545 2.697,23.522 2.653,23.501 2.632,23.477 2.632,23.456 2.61,23.435 2.589,23.403 2.568,23.361 2.525,23.338 2.481,23.316 2.437,23.294 c 0,-0.021 -0.01,-0.042 -0.032,-0.063 -0.02,0 -0.053,-0.011 -0.097,-0.033 0,-0.043 -0.011,-0.075 -0.032,-0.097 C 2.233,23.079 2.212,23.058 2.212,23.037 V 23.004 C 2.169,22.961 2.125,22.93 2.083,22.906 c 0,-0.021 -0.022,-0.043 -0.066,-0.065 -0.021,0 -0.053,-0.01 -0.097,-0.031 0,-0.043 0,-0.075 0,-0.098 C 1.899,22.691 1.878,22.67 1.855,22.648 1.791,22.627 1.747,22.605 1.726,22.583 1.704,22.541 1.692,22.508 1.692,22.486 1.671,22.465 1.639,22.442 1.595,22.421 1.573,22.396 1.55,22.363 1.53,22.32 1.53,22.298 1.52,22.277 1.498,22.255 L 1.466,22.222 C 1.4,22.201 1.357,22.181 1.336,22.159 1.336,22.115 1.325,22.083 1.302,22.061 L 1.27,22.028 C 1.205,22.007 1.163,21.984 1.141,21.964 c 0,-0.044 0,-0.076 0,-0.098 -0.021,0 -0.033,-0.011 -0.033,-0.032 -0.021,-0.022 -0.032,-0.043 -0.032,-0.064 0,-0.021 0,-0.055 0,-0.098 -0.042,0 -0.087,-0.013 -0.131,-0.033 0,-0.021 -0.01,-0.043 -0.031,-0.064 0,-0.022 -0.011,-0.054 -0.032,-0.099 V 21.444 C 0.839,21.423 0.795,21.402 0.752,21.38 c 0,-0.021 0,-0.043 0,-0.064 V 21.251 C 0.731,21.23 0.72,21.208 0.72,21.188 0.699,21.167 0.688,21.144 0.688,21.124 c 0,-0.044 0,-0.076 0,-0.098 0,-0.022 0,-0.043 0,-0.065 0,-0.022 0,-0.043 0,-0.065 0,-0.043 0,-0.076 0,-0.097 0,-0.021 0,-0.044 0,-0.064 v -0.032 c 0,-0.044 0,-0.076 0,-0.099 0,-0.021 0,-0.044 0,-0.064 0,-0.02 0,-0.043 0,-0.064 0,-0.065 0,-0.119 0,-0.163 0,-0.021 0,-0.053 0,-0.097 0,-0.022 0,-0.043 0,-0.065 V 20.12 c 0,-0.022 0,-0.045 0,-0.066 0,-0.043 0,-0.075 0,-0.096 0,-0.021 0,-0.044 0,-0.064 0,-0.022 0,-0.056 0,-0.098 0,-0.045 0,-0.088 0,-0.131 0,-0.021 0,-0.054 0,-0.097 0.021,0 0.044,-0.011 0.064,-0.032 v -0.032 c 0,-0.13 0,-0.271 0,-0.423 0,-0.128 0,-0.27 0,-0.42 0,-0.152 0,-0.293 0,-0.423 0,-0.152 0,-0.291 0,-0.422 0,-0.151 0,-0.302 0,-0.454 0,-0.129 0,-0.271 0,-0.42 0,-0.153 0,-0.293 0,-0.423 0,-0.152 0,-0.292 0,-0.421 0,-0.152 0,-0.313 0,-0.487 0,-0.108 0,-0.248 0,-0.422 0,-0.15 0,-0.292 0,-0.423 0,-0.021 0,-0.041 0,-0.063 -0.021,-0.021 -0.043,-0.032 -0.064,-0.032 0,-0.021 0,-0.042 0,-0.065 v -0.064 c 0,-0.021 0,-0.043 0,-0.064 0,-0.022 0,-0.044 0,-0.064 0,-0.044 0,-0.076 0,-0.097 0,-0.022 0,-0.044 0,-0.066 0,-0.021 0,-0.043 0,-0.065 0,-0.043 0,-0.074 0,-0.097 0,-0.023 0,-0.043 0,-0.064 v -0.034 c 0,-0.042 0,-0.074 0,-0.097 0,-0.021 0,-0.043 0,-0.063 0,-0.024 0,-0.045 0,-0.066 0,-0.044 0,-0.076 0,-0.097 0,-0.021 0,-0.043 0,-0.065 0,-0.021 0,-0.054 0,-0.098 0,-0.021 0,-0.043 0,-0.064 v -0.032 c 0,-0.023 0,-0.043 0,-0.065 0,-0.043 0,-0.076 0,-0.097 0,-0.022 0,-0.044 0,-0.066 0,-0.063 0,-0.106 0,-0.129 0.54,0 1.08,0 1.621,0 0,0.022 0,0.055 0,0.097 0.021,0.022 0.055,0.044 0.097,0.065 0.022,0.022 0.055,0.033 0.098,0.033 0,0.021 0,0.054 0,0.097 0.044,0.022 0.087,0.042 0.13,0.065 0.065,0.022 0.119,0.032 0.162,0.032 0,0.021 0.011,0.044 0.033,0.064 0,0.044 0.021,0.076 0.063,0.098 0.044,0.022 0.098,0.031 0.164,0.031 0,0.022 0,0.045 0,0.065 0.064,0.043 0.128,0.077 0.195,0.098 0.065,0.022 0.129,0.034 0.194,0.034 0,0.02 0,0.041 0,0.063 0.086,0.022 0.152,0.055 0.194,0.097 0.13,0.024 0.26,0.034 0.389,0.034 0,0.021 0,0.042 0,0.064 0.11,0.022 0.206,0.054 0.293,0.097 0.368,0 0.746,0 1.135,0 0.087,-0.043 0.195,-0.074 0.324,-0.097 0.044,-0.022 0.066,-0.043 0.066,-0.064 h 0.032 c 0.13,-0.021 0.26,-0.034 0.389,-0.034 0.088,-0.042 0.185,-0.074 0.293,-0.097 0.022,-0.021 0.031,-0.043 0.031,-0.063 H 6.624 C 6.751,13.8 6.88,13.79 7.01,13.79 c 0.131,-0.021 0.26,-0.055 0.391,-0.098 0,-0.021 0,-0.043 0,-0.065 0.13,-0.021 0.259,-0.031 0.389,-0.031 0.063,-0.021 0.14,-0.054 0.227,-0.098 0,-0.021 0,-0.043 0,-0.064 H 8.05 C 8.114,13.413 8.168,13.402 8.211,13.402 8.32,13.379 8.406,13.359 8.471,13.337 8.492,13.294 8.503,13.261 8.503,13.24 H 8.568 C 8.611,13.218 8.655,13.207 8.699,13.207 8.805,13.186 8.925,13.164 9.054,13.142 9.076,13.1 9.088,13.068 9.088,13.045 H 9.12 c 0.065,-0.021 0.129,-0.032 0.195,-0.032 0.086,-0.021 0.183,-0.043 0.291,-0.064 0,-0.044 0,-0.075 0,-0.098 0.064,-0.021 0.152,-0.033 0.259,-0.033 0.066,-0.021 0.142,-0.042 0.228,-0.063 0,-0.021 0,-0.054 0,-0.098 0.043,-0.022 0.107,-0.032 0.194,-0.032 0.043,-0.021 0.107,-0.044 0.194,-0.064 0,-0.022 0,-0.056 0,-0.097 0.065,-0.022 0.151,-0.033 0.258,-0.033 0.046,-0.022 0.098,-0.043 0.164,-0.063 0,-0.024 0,-0.044 0,-0.067 h 0.033 c 0.022,-0.042 0.054,-0.064 0.097,-0.064 0.064,-0.021 0.107,-0.043 0.129,-0.066 0.022,-0.021 0.044,-0.042 0.065,-0.063 0.043,-0.043 0.075,-0.065 0.097,-0.065 v -0.031 c 0.065,-0.021 0.141,-0.031 0.228,-0.031 0.023,-0.022 0.044,-0.044 0.065,-0.066 l 0.097,-0.097 c 0.043,-0.022 0.097,-0.033 0.163,-0.033 0,-0.022 0,-0.043 0,-0.064 0.042,-0.021 0.086,-0.032 0.129,-0.032 0.043,-0.045 0.085,-0.076 0.129,-0.099 0.022,-0.021 0.033,-0.043 0.033,-0.063 h 0.031 c 0.043,-0.022 0.098,-0.031 0.163,-0.031 0.044,-0.023 0.085,-0.056 0.129,-0.099 0.044,-0.021 0.077,-0.044 0.098,-0.066 0.022,-0.021 0.043,-0.032 0.065,-0.032 v -0.031 c 0.065,-0.043 0.118,-0.065 0.162,-0.065 0,-0.021 0,-0.044 0,-0.064 h 0.032 c 0.022,-0.021 0.064,-0.033 0.129,-0.033 0.065,-0.021 0.141,-0.043 0.228,-0.064 0,-0.043 0,-0.076 0,-0.097 h 0.032 c 0.043,-0.022 0.099,-0.032 0.162,-0.032 0.023,-0.021 0.044,-0.044 0.066,-0.065 0.021,-0.043 0.043,-0.075 0.064,-0.097 0.043,-0.022 0.076,-0.034 0.098,-0.034 v -0.031 c 0.044,-0.022 0.087,-0.033 0.129,-0.033 0,-0.021 0,-0.054 0,-0.097 h 0.065 c 0.022,-0.022 0.055,-0.032 0.098,-0.032 0.064,-0.021 0.108,-0.043 0.131,-0.065 0.021,-0.02 0.031,-0.053 0.031,-0.098 h 0.034 c 0.042,-0.021 0.107,-0.031 0.194,-0.031 0.021,-0.022 0.044,-0.044 0.065,-0.065 0,-0.021 0,-0.043 0,-0.064 0.064,-0.044 0.128,-0.064 0.193,-0.064 0.065,-0.022 0.119,-0.043 0.162,-0.065 0,-0.021 0,-0.043 0,-0.064 h 0.034 C 14.784,9.963 14.826,9.942 14.892,9.942 14.935,9.908 15,9.889 15.086,9.865 c 0,-0.02 0,-0.043 0,-0.063 0.065,-0.045 0.141,-0.065 0.226,-0.065 0.044,-0.022 0.11,-0.044 0.196,-0.066 0,-0.021 0,-0.043 0,-0.065 h 0.032 c 0.044,-0.021 0.098,-0.03 0.162,-0.03 0.044,-0.045 0.087,-0.077 0.131,-0.099 0,-0.021 0,-0.043 0,-0.065 0.086,-0.021 0.162,-0.031 0.226,-0.031 0.065,-0.044 0.131,-0.076 0.195,-0.097 0,-0.022 0,-0.043 0,-0.065 h 0.065 c 0.043,-0.021 0.097,-0.033 0.163,-0.033 0.064,-0.021 0.129,-0.054 0.195,-0.097 0,-0.022 0,-0.042 0,-0.064 0.13,-0.022 0.248,-0.032 0.357,-0.032 0.043,-0.022 0.107,-0.054 0.193,-0.098 0,-0.021 0,-0.044 0,-0.065 h 0.032 c 0.043,-0.022 0.098,-0.031 0.163,-0.031 0.042,-0.022 0.109,-0.045 0.195,-0.065 0,-0.044 0,-0.076 0,-0.098 H 17.65 C 17.671,8.615 17.703,8.604 17.747,8.604 17.811,8.582 17.855,8.56 17.876,8.54 17.898,8.496 17.909,8.464 17.909,8.441 h 0.032 C 18.028,8.42 18.102,8.41 18.168,8.41 h 0.065 c 0,-0.022 0,-0.045 0,-0.066 0,-0.021 0,-0.053 0,-0.096 0.064,-0.021 0.15,-0.033 0.26,-0.033 0.042,-0.021 0.097,-0.033 0.162,-0.033 0.021,-0.021 0.043,-0.031 0.064,-0.031 0.022,-0.022 0.043,-0.032 0.066,-0.032 V 8.051 h 0.063 C 18.87,8.029 18.891,8.007 18.914,7.985 19.065,7.964 19.228,7.943 19.4,7.92 19.443,7.856 19.476,7.814 19.497,7.792 19.713,7.77 19.939,7.748 20.179,7.727 20.2,7.663 20.222,7.618 20.243,7.596 20.351,7.575 20.46,7.553 20.568,7.533 20.568,7.51 20.579,7.498 20.6,7.498 Z m -0.843,9.567 v 0.065 l -0.033,0.031 v 0.032 c -0.021,0 -0.032,0.013 -0.032,0.034 v 0.032 h -0.065 v 0.064 c -0.022,0 -0.033,0.012 -0.033,0.032 v 0.033 l -0.033,0.031 v 0.065 l -0.032,0.065 v 0.064 h -0.033 v 0.032 c -0.021,0 -0.032,0.011 -0.032,0.033 v 0.064 L 19.4,17.78 v 0.063 h -0.032 v 0.13 H 19.336 V 18.2 h -0.033 v 0.066 c -0.022,0 -0.032,0.011 -0.032,0.032 v 0.162 c -0.043,0 -0.066,0.012 -0.066,0.032 v 0.163 h -0.032 v 0.356 l 0.032,0.032 v 0.647 c -0.193,0 -0.399,0 -0.615,0 V 19.66 H 18.557 V 19.563 L 18.525,19.531 V 19.465 H 18.493 V 19.433 L 18.459,19.37 V 19.305 H 18.428 V 19.241 L 18.362,19.177 V 19.112 L 18.33,19.079 V 18.917 L 18.297,18.886 V 18.692 L 18.265,18.66 v -0.034 c 0,-0.064 0,-0.108 0,-0.129 0,-0.042 0,-0.076 0,-0.097 0,-0.066 0,-0.109 0,-0.13 0,-0.044 0,-0.076 0,-0.099 0,-0.063 0,-0.107 0,-0.129 0,-0.022 0,-0.043 0,-0.065 0,-0.043 0,-0.075 0,-0.098 0,-0.02 0,-0.043 0,-0.064 0,-0.021 0,-0.044 0,-0.064 0,-0.064 0,-0.107 0,-0.13 0,-0.021 0,-0.044 0,-0.064 0,-0.043 0,-0.075 0,-0.097 0,-0.022 0,-0.045 0,-0.065 v -0.033 h -0.032 l -0.065,0.033 c 0,0.021 -0.012,0.031 -0.032,0.031 l -0.13,0.163 v 0.032 l -0.162,0.163 v 0.031 l -0.033,0.032 v 0.064 l -0.064,0.065 v 0.033 l -0.033,0.032 v 0.066 l -0.031,0.063 v 0.162 l -0.032,0.066 v 0.26 l 0.032,0.032 v 0.194 l 0.031,0.031 v 0.131 l 0.033,0.031 v 0.066 l 0.064,0.032 v 0.064 l 0.033,0.033 v 0.031 l 0.064,0.065 v 0.063 h 0.032 l 0.13,0.099 v 0.032 h 0.031 l 0.131,0.129 h 0.032 v 0.033 h 0.032 l 0.033,0.031 h 0.032 l 0.066,0.034 h 0.031 v 0.064 h 0.034 l 0.032,0.033 h 0.032 l 0.033,0.031 c 0.043,0 0.076,0 0.097,0 v 0.033 c 0.021,0 0.043,0 0.065,0 v 0.032 h 0.033 l 0.063,0.063 h 0.034 c 0.064,0 0.129,0 0.194,0 v 0.035 h 0.032 v 0.031 h 0.032 v 0.031 h 0.033 v 0.032 h 0.032 v 0.033 c 0.066,0 0.121,0 0.164,0 l 0.032,0.065 c 0.043,0 0.076,0 0.097,0 l 0.033,0.031 c 0.022,0 0.054,0 0.098,0 v 0.033 c 0.043,0 0.075,0 0.097,0 l 0.033,0.033 h 0.032 l 0.033,0.031 c 0.193,0 0.378,0 0.551,0 v 0.065 c 0.13,0 0.259,0 0.389,0 V 20.4 c 0.021,0 0.054,0 0.099,0 v -0.031 c 0.107,0 0.226,0 0.355,0 v -0.033 c 0.022,0 0.055,0 0.098,0 v -0.033 c 0.044,0 0.086,0 0.13,0 v -0.031 c 0.022,0 0.064,0 0.129,0 v -0.065 c 0.022,0 0.055,0 0.098,0 v -0.033 h 0.032 v -0.032 c 0.023,0 0.054,0 0.097,0 l 0.032,-0.031 c 0.023,0 0.044,0 0.066,0 V 20.08 c 0.022,0 0.064,0 0.13,0 v -0.035 c 0.044,0 0.076,0 0.097,0 l 0.065,-0.063 c 0.021,0 0.044,0 0.065,0 V 19.95 c 0.02,0 0.042,0 0.065,0 l 0.031,-0.033 c 0.044,0 0.076,0 0.098,0 v -0.031 l 0.065,-0.098 c 0.022,0 0.055,0 0.098,0 l 0.096,-0.099 h 0.034 c 0,-0.022 0.01,-0.032 0.031,-0.032 l 0.064,-0.031 c 0.022,0 0.044,0 0.066,0 v -0.065 c 0.021,0 0.032,-0.011 0.032,-0.032 0.021,0 0.065,0 0.129,0 v -0.032 l 0.065,-0.066 c 0.021,0 0.042,0 0.064,0 0,-0.042 0.021,-0.063 0.065,-0.063 0,-0.022 0.012,-0.033 0.032,-0.033 l 0.032,-0.032 h 0.032 l 0.032,-0.031 h 0.066 l 0.031,-0.033 v -0.064 c 0,-0.021 0.012,-0.032 0.032,-0.032 V 19.11 h 0.032 v -0.033 c 0,-0.022 0.012,-0.031 0.034,-0.031 v -0.162 h 0.032 V 18.85 l 0.065,-0.033 v -0.063 h 0.032 V 18.72 c 0,-0.022 0.01,-0.031 0.032,-0.031 v -0.032 c 0,-0.023 0.011,-0.034 0.032,-0.034 V 18.59 l 0.033,-0.063 c 0,-0.022 0.021,-0.033 0.064,-0.033 V 18.43 h 0.032 V 18.2 c 0,-0.021 -0.01,-0.032 -0.032,-0.032 v -0.097 l -0.064,-0.032 v -0.065 c 0,-0.043 -0.011,-0.065 -0.033,-0.065 V 17.845 L 23.743,17.813 V 17.78 L 23.711,17.747 V 17.683 L 23.679,17.65 v -0.032 l -0.065,-0.032 v -0.032 l -0.161,-0.195 v -0.032 l -0.066,-0.064 h -0.032 l -0.032,-0.032 v -0.034 h -0.032 l -0.098,-0.063 c -0.022,0 -0.043,0 -0.064,0 l -0.065,-0.098 c -0.022,-0.021 -0.054,-0.032 -0.097,-0.032 -1.038,0 -2.086,0 -3.146,0 -0.021,0 -0.033,0.011 -0.033,0.032 0.001,0.02 -0.01,0.029 -0.031,0.029 z m -0.681,2.888 c 0,-0.021 0.012,-0.044 0.032,-0.064 0.043,0 0.096,0 0.163,0 -0.088,0.02 -0.152,0.043 -0.195,0.064 z M 2.308,19.369 C 2.309,19.347 2.32,19.325 2.34,19.304 2.363,19.283 2.373,19.26 2.373,19.24 c -0.021,0 -0.044,0 -0.065,0 v 0.033 c 0,0.021 0,0.052 0,0.096 z"
   id="path138" />
		</g>
	</g>
</g>

</svg>
