<?xml version="1.0" encoding="UTF-8" standalone="no"?>
<!-- Generator: Adobe Illustrator 16.0.0, SVG Export Plug-In . SVG Version: 6.00 Build 0)  -->

<svg
   version="1.1"
   x="0px"
   y="0px"
   width="113"
   height="41"
   viewBox="0 0 113 41"
   enable-background="new 0 0 98 32"
   xml:space="preserve"
   id="svg275"
   xmlns="http://www.w3.org/2000/svg"
   xmlns:svg="http://www.w3.org/2000/svg"><defs
   id="defs279" />
<g
   id="Selected_Items"
   transform="translate(0,6)">
	<g
   id="g271">
		<g
   id="Selected_Items_44_">
			<path
   fill-rule="evenodd"
   clip-rule="evenodd"
   fill="#ffffff"
   d="m 96.885,14.225 c 0,0.025 0,0.062 0,0.111 v 0.037 c 0,0.026 0,0.063 0,0.112 0,0.025 0,0.049 0,0.075 0,0.024 0,0.049 0,0.075 0,0.049 0,0.086 0,0.111 v 0.037 c 0,0.025 0,0.062 0,0.112 0,0.024 0,0.049 0,0.074 0,0.025 0,0.05 0,0.074 0,0.025 0,0.05 0,0.075 0,0.024 0,0.049 0,0.074 v 0.148 c -0.075,0 -0.149,0 -0.223,0 -1.19,0 -2.368,0 -3.533,0 v 0.113 c -0.149,0 -0.298,0 -0.446,0 V 15.34 c -1.661,0 -3.322,0 -4.983,0 0,0.026 0,0.05 0,0.075 0,0.026 0,0.062 0,0.112 0,0.024 0,0.063 0,0.112 v 0.037 c -0.074,0 -0.136,0 -0.186,0 v -0.074 c -0.05,0 -0.1,0 -0.149,0 v -0.037 c 0,-0.024 0,-0.05 0,-0.075 v -0.036 c 0,-0.025 0,-0.063 0,-0.113 -0.149,0 -0.322,0 -0.52,0 v 0.113 c -0.05,0 -0.111,0 -0.186,0 v -0.113 c -0.149,0 -0.323,0 -0.52,0 0,0.026 0,0.05 0,0.075 v 0.112 c 0,0.049 0,0.1 0,0.149 -0.05,0 -0.113,0 -0.187,0 -0.049,0 -0.1,0 -0.148,0 v 0.037 c -0.05,0 -0.112,0 -0.186,0 v -0.037 c 0,-0.049 0,-0.1 0,-0.149 0,-0.05 0,-0.086 0,-0.112 0,-0.049 0,-0.099 0,-0.148 0,-0.025 0,-0.05 0,-0.075 -2.951,0 -5.889,0 -8.814,0 -0.024,0 -0.037,-0.012 -0.037,-0.037 -0.024,0 -0.037,-0.013 -0.037,-0.037 -0.024,0 -0.049,0 -0.074,0 h -0.111 v 0.26 c -0.124,0 -0.236,0 -0.335,0 -4.462,0 -8.925,-0.012 -13.387,-0.038 v 0.41 c -0.024,0 -0.049,0.012 -0.074,0.037 v 0.596 c 0.049,0 0.087,0 0.111,0 v 0.333 c -0.024,0 -0.062,0 -0.111,0 l -0.037,0.038 h -0.038 c 0,0.024 -0.012,0.037 -0.038,0.037 v -0.037 c 0.025,0 0.038,-0.013 0.038,-0.038 -0.124,0 -0.272,0 -0.446,0 v 0.075 c -0.124,0 -0.248,0 -0.372,0 v -0.335 c -0.249,0 -0.483,0 -0.706,0 v 0.298 c -0.1,0 -0.21,0 -0.334,0 v -0.298 c -0.149,0 -0.31,0 -0.483,0 v 0.26 c -0.149,0 -0.273,0 -0.372,0 v -0.26 c -0.174,0 -0.36,0 -0.559,0 v 0.26 c -0.148,0 -0.272,0 -0.371,0 v -0.26 c -0.174,0 -0.335,0 -0.483,0 v 0.26 c -0.15,0 -0.273,0 -0.372,0 v -0.26 c -0.174,0 -0.36,0 -0.559,0 v 0.26 c -0.099,0 -0.209,0 -0.333,0 v -0.26 h -0.15 c -0.098,0 -0.197,0 -0.296,0 v 0.335 c -0.124,0 -0.236,0 -0.334,0 v -0.335 c -0.174,0 -0.36,0 -0.559,0 v 0.26 c -0.098,0 -0.21,0 -0.333,0 v -0.26 c -0.15,0 -0.311,0 -0.483,0 v 0.26 c -0.149,0 -0.286,0 -0.41,0 v -0.26 c -0.174,0 -0.347,0 -0.521,0 v 0.26 c -0.125,0 -0.26,0 -0.409,0 v -0.26 c -0.174,0 -0.348,0 -0.521,0 v 0.223 c -0.125,0 -0.235,0 -0.333,0 v -0.223 c -0.15,0 -0.324,0 -0.522,0 v 0.26 c -0.099,0 -0.21,0 -0.334,0 v -0.26 c -0.149,0 -0.311,0 -0.483,0 v 0.26 c -0.125,0 -0.236,0 -0.335,0 v -0.26 c -0.198,0 -0.384,0 -0.558,0 v 0.223 c -0.124,0 -0.261,0 -0.409,0 v -0.223 c -0.149,0 -0.31,0 -0.483,0 v 0.26 c -0.125,0 -0.236,0 -0.334,0 v -0.26 c -0.198,0 -0.41,0 -0.633,0 v 0.26 c -0.396,0 -0.781,0 -1.152,0 v -0.26 c -0.149,0 -0.285,0 -0.41,0 v 0.112 l -0.037,0.037 v 0.037 l -0.038,0.037 v 0.075 c 0,0.024 -0.012,0.037 -0.038,0.037 -0.025,0 -0.037,0.012 -0.037,0.037 h -0.037 c -0.099,0 -0.198,0 -0.297,0 -0.075,0.025 -0.149,0.038 -0.223,0.038 -0.025,0.024 -0.063,0.037 -0.112,0.037 l -0.037,0.037 c -0.024,0.025 -0.061,0.037 -0.112,0.037 l -0.037,0.038 H 46.24 c -0.074,0.024 -0.148,0.037 -0.223,0.037 -0.05,0 -0.1,0.012 -0.149,0.036 l -0.037,0.037 v 0.037 c -0.025,0 -0.05,0.013 -0.074,0.039 l -0.075,0.037 c 0,0.024 -0.012,0.037 -0.037,0.037 l -0.074,0.074 h -0.037 c 0,0.024 -0.013,0.037 -0.038,0.037 v 0.074 l -0.037,0.037 H 45.42 v 0.037 c 0,0.025 0,0.05 0,0.074 v 0.038 c 0,0.025 0,0.049 0,0.074 v 0.52 c 0,0.026 0,0.05 0,0.074 0,0.05 0,0.1 0,0.149 0,0.05 0,0.088 0,0.112 v 0.148 c 0,0.05 0,0.1 0,0.149 0,0.05 0,0.087 0,0.112 0,0.05 0,0.1 0,0.148 0,0.048 0,0.099 0,0.149 0,0.025 0,0.05 0,0.075 v 0.037 l 0.112,0.11 h 0.037 c 0.024,0 0.049,0.014 0.074,0.039 0.024,0 0.037,0.012 0.037,0.037 l 0.038,0.037 c 0.024,0 0.037,0.012 0.037,0.037 v 0.706 h -0.037 c 0,0.024 -0.013,0.038 -0.038,0.038 v 0.037 h -0.037 c -0.074,0 -0.162,0 -0.26,0 v 0.111 c -0.024,0 -0.075,0 -0.149,0 -0.024,0 -0.049,0 -0.074,0 v 0.038 c 0,0.075 0,0.148 0,0.223 0,0.074 0,0.148 0,0.223 0,0.049 0,0.112 0,0.187 0,0.099 0,0.174 0,0.223 0,0.074 0,0.149 0,0.224 0,0.073 0,0.148 0,0.222 0,0.074 0,0.15 0,0.224 0,0.074 0,0.148 0,0.223 0,0.074 0,0.136 0,0.187 0,0.074 0,0.161 0,0.259 0,0.05 0,0.112 0,0.186 0,0.075 0,0.148 0,0.224 0,0.074 0,0.148 0,0.222 0,0.074 0,0.149 0,0.223 0,0.075 0,0.149 0,0.224 0,0.049 0,0.11 0,0.186 0,0.098 0,0.174 0,0.223 0,0.073 0,0.149 0,0.223 0,0.074 0,0.149 0,0.223 0,0.075 0,0.149 0,0.223 0,0.049 0,0.124 0,0.223 0,0.074 0,0.138 0,0.186 0,0.074 0,0.162 0,0.261 0,0.05 0,0.111 0,0.186 0,0.074 0,0.149 0,0.224 0,0.074 0,0.148 0,0.223 0,0.074 0,0.136 0,0.186 0,0.099 0,0.186 0,0.26 0,0.049 0,0.112 0,0.187 0,0.098 0,0.172 0,0.222 0,0.075 0,0.149 0,0.223 0,0.049 0,0.124 0,0.223 0,0.075 0,0.137 0,0.187 0,0.049 0,0.099 0,0.148 v 0.112 c 0,0.073 0,0.136 0,0.186 v 0.148 c 0,0.025 0,0.062 0,0.111 0,0.026 0,0.05 0,0.075 0.025,0 0.05,0 0.074,0 v 0.223 c -2.157,0 -4.314,0 -6.47,0 -0.05,0 -0.099,0 -0.148,0 -0.025,0 -0.062,0 -0.113,0 v -0.074 c 0,-0.025 0,-0.049 0,-0.074 0,-0.025 0,-0.05 0,-0.075 v -0.075 c 0,-0.024 0,-0.049 0,-0.074 v -0.037 c 0,-0.025 0,-0.049 0,-0.075 V 28.21 c 0,-0.025 0,-0.05 0,-0.075 h -0.036 v -0.038 c -0.1,0 -0.199,0 -0.297,0 v -0.446 c 0.024,0 0.049,-0.013 0.074,-0.038 0,-0.099 0,-0.173 0,-0.223 0,-0.075 0,-0.149 0,-0.223 0,-0.075 0,-0.149 0,-0.224 0,-0.073 0,-0.147 0,-0.223 0,-0.05 0,-0.124 0,-0.222 0,-0.074 0,-0.137 0,-0.186 0,-0.074 0,-0.161 0,-0.261 0,-0.049 0,-0.111 0,-0.186 0,-0.074 0,-0.149 0,-0.223 0,-0.074 0,-0.149 0,-0.224 0,-0.074 0,-0.135 0,-0.186 0,-0.098 0,-0.185 0,-0.26 0,-0.049 0,-0.111 0,-0.185 0,-0.1 0,-0.174 0,-0.224 0,-0.074 0,-0.148 0,-0.224 0,-0.073 0,-0.147 0,-0.222 0,-0.074 0,-0.149 0,-0.222 0,-0.05 0,-0.125 0,-0.225 0,-0.074 0,-0.135 0,-0.186 0,-0.074 0,-0.162 0,-0.26 0,-0.05 0,-0.112 0,-0.186 0,-0.075 0,-0.148 0,-0.223 0,-0.074 0,-0.149 0,-0.223 0,-0.074 0,-0.137 0,-0.187 0,-0.099 0,-0.186 0,-0.261 0,-0.049 0,-0.11 0,-0.186 0,-0.074 0,-0.135 0,-0.186 -0.05,0 -0.099,0 -0.149,0 -0.1,0 -0.186,0 -0.261,0 h -0.036 c -0.025,0 -0.05,0.013 -0.075,0.038 -0.025,0 -0.038,0.013 -0.038,0.038 h -0.037 c -0.024,0 -0.061,0.012 -0.111,0.036 -0.05,0 -0.1,0.012 -0.148,0.038 v 0.148 c -1.587,0.025 -3.173,0.038 -4.76,0.038 -0.149,0 -0.273,0 -0.373,0 v 0.186 l -0.074,0.074 v 0.038 l -0.038,0.037 v 0.038 h -0.037 l -0.036,0.038 v 0.074 h -0.038 c 0,0.024 -0.012,0.037 -0.037,0.037 v 0.074 c -0.024,0 -0.038,0.012 -0.038,0.038 v 0.074 h -0.037 l -0.075,0.075 v 0.037 c -0.024,0 -0.036,0.012 -0.036,0.037 V 23 h -0.038 v 0.075 h -0.037 v 0.036 c -0.024,0 -0.037,0.013 -0.037,0.037 v 0.039 h -0.075 v 0.074 h 0.037 v 0.111 l 0.038,0.037 v 0.038 c 0.024,0 0.037,0.012 0.037,0.036 v 0.038 h 0.037 v 0.037 c 0.025,0 0.038,0.012 0.038,0.037 v 0.446 c -0.025,0.025 -0.049,0.037 -0.075,0.037 -0.173,0 -0.36,0 -0.557,0 l -0.038,0.037 v 0.075 c -0.024,0 -0.037,0.013 -0.037,0.038 v 0.037 c 0,0.024 -0.012,0.037 -0.037,0.037 l -0.037,0.036 v 0.039 h -0.038 v 0.038 c 0,0.024 -0.012,0.037 -0.037,0.037 v 0.037 l -0.037,0.036 v 0.038 H 30.88 V 24.6 h -0.037 v 0.073 l -0.037,0.038 v 0.037 H 30.77 v 0.038 c 0,0.025 -0.013,0.036 -0.037,0.036 v 0.038 h -0.038 v 0.037 c 0,0.025 -0.012,0.038 -0.038,0.038 0,0.024 -0.012,0.037 -0.037,0.037 v 0.076 h -0.038 v 0.185 c 0,0.025 -0.012,0.038 -0.037,0.038 0,0.026 -0.013,0.038 -0.038,0.038 v 0.037 c -0.024,0.024 -0.049,0.037 -0.074,0.037 v 0.074 h -0.037 v 0.075 l -0.037,0.038 v 0.037 c 0,0.025 -0.013,0.037 -0.038,0.037 v 0.037 c 0,0.024 -0.012,0.037 -0.037,0.037 v 0.039 l -0.037,0.036 c 0,0.025 -0.012,0.038 -0.037,0.038 v 0.111 c 0,0.025 -0.013,0.038 -0.037,0.038 l -0.039,0.037 c 0,0.024 -0.011,0.037 -0.036,0.037 v 0.037 l -0.038,0.038 v 0.037 h -0.036 v 0.038 c -0.026,0.024 -0.051,0.038 -0.076,0.038 v 0.037 l -0.037,0.038 c 0,0.024 -0.013,0.037 -0.037,0.037 v 0.038 c 0,0.024 -0.012,0.037 -0.037,0.037 v 0.037 c 0,0.024 -0.012,0.037 -0.038,0.037 v 0.111 c -0.024,0 -0.037,0.012 -0.037,0.037 v 0.038 h -0.038 l 0.038,0.036 v 0.037 c 0.024,0 0.037,0.013 0.037,0.039 v 0.037 h 0.038 v 0.483 l -0.038,0.038 c 0,0.024 -0.013,0.037 -0.037,0.037 v 0.037 H 29.724 V 27.5 l -0.038,0.037 v 0.075 l -0.037,0.038 c -0.024,0 -0.05,0 -0.074,0 v 0.037 c -0.174,0 -0.36,0 -0.559,0 -0.023,-0.024 -0.061,-0.037 -0.111,-0.037 -0.025,0 -0.05,-0.013 -0.075,-0.038 C 28.806,27.587 28.781,27.574 28.757,27.574 28.732,27.549 28.694,27.537 28.645,27.537 28.571,27.513 28.508,27.5 28.459,27.5 v -0.037 c -0.075,-0.024 -0.149,-0.037 -0.223,-0.037 -0.074,-0.025 -0.137,-0.037 -0.186,-0.037 -0.049,0 -0.099,0 -0.148,0 -0.05,-0.026 -0.087,-0.037 -0.111,-0.037 -0.075,-0.025 -0.15,-0.038 -0.224,-0.038 -0.024,-0.025 -0.062,-0.038 -0.111,-0.038 -0.025,0 -0.062,-0.011 -0.112,-0.037 -0.05,-0.024 -0.086,-0.038 -0.11,-0.038 -0.051,-0.024 -0.101,-0.037 -0.149,-0.037 -0.025,0 -0.051,-0.013 -0.075,-0.039 -0.075,-0.024 -0.137,-0.036 -0.186,-0.036 -0.049,-0.025 -0.099,-0.038 -0.148,-0.038 -0.025,0 -0.063,0 -0.112,0 v -0.037 c -0.05,-0.025 -0.1,-0.037 -0.148,-0.037 -0.05,-0.024 -0.087,-0.038 -0.113,-0.038 -0.049,0 -0.098,-0.012 -0.148,-0.037 -0.049,-0.024 -0.1,-0.036 -0.149,-0.036 -0.024,-0.026 -0.062,-0.038 -0.111,-0.038 -0.049,-0.025 -0.1,-0.037 -0.15,-0.037 -0.074,0 -0.124,-0.012 -0.148,-0.039 -0.024,-0.024 -0.049,-0.037 -0.074,-0.037 -0.049,-0.024 -0.087,-0.036 -0.111,-0.036 -0.05,0 -0.1,0 -0.15,0 -0.073,-0.026 -0.135,-0.038 -0.186,-0.038 L 25.04,26.604 v -0.447 h 0.036 v -0.148 c 0.025,0 0.038,-0.012 0.038,-0.037 h 0.038 c 0,-0.025 0.012,-0.038 0.038,-0.038 V 25.9 l 0.037,-0.037 v -0.037 c 0.024,-0.025 0.049,-0.038 0.074,-0.038 v -0.111 h 0.037 V 25.64 c 0.025,0 0.051,0 0.075,0 v -0.074 h 0.037 v -0.038 c 0.025,-0.024 0.05,-0.038 0.074,-0.038 v -0.075 h 0.037 c 0.025,0 0.037,-0.012 0.037,-0.037 v -0.037 h 0.038 v -0.074 h 0.037 v -0.074 c 0.024,0 0.037,-0.013 0.037,-0.038 v -0.036 h 0.037 v -0.038 c 0.025,-0.025 0.05,-0.037 0.075,-0.037 v -0.076 h 0.038 c 0,-0.024 0.012,-0.037 0.037,-0.037 l 0.037,-0.038 V 24.86 l 0.038,-0.038 c 0,-0.024 0.013,-0.036 0.037,-0.036 v -0.149 c 0.025,0 0.037,-0.012 0.037,-0.037 v -0.038 h 0.075 v -0.074 l 0.074,-0.074 v -0.076 c 0.026,0 0.037,-0.011 0.037,-0.036 0.025,0 0.038,-0.013 0.038,-0.037 h 0.036 c 0,-0.024 0.013,-0.037 0.038,-0.037 v -0.112 l 0.075,-0.074 v -0.037 l 0.074,-0.074 c 0.025,0 0.037,-0.013 0.037,-0.037 v -0.038 h 0.076 v -0.075 l 0.037,-0.037 v -0.076 l 0.038,-0.037 v -0.074 h 0.037 V 23.52 h 0.038 l 0.074,-0.038 v -0.074 l 0.037,-0.037 v -0.074 h 0.037 V 23.26 c 0.025,0 0.037,-0.012 0.037,-0.037 v -0.037 h 0.037 l 0.038,-0.039 v -0.073 h 0.037 v -0.15 h 0.038 l 0.037,-0.037 v -0.075 c 0.025,0 0.05,0 0.074,0 h 0.039 V 22.7 h 0.036 c 0,-0.024 0.013,-0.037 0.037,-0.037 v -0.111 h 0.037 v -0.037 l 0.037,-0.038 h 0.038 v -0.075 c 0,-0.024 0.012,-0.038 0.037,-0.038 v -0.111 l 0.036,-0.037 c 0,-0.024 0.014,-0.037 0.039,-0.037 v -0.074 h 0.075 v -0.074 c 0.024,0 0.049,0 0.073,0 0,-0.024 0.013,-0.038 0.038,-0.038 v -0.038 c 0.024,0 0.037,-0.012 0.037,-0.037 v -0.111 l 0.038,-0.038 h 0.036 l 0.075,-0.074 v -0.074 c 0.024,0 0.05,0 0.075,0 0,-0.025 0.012,-0.038 0.037,-0.038 v -0.075 h 0.037 v -0.036 l 0.037,-0.038 v -0.037 h 0.037 c 0.025,0 0.038,-0.012 0.038,-0.037 v -0.038 l 0.037,-0.036 c 0,-0.026 0.013,-0.038 0.038,-0.038 v -0.073 h 0.038 v -0.037 l 0.036,-0.037 c 0.025,0 0.037,-0.014 0.037,-0.039 h 0.038 v -0.037 l 0.038,-0.037 V 20.913 H 28.47 V 20.77 h 0.037 v -0.038 l 0.037,-0.037 c 0.025,0 0.038,-0.013 0.038,-0.037 h 0.037 l 0.074,-0.075 v -0.038 c 0.025,0 0.038,-0.013 0.038,-0.037 v -0.037 h 0.038 v -0.075 c 0.024,0 0.037,-0.013 0.037,-0.038 l 0.037,-0.037 v -0.037 l 0.039,-0.038 v -0.037 h 0.037 l 0.037,-0.039 c 0,-0.024 0.013,-0.037 0.037,-0.037 l 0.037,-0.037 v -0.038 c 0.025,-0.024 0.049,-0.036 0.075,-0.036 v -0.038 h 0.074 v -0.112 h 0.038 V 19.76 l 0.037,-0.037 v -0.074 h 0.037 c 0,-0.025 0.013,-0.037 0.037,-0.037 v -0.298 h 0.038 V 19.17 l -0.038,-0.038 v -0.148 c -0.024,-0.025 -0.05,-0.037 -0.074,-0.037 V 18.91 c 0,-0.025 -0.012,-0.037 -0.037,-0.037 v -0.037 l -0.038,-0.038 c 0,-0.024 -0.012,-0.038 -0.037,-0.038 V 18.723 L 29.104,18.686 H 29.067 L 28.955,18.612 V 18.574 H 28.91 C 28.885,18.55 28.86,18.537 28.835,18.537 L 28.798,18.5 v -0.075 c -0.025,-0.024 -0.062,-0.036 -0.112,-0.036 l -0.037,-0.038 c 0,-0.025 -0.013,-0.038 -0.038,-0.038 -0.024,-0.024 -0.049,-0.037 -0.075,-0.037 0,-0.024 -0.012,-0.037 -0.037,-0.037 h -0.037 v -0.036 c 0,-0.026 -0.013,-0.038 -0.037,-0.038 -0.026,0 -0.038,-0.012 -0.038,-0.037 -0.025,-0.024 -0.049,-0.037 -0.075,-0.037 -1.189,-0.025 -2.367,-0.038 -3.532,-0.038 v -0.037 c -0.025,0 -0.038,-0.013 -0.038,-0.038 v -0.037 c 0,-0.024 -0.013,-0.037 -0.037,-0.037 l -0.148,-0.148 c -0.024,0 -0.049,-0.013 -0.074,-0.038 h -0.038 c -0.025,0 -0.05,0 -0.074,0 0,-0.025 -0.012,-0.038 -0.037,-0.038 -0.049,0 -0.087,0 -0.112,0 v 0.038 c -0.024,0 -0.049,0 -0.074,0 h -0.074 c -0.348,0 -0.67,0 -0.968,0 v -0.074 c -0.769,0 -1.537,0.013 -2.305,0.037 -0.025,0.025 -0.05,0.038 -0.075,0.038 -0.199,0 -0.384,0 -0.557,0 h -0.038 l -0.074,0.074 c -0.024,0 -0.038,0.013 -0.038,0.038 -0.024,0 -0.036,0.012 -0.036,0.036 h -0.038 c 0,0.025 -0.012,0.038 -0.037,0.038 h -0.037 v 0.037 l -0.038,0.037 c 0,0.025 -0.012,0.038 -0.036,0.038 0,0.025 -0.013,0.037 -0.039,0.037 v 0.038 l -0.036,0.037 c 0,0.025 -0.012,0.037 -0.038,0.037 v 0.074 c -0.025,0 -0.049,0 -0.074,0 l -0.039,0.037 H 19.54 v 0.037 l -0.038,0.038 c -0.024,0 -0.037,0.012 -0.037,0.038 -0.025,0 -0.037,0.012 -0.037,0.036 h -0.037 c -0.025,0.025 -0.05,0.037 -0.075,0.037 v 0.038 c -0.024,0 -0.037,0.012 -0.037,0.037 h -0.036 v 0.037 c -0.026,0.026 -0.05,0.038 -0.076,0.038 -0.024,0 -0.049,0 -0.074,0 -0.025,0 -0.037,0.012 -0.037,0.037 h -0.037 v 0.074 l -0.037,0.037 v 0.038 c 0,0.025 -0.013,0.038 -0.038,0.038 v 0.037 c -0.025,0 -0.037,0.012 -0.037,0.037 -0.025,0 -0.038,0.013 -0.038,0.038 h -0.037 c 0,0.024 -0.013,0.037 -0.037,0.037 v 0.037 c -0.026,0 -0.038,0.013 -0.038,0.038 H 18.72 v 0.074 c -0.024,0 -0.036,0.013 -0.036,0.038 l -0.075,0.074 v 0.037 c 0,0.025 -0.012,0.037 -0.038,0.037 h -0.037 c -0.024,0 -0.037,0.013 -0.037,0.038 H 18.46 c 0,0.024 -0.013,0.037 -0.037,0.037 v 0.037 c -0.025,0 -0.038,0.012 -0.038,0.038 -0.024,0 -0.037,0.011 -0.037,0.035 h -0.037 v 0.039 l -0.037,0.037 v 0.037 c -0.025,0 -0.038,0.012 -0.038,0.037 h -0.074 v 0.036 c -0.025,0 -0.037,0.014 -0.037,0.038 v 0.037 h -0.038 v 0.039 H 18.05 c 0,0.023 -0.012,0.037 -0.038,0.037 -0.024,0 -0.049,0.012 -0.074,0.037 H 17.9 v 0.037 c 0,0.025 -0.013,0.037 -0.037,0.037 v 0.038 h -0.038 v 0.038 l -0.036,0.036 V 20.1 l -0.039,0.037 c 0,0.025 0.013,0.05 0.039,0.075 v 0.037 c -0.025,0.025 -0.039,0.05 -0.039,0.075 0,0.025 0.013,0.037 0.039,0.037 0,0.024 0,0.05 0,0.075 0,0.024 0,0.05 0,0.074 0,0.024 0,0.049 0,0.075 0,0.025 0,0.049 0,0.075 v 0.074 c 0,0.025 0,0.049 0,0.075 0,0.025 0,0.049 0,0.074 0,0.025 0,0.05 0,0.074 0,0.025 0,0.05 0,0.074 v 0.037 c 0,0.025 0,0.051 0,0.076 0,0.024 0,0.049 0,0.074 v 0.036 c -0.025,0.025 -0.051,0.05 -0.075,0.074 0,0.025 0,0.05 0,0.075 -0.024,0 -0.05,0 -0.074,0 0,0.024 0,0.049 0,0.075 -0.025,0.024 -0.049,0.049 -0.074,0.074 -0.025,0.025 -0.05,0.037 -0.074,0.037 0,0.025 -0.013,0.038 -0.038,0.038 -0.025,0 -0.062,0.012 -0.111,0.037 -0.025,0 -0.05,0 -0.075,0 -0.024,-0.025 -0.049,-0.037 -0.074,-0.037 -0.024,0 -0.037,-0.013 -0.037,-0.038 -2.207,0 -4.413,0 -6.62,0 -0.769,0 -1.548,0 -2.343,0 -0.694,0 -1.388,0 -2.083,0 V 21.55 c -0.025,0 -0.049,0 -0.074,0 V 21.476 H 6.004 c 0,-0.026 -0.013,-0.038 -0.038,-0.038 V 21.29 c -0.024,0 -0.062,0 -0.11,0 v -0.038 c 0,-0.073 0,-0.135 0,-0.186 V 21.029 C 5.772,21.005 5.697,20.992 5.632,20.992 c 0,-0.025 0,-0.05 0,-0.075 V 20.88 c 0,-0.025 0,-0.049 0,-0.074 V 20.77 c 0,-0.025 0,-0.05 0,-0.074 -0.716,0 -1.422,0 -2.119,0 0,0.049 0,0.099 0,0.148 0,0.074 0,0.149 0,0.222 0,0.076 0,0.15 0,0.224 0,0.074 0,0.136 0,0.186 0,0.074 0,0.161 0,0.259 0,0.05 0,0.113 0,0.187 0,0.075 0,0.148 0,0.223 0,0.075 0,0.149 0,0.223 0,0.075 0,0.15 0,0.224 0,0.074 0,0.149 0,0.223 0,0.05 0,0.111 0,0.186 0,0.025 0,0.05 0,0.075 v 0.408 c -0.125,0 -0.248,0 -0.372,0 V 23.448 C 2.819,23.423 2.472,23.41 2.099,23.41 v 0.26 C 2.074,23.696 2.05,23.708 2.024,23.708 V 24.08 H 1.988 c -0.025,0 -0.05,0 -0.075,0 -0.147,0 -0.31,0 -0.482,0 0.024,0.001 0.036,0.013 0.036,0.037 l 0.037,0.037 H 1.467 c -0.049,0 -0.086,0 -0.111,0 L 1.318,24.19 c -0.024,0 -0.049,0 -0.074,0 -0.1,0 -0.174,0 -0.224,0 -0.123,0 -0.235,0 -0.334,0 v -0.038 c 0,-0.024 0,-0.062 0,-0.111 0,-0.025 0,-0.062 0,-0.111 v -0.075 c 0,-0.05 0,-0.1 0,-0.149 0,-0.025 0,-0.063 0,-0.111 0,-0.025 0,-0.049 0,-0.074 0,-0.05 0,-0.086 0,-0.112 0,-0.049 0,-0.087 0,-0.111 0,-0.049 0,-0.086 0,-0.111 0,-0.026 0,-0.063 0,-0.111 0,-0.05 0,-0.087 0,-0.113 0,-0.049 0,-0.086 0,-0.111 0,-0.024 0,-0.062 0,-0.111 0,-0.026 0,-0.062 0,-0.112 0,-0.025 0,-0.062 0,-0.111 0,-0.025 0,-0.05 0,-0.075 0,-0.05 0,-0.099 0,-0.148 0,-0.025 0,-0.063 0,-0.111 0.049,0 0.111,0 0.186,0 v -0.298 c 0,-0.024 0.013,-0.036 0.037,-0.036 v -0.038 c 0,-0.05 0,-0.124 0,-0.223 0,-0.075 0,-0.137 0,-0.186 0,-0.075 0,-0.149 0,-0.223 0,-0.074 0,-0.149 0,-0.224 0,-0.075 0,-0.148 0,-0.223 0,-0.074 0,-0.148 0,-0.223 0,-0.074 0,-0.136 0,-0.186 0,-0.075 0,-0.162 0,-0.261 0,-0.049 0,-0.111 0,-0.186 0,-0.073 0,-0.149 0,-0.223 0,-0.074 0,-0.15 0,-0.223 0,-0.074 0,-0.149 0,-0.224 0,-0.074 0,-0.148 0,-0.223 0,-0.049 0,-0.112 0,-0.186 0,-0.099 0,-0.173 0,-0.223 0,-0.074 0,-0.149 0,-0.223 0,-0.075 0,-0.148 0,-0.223 0,-0.074 0,-0.149 0,-0.223 0,-0.074 0,-0.148 0,-0.224 0,-0.075 0,-0.137 0,-0.186 0,-0.075 0,-0.161 0,-0.26 0,-0.049 0,-0.112 0,-0.186 0,-0.075 0,-0.149 0,-0.224 0,-0.075 0,-0.149 0,-0.223 0,-0.074 0,-0.136 0,-0.186 0,-0.099 0,-0.186 0,-0.261 0,-0.05 0,-0.111 0,-0.186 0,-0.099 0,-0.172 0,-0.223 0,-0.074 0,-0.148 0,-0.223 0,-0.073 0,-0.148 0,-0.224 0,-0.074 0,-0.148 0,-0.222 H 0.872 V 15.04 L 0.834,15.003 c -0.025,-0.024 -0.037,-0.05 -0.037,-0.074 0,-0.025 0,-0.049 0,-0.075 0,-0.024 0,-0.048 0,-0.074 v -0.037 c 0,-0.025 0,-0.05 0,-0.075 0,-0.023 0,-0.048 0,-0.073 0,-0.026 0,-0.051 0,-0.076 v -0.037 c 0,-0.024 0,-0.049 0,-0.074 v -0.039 c 0,-0.025 0,-0.049 0,-0.073 0,-0.025 0,-0.049 0,-0.075 0,-0.024 0,-0.049 0,-0.075 0,-0.024 0,-0.049 0,-0.074 v -0.074 c 0,-0.025 0,-0.049 0,-0.074 0,-0.026 0,-0.05 0,-0.075 0,-0.025 0,-0.05 0,-0.075 0,-0.025 0,-0.05 0,-0.075 v -0.037 c 0,-0.025 0,-0.049 0,-0.074 0,-0.025 0,-0.049 0,-0.075 V 13.439 H 0.723 c -0.025,0 -0.037,-0.013 -0.037,-0.038 v -0.186 c 0,-0.025 0,-0.051 0,-0.075 v -0.26 c -0.05,0 -0.112,0 -0.187,0 v -0.335 c 0.272,0 0.546,0 0.818,0 v 0.037 c 0.273,0 0.534,0 0.781,0 v 0.335 c -0.025,0 -0.062,0 -0.111,0 l 0.036,0.037 c 0.472,0 0.931,0 1.377,0 v 0.261 c 0.049,0 0.086,0 0.111,0 v 0.038 c 0,0.05 0,0.111 0,0.186 0,0.099 0,0.173 0,0.223 0,0.075 0,0.149 0,0.223 0,0.075 0,0.149 0,0.225 0,0.074 0,0.148 0,0.222 0,0.05 0,0.125 0,0.224 0,0.075 0,0.136 0,0.186 0,0.074 0,0.16 0,0.26 0,0.05 0,0.112 0,0.186 0,0.075 0,0.148 0,0.223 0,0.075 0,0.149 0,0.224 0,0.074 0,0.135 0,0.186 0,0.099 0,0.187 0,0.26 0,0.049 0,0.112 0,0.186 0.768,0 1.549,0 2.343,0 0,-0.074 0,-0.148 0,-0.223 0,-0.075 0,-0.148 0,-0.223 0,-0.051 0,-0.125 0,-0.223 0,-0.05 0,-0.099 0,-0.148 0.049,0 0.086,0 0.11,0 0.075,0 0.149,0 0.224,0 1.115,0 2.219,0 3.309,0 0,-0.051 0,-0.101 0,-0.15 0,-0.049 0,-0.099 0,-0.148 0,-0.049 0,-0.086 0,-0.112 0,-0.049 0,-0.099 0,-0.148 0,-0.051 0,-0.1 0,-0.149 0,-0.025 0,-0.063 0,-0.111 0,-0.05 0,-0.101 0,-0.149 v -0.037 c -0.942,0 -1.884,0 -2.826,0 v -0.075 c -0.125,0 -0.248,0 -0.372,0 v -0.445 c -0.025,0 -0.037,-0.013 -0.037,-0.039 V 13.59 H 6.228 v -0.037 c 0,-0.049 0,-0.111 0,-0.186 0,-0.025 0,-0.061 0,-0.111 0,-0.076 0,-0.137 0,-0.187 0,-0.074 0,-0.125 0,-0.148 0,-0.049 0,-0.112 0,-0.187 0,-0.05 0,-0.099 0,-0.148 0,-0.05 0,-0.111 0,-0.186 0,-0.05 0,-0.088 0,-0.112 0,-0.074 0,-0.136 0,-0.185 0,-0.075 0,-0.137 0,-0.187 0,-0.049 0,-0.1 0,-0.149 0,-0.049 0,-0.11 0,-0.186 0,-0.024 0,-0.074 0,-0.148 0,-0.05 0,-0.099 0,-0.149 0,-0.049 0,-0.098 0,-0.149 0,-0.074 0,-0.136 0,-0.187 0,-0.049 0,-0.098 0,-0.147 0,-0.05 0,-0.111 0,-0.186 -0.025,0 -0.038,-0.013 -0.038,-0.038 v -0.334 c 0,-0.024 0.012,-0.037 0.038,-0.037 V 10.06 c 0.049,0 0.099,0 0.147,0 V 9.911 c 0.05,0 0.1,-0.013 0.149,-0.038 V 9.8 c 0.075,0 0.149,-0.012 0.223,-0.038 0.025,0 0.038,-0.013 0.038,-0.038 0.124,0 0.248,0 0.373,0 3.147,0 6.284,0 9.406,0 0.1,0 0.187,0 0.261,0 0.446,-0.025 0.893,-0.037 1.339,-0.037 H 18.2 V 9.651 c 0.248,0.025 0.508,0.037 0.782,0.037 0.222,0.024 0.433,0.037 0.632,0.037 h 0.222 c 0.372,0 0.746,0 1.116,0 v 0.038 c 0.075,0 0.174,0 0.299,0 L 21.287,9.8 h 0.037 l 0.038,0.038 c 0,0.024 0.013,0.036 0.037,0.036 v 0.484 c -0.024,0 -0.037,0.012 -0.037,0.037 h -0.038 v 0.075 l -0.037,0.037 v 0.074 c -0.024,0 -0.036,0.012 -0.036,0.038 l -0.037,0.037 c 0,0.024 -0.013,0.038 -0.039,0.038 0,0.024 -0.012,0.036 -0.037,0.036 l -0.073,0.075 v 0.037 l -0.076,0.073 v 0.037 l -0.149,0.149 h -0.037 v 0.076 l -0.075,0.036 v 0.038 l -0.074,0.111 h -0.037 v 0.037 l -0.074,0.075 v 0.037 l -0.112,0.074 v 0.039 c -0.025,0 -0.037,0.012 -0.037,0.037 v 0.036 c 0,0.025 -0.013,0.038 -0.037,0.038 v 0.075 c -0.025,0 -0.051,0 -0.076,0 0,0.023 -0.013,0.037 -0.036,0.037 0,0.024 -0.012,0.037 -0.038,0.037 l -0.036,0.037 c -0.025,0 -0.05,0 -0.075,0 v 0.075 c -0.025,0 -0.037,0.013 -0.037,0.037 v 0.037 h -0.038 v 0.112 c -0.024,0 -0.036,0.013 -0.036,0.037 l -0.075,0.074 h -0.037 v 0.038 c -0.025,0 -0.038,0.012 -0.038,0.038 L 19.8,12.403 c 0,0.025 -0.013,0.037 -0.039,0.037 v 0.037 c -0.024,0 -0.036,0.013 -0.036,0.037 l -0.075,0.111 h -0.036 v 0.038 l -0.075,0.074 v 0.037 h -0.038 v 0.075 c -0.024,0 -0.037,0.013 -0.037,0.038 v 0.037 h -0.037 c 0,0.024 -0.013,0.037 -0.037,0.037 h -0.038 c -0.025,0 -0.037,0.012 -0.037,0.038 l -0.037,0.037 v 0.037 h -0.036 l -0.039,0.037 v 0.037 h -0.038 c 0,0.024 -0.012,0.037 -0.037,0.037 l -0.074,0.076 h -0.037 v 0.037 l -0.037,0.036 v 0.038 h -0.038 v 0.037 l -0.037,0.038 v 0.038 l -0.074,0.074 h -0.037 l -0.076,0.074 c -0.024,0 -0.036,0.012 -0.036,0.037 H 18.61 l -0.112,0.149 h -0.037 v 0.038 c -0.025,0 -0.037,0.012 -0.037,0.036 v 0.039 c -0.049,0 -0.087,0 -0.112,0 l -0.037,0.036 c 0,0.025 -0.013,0.038 -0.038,0.038 L 18.2,14.038 c -0.024,0 -0.05,0 -0.074,0 0,0.025 -0.013,0.038 -0.038,0.038 -0.025,0.025 -0.048,0.038 -0.074,0.038 l -0.036,0.036 v 0.038 h -0.076 c 0,0.025 -0.013,0.037 -0.037,0.037 L 17.791,14.3 h -0.039 v 0.036 c -0.025,0.025 -0.049,0.037 -0.074,0.037 h -0.037 c -0.049,0 -0.086,0 -0.112,0 v 0.039 c -0.049,0 -0.087,0 -0.111,0 -1.314,0 -2.628,0 -3.942,0 v 0.11 l -0.037,0.038 v 0.111 l -0.112,0.075 c 0,0.023 0,0.049 0,0.074 0,0.025 0,0.05 0,0.075 v 0.037 c 0,0.024 0,0.05 0,0.074 v 0.075 c 0,0.024 0,0.049 0,0.074 v 0.037 c 0,0.025 0,0.05 0,0.075 0,0.024 0,0.049 0,0.073 v 0.038 c 0,0.024 0,0.05 0,0.075 0.942,0 1.859,0 2.752,0 0.62,0 1.228,0 1.821,0 h 0.038 c 0,-0.025 0.012,-0.039 0.038,-0.039 v -0.037 c 0.024,0 0.036,-0.012 0.036,-0.038 h 0.038 c 0.024,0 0.049,-0.012 0.074,-0.037 0.024,0 0.037,-0.012 0.037,-0.036 H 18.2 c 0,-0.025 0.013,-0.038 0.037,-0.038 v -0.037 c 0.025,0 0.038,-0.012 0.038,-0.037 0.024,0 0.037,-0.013 0.037,-0.037 h 0.037 c 0,-0.025 0.013,-0.037 0.037,-0.037 h 0.038 l 0.074,-0.075 h 0.037 c 0,-0.024 0.012,-0.037 0.037,-0.037 v -0.074 c 0.025,0 0.038,-0.013 0.038,-0.039 v -0.037 c 0,-0.024 0.012,-0.037 0.037,-0.037 v -0.037 h 0.038 c 0.024,0 0.036,-0.013 0.036,-0.038 l 0.038,-0.038 v -0.073 c 0.025,0 0.038,-0.014 0.038,-0.038 h 0.037 c 0.025,-0.026 0.049,-0.038 0.074,-0.038 v -0.037 c 0.024,0 0.049,-0.013 0.075,-0.037 v -0.037 c 0,-0.026 0.013,-0.039 0.037,-0.039 v -0.037 l 0.037,-0.036 h 0.037 c 0,-0.025 0.012,-0.037 0.037,-0.037 v -0.075 c 0.025,0 0.037,-0.012 0.037,-0.038 h 0.038 v -0.074 c 0.025,0 0.039,-0.012 0.039,-0.038 h 0.036 l 0.037,-0.037 v -0.038 c 0,-0.024 0.012,-0.036 0.037,-0.036 v -0.075 h 0.038 L 19.43,13.81 c 0.024,-0.024 0.049,-0.037 0.073,-0.037 v -0.037 l 0.038,-0.038 h 0.036 c 0,-0.023 0.013,-0.037 0.039,-0.037 h 0.036 c 0.025,0 0.038,-0.013 0.038,-0.037 0,-0.024 0.013,-0.037 0.038,-0.037 V 13.55 h 0.036 c 0,-0.025 0.013,-0.038 0.039,-0.038 v -0.074 c 0.024,0 0.036,-0.013 0.036,-0.038 0.026,0 0.038,-0.012 0.038,-0.037 l 0.037,-0.038 c 0.024,0 0.05,0 0.075,0 v -0.036 l 0.036,-0.037 v -0.076 c 0.025,0 0.038,-0.013 0.038,-0.037 0.024,0 0.037,-0.013 0.037,-0.037 v -0.111 h 0.037 l 0.038,-0.038 c 0,-0.025 0.012,-0.037 0.036,-0.037 v -0.037 c 0.026,0 0.038,-0.012 0.038,-0.038 h 0.036 v -0.037 l 0.037,-0.038 v -0.037 c 0.025,0 0.039,-0.012 0.039,-0.037 l 0.037,-0.037 h 0.037 v -0.038 h 0.037 c 0.025,0 0.037,-0.012 0.037,-0.037 l 0.077,-0.074 v -0.037 c 0.024,0 0.036,-0.013 0.036,-0.037 0.024,0 0.037,-0.012 0.037,-0.037 h 0.037 c 0,-0.025 0.013,-0.037 0.038,-0.037 v -0.075 h 0.038 c 0,-0.025 0.012,-0.038 0.037,-0.038 0,-0.024 0.013,-0.037 0.037,-0.037 0.025,0 0.038,-0.012 0.038,-0.037 0.024,0 0.037,-0.012 0.037,-0.037 h 0.037 c 0,-0.025 0.012,-0.037 0.038,-0.037 v -0.075 c 0.025,0 0.038,-0.013 0.038,-0.037 0.025,0 0.038,-0.013 0.038,-0.038 V 11.91 c 0.023,0 0.036,-0.012 0.036,-0.037 0.024,0 0.037,-0.012 0.037,-0.037 h 0.037 c 0.025,-0.026 0.05,-0.037 0.076,-0.037 V 11.77 l 0.036,-0.036 v -0.038 h 0.037 c 0,-0.024 0.012,-0.036 0.038,-0.036 0,-0.025 0.013,-0.037 0.037,-0.037 v -0.039 h 0.038 v -0.11 c 0.024,0 0.037,-0.013 0.037,-0.038 h 0.038 c 0.075,0 0.136,0 0.186,0 v -0.038 c 0.224,0 0.446,0 0.669,0 h 0.038 c 0.099,0 0.211,0 0.334,0 0.05,0 0.087,0 0.112,0 0.049,0 0.099,0 0.148,0 0.074,0 0.136,0 0.186,0 h 0.037 c 0.273,0 0.545,0 0.817,0 h 0.298 v -0.037 h 0.037 v -0.038 l 0.037,-0.037 V 11.25 l 0.038,-0.038 h 0.075 v -0.036 c 0,-0.025 0.013,-0.051 0.037,-0.076 0,-0.024 0.012,-0.05 0.037,-0.073 0,-0.025 0,-0.05 0,-0.076 0,-0.023 0,-0.049 0,-0.074 v -0.073 c 0,-0.025 0,-0.05 0,-0.075 0,-0.024 0,-0.05 0,-0.074 0,-0.025 0,-0.05 0,-0.075 0.025,-0.025 0.05,-0.049 0.075,-0.074 0.025,0 0.05,0 0.074,0 h 0.038 V 10.32 c 0.025,0 0.038,-0.012 0.038,-0.037 0.049,-0.025 0.086,-0.038 0.111,-0.038 0.571,0 1.14,0 1.711,0 V 9.8 c -0.42,0 -0.855,0 -1.302,0 -0.075,0 -0.161,0 -0.261,0 -0.024,0 -0.048,0 -0.073,0 V 9.093 c 0.073,0 0.148,0 0.223,0 0.694,0 1.387,0 2.082,0 0,-0.025 0.012,-0.037 0.037,-0.037 l 0.037,-0.037 c 0.025,0 0.038,-0.013 0.038,-0.038 V 8.944 H 27.47 C 27.493,8.92 27.532,8.906 27.581,8.906 L 27.619,8.87 h 0.036 c 0,-0.025 0.013,-0.039 0.037,-0.039 h 0.038 c 0.173,0 0.347,0 0.521,0 0.024,0 0.049,0.013 0.074,0.039 h 0.037 c 0.025,0.024 0.05,0.036 0.076,0.036 v 0.038 h 0.037 l 0.037,0.075 c 0,0.024 0.012,0.037 0.037,0.037 V 9.39 c 0.819,0 1.625,0 2.417,0 v 0.074 c 0.025,0 0.05,0 0.075,0 v 0.074 c 0,0.025 0,0.051 0,0.075 v 0.038 c 0,0.025 0,0.049 0,0.074 0,0.024 0,0.051 0,0.075 0,0.025 0,0.049 0,0.074 0,0.025 0,0.049 0,0.075 v 0.037 c 0,0.024 0,0.05 0,0.074 v 0.037 c 0,0.025 0,0.05 0,0.075 v 0.038 c 1.14,0 2.293,0 3.458,0 0,-0.05 0,-0.1 0,-0.149 0,-0.074 0,-0.148 0,-0.222 0,-0.075 0,-0.15 0,-0.224 0,-0.075 0,-0.136 0,-0.186 0,-0.074 0,-0.162 0,-0.261 0,-0.048 0,-0.111 0,-0.186 0,-0.074 0,-0.149 0,-0.223 0,-0.074 0,-0.148 0,-0.223 0,-0.074 0,-0.136 0,-0.187 0,-0.098 0,-0.187 0,-0.259 0,-0.05 0,-0.113 0,-0.186 0,-0.1 0,-0.174 0,-0.224 0,-0.074 0,-0.148 0,-0.222 -0.248,0 -0.496,0 -0.745,0 0,0.024 -0.012,0.036 -0.037,0.036 L 33.67,7.532 h -0.037 c -0.049,0.024 -0.101,0.037 -0.149,0.037 h -0.037 c 0,0.024 -0.013,0.037 -0.037,0.037 -0.024,0 -0.038,0.013 -0.038,0.038 V 7.68 h -0.037 v 0.038 c -0.025,0 -0.037,0.012 -0.037,0.037 -0.024,0.024 -0.05,0.036 -0.075,0.036 l -0.037,0.038 c -0.026,0 -0.037,0.012 -0.037,0.037 -0.05,0 -0.087,0 -0.112,0 L 33,7.904 c -0.049,0 -0.099,0 -0.148,0 C 30.695,7.878 28.538,7.865 26.382,7.865 V 7.904 C 26.306,7.878 26.221,7.865 26.121,7.865 h -0.075 c 0,-0.075 0,-0.124 0,-0.147 V 7.494 c 0,-0.049 0,-0.099 0,-0.148 V 7.308 c 0,-0.074 0,-0.148 0,-0.223 0,-0.05 0,-0.112 0,-0.185 0,-0.075 0,-0.137 0,-0.187 0,-0.05 0,-0.112 0,-0.187 0,-0.074 0,-0.148 0,-0.222 0,-0.049 0,-0.099 0,-0.149 0,-0.074 0,-0.148 0,-0.222 0,-0.05 0,-0.111 0,-0.187 0,-0.049 0,-0.099 0,-0.148 0,-0.075 0,-0.148 0,-0.223 0,-0.075 0,-0.136 0,-0.187 0,-0.049 0,-0.111 0,-0.186 0,-0.073 0,-0.136 0,-0.186 0,-0.05 0,-0.111 0,-0.186 0.149,0 0.297,0 0.446,0 l 0.037,0.037 c 2.207,0 4.389,0.013 6.544,0.037 v 0.074 c 0.05,0 0.113,0 0.187,0 v 0.037 h 0.075 l 0.037,0.037 c 0.025,0.025 0.062,0.037 0.112,0.037 l 0.074,0.039 h 0.037 c 0.05,0.024 0.099,0.037 0.148,0.037 V 5.04 c 0.026,0 0.05,0 0.076,0 0,0.025 0.012,0.038 0.037,0.038 0.025,0 0.037,0.011 0.037,0.037 0.024,0 0.037,0.013 0.037,0.038 h 0.038 c 0.174,0 0.347,0 0.521,0 0,-0.025 0,-0.051 0,-0.075 0,-0.099 0,-0.175 0,-0.224 0,-0.074 0,-0.148 0,-0.223 0,-0.05 0,-0.124 0,-0.224 0.1,0 0.187,0 0.26,0 0.025,0 0.049,0 0.075,0 0.793,0 1.587,0 2.379,0 v 0.372 h -0.038 c 0,0.074 0,0.136 0,0.187 0,0.049 0,0.099 0,0.148 0.645,0 1.289,0 1.935,0 V 4.779 c 0.024,0 0.049,0 0.074,0 V 4.668 c 0.174,0 0.346,0 0.52,0 V 4.631 c -0.024,0 -0.049,-0.012 -0.073,-0.037 V 4.111 L 39.657,4.073 V 4.036 L 39.694,3.999 V 3.85 c 0.1,0.025 0.199,0.037 0.299,0.037 V 3.85 c 0,-0.049 0,-0.086 0,-0.11 0,-0.025 0,-0.051 0,-0.075 0,-0.025 0,-0.062 0,-0.111 0,-0.025 0,-0.051 0,-0.075 V 3.403 L 40.029,3.366 V 3.069 c 0.496,0 0.992,0 1.488,0 v 0.187 c 0.074,0 0.137,0 0.186,0 v 0.52 c -0.025,0 -0.037,0.013 -0.037,0.038 v 0.073 c 0,0.025 0,0.05 0,0.075 V 4 c 0.099,0 0.173,0 0.223,0 v 0.669 c 0.198,0 0.384,0 0.559,0 v 0.223 h 0.036 v 0.039 h 0.037 v 0.037 l 0.038,0.037 V 5.04 l 0.037,0.038 v 0.037 c 0.421,0 0.867,0 1.339,0 0,-0.075 0,-0.148 0,-0.224 0,-0.024 0,-0.061 0,-0.111 H 43.897 V 4.445 c 0.77,0 1.537,0 2.306,0 0.124,0 0.247,0 0.373,0 v 0.223 c 0,0.049 0,0.099 0,0.148 V 4.89 c 0,0.075 0,0.137 0,0.187 0.693,0 1.388,0 2.082,0 h 0.037 c 0,-0.024 0.013,-0.038 0.039,-0.038 0.024,0 0.062,-0.012 0.111,-0.037 V 4.966 c 0.025,-0.025 0.049,-0.037 0.074,-0.037 0.025,0 0.038,-0.014 0.038,-0.039 0.049,0 0.086,0 0.111,0 0.025,0 0.063,0 0.112,0 0.024,-0.024 0.061,-0.037 0.111,-0.037 0.05,-0.024 0.1,-0.037 0.149,-0.037 h 0.075 c 0.024,0 0.05,-0.012 0.074,-0.037 h 0.037 l 0.038,-0.037 c 0.024,0 0.048,0 0.074,0 0.026,-0.025 0.05,-0.037 0.075,-0.037 L 49.85,4.668 c 0.049,0 0.112,0 0.186,0 0.025,0 0.062,-0.013 0.112,-0.037 0.049,-0.024 0.086,-0.037 0.111,-0.037 h 0.038 c 0,-0.025 0.012,-0.038 0.037,-0.038 0.049,0 0.111,0 0.186,0 V 4.52 h 0.038 c 0.024,-0.024 0.049,-0.037 0.074,-0.037 l 0.037,-0.037 c 0.025,0 0.062,0 0.112,0 0.049,0 0.098,-0.012 0.148,-0.038 h 0.038 C 51.016,4.383 51.077,4.37 51.154,4.37 h 0.037 c 0.024,-0.024 0.062,-0.037 0.111,-0.037 0.025,0 0.062,-0.012 0.112,-0.037 h 0.037 c 0.024,-0.025 0.062,-0.038 0.111,-0.038 0.075,-0.024 0.125,-0.037 0.149,-0.037 l 0.037,-0.038 c 0.05,0 0.1,0 0.149,0 0.075,0 0.136,0 0.186,0 h 0.037 c 0.026,-0.024 0.062,-0.037 0.111,-0.037 h 0.038 C 52.318,4.122 52.356,4.11 52.38,4.11 c 0.074,0 0.149,-0.013 0.224,-0.038 V 4.036 h 0.037 C 52.665,4.012 52.69,3.999 52.715,3.999 V 3.961 c 0.075,0 0.161,0 0.261,0 0.074,0 0.136,-0.012 0.186,-0.037 h 0.037 C 53.247,3.9 53.31,3.886 53.385,3.886 h 0.037 c 0.024,-0.024 0.074,-0.037 0.149,-0.037 0.049,0 0.098,0 0.148,0 0.075,-0.024 0.148,-0.036 0.223,-0.036 0.074,-0.025 0.136,-0.038 0.185,-0.038 l 0.037,-0.036 c 0.025,0 0.05,0 0.075,0 h 0.038 c 0.049,0 0.087,0 0.111,0 0.025,0 0.037,-0.013 0.037,-0.039 L 54.462,3.663 V 3.589 h 0.037 V 3.553 c 0.124,0 0.236,0 0.334,0 v 0.148 c 1.884,-0.024 3.781,-0.037 5.689,-0.037 h 0.037 c 0.049,0 0.099,0 0.148,0 0.126,0 0.249,0 0.373,0 v 0.222 c 0,0.025 0,0.063 0,0.112 0,0.049 0,0.099 0,0.148 0,0.05 0,0.112 0,0.186 0,0.074 0,0.149 0,0.223 0,0.075 0,0.149 0,0.223 0,0.074 0,0.136 0,0.187 0,0.099 0,0.186 0,0.26 0,0.049 0,0.111 0,0.187 0,0.099 0,0.173 0,0.223 0,0.074 0,0.147 0,0.223 0,0.049 0,0.123 0,0.223 0,0.074 0,0.148 0,0.223 0,0.049 0,0.124 0,0.222 0,0.075 0,0.137 0,0.187 0,0.074 0,0.148 0,0.223 0,0.075 0,0.149 0,0.223 0,0.075 0,0.136 0,0.186 0,0.099 0,0.187 0,0.26 0,0.074 0,0.136 0,0.185 0,0.1 0,0.186 0,0.261 0,0.051 0,0.11 0,0.186 0,0.074 0,0.149 0,0.223 0,0.074 0,0.149 0,0.223 0,0.049 0,0.123 0,0.223 -0.124,0 -0.247,0 -0.373,0 V 8.871 c -1.907,0 -3.816,0 -5.726,0 H 54.94 c -0.174,0 -0.36,0 -0.558,0 C 54.307,8.846 54.233,8.832 54.158,8.832 54.134,8.832 54.121,8.82 54.121,8.795 54.072,8.771 54.01,8.758 53.936,8.758 c -0.025,0 -0.05,0 -0.075,0 -0.073,0 -0.136,-0.013 -0.187,-0.038 V 8.684 C 53.65,8.659 53.613,8.646 53.564,8.646 53.514,8.622 53.465,8.61 53.415,8.61 L 53.378,8.572 C 53.303,8.547 53.23,8.535 53.155,8.535 L 53.081,8.497 c -0.026,0 -0.05,-0.012 -0.074,-0.037 -0.051,-0.024 -0.1,-0.037 -0.15,-0.037 -0.049,0 -0.098,0 -0.149,0 C 52.684,8.398 52.647,8.385 52.598,8.385 52.573,8.385 52.536,8.372 52.486,8.347 52.436,8.322 52.4,8.31 52.375,8.31 52.326,8.285 52.275,8.273 52.226,8.273 52.177,8.273 52.128,8.261 52.078,8.236 V 8.201 C 52.028,8.176 51.991,8.162 51.967,8.162 51.917,8.138 51.855,8.126 51.781,8.126 51.732,8.126 51.682,8.113 51.633,8.089 51.582,8.064 51.546,8.051 51.521,8.051 c -0.074,0 -0.136,0 -0.185,0 C 51.31,8.051 51.26,8.039 51.187,8.014 51.111,7.989 51.038,7.975 50.964,7.975 50.937,7.952 50.898,7.94 50.85,7.94 50.8,7.916 50.751,7.904 50.701,7.904 50.65,7.904 50.615,7.89 50.589,7.865 50.54,7.841 50.503,7.828 50.478,7.828 H 50.44 C 50.391,7.803 50.342,7.79 50.292,7.79 V 7.755 c -0.025,0 -0.05,0 -0.076,0 V 7.718 c -0.024,0 -0.049,0 -0.073,0 C 50.093,7.693 50.056,7.68 50.031,7.68 49.982,7.68 49.946,7.668 49.92,7.643 49.87,7.619 49.821,7.605 49.771,7.605 49.721,7.58 49.672,7.568 49.623,7.568 49.574,7.542 49.512,7.531 49.437,7.531 c -0.918,0 -1.835,0 -2.752,0 v 0.037 c -0.049,0 -0.099,0 -0.147,0 0,0.074 0,0.124 0,0.149 0,0.073 0,0.147 0,0.222 0.024,0.075 0.037,0.149 0.037,0.222 0,0.076 0,0.15 0,0.225 0,0.05 0,0.124 0,0.224 0,0.074 0,0.135 0,0.185 0,0.075 0,0.162 0,0.261 0,0.05 0,0.111 0,0.186 0,0.074 0,0.149 0,0.223 0,0.074 0,0.148 0,0.223 0,0.075 -0.013,0.137 -0.037,0.186 0,0.1 0,0.186 0,0.26 0,0.025 0,0.05 0,0.075 4.908,0 9.816,0 14.725,0 v -0.038 c 0,-0.025 0,-0.05 0,-0.075 0,-0.025 0,-0.049 0,-0.074 V 9.985 c 0,-0.025 0,-0.05 0,-0.074 V 9.874 c 0,-0.024 0,-0.049 0,-0.074 V 9.725 c 0,-0.025 0,-0.049 0,-0.074 V 9.613 c 0,-0.024 0,-0.05 0,-0.075 0,-0.025 0,-0.049 0,-0.074 0,-0.024 0,-0.049 0,-0.074 L 61.226,9.353 V 8.758 c 0.074,0 0.137,0 0.186,0 V 8.684 c 0.868,0 1.723,0 2.565,0 V 8.72 c 0.099,0 0.198,0 0.298,0 0.025,0 0.049,0.013 0.075,0.038 h 0.037 v 0.037 l 0.037,0.037 c 0.025,0 0.05,0.013 0.073,0.039 v 0.036 h 0.039 l 0.038,0.038 c 0.049,0 0.074,0.013 0.074,0.037 V 9.02 h 0.036 c 0,0.024 0.013,0.037 0.039,0.037 0.024,0 0.062,0.012 0.111,0.037 V 8.72 c 0.024,0 0.05,0 0.074,0 V 8.684 c 0.298,0 0.596,0 0.893,0 h 0.037 l 0.037,0.036 v 0.038 c 0.025,0 0.05,0 0.074,0 v 0.148 h 0.039 v 0.038 l 0.036,0.037 c 0.025,0 0.037,0.012 0.037,0.038 v 0.074 h 0.037 v 0.074 h 0.037 v 0.075 c 0.025,0 0.039,0.012 0.039,0.037 v 0.075 h 0.036 v 0.037 c 0,0.025 0.013,0.037 0.037,0.037 v 0.037 h 0.037 v 0.112 c 0.025,0 0.038,0.013 0.038,0.037 V 9.763 L 66.356,9.8 v 0.409 c 0.992,0 1.996,0 3.012,0 0.024,-0.025 0.049,-0.038 0.075,-0.038 0.024,0 0.061,0.012 0.111,0.038 h 0.037 c 2.182,0 4.375,0 6.583,0 v 0.26 c 0.173,0.024 0.334,0.037 0.483,0.037 v 0.335 c -0.124,0 -0.261,0 -0.41,0 v 0.223 c 0,0.025 0.013,0.037 0.038,0.037 0.074,0 0.161,0 0.26,0 v 0.112 h 0.036 v 0.371 c -0.024,0 -0.049,0 -0.073,0 0,0.025 0,0.051 0,0.076 0,0.049 0,0.11 0,0.186 0,0.049 0,0.086 0,0.111 0,0.05 0,0.111 0,0.186 0,0.05 0,0.1 0,0.148 0,0.05 0,0.1 0,0.149 0,0.074 0,0.136 0,0.186 0,0.05 0,0.099 0,0.148 0,0.051 0,0.113 0,0.187 0,0.025 0,0.075 0,0.149 0,0.05 0,0.112 0,0.187 0,0.024 0,0.062 0,0.111 0,0.075 0,0.137 0,0.186 0,0.049 0,0.088 0,0.111 3.049,0 6.086,0 9.111,0 0,-0.023 0,-0.05 0,-0.074 0,-0.049 0,-0.099 0,-0.148 0,-0.05 0,-0.1 0,-0.15 0.023,0 0.049,0 0.074,0 0.148,0 0.297,0 0.447,0 v 0.186 c 0,0.05 0,0.087 0,0.112 0.024,0 0.062,0 0.111,0 h 0.038 c 0.198,0 0.396,0 0.593,0 v -0.298 c 0.075,0 0.149,0 0.224,0 v 0.075 l 0.037,0.075 v 0.036 l 0.111,0.112 c 0.025,0 0.038,0.012 0.038,0.037 0.024,-0.025 0.049,-0.025 0.074,0 0,-0.049 0,-0.086 0,-0.111 0,-0.049 0,-0.111 0,-0.186 0,-0.025 0,-0.049 0,-0.074 0.075,0 0.137,0 0.187,0 v 0.036 c 0.049,0 0.098,0 0.148,0 v 0.075 c 0.024,0 0.037,0.013 0.037,0.038 v 0.223 c 1.612,0 3.212,0 4.797,0 v -0.223 c 0.149,0 0.285,0 0.409,0 v 0.223 c 1.314,0 2.627,0 3.942,0 v 0.187 c 0,0.025 0,0.049 0,0.075 0,0.024 0,0.049 0,0.074 v 0.037 c 0,0.05 0,0.087 0,0.111 -10e-4,0.023 -10e-4,0.048 -10e-4,0.072 z M 63.306,10.209 c 0.496,0 1.004,0 1.525,0 V 9.985 c -0.521,0 -1.03,0 -1.525,0 z M 43.895,5.486 43.933,5.523 V 5.486 Z m -3.903,2.269 c -0.274,0 -0.558,0 -0.856,0 V 7.494 c -0.621,0 -1.253,0 -1.896,0 v 0.038 h -0.076 v 0.037 c 0,0.074 0,0.149 0,0.222 0,0.075 0,0.149 0,0.225 0,0.049 0,0.123 0,0.223 0,0.074 0.013,0.136 0.038,0.187 0,0.073 0,0.148 0,0.222 -0.024,0.074 -0.038,0.149 -0.038,0.224 0,0.074 0,0.148 0,0.223 0.026,0 0.051,0 0.076,0 2.229,0.025 4.461,0.037 6.693,0.037 0,-0.024 0,-0.05 0,-0.074 0,-0.099 0,-0.186 0,-0.261 0,-0.05 0,-0.111 0,-0.185 0,-0.1 0,-0.174 0,-0.224 0,-0.075 0,-0.149 0,-0.225 0,-0.073 0,-0.147 0,-0.222 0,-0.075 0,-0.149 0,-0.222 0,-0.05 0,-0.112 0,-0.186 C 43.636,7.508 43.338,7.495 43.04,7.495 h -0.111 c -0.148,0 -0.297,0 -0.447,0 v 0.261 c -0.322,0 -0.657,0 -1.004,0 V 8.053 C 41.007,8.028 40.511,8.016 39.992,8.016 Z m -6.62,11.266 v 0.149 h -0.037 v 0.26 c -0.025,0.025 -0.05,0.038 -0.075,0.038 0,0.023 -0.012,0.035 -0.037,0.035 v 0.039 c 0,0.024 0,0.062 0,0.111 0,0.024 0,0.05 0,0.074 0,0.05 0,0.088 0,0.112 0,0.05 0,0.099 0,0.148 0,0.024 0,0.062 0,0.111 0,0.025 0,0.062 0,0.112 0,0.025 0,0.062 0,0.111 0,0.024 0,0.049 0,0.074 0,0.05 0,0.099 0,0.148 0,0.025 0,0.063 0,0.113 0,0.024 0,0.049 0,0.074 0,0.049 0,0.087 0,0.112 0,0.024 0,0.049 0,0.074 h 0.037 c 0,0.024 0.014,0.037 0.038,0.037 v 0.111 l 0.074,0.076 v 0.074 l 0.038,0.036 c 0.024,0 0.037,0.012 0.037,0.038 0.025,0 0.037,0.012 0.037,0.036 l 0.036,0.038 c 0.025,0.025 0.051,0.037 0.075,0.037 h 0.038 v 0.037 l 0.037,0.038 c 0.024,0 0.049,0.013 0.073,0.036 0.026,0.026 0.05,0.038 0.076,0.038 0.024,0.025 0.049,0.037 0.074,0.037 0.05,0 0.099,0.013 0.148,0.038 1.017,0 2.057,0 3.124,0 0.026,-0.025 0.051,-0.038 0.076,-0.038 0.049,0 0.098,-0.012 0.148,-0.037 0.024,-0.025 0.061,-0.038 0.111,-0.038 v -0.074 c 0.025,-0.025 0.05,-0.037 0.075,-0.037 h 0.038 V 21.29 h 0.036 v -0.038 l 0.075,-0.073 v -0.037 c 0.025,-0.025 0.05,-0.037 0.075,-0.037 v -0.039 h 0.036 c 0,-0.024 0,-0.049 0,-0.073 0,-0.025 0,-0.05 0,-0.075 0,-0.025 0,-0.062 0,-0.111 0,-0.025 0,-0.05 0,-0.075 v -0.037 c 0,-0.05 0,-0.087 0,-0.112 0,-0.025 0,-0.051 0,-0.075 0,-0.05 0,-0.086 0,-0.111 V 20.36 c 0,-0.024 0,-0.061 0,-0.111 0,-0.024 0,-0.05 0,-0.075 0,-0.024 0,-0.049 0,-0.074 0,-0.049 0,-0.087 0,-0.111 v -0.038 c 0,-0.025 0,-0.061 0,-0.111 0,-0.024 0,-0.049 0,-0.076 0,-0.025 0,-0.061 0,-0.11 l -0.036,-0.037 v -0.298 c -0.025,0 -0.037,-0.012 -0.037,-0.037 -0.025,0 -0.038,-0.012 -0.038,-0.037 h -0.038 l -0.037,-0.038 v -0.074 c 0,-0.025 -0.013,-0.037 -0.036,-0.037 V 19.021 L 37.538,18.947 H 37.5 c -0.024,0 -0.05,0 -0.074,0 h -0.037 c -0.497,0 -1.004,0 -1.525,0 h -0.038 v 0.037 c -0.024,0 -0.037,0.012 -0.037,0.037 h -0.038 l -0.036,0.038 c -0.025,0 -0.038,0.012 -0.038,0.037 -0.024,0 -0.037,0.012 -0.037,0.037 h -0.037 c -0.026,0 -0.05,0.013 -0.075,0.038 -0.025,0 -0.038,0.011 -0.038,0.037 -0.024,0.024 -0.049,0.038 -0.073,0.038 l -0.039,0.037 c -0.024,0 -0.037,0.012 -0.037,0.037 h -0.038 v 0.038 c -0.024,0 -0.037,0.012 -0.037,0.037 h -0.037 v 0.037 l -0.073,0.112 c -0.026,0 -0.039,0.012 -0.039,0.037 h -0.036 l -0.074,0.074 c -0.024,0 -0.049,0.011 -0.075,0.036 v 0.038 l -0.038,0.037 v 0.039 l -0.037,0.037 v 0.037 l -0.074,0.074 v 0.038 l -0.037,0.038 V 20.1 l -0.038,0.037 v 0.037 l -0.036,0.039 v 0.111 c -0.025,0.024 -0.051,0.037 -0.075,0.037 v 0.149 c 0.024,0 0.037,0.013 0.037,0.037 0.024,0 0.038,0.013 0.038,0.038 v 0.223 l 0.036,0.037 v 0.222 h 0.038 v 0.076 c 0.025,0 0.037,0.012 0.037,0.037 v 0.037 c 0,0.024 0.012,0.036 0.038,0.036 0.024,0 0.037,0.012 0.037,0.038 v 0.186 c -0.049,0 -0.086,0 -0.111,0 -0.025,0 -0.062,0 -0.111,0 -0.025,0 -0.062,0 -0.111,0 L 34.487,21.439 V 21.402 H 34.376 V 21.365 H 34.338 L 34.264,21.291 V 21.217 L 34.226,21.18 V 21.106 H 34.19 v -0.039 c -0.023,0 -0.037,-0.012 -0.037,-0.037 V 20.956 L 34.116,20.919 V 20.77 H 34.078 V 20.509 L 34.041,20.472 V 20.36 h -0.037 v -0.037 c 0,-0.024 0,-0.049 0,-0.075 v -0.037 c 0,-0.025 0,-0.05 0,-0.075 v -0.223 c 0,-0.024 0,-0.049 0,-0.074 v -0.037 c 0,-0.026 0,-0.051 0,-0.076 v -0.074 c 0,-0.025 0,-0.05 0,-0.074 v -0.076 c 0,-0.024 0,-0.048 0,-0.073 v -0.037 c 0,-0.025 0,-0.05 0,-0.075 v -0.074 l 0.037,-0.038 v -0.26 c -0.099,0 -0.198,0 -0.298,0 v 0.037 c -0.073,0 -0.172,0 -0.296,0 H 33.41 v 0.037 h -0.038 z m -11.23,-7.213 c 0,-0.026 0.014,-0.039 0.039,-0.039 v -0.036 h -0.039 z m -18.63,5.353 c 0,0.052 0,0.125 0,0.224 0,0.074 0,0.136 0,0.186 0,0.075 0,0.149 0,0.223 0,0.074 0,0.149 0,0.224 0,0.075 0,0.148 0,0.223 0,0.075 0,0.15 0,0.223 0,0.075 0,0.138 0,0.187 0,0.098 0,0.186 0,0.26 0,0.05 0,0.112 0,0.187 0,0.074 0,0.148 0,0.223 0,0.075 0,0.15 0,0.224 0,0.074 0,0.147 0,0.222 0,0.076 0,0.149 0,0.224 0,0.024 0,0.062 0,0.111 0.697,0 1.403,0 2.119,0 0,-0.025 0,-0.049 0,-0.074 V 19.99 c 0,-0.025 0,-0.05 0,-0.075 v -0.037 c 0.076,0 0.149,0 0.224,0 V 19.84 H 5.818 v -0.707 c 0,-0.025 0.012,-0.037 0.038,-0.037 0,-0.075 0,-0.149 0,-0.224 0,-0.074 0,-0.149 0,-0.223 V 18.5 c 0,-0.024 0,-0.049 0,-0.075 0,-0.074 0,-0.136 0,-0.186 0,-0.074 0,-0.161 0,-0.261 0,-0.049 0,-0.111 0,-0.186 0,-0.074 0,-0.148 0,-0.223 0,-0.075 0,-0.149 0,-0.223 0,-0.074 0,-0.135 0,-0.187 0,-0.049 0,-0.098 0,-0.147 -0.299,0 -0.608,0 -0.93,0 -0.049,0 -0.124,0 -0.223,0 -0.397,0 -0.793,0 -1.19,0 -10e-4,0.051 -10e-4,0.1 -10e-4,0.149 z m 11.193,2.679 c 0.024,0 0.049,0 0.074,0 0,-0.024 -0.012,-0.037 -0.038,-0.037 z"
   id="path268" />
		</g>
	</g>
</g>

</svg>
