<?xml version="1.0" encoding="UTF-8" standalone="no"?>
<!-- Generator: Adobe Illustrator 16.0.0, SVG Export Plug-In . SVG Version: 6.00 Build 0)  -->

<svg
   version="1.1"
   x="0px"
   y="0px"
   width="104.667"
   height="41"
   viewBox="0 0 104.667 41"
   enable-background="new 0 0 89.667 32"
   xml:space="preserve"
   id="svg405"
   xmlns="http://www.w3.org/2000/svg"
   xmlns:svg="http://www.w3.org/2000/svg"><defs
   id="defs409" />
<g
   id="Selected_Items"
   transform="translate(0,6)">
	<g
   id="g401">
		<g
   id="Selected_Items_63_">
			<path
   fill-rule="evenodd"
   clip-rule="evenodd"
   fill="#ffffff"
   d="m 26.496,2.11 h 0.044 c 0,-0.03 0.015,-0.045 0.046,-0.045 V 2.021 c 0.029,0 0.06,0 0.089,0 V 1.932 H 26.72 L 26.764,1.887 V 1.708 L 26.81,1.663 V 1.08 c 0,-0.03 0,-0.061 0,-0.09 V 0.81 c 0.178,0 0.329,0 0.449,0 0,-0.03 0,-0.074 0,-0.135 0.209,0 0.418,0 0.627,0 V 0.72 c 0,0.06 0,0.135 0,0.224 0,0.06 0,0.121 0,0.18 0,0.09 0,0.165 0,0.224 0,0.06 0,0.12 0,0.18 0,0.089 0,0.164 0,0.225 0,0.06 0,0.119 0,0.179 0,0.089 0,0.164 0,0.224 0,0.059 0,0.134 0,0.225 0,0.059 0,0.104 0,0.134 0.15,0 0.3,0 0.448,0 0.21,0 0.419,0 0.629,0 V 2.201 c 0.209,0 0.419,0 0.627,0 v 0.18 l 0.045,0.045 V 2.56 c 0.12,-0.03 0.225,-0.03 0.315,0 V 2.514 c 0,-0.029 0,-0.06 0,-0.089 0,-0.03 0,-0.06 0,-0.09 0,-0.03 0,-0.06 0,-0.09 0,-0.03 0,-0.059 0,-0.089 0,-0.03 0,-0.06 0,-0.09 0,-0.029 0,-0.06 0,-0.089 v -0.09 h 0.089 V 1.841 c 0.269,0 0.554,0 0.853,0 V 1.796 c 0.209,0 0.419,0 0.628,0 0,0.06 0,0.105 0,0.135 v 0.224 c 0,0.03 0,0.059 0,0.089 v 0.09 c 0,0.03 0,0.06 0,0.09 0,0.029 0,0.06 0,0.089 v 0.045 c 1.525,0 3.065,0 4.62,0 V 2.11 h 0.044 c 1.018,0 2.019,0 3.006,0 V 2.02 c 0,-0.03 0,-0.059 0,-0.089 V 1.886 c 0,-0.03 0,-0.06 0,-0.09 0,-0.03 0,-0.059 0,-0.089 v -0.09 c 0,-0.029 0,-0.06 0,-0.089 V 1.483 c 0.209,0 0.419,0 0.628,0 v 0.494 c 0,0.029 0.016,0.044 0.045,0.044 v 0.18 c 0.149,0 0.299,0 0.448,0 v 0.807 c -0.029,0 -0.06,0.015 -0.09,0.045 v 0.089 h -0.044 v 0.18 c -0.03,0 -0.045,0.014 -0.045,0.044 v 0.045 c -0.03,0 -0.045,0.015 -0.045,0.045 v 0.09 H 40.043 V 3.59 l -0.046,0.045 v 0.09 L 39.953,3.77 V 3.814 L 39.907,3.86 v 0.09 h -0.045 v 0.045 l -0.045,0.044 -0.045,0.089 c 0,0.032 -0.014,0.046 -0.044,0.046 0,0.029 -0.015,0.045 -0.045,0.045 v 0.135 l -0.045,0.045 v 0.045 h -0.045 v 0.133 h -0.045 v 0.091 h -0.044 v 0.089 c -0.03,0 -0.045,0.015 -0.045,0.044 v 0.045 h -0.045 v 0.046 l -0.045,0.044 v 0.135 h -0.045 v 0.046 c 0,0.029 -0.014,0.044 -0.044,0.044 v 0.134 c -0.03,0 -0.045,0.016 -0.045,0.046 V 5.385 H 39.19 V 5.474 H 39.146 V 5.565 H 39.1 v 0.044 c -0.029,0 -0.044,0.015 -0.044,0.045 V 5.788 H 39.01 V 5.833 H 38.965 V 5.922 L 38.92,5.967 H 38.875 V 6.102 H 38.83 v 0.089 h -0.045 v 0.18 H 38.74 c 0,0.03 -0.015,0.045 -0.044,0.045 V 6.461 L 38.65,6.506 38.606,6.595 c -0.03,0 -0.045,0.015 -0.045,0.045 v 0.045 c -0.03,0 -0.045,0.015 -0.045,0.045 V 6.775 H 38.472 V 6.91 c 0.494,0 1.002,0 1.524,0 v 0.404 c 1.107,0 2.213,0 3.32,0 0.928,0 1.854,0 2.781,0 v 0.404 c 8.761,0 17.522,0 26.284,0 v 0.224 c 0.119,0 0.239,0 0.358,0 V 7.673 c 0.091,0 0.194,0 0.315,0 0,-0.061 0,-0.121 0,-0.181 0,-0.09 0,-0.179 0,-0.268 0,-0.09 0,-0.18 0,-0.27 0,-0.09 0,-0.179 0,-0.27 0,-0.06 0,-0.134 0,-0.224 0,-0.121 0,-0.209 0,-0.27 0,-0.089 0,-0.179 0,-0.269 0,-0.089 0,-0.179 0,-0.269 0,-0.09 0,-0.18 0,-0.27 0,-0.09 0,-0.179 0,-0.268 0,-0.091 0,-0.181 0,-0.271 0,-0.059 0,-0.134 0,-0.223 0,-0.121 0,-0.209 0,-0.269 0,-0.091 0,-0.18 0,-0.27 0,-0.089 0,-0.179 0,-0.269 0,-0.089 0,-0.179 0,-0.269 0,-0.06 0,-0.15 0,-0.269 0,-0.09 0,-0.166 0,-0.224 0,-0.061 0,-0.105 0,-0.136 0.089,0 0.179,0 0.269,0 0.119,0 0.24,0 0.359,0 0.089,0 0.179,0 0.269,0 h 0.045 v 0.045 c 0.06,0 0.104,0 0.135,0 l 0.044,0.045 v 0.314 c 0.09,0 0.18,0 0.269,0 h 0.045 c 0.031,0.029 0.06,0.044 0.09,0.044 V 3.86 c 0,0.09 0,0.179 0,0.268 v 0.046 c 0,0.059 0,0.119 0,0.18 0.089,0 0.194,0 0.313,0 v 0.358 h 0.09 v 0.045 c 0,0.061 0,0.149 0,0.269 0,0.091 0,0.165 0,0.224 0,0.091 0,0.194 0,0.315 0,0.089 0,0.164 0,0.224 0,0.09 0,0.179 0,0.269 0,0.089 0,0.179 0,0.27 0,0.089 0,0.179 0,0.268 0,0.09 0,0.18 0,0.269 0,0.09 0,0.165 0,0.225 0,0.089 0,0.164 0,0.224 0.12,0 0.24,0 0.358,0 0.12,0.03 0.225,0.045 0.315,0.045 H 75.7 c 0.03,0 0.059,0 0.089,0 v 0.044 c 0,0.06 0,0.121 0,0.18 0,0.06 0,0.104 0,0.135 0,0.06 0,0.12 0,0.18 0,0.089 0,0.164 0,0.224 0,0.059 0,0.104 0,0.134 v 0.091 c 0.09,0 0.166,0 0.224,0 v 0.089 c 0.599,0 1.211,0 1.84,0 v 0.179 c 0.03,0 0.06,0 0.089,0 v 0.628 c -0.269,0 -0.568,0 -0.896,0 v 0.269 l -0.09,0.045 v 0.045 c 0.299,0 0.598,0 0.897,0 v 0.627 c -0.688,0 -1.375,0 -2.064,0 v 0.135 c 2.901,0 5.786,0 8.657,0 V 10.05 c 1.465,0 2.93,0 4.395,0 0.03,0 0.06,0 0.091,0 v 0.807 c 0,0.059 0,0.104 0,0.134 0,0.03 0,0.06 0,0.09 v 0.493 c 0,0.03 0,0.059 0,0.09 0,0.03 0,0.075 0,0.135 v 0.045 c 0,0.029 0,0.061 0,0.089 0,0.03 0,0.06 0,0.09 v 0.134 c 0.029,0 0.059,0 0.089,0 v 0.628 c -0.12,0 -0.224,0 -0.313,0 -0.121,0 -0.24,0 -0.36,0 -1.585,0 -3.154,0 -4.709,0 v 0.045 c -0.208,0 -0.418,0 -0.627,0 0,-0.03 -0.015,-0.045 -0.045,-0.045 H 82.92 v -0.403 c -2.571,0 -5.143,0 -7.714,0 v 0.448 c -0.061,0 -0.105,0 -0.135,0 v 0.269 c -0.12,0 -0.239,0 -0.359,0 v 0.046 c -0.03,0 -0.06,0.014 -0.09,0.045 0,0.029 0,0.059 0,0.089 0,0.03 0,0.074 0,0.135 0,0.029 0,0.059 0,0.089 0,0.06 0,0.104 0,0.136 0,0.027 0,0.059 0,0.089 0,0.06 0,0.104 0,0.135 0,0.028 0,0.059 0,0.089 0,0.06 0,0.104 0,0.135 0,0.028 0,0.059 0,0.089 0,0.03 0,0.074 0,0.135 0,0.029 0,0.075 0,0.134 0,0.03 0,0.06 0,0.09 0,0.029 0,0.06 0,0.09 0,0.059 0,0.104 0,0.134 0,0.06 0,0.104 0,0.134 0,0.03 0,0.075 0,0.136 v 0.089 c 0,0.03 0,0.075 0,0.134 0,0.031 0,0.06 0,0.09 -0.209,0 -0.418,0 -0.628,0 v -0.044 h -0.089 c -0.179,-0.03 -0.374,-0.046 -0.583,-0.046 H 73.143 L 73.054,15.208 V 14.49 c 0.03,0 0.06,-0.015 0.089,-0.045 0,-0.03 0,-0.074 0,-0.134 0,-0.031 0,-0.061 0,-0.091 0,-0.059 0,-0.104 0,-0.133 0,-0.031 0,-0.075 0,-0.135 0,-0.03 0,-0.061 0,-0.089 0,-0.031 0,-0.075 0,-0.135 0,-0.03 0,-0.062 0,-0.089 0,-0.062 0,-0.105 0,-0.136 0,-0.03 0,-0.06 0,-0.089 0,-0.062 0,-0.105 0,-0.135 0,-0.06 0,-0.105 0,-0.134 -0.089,0 -0.18,0 -0.269,0 -0.03,-0.03 -0.074,-0.046 -0.135,-0.046 V 12.83 c -0.119,0 -0.239,0 -0.358,0 h -0.044 c 0,0.03 -0.017,0.044 -0.046,0.044 v 0.225 c 0,0.03 0,0.06 0,0.091 v 0.044 c 0,0.03 0,0.059 0,0.089 v 0.091 c 0,0.029 0,0.059 0,0.089 v 0.044 c 0,0.03 0,0.06 0,0.092 v 0.089 c 0,0.03 0,0.06 0,0.089 v 0.135 c 0,0.03 0,0.06 0,0.089 v 0.09 c 0,0.03 0,0.059 0,0.089 v 0.045 H 72.247 V 14.4 c -0.209,0 -0.403,0 -0.583,0 v 0.044 h -0.045 v 0.09 h -0.045 v 0.09 l -0.089,0.089 v 0.045 c -0.03,0 -0.044,0.015 -0.044,0.045 v 0.045 c 0,0.03 0,0.059 0,0.089 v 0.09 c 0,0.03 0,0.075 0,0.134 0,0.03 0,0.061 0,0.089 0,0.06 0,0.105 0,0.135 0,0.031 0,0.061 0,0.089 v 0.135 c -0.15,0 -0.314,0 -0.494,0 L 70.9,15.657 h -0.045 v 0.09 h -0.044 v 0.224 c -0.27,0 -0.524,0 -0.763,0 L 70.003,15.925 C 63.843,15.896 57.669,15.881 51.479,15.881 v 0.179 c -0.24,0 -0.479,0 -0.718,0 v -0.089 h -0.045 v -0.09 c -0.029,0 -0.044,-0.015 -0.044,-0.045 l -0.045,-0.045 v -0.044 h -0.044 v -0.09 c 0,-0.03 -0.016,-0.045 -0.045,-0.045 -2.213,-0.03 -4.425,-0.045 -6.638,-0.045 h -0.044 l -0.045,0.045 c -0.031,0 -0.045,0.015 -0.045,0.045 -0.031,0 -0.06,0 -0.09,0 l -0.044,0.044 c -0.03,0 -0.06,0.016 -0.09,0.046 -0.03,0 -0.06,0 -0.09,0 0,0.029 -0.015,0.044 -0.044,0.044 l -0.045,0.045 h -0.044 c -0.03,0.03 -0.06,0.045 -0.09,0.045 0,0.029 -0.015,0.044 -0.044,0.044 l -0.045,0.046 c -0.03,0 -0.06,0 -0.089,0 v 0.044 c -0.03,0 -0.06,0.015 -0.089,0.045 -0.031,0 -0.061,0.016 -0.091,0.045 l -0.045,0.044 c -0.03,0 -0.06,0.016 -0.089,0.046 l -0.046,0.044 h -0.044 c -0.03,0.03 -0.06,0.045 -0.09,0.045 0,0.03 -0.015,0.045 -0.044,0.045 l -0.046,0.044 h -0.044 c 0,0.031 -0.015,0.046 -0.045,0.046 l -0.045,0.044 h -0.044 c -0.031,0 -0.046,0.015 -0.046,0.045 l -0.044,0.045 h -0.045 c -0.03,0 -0.045,0.015 -0.045,0.044 l -0.044,0.046 v 0.044 c 0,0.061 0,0.12 0,0.18 0,0.059 0,0.12 0,0.179 0,0.06 0,0.105 0,0.135 0,0.06 0,0.12 0,0.179 0,0.09 0,0.166 0,0.225 0,0.03 0,0.075 0,0.134 0,0.06 0,0.12 0,0.18 v 0.09 c 0.119,0 0.239,0 0.358,0 v 0.627 c -0.209,0 -0.434,0.016 -0.672,0.046 h -0.045 v 1.255 h 0.045 v 0.405 h 0.044 v 0.403 l 0.046,0.045 v 0.313 c 0,0.03 0.015,0.045 0.044,0.045 v 0.314 h 0.045 v 0.493 l 0.045,0.045 c 0,0.03 0.015,0.044 0.044,0.044 v 0.449 c 0,0.031 0.015,0.045 0.046,0.045 v 0.045 l 0.044,0.045 v 0.224 l 0.045,0.045 v 0.134 l 0.045,0.045 v 0.045 l 0.044,0.044 v 0.224 l 0.046,0.045 c 0,0.03 0.014,0.045 0.044,0.045 v 0.225 h 0.045 v 0.045 c 0,0.029 0.015,0.044 0.045,0.044 v 0.135 l 0.044,0.045 v 0.044 l 0.046,0.045 v 0.045 h 0.044 v 0.314 l 0.09,0.044 v 0.18 c 0,0.029 0.015,0.044 0.044,0.044 v 0.135 h 0.046 v 0.089 l 0.044,0.09 v 0.045 h 0.045 v 0.179 h 0.045 v 0.09 l 0.091,0.089 v 0.179 c 0,0.031 0.014,0.045 0.044,0.045 0,0.03 0.015,0.045 0.045,0.045 v 0.134 l 0.045,0.045 v 0.09 h 0.044 v 0.224 h 0.045 v 0.09 l 0.044,0.09 v 0.09 l 0.045,0.044 v 0.09 c 0,0.03 0.015,0.045 0.045,0.045 v 0.045 h 0.044 v 0.134 c 0.03,0 0.045,0.015 0.045,0.045 l 0.044,0.045 V 27 c 0,0.03 0.015,0.045 0.045,0.045 v 0.089 c 0,0.03 0.015,0.045 0.045,0.045 l 0.045,0.09 v 0.089 c 0.03,0 0.045,0.015 0.045,0.045 v 0.045 l 0.044,0.045 v 0.089 c 0,0.03 0.015,0.045 0.045,0.045 v 0.045 h 0.045 v 0.179 l 0.045,0.045 v 0.089 c 0,0.031 0.015,0.045 0.045,0.045 v 0.045 c 0,0.029 0.015,0.045 0.044,0.045 v 0.045 h 0.045 v 0.179 l 0.089,0.045 v 0.044 l 0.045,0.045 v 0.135 c 0.03,0 0.044,0.014 0.044,0.044 v 0.045 c 0.03,0 0.045,0.015 0.045,0.045 v 0.045 h 0.045 c 0,0.03 0.015,0.045 0.045,0.045 v 0.044 c 0.03,0 0.06,0.015 0.09,0.045 l 0.045,0.045 v 0.628 h -0.045 v 0.089 c -0.06,0 -0.135,0 -0.225,0 v 0.09 c -0.09,0 -0.179,0.015 -0.269,0.045 h -0.045 c -0.031,0.03 -0.06,0.045 -0.09,0.045 -0.03,0 -0.075,0.015 -0.135,0.044 H 43.54 c -0.03,0 -0.06,0.015 -0.09,0.045 l -0.044,0.045 c -0.03,0 -0.075,0 -0.135,0 -0.03,0 -0.074,0.015 -0.135,0.045 -0.03,0 -0.06,0.015 -0.089,0.045 h -0.045 l -0.09,0.089 c -0.029,0 -0.059,0 -0.089,0 h -0.045 c -0.029,0 -0.075,0.015 -0.134,0.045 v 0.045 c -0.03,0 -0.06,0.015 -0.09,0.045 h -0.09 L 42.42,30.36 h -0.045 c -0.03,0 -0.06,0.015 -0.089,0.045 H 42.24 c -0.029,0 -0.059,0.015 -0.089,0.045 -0.03,0 -0.059,0.015 -0.089,0.045 h -0.046 c -0.029,0 -0.06,0 -0.089,0 -0.029,0 -0.06,0.015 -0.089,0.045 l -0.046,0.044 c -0.03,0 -0.06,0 -0.089,0 -0.06,0.03 -0.105,0.045 -0.135,0.045 -0.029,0 -0.074,0.016 -0.134,0.045 -0.029,0 -0.075,0.015 -0.134,0.045 h -0.045 c -0.029,0 -0.06,0.015 -0.089,0.045 H 41.12 c -0.03,0.029 -0.06,0.044 -0.089,0.044 h -0.045 c -0.06,0 -0.09,0.015 -0.09,0.045 -0.029,0 -0.059,0.015 -0.089,0.045 h -0.089 c -0.031,0.029 -0.06,0.045 -0.09,0.045 -0.03,0 -0.075,0.015 -0.134,0.045 -0.031,0 -0.06,0 -0.09,0 -0.03,0 -0.045,0.014 -0.045,0.044 -0.03,0 -0.06,0.015 -0.09,0.045 H 40.22 l -0.044,0.045 c -0.06,0 -0.104,0 -0.134,0 -0.09,0 -0.18,0.015 -0.27,0.045 v 0.045 c -0.03,0 -0.059,0 -0.089,0 v 0.044 c -0.061,0.03 -0.12,0.045 -0.18,0.045 -0.03,0 -0.075,0 -0.135,0 v 0.045 c -0.03,0 -0.06,0.015 -0.089,0.045 l -0.09,0.045 c -0.061,0 -0.104,0 -0.134,0 -0.03,0 -0.06,0.014 -0.09,0.044 v 0.045 c -0.03,0 -0.06,0 -0.09,0 -0.029,0.03 -0.059,0.045 -0.089,0.045 -0.06,0 -0.105,0.015 -0.135,0.045 -0.089,0 -0.178,0 -0.268,0 v 0.045 c -0.06,0 -0.105,0.014 -0.135,0.044 h -0.045 c -0.029,0 -0.059,0 -0.089,0 -0.239,0 -0.494,0 -0.762,0 V 31.4 h -0.045 c 0,-0.03 -0.015,-0.045 -0.044,-0.045 v -0.179 c -0.03,0 -0.045,-0.016 -0.045,-0.045 l -0.045,-0.045 v -0.179 c -0.03,0 -0.044,-0.015 -0.044,-0.045 V 30.683 H 37.084 V 30.504 H 37.04 V 30.19 H 36.949 V 29.92 H 36.905 V 29.786 H 36.86 v -0.09 l -0.044,-0.044 v -0.045 c -0.03,0 -0.045,-0.015 -0.045,-0.045 v -0.09 h -0.046 v -0.179 l -0.089,-0.09 v -0.224 h -0.044 v -0.09 c 0,-0.031 -0.016,-0.044 -0.045,-0.044 v -0.09 c -0.03,0 -0.046,-0.015 -0.046,-0.045 v -0.089 c -0.029,0 -0.044,-0.015 -0.044,-0.045 v -0.09 l -0.045,-0.045 v -0.268 c -0.03,0 -0.06,0 -0.089,0 V 27.859 L 36.277,27.814 V 27.725 L 36.233,27.68 v -0.179 c 0,-0.031 -0.015,-0.045 -0.045,-0.045 v -0.09 h -0.044 v -0.27 l -0.045,-0.044 v -0.09 h -0.046 c 0,-0.03 -0.015,-0.045 -0.044,-0.045 v -0.18 H 35.964 V 26.603 L 35.92,26.558 v -0.179 l -0.045,-0.045 v -0.045 c -0.031,0 -0.045,-0.014 -0.045,-0.045 v -0.18 c 0,-0.03 -0.016,-0.045 -0.045,-0.045 V 25.93 L 35.74,25.885 v -0.09 c -0.03,0 -0.044,-0.015 -0.044,-0.044 v -0.09 l -0.045,-0.045 v -0.135 l -0.045,-0.045 v -0.09 L 35.556,25.3 V 25.21 H 35.51 v -0.179 l -0.044,-0.045 v -0.134 l -0.045,-0.045 v -0.09 h -0.045 v -0.089 l -0.045,-0.045 v -0.135 l -0.045,-0.044 v -0.09 c 0,-0.03 -0.014,-0.045 -0.044,-0.045 v -0.18 h -0.045 v -0.314 c 0,-0.029 -0.015,-0.044 -0.045,-0.044 v -0.135 l -0.045,-0.044 v -0.09 c -0.03,0 -0.045,-0.015 -0.045,-0.045 v -0.134 h -0.044 v -0.359 c -0.03,0 -0.046,-0.014 -0.046,-0.044 h -0.044 v -0.27 c -0.029,0 -0.044,-0.015 -0.044,-0.045 V 22.207 L 34.838,22.162 V 21.938 L 34.794,21.893 V 21.67 h -0.045 v -0.181 l -0.045,-0.044 v -0.404 c 0,-0.03 -0.016,-0.044 -0.044,-0.044 V 20.95 h -0.045 v -0.404 h -0.044 v -0.314 h -0.045 v -0.134 c 0,-0.03 -0.014,-0.045 -0.044,-0.045 v -0.224 c -0.03,0 -0.044,-0.016 -0.044,-0.045 V 19.65 c -0.031,0 -0.045,-0.015 -0.045,-0.045 -2.243,0 -4.485,0 -6.729,0 -0.089,0 -0.178,0 -0.268,0 v 0.224 l -0.045,0.045 v 0.044 c -0.03,0 -0.06,0 -0.089,0 v 0.09 l -0.046,0.045 v 0.089 l -0.044,0.045 c 0,0.03 -0.015,0.045 -0.045,0.045 0,0.03 -0.015,0.045 -0.044,0.045 v 0.224 c -0.03,0 -0.045,0.015 -0.045,0.045 h -0.09 v 0.134 l -0.045,0.045 v 0.045 l -0.089,0.089 v 0.091 c -0.03,0 -0.046,0.015 -0.046,0.045 v 0.134 H 26.72 v 0.044 l -0.045,0.046 v 0.044 l -0.044,0.045 v 0.045 c -0.029,0 -0.045,0.016 -0.045,0.044 v 0.046 H 26.54 v 0.044 c 0,0.03 -0.014,0.045 -0.044,0.045 l -0.045,0.045 v 0.134 L 26.362,21.8 v 0.045 h -0.047 v 0.09 c -0.028,0 -0.044,0.015 -0.044,0.045 v 0.044 l -0.134,0.09 v 0.09 l -0.09,0.044 v 0.135 h -0.045 v 0.045 h -0.044 v 0.044 c 0,0.031 -0.016,0.045 -0.044,0.045 0,0.03 -0.016,0.045 -0.046,0.045 v 0.09 l -0.044,0.044 v 0.045 l -0.045,0.045 c -0.03,0 -0.044,0.015 -0.044,0.045 v 0.045 h -0.044 l -0.046,0.044 v 0.09 c 0,0.03 -0.015,0.045 -0.045,0.045 0,0.029 -0.015,0.045 -0.045,0.045 l -0.044,0.089 v 0.045 c -0.029,0 -0.044,0.015 -0.044,0.045 v 0.045 l -0.045,0.044 h -0.045 v 0.045 l -0.045,0.045 v 0.135 c -0.03,0 -0.06,0 -0.089,0 v 0.09 c -0.031,0 -0.045,0.015 -0.045,0.045 v 0.044 l -0.045,0.045 v 0.09 h -0.045 v 0.045 l -0.044,0.044 H 25.02 v 0.18 c -0.031,0 -0.046,0.015 -0.046,0.044 -0.029,0 -0.045,0.016 -0.045,0.045 v 0.09 L 24.884,24.4 v 0.044 c 0,0.031 -0.014,0.045 -0.044,0.045 v 0.09 l -0.045,0.045 v 0.089 c -0.03,0 -0.045,0.015 -0.045,0.045 v 0.134 c 0,0.031 -0.015,0.045 -0.044,0.045 v 0.179 c -0.03,0 -0.06,0.015 -0.09,0.045 v 0.314 l -0.044,0.045 v 0.089 h -0.045 v 0.583 c 0,0.029 -0.015,0.044 -0.044,0.044 v 0.045 c -0.24,0 -0.464,0 -0.673,0 v -0.045 c 0,-0.029 -0.016,-0.044 -0.045,-0.044 L 23.72,26.147 c -0.029,0 -0.06,0 -0.09,0 -0.029,-0.03 -0.06,-0.045 -0.09,-0.045 v -0.045 h -0.05 v -0.045 c -0.06,0 -0.104,0 -0.134,0 -0.03,-0.029 -0.06,-0.044 -0.09,-0.044 -0.03,-0.03 -0.06,-0.045 -0.089,-0.045 h -0.089 v -0.045 c -0.03,-0.03 -0.061,-0.045 -0.09,-0.045 -0.029,0 -0.059,0 -0.089,0 -0.03,-0.03 -0.06,-0.045 -0.089,-0.045 v -0.044 c -0.03,0 -0.075,0 -0.135,0 v -0.045 c -0.03,0 -0.06,0 -0.089,0 0,-0.03 -0.016,-0.045 -0.045,-0.045 -0.03,-0.03 -0.06,-0.045 -0.089,-0.045 H 22.37 C 22.339,25.578 22.309,25.564 22.279,25.564 V 25.52 c -0.059,0 -0.104,0 -0.134,0 -0.03,-0.03 -0.075,-0.045 -0.134,-0.045 l -0.089,-0.09 c -0.031,0 -0.076,0 -0.135,0 L 21.742,25.34 h -0.045 c -0.03,0 -0.044,-0.015 -0.044,-0.044 l -0.09,-0.045 -0.045,-0.045 h -0.045 c -0.03,-0.03 -0.06,-0.045 -0.089,-0.045 -0.029,-0.03 -0.075,-0.045 -0.135,-0.045 -0.03,-0.029 -0.06,-0.044 -0.089,-0.044 l -0.045,-0.045 h -0.09 c -0.03,0 -0.044,-0.015 -0.044,-0.045 l -0.045,-0.045 h -0.045 v -0.045 h -0.134 c -0.03,0 -0.06,-0.015 -0.09,-0.044 l -0.09,-0.045 c -0.03,0 -0.044,-0.015 -0.044,-0.045 -0.06,0 -0.104,0 -0.135,0 l -0.045,-0.045 c -0.03,0 -0.059,0 -0.089,0 v -0.045 c -0.029,0 -0.074,0 -0.135,0 v -0.044 h -0.044 c -0.06,-0.03 -0.104,-0.045 -0.134,-0.045 -0.031,-0.03 -0.061,-0.045 -0.09,-0.045 v -0.045 c -0.031,0 -0.06,0 -0.089,0 h -0.044 c 0,-0.029 -0.016,-0.045 -0.046,-0.045 -0.029,-0.029 -0.059,-0.044 -0.089,-0.044 -0.029,0 -0.074,0 -0.135,0 v -0.045 c -0.029,0 -0.06,-0.015 -0.089,-0.045 h -0.044 c -0.061,-0.03 -0.12,-0.045 -0.18,-0.045 0,-0.029 -0.015,-0.045 -0.044,-0.045 -0.03,0 -0.061,-0.015 -0.091,-0.044 v -0.045 c -0.029,0 -0.059,0 -0.089,0 -0.029,-0.03 -0.059,-0.045 -0.089,-0.045 h -0.09 v -0.045 h -0.045 l -0.044,-0.045 v -0.044 c -0.031,0 -0.076,0 -0.135,0 V 23.817 H 18.473 V 23.1 h 0.045 v -0.135 c 0,-0.031 0.015,-0.045 0.045,-0.045 v -0.134 h 0.045 v -0.179 c 0.03,0 0.044,-0.015 0.044,-0.045 h 0.044 c 0.03,0 0.045,-0.015 0.045,-0.045 v -0.089 l 0.045,-0.045 v -0.045 l 0.045,-0.045 c 0,-0.031 0.015,-0.045 0.044,-0.045 v -0.044 l 0.044,-0.045 v -0.09 h 0.045 v -0.045 h 0.044 V 21.98 l 0.046,-0.045 v -0.09 h 0.045 V 21.8 l 0.044,-0.044 v -0.045 l 0.135,-0.134 v -0.045 h 0.044 v -0.089 l 0.089,-0.09 h 0.044 c 0,-0.03 0.015,-0.045 0.046,-0.045 v -0.045 l 0.089,-0.09 c 0.03,0 0.045,-0.014 0.045,-0.044 v -0.045 c 0,-0.03 0.015,-0.045 0.044,-0.045 0.03,0 0.046,-0.014 0.046,-0.044 0.029,0 0.044,-0.016 0.044,-0.045 l 0.089,-0.045 V 20.86 l 0.044,-0.045 c 0,-0.03 0.015,-0.044 0.046,-0.044 v -0.045 c 0,-0.03 0.015,-0.045 0.044,-0.045 v -0.045 h 0.044 V 20.59 c 0.03,0 0.06,-0.014 0.089,-0.044 v -0.045 c 0.031,0 0.046,-0.015 0.046,-0.045 h 0.044 l 0.044,-0.09 c 0,-0.03 0.015,-0.044 0.045,-0.044 l 0.044,-0.045 c 0,-0.031 0.015,-0.045 0.045,-0.045 v -0.045 c 0.031,0 0.046,-0.015 0.046,-0.045 l 0.044,-0.044 c 0.03,0 0.045,-0.015 0.045,-0.045 0.029,0 0.044,-0.015 0.044,-0.045 v -0.045 c 0.03,-0.03 0.061,-0.045 0.09,-0.045 v -0.044 c 0,-0.03 0.016,-0.045 0.045,-0.045 l 0.045,-0.045 v -0.045 h 0.044 V 19.65 c 0.031,0 0.045,-0.015 0.045,-0.045 h 0.045 V 19.56 l 0.045,-0.045 h 0.045 c 0,-0.03 0.015,-0.045 0.044,-0.045 v -0.044 l 0.135,-0.135 v -0.045 c 0.029,0 0.045,-0.014 0.045,-0.044 l 0.044,-0.045 c 0.03,0 0.045,-0.016 0.045,-0.045 h 0.045 l 0.09,-0.09 c 0.029,0 0.044,-0.014 0.044,-0.044 v -0.045 l 0.045,-0.045 c 0.031,0 0.045,-0.015 0.045,-0.045 v -0.045 h 0.044 v -0.044 h 0.045 v -0.045 l 0.044,-0.044 c 0,-0.03 0.015,-0.046 0.045,-0.046 l 0.045,-0.045 V 18.53 c 0.03,0 0.044,-0.015 0.044,-0.045 0.03,0 0.045,-0.015 0.045,-0.044 v -0.09 l 0.045,-0.045 h 0.044 v -0.089 h 0.045 v -0.09 l 0.044,-0.045 c 0.03,0 0.045,-0.015 0.045,-0.045 v -0.09 l 0.044,-0.044 c 0.031,0 0.045,-0.015 0.045,-0.045 v -0.179 c 0.031,-0.03 0.061,-0.045 0.089,-0.045 v -0.225 c 0.03,0 0.045,-0.015 0.045,-0.045 v -0.403 h -0.045 v -0.225 c -0.029,-0.03 -0.059,-0.045 -0.089,-0.045 V 16.557 H 22.137 V 16.512 L 22.1,16.463 v -0.044 h -0.045 l -0.179,-0.18 c 0,-0.03 -0.016,-0.044 -0.045,-0.044 l -0.044,-0.046 v -0.044 h -0.045 c -0.03,-0.03 -0.061,-0.045 -0.09,-0.045 h -0.045 c -0.029,-0.03 -0.059,-0.045 -0.089,-0.045 0,-0.03 -0.014,-0.044 -0.045,-0.044 h -0.044 c -0.03,-0.03 -0.074,-0.046 -0.135,-0.046 -0.031,-0.029 -0.06,-0.044 -0.089,-0.044 -0.09,-0.03 -0.18,-0.045 -0.27,-0.045 H 20.89 v -0.045 c -0.029,0 -0.059,0 -0.09,0 -0.06,-0.03 -0.104,-0.044 -0.134,-0.044 -0.029,0 -0.06,0 -0.09,0 -0.03,-0.03 -0.06,-0.046 -0.089,-0.046 v -0.044 h -0.044 c -0.061,0 -0.105,0 -0.135,0 -0.06,-0.03 -0.119,-0.045 -0.18,-0.045 -0.06,-0.03 -0.104,-0.045 -0.134,-0.045 -0.12,0 -0.239,0 -0.359,0 v -0.179 c -0.06,0 -0.134,0 -0.224,0 v -0.045 c 0,-0.03 0,-0.059 0,-0.09 0,-0.029 0,-0.059 0,-0.089 0,-0.059 0,-0.104 0,-0.134 0,-0.03 0,-0.061 0,-0.09 0,-0.059 0,-0.104 0,-0.134 0,-0.06 0,-0.105 0,-0.135 0,-0.03 0,-0.059 0,-0.089 v -0.045 c 0,-0.061 0,-0.104 0,-0.134 0,-0.061 0,-0.105 0,-0.135 0,-0.029 0,-0.075 0,-0.134 0,-0.03 0,-0.06 0,-0.09 0,-0.029 0,-0.075 0,-0.134 0,-0.03 0,-0.061 0,-0.09 0,-0.059 0,-0.104 0,-0.134 0,-0.03 0,-0.061 0,-0.09 v -0.045 c -0.15,0 -0.313,0 -0.494,0 v 0.092 c -0.089,0 -0.194,0 -0.313,0 0,0.027 0,0.059 0,0.089 0,0.06 0,0.119 0,0.179 0,0.03 0,0.075 0,0.134 0,0.061 0,0.105 0,0.135 0,0.06 0,0.104 0,0.135 0,0.06 0,0.12 0,0.179 0,0.03 0,0.074 0,0.135 0,0.059 0,0.104 0,0.134 0,0.06 0,0.12 0,0.179 0,0.03 0,0.06 0,0.09 0,0.059 0,0.104 0,0.134 l 0.044,0.045 v 0.627 c -0.061,0 -0.135,0 -0.224,0 v 0.135 c -0.958,0 -1.944,0 -2.961,0 v 0.897 c -0.029,0 -0.06,0 -0.089,0 v 0.269 c -0.209,0 -0.419,0 -0.628,0 v -0.044 h -0.089 v 0.044 c -0.06,0 -0.134,0.015 -0.224,0.045 -0.12,0 -0.24,0 -0.359,0 -0.18,0 -0.374,0 -0.583,0 v 0.045 l -0.045,0.044 v 0.405 c -0.029,0 -0.06,0 -0.088,0 v 0.268 l -0.045,0.046 v 0.134 c -0.12,0 -0.254,0.015 -0.403,0.044 -0.359,0 -0.734,0 -1.121,0 v -0.089 c 0,-0.03 0,-0.06 0,-0.089 v -0.09 c 0,-0.03 0,-0.06 0,-0.09 v -0.044 c 0,-0.03 0,-0.061 0,-0.09 h -0.046 c -0.029,0 -0.044,0.015 -0.044,0.044 -0.03,0.031 -0.06,0.06 -0.09,0.09 l -0.044,0.045 c -0.031,0 -0.046,0.015 -0.046,0.045 -0.06,0 -0.119,0 -0.178,0 -0.032,0.029 -0.046,0.06 -0.046,0.09 -0.06,0 -0.089,0.014 -0.089,0.044 -0.06,0.031 -0.104,0.045 -0.135,0.045 -0.029,0.03 -0.044,0.06 -0.044,0.089 -0.03,0 -0.045,0.016 -0.045,0.046 -0.059,0 -0.12,0 -0.179,0 -0.03,0.029 -0.06,0.059 -0.089,0.089 -0.03,0 -0.044,0.015 -0.044,0.045 -0.031,0.029 -0.061,0.044 -0.09,0.044 0,0.03 0,0.06 0,0.09 -0.06,0 -0.089,0.015 -0.089,0.045 -0.061,0 -0.105,0.015 -0.135,0.044 -0.03,0.03 -0.06,0.045 -0.089,0.045 0,0.03 0,0.06 0,0.09 -0.061,0 -0.105,0.016 -0.135,0.045 l -0.044,0.044 c -0.06,0.03 -0.089,0.061 -0.089,0.09 -0.031,0 -0.046,0.015 -0.046,0.045 -0.059,0.03 -0.089,0.06 -0.089,0.089 -0.06,0 -0.105,0 -0.136,0 -0.029,0.03 -0.044,0.061 -0.044,0.09 L 9.64,19.156 c -0.06,0.03 -0.105,0.045 -0.135,0.045 -0.029,0.03 -0.044,0.059 -0.044,0.089 l -0.089,0.045 c -0.03,0.03 -0.045,0.061 -0.045,0.09 -0.031,0 -0.045,0.014 -0.045,0.044 -0.059,0 -0.104,0.015 -0.134,0.045 v 0.045 c -0.031,0.03 -0.061,0.045 -0.09,0.045 -0.029,0.03 -0.059,0.059 -0.089,0.089 v 0.045 c -0.03,0.03 -0.06,0.06 -0.089,0.09 v 0.045 l -0.135,0.134 c 0,0.031 0,0.061 0,0.09 -0.418,0 -0.837,0 -1.256,0 0,-0.03 0,-0.06 0,-0.09 V 19.11 c 0,-0.029 0,-0.06 0,-0.09 v -0.225 c 0,-0.029 0,-0.059 0,-0.089 0,-0.03 0,-0.06 0,-0.09 v -0.045 c 0,-0.059 0,-0.104 0,-0.133 -0.029,0 -0.06,0 -0.089,0 l -0.045,0.044 c -0.06,0.03 -0.119,0.045 -0.179,0.045 0,0.03 0,0.059 0,0.089 v 0.046 c -0.06,0.029 -0.121,0.044 -0.18,0.044 -0.03,0 -0.06,0.016 -0.09,0.045 0,0.03 -0.015,0.044 -0.044,0.044 -0.031,0.03 -0.075,0.045 -0.135,0.045 -0.029,0.03 -0.06,0.045 -0.089,0.045 v 0.09 c -0.061,0.03 -0.105,0.044 -0.135,0.044 -0.06,0 -0.09,0.015 -0.09,0.045 0,0.03 -0.015,0.045 -0.045,0.045 0,0.03 -0.015,0.045 -0.044,0.045 V 19.2 c -0.03,0 -0.06,0 -0.09,0 0,0.03 0,0.059 0,0.089 0,0.03 -0.015,0.045 -0.044,0.045 -0.061,0 -0.104,0.015 -0.135,0.045 L 6.01,19.424 c -0.03,0.03 -0.06,0.059 -0.09,0.089 l -0.044,0.045 v 0.045 c -0.03,0 -0.06,0 -0.09,0 -0.03,0.03 -0.044,0.059 -0.044,0.089 v 0.045 H 5.683 c -0.029,0.03 -0.059,0.045 -0.089,0.045 0,0.03 -0.014,0.045 -0.045,0.045 0,0.03 -0.015,0.059 -0.044,0.089 l -0.09,0.09 c -0.03,0.031 -0.045,0.061 -0.045,0.09 -0.06,0 -0.089,0.014 -0.089,0.044 l -0.045,0.045 c -0.029,0.03 -0.059,0.045 -0.09,0.045 0,0.03 -0.014,0.06 -0.045,0.09 l -0.044,0.044 c -0.03,0.03 -0.061,0.061 -0.09,0.09 v 0.045 l -0.09,0.089 c 0,0.03 -0.015,0.045 -0.044,0.045 -0.03,0.03 -0.045,0.06 -0.045,0.09 -0.029,0 -0.045,0.015 -0.045,0.045 -0.03,0.029 -0.045,0.059 -0.045,0.089 -0.03,0 -0.06,0.015 -0.088,0.045 v 0.045 c -0.031,0.029 -0.045,0.059 -0.045,0.089 -0.03,0 -0.06,0 -0.09,0 0,0.03 0,0.06 0,0.09 -0.03,0 -0.059,0.015 -0.089,0.044 0,0.03 -0.016,0.061 -0.045,0.09 -0.029,0 -0.045,0.015 -0.045,0.045 0,0.03 -0.014,0.045 -0.045,0.045 0,0.031 0,0.061 0,0.09 H 4.203 c -0.03,0.029 -0.074,0.044 -0.134,0.044 v 0.045 c 0,0.03 -0.015,0.061 -0.045,0.09 0,0.03 -0.015,0.046 -0.044,0.046 0,0.029 0,0.059 0,0.089 V 21.8 c -0.06,0 -0.105,0.015 -0.133,0.045 v 0.045 c -0.031,0.03 -0.061,0.06 -0.091,0.09 v 0.044 c 0,0.032 -0.014,0.045 -0.044,0.045 0,0.03 -0.015,0.06 -0.045,0.09 v 0.089 c -0.059,0 -0.09,0.015 -0.09,0.045 0,0.03 0,0.06 0,0.09 -0.029,0 -0.044,0.015 -0.044,0.045 l -0.044,0.044 c -0.03,0.031 -0.045,0.062 -0.045,0.09 L 3.4,22.607 v 0.045 c -0.03,0.031 -0.046,0.06 -0.046,0.089 v 0.09 c 0,0.029 -0.029,0.045 -0.088,0.045 0,0.03 0,0.059 0,0.089 v 0.045 c 0,0.03 -0.016,0.06 -0.045,0.09 v 0.134 c -0.03,0 -0.06,0.015 -0.09,0.045 v 0.089 c 0,0.031 0,0.061 0,0.09 v 0.09 c -0.119,0 -0.224,0 -0.313,0 -0.329,-0.03 -0.644,-0.045 -0.942,-0.045 -0.12,0 -0.239,0 -0.359,0 -0.06,0 -0.09,-0.015 -0.09,-0.045 0,-0.03 0,-0.06 0,-0.09 -0.029,-0.029 -0.044,-0.06 -0.044,-0.089 -0.031,0 -0.046,-0.015 -0.046,-0.045 v -0.045 c 0,-0.03 0,-0.059 0,-0.089 v -0.045 c 0,-0.03 0,-0.06 0,-0.09 V 22.83 c -0.03,-0.03 -0.06,-0.045 -0.089,-0.045 0,-0.03 0,-0.059 0,-0.09 v -0.044 c 0,-0.03 0,-0.06 0,-0.09 v -0.09 L 1.203,22.427 v -0.045 c 0,-0.03 0,-0.06 0,-0.09 v -0.045 c 0,-0.029 0,-0.06 0,-0.089 v -0.045 l -0.09,-0.045 c 0,-0.03 0,-0.059 0,-0.089 0,-0.03 0,-0.06 0,-0.09 v -0.045 c 0,-0.03 0,-0.06 0,-0.089 V 21.71 c 0,-0.03 -0.014,-0.044 -0.044,-0.044 0,-0.03 -0.015,-0.06 -0.044,-0.09 v -0.134 c 0,-0.03 0,-0.06 0,-0.09 -0.03,0 -0.06,0 -0.089,0 0,-0.03 0,-0.06 0,-0.09 v -0.134 c 0,-0.03 0,-0.06 0,-0.09 V 20.95 c 0,-0.03 0,-0.061 0,-0.091 v -0.045 c 0,-0.03 -0.015,-0.06 -0.046,-0.089 0,-0.03 0,-0.06 0,-0.09 v -0.089 c 0,-0.03 0,-0.06 0,-0.09 v -0.045 c 0,-0.03 -0.015,-0.059 -0.044,-0.089 -0.03,0 -0.044,-0.015 -0.044,-0.045 v -0.136 c 0,-0.03 0,-0.059 0,-0.089 v -0.045 c 0,-0.029 0,-0.06 0,-0.09 L 0.75,19.873 V 19.828 L 0.706,19.783 v -0.045 c 0,-0.03 0,-0.059 0,-0.089 v -0.045 c 0,-0.031 0,-0.061 0,-0.091 v -0.089 c 0,-0.03 0,-0.06 0,-0.09 0,-0.029 0,-0.06 0,-0.09 V 19.2 c 0,-0.03 0,-0.061 0,-0.09 v -0.09 c 0,-0.029 0,-0.059 0,-0.089 v -0.045 c 0,-0.029 -0.031,-0.045 -0.09,-0.045 v -0.045 c 0,-0.029 0,-0.059 0,-0.089 v -0.09 c 0,-0.03 0,-0.059 0,-0.089 v -0.045 c 0,-0.03 0,-0.06 0,-0.09 0,-0.03 0,-0.059 0,-0.089 -0.03,0 -0.044,-0.015 -0.044,-0.045 v -0.044 c 0,-0.03 0,-0.061 0,-0.09 V 18.08 c 0,-0.03 0,-0.06 0,-0.089 v -0.18 c 0,-0.03 0,-0.059 0,-0.09 v -0.044 c 0,-0.03 -0.016,-0.061 -0.045,-0.09 V 17.543 L 0.482,17.497 v -0.044 c 0,-0.03 0,-0.06 0,-0.09 v -0.09 c 0,-0.029 0,-0.059 0,-0.089 v -0.089 c 0,-0.03 0,-0.061 0,-0.09 0,-0.03 -0.015,-0.045 -0.046,-0.045 V 16.915 L 0.392,16.871 c 0,-0.03 0,-0.061 0,-0.09 v -0.09 c 0,-0.03 0,-0.059 0,-0.09 v -0.134 c 0,-0.03 0,-0.059 0,-0.09 V 16.33 c 0,-0.03 0,-0.061 0,-0.09 v -0.09 c 0,-0.029 0,-0.059 0,-0.089 H 0.301 c 0,-0.03 0,-0.06 0,-0.089 v -0.046 c 0,-0.029 0,-0.059 0,-0.089 v -0.089 c 0,-0.03 0,-0.061 0,-0.09 v -0.135 c 0,-0.03 0,-0.061 0,-0.09 v -0.09 C 0.272,15.313 0.256,15.284 0.256,15.253 v -0.134 c 0,-0.03 0,-0.059 0,-0.089 v -0.09 c 0,-0.03 0,-0.059 0,-0.089 v -0.045 c 0,-0.03 0,-0.06 0,-0.09 v -0.179 c 0,-0.03 0,-0.061 0,-0.09 v -0.044 c 0,-0.03 0,-0.061 0,-0.09 v -0.18 c 0,-0.03 0,-0.06 0,-0.09 v -0.045 c 0,-0.059 0,-0.105 0,-0.133 v -0.046 c 0,-0.029 0,-0.059 0,-0.089 C 0.227,13.7 0.211,13.668 0.211,13.641 L 0.167,13.595 c 0,-0.029 0,-0.059 0,-0.089 0,-0.03 0,-0.06 0,-0.089 0,-0.062 0,-0.105 0,-0.135 0,-0.03 0,-0.06 0,-0.089 0,-0.062 0,-0.105 0,-0.135 0,-0.03 0,-0.075 0,-0.134 0,-0.03 0,-0.075 0,-0.135 V 12.7 c 0,-0.03 0,-0.06 0,-0.09 0,-0.06 0,-0.104 0,-0.134 0,-0.06 0,-0.105 0,-0.135 0,-0.031 0,-0.076 0,-0.135 0,-0.06 0,-0.104 0,-0.134 0,-0.062 0,-0.105 0,-0.135 0,-0.029 0,-0.061 0,-0.089 0,-0.031 0,-0.075 0,-0.135 0,-0.029 0,-0.076 0,-0.135 0,-0.03 0,-0.06 0,-0.09 v -0.089 c 0,-0.06 0,-0.105 0,-0.135 0,-0.061 0,-0.104 0,-0.134 0,-0.03 0,-0.075 0,-0.135 0,-0.03 0,-0.059 0,-0.089 0,-0.03 0,-0.075 0,-0.135 0.03,0 0.044,-0.015 0.044,-0.044 l 0.045,-0.045 c 0,-0.03 0,-0.06 0,-0.09 v -0.045 c 0,-0.03 0,-0.059 0,-0.089 0,-0.03 0,-0.06 0,-0.09 v -0.089 c 0,-0.03 0,-0.06 0,-0.09 v -0.045 c 0,-0.029 0,-0.06 0,-0.089 V 9.87 c 0,-0.03 0,-0.059 0,-0.089 V 9.736 c 0,-0.03 0.016,-0.059 0.045,-0.09 V 9.511 c 0,-0.03 0,-0.059 0,-0.09 V 9.332 c 0,-0.03 0,-0.06 0,-0.09 V 9.153 c 0,-0.03 0,-0.06 0,-0.09 V 8.929 c 0.03,0 0.06,-0.015 0.089,-0.045 V 8.838 c 0.449,0 0.897,0.015 1.346,0.045 v 0.089 c 0.03,0 0.06,0 0.091,0 v 0.045 l 0.044,0.045 v 0.673 c 6.161,0 12.334,0 18.524,0 0.031,0 0.046,-0.015 0.046,-0.045 l 0.044,-0.045 h 0.045 c 0.029,0 0.044,-0.015 0.044,-0.044 V 9.556 h 0.09 V 9.511 l 0.045,-0.09 h 0.045 l 0.044,-0.089 h 0.045 l 0.045,-0.045 0.09,-0.045 V 9.197 c 0.03,0 0.059,-0.014 0.09,-0.044 l 0.045,-0.045 h 0.045 V 9.063 c 0,-0.03 0.014,-0.045 0.045,-0.045 h 0.044 V 8.973 l 0.09,-0.089 c 0.03,0 0.045,-0.015 0.045,-0.045 0.029,0 0.045,-0.015 0.045,-0.045 0.029,0 0.044,-0.014 0.044,-0.045 l 0.09,-0.089 c 0.03,0 0.044,-0.015 0.044,-0.045 h 0.045 c 0,-0.03 0.015,-0.045 0.044,-0.045 V 8.524 l 0.09,-0.044 c 0,-0.03 0.015,-0.045 0.044,-0.045 h 0.045 L 22.1,8.21 V 8.166 h 0.044 l 0.045,-0.044 h 0.045 c 0,-0.03 0.016,-0.046 0.044,-0.046 V 8.031 c 0.03,-0.03 0.06,-0.045 0.091,-0.045 0.03,-0.03 0.059,-0.045 0.089,-0.045 0.03,0 0.059,-0.015 0.089,-0.044 l 0.09,-0.09 c 0.06,0 0.104,0 0.134,0 V 7.402 c 0.029,0 0.06,-0.014 0.09,-0.044 V 7.225 c 0.209,0 0.419,0 0.628,0 v 0.089 c 2.183,0 4.365,0 6.548,0 V 6.91 c 0,-0.03 -0.015,-0.045 -0.044,-0.045 V 6.82 L 29.95,6.776 V 6.103 c -0.09,0 -0.195,0 -0.315,0 v 0.449 c -0.029,0 -0.045,0.014 -0.045,0.044 -0.208,0 -0.418,0 -0.627,0 V 6.417 L 28.918,6.372 V 6.103 c -0.598,0 -1.195,0 -1.793,0 v 0.404 h -0.044 v 0.089 c -0.21,0 -0.419,0 -0.628,0 V 6.282 c -0.03,0 -0.06,0 -0.089,0 V 6.237 c 0,-0.09 0,-0.164 0,-0.224 0,-0.06 0,-0.12 0,-0.179 0,-0.09 0,-0.166 0,-0.225 0,-0.06 0,-0.135 0,-0.224 0,-0.06 0,-0.119 0,-0.179 0,-0.06 0,-0.135 0,-0.224 0,-0.06 0,-0.119 0,-0.181 0,-0.089 0,-0.163 0,-0.224 0,-0.059 0,-0.119 0,-0.178 0,-0.09 0,-0.166 0,-0.225 0,-0.06 0,-0.135 0,-0.224 0,-0.061 0,-0.121 0,-0.179 0,-0.06 0,-0.135 0,-0.225 0,-0.06 0,-0.12 0,-0.18 0,-0.059 0,-0.134 0,-0.224 0,-0.059 0,-0.12 0,-0.18 0,-0.089 0,-0.164 0,-0.224 0,-0.06 0,-0.119 0,-0.179 0,-0.06 0,-0.12 0,-0.179 0.029,0 0.059,0 0.089,0 V 2.2 L 26.498,2.155 V 2.11 Z M 42.06,15.611 42.104,15.566 H 42.06 Z m -8.882,0.808 c -0.927,0 -1.868,0 -2.826,0 v 0.044 l -0.044,0.09 h -0.045 v 0.134 c -0.03,0 -0.044,0.015 -0.044,0.045 v 0.18 l -0.044,0.045 v 0.135 h -0.046 v 0.178 c 0,0.031 -0.014,0.046 -0.044,0.046 v 0.673 h 0.044 v 0.089 l 0.046,0.045 v 0.09 h 0.044 v 0.178 h 0.044 v 0.584 c 0.867,0 1.72,0 2.557,0 v -0.27 h 0.045 v -0.044 c 0.03,0 0.044,-0.016 0.044,-0.046 h 0.044 l 0.09,-0.089 h 0.045 v -0.045 l 0.089,-0.044 c 0,-0.03 0.016,-0.046 0.046,-0.046 l 0.089,-0.089 h 0.134 l 0.044,-0.045 c 0,-0.03 0.015,-0.044 0.045,-0.044 l 0.089,-0.09 c 0.031,0 0.046,-0.015 0.046,-0.045 0.03,0 0.059,-0.015 0.09,-0.045 v -0.044 c 0.029,0 0.059,0 0.089,0 v -0.046 c 0.03,0 0.045,-0.015 0.045,-0.044 h 0.09 c 0,-0.06 0,-0.105 0,-0.134 0,-0.061 0,-0.105 0,-0.135 0,-0.031 0,-0.076 0,-0.136 0,-0.029 0,-0.059 0,-0.089 0,-0.03 0,-0.075 0,-0.135 0,-0.029 0,-0.059 0,-0.089 0,-0.03 0,-0.061 0,-0.089 l -0.045,-0.046 c 0,-0.029 -0.015,-0.044 -0.044,-0.044 0,-0.03 -0.015,-0.045 -0.045,-0.045 l -0.089,-0.045 c -0.031,0 -0.06,-0.015 -0.09,-0.044 v -0.046 c -0.03,0 -0.046,-0.015 -0.046,-0.044 h -0.044 c -0.029,-0.03 -0.06,-0.045 -0.09,-0.045 v -0.089 c -0.029,0 -0.059,-0.015 -0.09,-0.046 -0.03,0 -0.044,-0.015 -0.044,-0.044 l -0.044,-0.045 h -0.045 l -0.044,-0.045 c 0,-0.031 -0.016,-0.045 -0.046,-0.045 z m -4.709,0.673 c -0.03,0 -0.044,-0.015 -0.044,-0.046 -0.03,0 -0.044,-0.015 -0.044,-0.044 v -0.045 c -0.09,0 -0.195,0 -0.314,0 0,0.06 0,0.104 0,0.135 0,0.059 0,0.119 0,0.178 0,0.031 0,0.075 0,0.135 0,0.06 0,0.105 0,0.135 0,0.059 0,0.104 0,0.134 0,0.06 0,0.119 0,0.179 0,0.03 0,0.074 0,0.135 0,0.059 0,0.104 0,0.134 0,0.06 0,0.119 0,0.18 l 0.044,0.045 c 0.031,0 0.046,0.014 0.046,0.044 H 28.2 v 0.09 h 0.045 v 0.045 l 0.045,0.044 v 0.045 h 0.09 v 0.046 l 0.089,0.044 h 0.045 v 0.045 c 0.029,0.03 0.06,0.044 0.09,0.044 h 0.044 v 0.045 h 0.044 l 0.089,0.045 v 0.09 c 0.21,0 0.419,0 0.628,0 v -0.09 c -0.029,0 -0.06,0 -0.089,0 v -0.09 c -0.029,0 -0.044,-0.014 -0.044,-0.044 V 18.705 H 29.23 v -0.044 c -0.03,0 -0.044,-0.016 -0.044,-0.046 h -0.045 v -0.089 l -0.044,-0.045 v -0.09 c -0.03,0 -0.06,-0.015 -0.09,-0.044 v -0.134 h -0.045 v -0.135 l -0.045,-0.045 v -0.09 l -0.089,-0.089 v -0.045 h -0.046 v -0.044 c 0,-0.03 -0.014,-0.046 -0.044,-0.046 0,-0.029 -0.016,-0.044 -0.045,-0.044 v -0.09 l -0.044,-0.044 v -0.046 h -0.044 v -0.089 l -0.046,-0.045 v -0.09 h -0.044 v -0.044 c -0.03,0 -0.045,-0.015 -0.045,-0.045 v -0.09 z"
   id="path398" />
		</g>
	</g>
</g>

</svg>
