<?xml version="1.0" encoding="UTF-8" standalone="no"?>
<svg
   height="41.150002"
   width="15.45"
   version="1.1"
   id="svg11"
   xmlns:xlink="http://www.w3.org/1999/xlink"
   xmlns="http://www.w3.org/2000/svg"
   xmlns:svg="http://www.w3.org/2000/svg">
  <g
     transform="translate(-1.75,6.5)"
     id="g4">
    <use
       data-characterId="335"
       height="34.150002"
       transform="translate(1.75,0.5)"
       width="15.45"
       xlink:href="#shape0"
       id="use2" />
  </g>
  <defs
     id="defs9">
    <g
       id="shape0"
       transform="translate(-1.75,-0.5)">
      <path
         d="M 13.25,1.45 13.3,1.5 v 0.1 l 0.05,0.05 v 0.1 H 13.4 V 1.8 l 0.05,0.05 V 2 h 0.05 v 0.1 h 0.05 V 2.2 L 13.6,2.25 V 2.4 l 0.05,0.05 v 0.1 L 13.7,2.6 v 0.05 h 0.05 v 0.1 L 13.8,2.8 V 2.85 L 13.85,2.9 V 2.95 L 13.9,3 V 3.15 L 13.95,3.2 V 3.25 H 14 V 3.4 h 0.05 V 3.45 L 14.1,3.5 V 3.55 L 14.15,3.6 V 3.7 L 14.2,3.75 V 3.9 l 0.05,0.05 V 4 L 14.3,4.05 V 4.1 l 0.1,0.1 V 4.25 L 14.45,4.3 14.5,4.35 V 4.6 l 0.05,0.05 v 0.1 L 14.6,4.8 V 4.85 L 14.65,4.9 V 4.95 L 14.7,5 v 0.1 h 0.05 V 5.2 L 14.8,5.25 V 5.4 l 0.05,0.05 v 0.1 L 14.9,5.6 v 0.1 h 0.05 V 5.75 L 15,5.8 V 5.85 L 15.05,5.9 V 5.95 L 15.1,6 v 0.2 l 0.05,0.05 v 0.1 H 15.2 V 6.5 h 0.05 V 6.6 L 15.3,6.65 V 6.7 l 0.05,0.05 v 0.1 L 15.4,6.9 V 7 l 0.05,0.05 v 0.1 L 15.5,7.2 v 0.05 h 0.05 V 7.3 L 15.6,7.35 V 7.4 l 0.05,0.05 v 0.1 H 15.7 V 7.7 l 0.05,0.05 V 7.8 L 15.8,7.85 V 7.9 l 0.05,0.05 V 8.1 l 0.1,0.1 V 8.3 L 16,8.35 V 8.4 h 0.05 v 0.1 h 0.05 l 0.05,0.05 V 8.6 l 0.2,0.2 V 9.45 L 16.4,9.5 v 0.1 l 0.05,0.05 0.05,0.05 v 0.05 l 0.05,0.05 v 0.05 h 0.05 v 0.1 l 0.05,0.05 0.05,0.05 v 0.05 h 0.05 v 0.05 l 0.1,0.1 0.05,0.05 v 0.05 h 0.05 v 0.05 l 0.15,0.2 v 0.35 L 17.2,11 v 0.65 0.3 0.3 0.25 0.3 0.25 0.35 0.3 0.3 0.25 0.05 0.25 0.3 0.3 0.25 0.3 0.3 0.3 0.25 0.3 0.3 0.3 0.25 0.3 0.3 0.3 0.3 0.3 0.3 0.3 0.25 0.3 0.3 0.3 0.25 0.3 0.3 0.3 0.25 0.3 0.3 0.3 0.25 0.3 0.3 0.3 0.3 0.3 0.3 0.3 0.25 0.3 0.3 0.3 0.25 0.3 0.3 0.3 0.25 0.3 0.3 0.3 0.25 0.3 0.3 0.35 0.1 h -0.15 v 0.05 l -0.05,0.05 -0.05,0.1 h -0.1 v 0.05 l -0.05,0.05 v 0.05 h -0.05 v 0.1 h -0.7 V 30 l 0.1,-0.1 0.05,-0.05 h 0.05 V 29.8 h 0.05 v -0.05 h 0.05 V 29.5 29.3 29 v -0.3 -0.3 -0.3 -0.3 -0.25 -0.3 -0.3 -0.3 -0.25 -0.3 -0.3 -0.3 -0.25 -0.3 -0.3 -0.3 -0.25 -0.3 -0.3 -0.3 -0.3 -0.3 -0.3 -0.3 -0.25 -0.3 -0.3 -0.3 -0.25 -0.3 -0.3 -0.3 -0.25 -0.3 -0.3 -0.3 -0.25 -0.35 -0.3 -0.3 -0.25 -0.3 -0.3 -0.3 -0.25 -0.3 -0.3 -0.3 -0.25 -0.3 -0.3 -0.3 -0.25 -0.3 -0.3 -0.3 -0.3 -0.3 -0.3 -0.3 -0.25 -0.05 h -0.1 L 16.2,11.2 V 11.15 L 16.15,11.1 V 11.05 H 16.1 V 11 L 16.05,10.95 V 10.9 L 16,10.85 v -0.1 L 15.95,10.7 V 10.65 H 15.9 v -0.1 H 15.85 V 10.5 L 15.8,10.45 H 15.75 L 15.7,10.4 V 10.3 L 15.65,10.25 V 10.2 H 15.6 V 10.1 L 15.55,10.05 15.5,10 V 9.95 H 15.45 V 9.9 L 15.4,9.8 15.35,9.75 V 9.7 L 15.2,9.6 V 9.55 H 15.15 V 9.45 L 15.1,9.4 15.05,9.35 V 9.3 H 15 V 9.25 L 14.9,9.2 V 9.15 H 14.85 V 9.1 L 14.8,9.05 V 8.95 L 14.75,8.9 14.7,8.85 V 8.8 H 14.65 L 14.5,8.6 V 8.55 L 14.45,8.5 H 14.4 V 32.9 L 14.2,32.95 14,33.1 H 13.95 Q 12.75,33.75 11.7,34 L 9.3,34.5 7.25,34.6 5.55,34.35 Q 3.9,34 3,33.5 L 2.3,33.15 1.95,32.95 1.8,32.9 V 8.45 Q 1.6,8.05 1.95,7.6 L 2,7.5 2.3,7.45 V 7.4 L 2.95,7.25 4.1,7.15 4.95,7 5.45,6.95 V 6.25 L 5.6,6 5.75,5.8 V 3.6 H 5.7 L 5.15,3.55 H 4.45 V 2.85 H 4.5 V 2.8 H 4.6 V 2.35 l 0.2,-0.5 0.5,-0.4 h 5.9 l 0.25,0.1 v 0.2 Q 11.75,1.15 12.2,0.7 V 0.65 0.55 h 0.15 L 12.4,0.5 v 0.05 h 0.5 V 1.1 l 0.05,0.05 V 1.2 H 13.2 V 1.25 L 13.25,1.3 V 1.45 M 13.9,26.1 v -0.15 l -5.65,0.6 -5.9,-0.6 v 0.1 0.1 0.7 0.1 0.1 0.1 0.1 0.1 0.1 0.1 0.1 0.1 0.05 l 6,0.75 5.55,-0.7 V 27.3 27.2 27.15 27 v -0.1 -0.05 -0.1 -0.15 -0.05 -0.1 -0.1 -0.1 -0.15"
         fill="#ffffff"
         fill-rule="evenodd"
         stroke="none"
         id="path6" />
    </g>
  </defs>
</svg>
