<?xml version="1.0" encoding="UTF-8" standalone="no"?>
<!-- Generator: Adobe Illustrator 16.0.0, SVG Export Plug-In . SVG Version: 6.00 Build 0)  -->

<svg
   version="1.1"
   x="0px"
   y="0px"
   width="67.375"
   height="41"
   viewBox="0 0 67.375 41"
   enable-background="new 0 0 52.375 32"
   xml:space="preserve"
   id="svg535"
   xmlns="http://www.w3.org/2000/svg"
   xmlns:svg="http://www.w3.org/2000/svg"><defs
   id="defs539" />
<g
   id="Selected_Items"
   transform="translate(0,6)">
	<g
   id="g531">
		<g
   id="Selected_Items_49_">
			<path
   fill-rule="evenodd"
   clip-rule="evenodd"
   fill="#ffffff"
   d="m 24.563,1.998 c 0,-0.029 0.014,-0.045 0.044,-0.045 0.058,-0.028 0.116,-0.042 0.176,-0.042 l 0.042,-0.043 c 0.029,-0.03 0.058,-0.047 0.085,-0.047 l 0.046,-0.042 c 0.028,-0.03 0.059,-0.044 0.087,-0.044 0,-0.029 0.015,-0.043 0.043,-0.043 h 0.043 V 1.647 c 0.031,0 0.059,-0.013 0.09,-0.044 l 0.086,-0.087 c 0.028,0 0.043,-0.015 0.043,-0.043 0.029,0 0.045,-0.013 0.045,-0.043 0.058,0 0.1,-0.015 0.128,-0.044 0.031,-0.03 0.059,-0.044 0.088,-0.044 0.088,0 0.19,0 0.306,0 0,-0.028 0,-0.059 0,-0.087 H 25.96 V 1.21 c 0.174,0 0.349,0.015 0.522,0.044 v 0.042 c 0.03,0.03 0.059,0.045 0.088,0.045 v 0.044 c 0.029,0 0.058,0.015 0.088,0.044 L 26.7,1.472 c 0.029,0 0.059,0.014 0.088,0.043 v 0.046 c 0.029,0 0.043,0.013 0.043,0.041 0.058,0 0.086,0.017 0.086,0.044 0.03,0.029 0.058,0.044 0.089,0.044 0.029,0 0.043,0.014 0.043,0.043 0.03,0 0.058,0.014 0.088,0.044 0,0.028 0.015,0.042 0.044,0.042 h 0.087 l 0.043,0.047 c 0.03,0.027 0.06,0.043 0.087,0.043 l 0.046,0.087 0.084,0.042 c 0.062,0 0.104,0.017 0.132,0.045 0.031,0.028 0.059,0.058 0.087,0.087 v 0.09 c 0,0.028 0,0.072 0,0.13 v 0.131 c 0,0.06 0,0.103 0,0.133 V 2.87 c 0,0.059 0,0.103 0,0.133 0,0.028 0,0.058 0,0.086 v 0.132 c 0,0.058 0,0.101 0,0.13 6.266,0 12.527,0 18.79,0 V 3.306 c 0,-0.028 0,-0.056 0,-0.085 0,-0.029 0,-0.059 0,-0.088 0,-0.028 0,-0.059 0,-0.086 0,-0.031 0,-0.06 0,-0.088 0,-0.029 0,-0.06 0,-0.088 h 0.044 c 0.028,0 0.058,0 0.087,0 0,-0.029 0.014,-0.056 0.042,-0.087 0.03,0 0.043,-0.015 0.043,-0.043 h 0.043 c 0,-0.028 0.015,-0.058 0.044,-0.086 h 0.045 c 0,-0.03 0,-0.059 0,-0.088 0.029,0 0.058,-0.015 0.086,-0.044 h 0.043 c 0,-0.029 0.016,-0.058 0.044,-0.086 0.029,0 0.044,-0.015 0.044,-0.044 0.029,0 0.043,-0.013 0.043,-0.044 V 2.302 c 0,-0.029 0.013,-0.042 0.044,-0.042 L 47.232,2.216 V 2.171 c 0.408,0 0.832,0 1.267,0 v 0.044 l 0.088,0.086 c 0,0.029 0.015,0.043 0.043,0.043 0,0.031 0.015,0.044 0.044,0.044 v 0.044 c 0.029,0.029 0.043,0.057 0.043,0.086 h 0.045 l 0.044,0.044 c 0.028,0.029 0.058,0.059 0.086,0.088 0,0.028 0,0.058 0,0.086 0.03,0 0.058,0 0.087,0 0,0.029 0.014,0.043 0.043,0.043 0,0.031 0.015,0.059 0.045,0.087 0.027,0 0.058,0 0.086,0 0,0.059 0,0.103 0,0.133 0,0.028 0,0.058 0,0.086 v 0.132 c 0,0.03 0,0.058 0,0.085 0.03,0.031 0.06,0.044 0.088,0.044 0,0.03 0,0.073 0,0.132 0.088,0 0.176,0 0.262,0 0,0.06 0,0.101 0,0.13 v 0.09 c 0.039,0.032 0.068,0.061 0.097,0.092 0.029,0.027 0.074,0.042 0.132,0.042 0,0.029 0.014,0.059 0.043,0.088 h 0.044 c 0.028,0.029 0.087,0.043 0.174,0.043 V 4.05 c 0,0.058 0,0.102 0,0.13 v 0.218 c 0,0.06 0,0.104 0,0.132 v 0.088 c 0,0.027 0,0.059 0,0.087 0,0.028 0.029,0.045 0.087,0.045 0,0.06 0,0.102 0,0.133 v 0.086 c 0.031,0.028 0.075,0.043 0.132,0.043 0,0.03 0,0.059 0,0.087 0,0.029 0,0.059 0,0.089 0,0.028 0,0.056 0,0.085 0,0.03 0,0.058 0,0.088 0,0.028 0,0.06 0,0.088 v 0.044 c 0.06,0 0.133,0 0.218,0 v 0.085 c 0,0.03 0,0.074 0,0.133 0.468,0 0.935,0 1.399,0 0,0.028 0,0.07 0,0.13 0.087,0 0.173,0 0.263,0 0,0.029 0,0.059 0,0.089 0,0.028 0,0.057 0,0.086 0,0.029 0,0.059 0,0.087 0,0.027 0,0.059 0,0.087 0,0.031 0,0.059 0,0.086 0,0.031 0,0.06 0,0.088 0,0.03 0,0.058 0,0.089 0,0.028 0,0.057 0,0.087 0,0.028 0,0.058 0,0.086 0,0.03 0,0.06 0,0.088 0,0.03 0,0.06 0,0.087 0,0.03 0,0.059 0,0.089 0,0.027 0,0.057 0,0.087 0,0.029 0,0.057 0,0.088 0,0.028 0,0.058 0,0.086 0,0.029 0,0.059 0,0.087 0,0.03 0,0.059 0,0.087 0,0.028 0,0.059 0,0.086 0,0.03 0,0.058 0,0.091 0,0.027 0,0.058 0,0.086 0,0.029 0,0.057 0,0.086 0,0.028 0,0.058 0,0.086 v 0.088 c 0,0.03 0,0.058 0,0.088 0,0.029 0,0.057 0,0.088 v 0.043 c -0.058,0 -0.103,0 -0.132,0 -0.525,-0.03 -1.062,-0.043 -1.616,-0.043 v 0.043 c -0.059,0 -0.104,0 -0.133,0 0,0.059 0,0.102 0,0.131 0,0.03 0,0.058 0,0.087 V 8.42 c -0.057,0 -0.101,0 -0.132,0 0,0.059 0,0.102 0,0.13 0,0.029 0,0.061 0,0.089 0,0.029 0,0.06 0,0.087 V 8.77 c -0.027,0.058 -0.058,0.102 -0.086,0.129 0,0.03 -0.014,0.058 -0.042,0.088 -0.031,0.029 -0.061,0.058 -0.088,0.088 0,0.028 0,0.059 0,0.087 v 0.044 c -0.059,0.027 -0.118,0.043 -0.176,0.043 0,0.059 0,0.104 0,0.132 v 0.042 c 0,0.029 -0.013,0.045 -0.043,0.045 0,0.03 -0.015,0.044 -0.044,0.044 0,0.027 0,0.059 0,0.086 l -0.042,0.043 c 0,0.03 -0.016,0.045 -0.045,0.045 V 9.73 L 49.47,9.774 v 0.088 c -0.029,0 -0.043,0.015 -0.043,0.044 -0.031,0 -0.088,0 -0.176,0 V 9.95 c 0,0.058 0,0.1 0,0.13 v 0.089 l -0.044,0.042 v 0.044 c -0.204,0 -0.421,0 -0.655,0 v -0.044 c -4.194,-0.029 -8.39,-0.058 -12.583,-0.086 v 0.044 c -0.264,0 -0.509,0 -0.745,0 0,0.029 0,0.058 0,0.086 V 10.3 c 0,0.058 0,0.102 0,0.13 0,0.029 0,0.058 0,0.087 0,0.03 0,0.059 0,0.088 0,0.029 0,0.058 0,0.088 0,0.028 0,0.058 0,0.086 0,0.03 0,0.061 0,0.088 0,0.03 0,0.058 0,0.088 0,0.027 0,0.058 0,0.086 0,0.03 0,0.06 0,0.087 0,0.03 0,0.059 0,0.087 0,0.031 0,0.06 0,0.089 0,0.028 0,0.06 0,0.088 0,0.027 0,0.058 0,0.086 0,0.029 0,0.059 0,0.086 0,0.03 0,0.059 0,0.09 0,0.029 0,0.057 0,0.087 0,0.027 0,0.057 0,0.086 0,0.028 0,0.059 0,0.087 0,0.029 0,0.058 0,0.086 0,0.028 0,0.059 0,0.089 0,0.028 0,0.058 0,0.088 0,0.028 0,0.058 0,0.086 0,0.029 0,0.06 0,0.087 0,0.028 0,0.059 0,0.088 0,0.028 0,0.059 0,0.087 0,0.03 0,0.059 0,0.087 0,0.03 0,0.059 0,0.088 0,0.029 0,0.057 0,0.087 0,0.028 0,0.057 0,0.088 -0.057,0 -0.116,0 -0.173,0 v 0.086 c -0.322,0.03 -0.642,0.058 -0.961,0.087 v 0.044 c -0.263,0 -0.523,-0.014 -0.787,-0.044 -0.06,0 -0.102,0 -0.131,0 -0.058,0 -0.116,0 -0.176,0 v 0.087 c -0.027,0 -0.057,0 -0.085,0 -0.03,0.029 -0.059,0.045 -0.088,0.045 0,0.027 0,0.058 0,0.086 -0.028,0 -0.058,0 -0.085,0 0,0.029 0,0.059 0,0.087 v 0.044 h -0.045 c -0.03,0.029 -0.045,0.059 -0.045,0.087 h -0.043 c 0,0.031 0,0.058 0,0.088 l -0.044,0.045 h -0.042 c -0.029,0.027 -0.044,0.058 -0.044,0.085 v 0.045 H 32.43 c -0.028,0.03 -0.042,0.06 -0.042,0.088 l -0.131,0.132 c 0,0.027 0,0.057 0,0.086 -0.029,0 -0.046,0.015 -0.046,0.043 h -0.042 c -0.027,0.03 -0.044,0.059 -0.044,0.088 v 0.087 c -0.029,0 -0.057,0.014 -0.086,0.044 H 31.99 c 0,0.029 0,0.059 0,0.089 -0.027,0 -0.041,0.013 -0.041,0.041 -0.029,0 -0.044,0.015 -0.044,0.044 v 0.043 c -0.029,0.03 -0.057,0.044 -0.087,0.044 l -0.044,0.042 v 0.046 H 31.73 c 0,0.028 0,0.058 0,0.088 -0.028,0 -0.059,0.013 -0.087,0.042 v 0.043 c -0.029,0 -0.044,0.013 -0.044,0.044 -0.058,0 -0.116,0.014 -0.174,0.042 l -0.044,0.088 v 0.042 l -0.088,0.087 v 0.176 c 0,0.028 0,0.059 0,0.088 v 0.131 c 0,0.028 0,0.059 0,0.086 v 0.043 c 0,0.031 0,0.059 0,0.089 v 0.041 c 0,0.03 0,0.06 0,0.088 0,0.03 0,0.06 0,0.088 v 0.173 c 0,0.03 0,0.059 0,0.088 0,0.03 0,0.058 0,0.088 v 0.262 c 0,0.029 0,0.056 0,0.088 v 0.26 c 0,0.031 0,0.059 0,0.088 v 0.262 c 0,0.028 0,0.059 0,0.087 v 0.263 c 0,0.028 0,0.058 0,0.086 v 0.264 c 0,0.028 0,0.058 0,0.085 0.088,0 0.206,0 0.351,0 0.029,0.03 0.073,0.06 0.131,0.088 0,0.058 0.016,0.088 0.044,0.088 0,0.027 0.014,0.058 0.043,0.085 0,0.033 0,0.073 0,0.133 v 0.131 c 0,0.028 0,0.059 0,0.086 0,0.03 0,0.074 0,0.132 v 0.13 c 0,0.029 0,0.073 0,0.131 l 0.044,0.044 v 0.352 c 0,0.028 -0.016,0.042 -0.044,0.042 v 0.044 l -0.043,0.042 v 0.306 l -0.044,0.044 V 20 c -0.029,0 -0.044,0.014 -0.044,0.043 0,0.03 -0.014,0.044 -0.044,0.044 v 0.043 c -0.028,0 -0.043,0.013 -0.043,0.044 0,0.027 0,0.059 0,0.086 v 0.088 c -0.059,0 -0.103,0 -0.131,0 -0.029,0 -0.058,0.013 -0.088,0.044 0,0.029 -0.013,0.044 -0.044,0.044 -0.029,0.029 -0.059,0.043 -0.088,0.043 v 0.044 h -0.044 c -0.028,0 -0.057,0.014 -0.087,0.042 -0.028,0 -0.056,0.013 -0.087,0.044 -0.027,0 -0.06,0 -0.087,0 0,0.03 -0.015,0.044 -0.044,0.044 v 0.044 c 0,0.029 0,0.059 0,0.086 v 0.044 c -0.028,0 -0.058,0.014 -0.086,0.044 0,0.028 0,0.058 0,0.088 v 0.042 c 0,0.029 0,0.06 0,0.087 0,0.03 -0.016,0.059 -0.043,0.089 l -0.047,0.042 v 0.045 c 0,0.027 0,0.057 0,0.086 0,0.03 0,0.06 0,0.088 0,0.029 0,0.058 0,0.086 0,0.031 0,0.06 0,0.087 0,0.03 0,0.061 0,0.09 0,0.027 0,0.056 0,0.086 0,0.03 0,0.058 0,0.088 0,0.028 0,0.058 0,0.087 0,0.028 0,0.059 0,0.087 0,0.03 0,0.059 0,0.087 0,0.03 0,0.059 0,0.089 0,0.029 0,0.057 0,0.086 0,0.029 0,0.057 0,0.088 0,0.027 0,0.059 0,0.087 0,0.03 0,0.059 0,0.086 0,0.031 0,0.059 0,0.088 0,0.029 0,0.058 0,0.088 0,0.028 0,0.058 0,0.087 0,0.028 0,0.06 0,0.087 0,0.03 0,0.059 0,0.089 v 0.086 c 0,0.028 0,0.058 0,0.085 0,0.03 0,0.061 0,0.09 0,0.029 0,0.057 0,0.086 v 0.088 c 0,0.028 0,0.058 0,0.085 0,0.031 0,0.074 0,0.133 v 0.131 c 0,0.028 0,0.058 0,0.088 0,0.027 0,0.072 0,0.13 v 0.131 c 0,0.029 0,0.072 0,0.131 V 24.5 c 0,0.058 0,0.101 0,0.13 v 0.219 c 0,0.059 0,0.101 0,0.132 v 0.217 c 0,0.058 0,0.103 0,0.131 v 0.087 c 0,0.03 0,0.059 0,0.089 v 0.043 c 0,0.059 0,0.103 0,0.132 v 0.086 c 0,0.029 0,0.058 0,0.088 v 0.043 c 0,0.059 0,0.102 0,0.132 v 0.086 c 0,0.029 0,0.059 0,0.086 0,0.028 0,0.06 0,0.09 0,0.029 0,0.058 0,0.085 0,0.031 0,0.059 0,0.087 v 1.486 c 0,0.03 0,0.059 0,0.089 v 0.524 c 0,0.028 0,0.06 0,0.087 0,0.03 0,0.059 0,0.088 v 0.174 c 0,0.029 0,0.058 0,0.086 0,0.03 0,0.061 0,0.089 v 0.043 c 0,0.03 0,0.058 0,0.086 v 0.131 c 0,0.03 0,0.06 0,0.088 v 0.176 c 0,0.028 0,0.058 0,0.087 v 0.261 c 0,0.029 0,0.059 0,0.089 0,0.027 0,0.059 0,0.088 v 0.174 c 0,0.03 0,0.059 0,0.087 0,0.028 0,0.059 0,0.086 v 0.264 c 0,0.027 0,0.058 0,0.086 v 0.174 c -2.342,0 -4.69,0 -7.033,0 v -0.174 c 0,-0.028 0,-0.059 0,-0.086 v -0.611 c 0,-0.029 0,-0.061 0,-0.088 0,-0.03 0,-0.06 0,-0.089 v -0.175 c 0,-0.027 0,-0.058 0,-0.085 0,-0.029 0,-0.059 0,-0.087 v -0.176 c 0,-0.028 0,-0.058 0,-0.088 0,-0.027 0,-0.058 0,-0.086 v -0.175 c 0,-0.029 0,-0.059 0,-0.089 0,-0.028 0,-0.057 0,-0.086 v -0.174 c 0,-0.029 0,-0.059 0,-0.088 0,-0.027 0,-0.059 0,-0.087 v -0.175 c 0,-0.028 0,-0.058 0,-0.088 0,-0.028 0,-0.058 0,-0.086 V 28.04 c 0,-0.03 0,-0.059 0,-0.089 v -1.486 c 0,-0.028 0,-0.057 0,-0.087 0,-0.027 0,-0.056 0,-0.085 0,-0.03 0,-0.062 0,-0.09 0,-0.027 0,-0.057 0,-0.086 V 26.03 c 0,-0.03 0,-0.074 0,-0.132 v -0.043 c 0,-0.03 0,-0.06 0,-0.088 V 25.68 c 0,-0.029 0,-0.073 0,-0.132 v -0.043 c 0,-0.03 0,-0.059 0,-0.089 v -0.087 c 0,-0.028 0,-0.073 0,-0.131 v -0.217 c 0,-0.031 0,-0.073 0,-0.132 V 24.63 c 0,-0.029 0,-0.072 0,-0.13 v -0.219 c 0,-0.059 0,-0.102 0,-0.131 v -0.13 c 0,-0.059 0,-0.103 0,-0.13 0,-0.031 0,-0.06 0,-0.088 V 23.67 c 0,-0.059 0,-0.102 0,-0.133 0,-0.027 0,-0.057 0,-0.085 v -0.088 c 0,-0.03 0,-0.057 0,-0.086 0,-0.029 0,-0.06 0,-0.09 0,-0.028 0,-0.057 0,-0.085 v -0.086 c 0,-0.03 0,-0.06 0,-0.089 0,-0.027 0,-0.059 0,-0.087 0,-0.029 0,-0.059 0,-0.087 0,-0.03 0,-0.059 0,-0.088 0,-0.029 0,-0.057 0,-0.088 0,-0.027 0,-0.057 0,-0.086 0,-0.028 0,-0.06 0,-0.087 0,-0.031 0,-0.06 0,-0.088 0,-0.029 0,-0.058 0,-0.086 0,-0.03 0,-0.059 0,-0.089 0,-0.028 0,-0.057 0,-0.087 0,-0.028 0,-0.059 0,-0.087 0,-0.029 0,-0.059 0,-0.087 0,-0.03 0,-0.058 0,-0.088 0,-0.03 0,-0.059 0,-0.086 0,-0.03 0,-0.06 0,-0.09 0,-0.027 0,-0.056 0,-0.087 0,-0.028 0,-0.057 0,-0.086 0,-0.028 0,-0.058 0,-0.088 0,-0.029 0,-0.059 0,-0.086 0,-0.031 0,-0.06 0,-0.087 0,-0.03 0,-0.06 0,-0.089 0,-0.028 0,-0.058 0,-0.087 0,-0.027 0,-0.058 0,-0.086 v -0.088 h -0.044 c -0.028,0 -0.042,0.014 -0.042,0.044 0,0.028 0,0.058 0,0.088 -0.03,0.027 -0.06,0.056 -0.091,0.086 -0.027,0.03 -0.042,0.058 -0.042,0.089 v 0.044 c -0.03,0.027 -0.074,0.057 -0.132,0.087 -0.03,0.027 -0.044,0.057 -0.044,0.086 -0.029,0.03 -0.042,0.06 -0.042,0.088 -0.351,0 -0.715,0 -1.094,0 0,-0.028 0,-0.058 0,-0.088 -0.117,-0.029 -0.233,-0.045 -0.349,-0.045 -0.028,-0.028 -0.043,-0.058 -0.043,-0.086 -0.118,-0.029 -0.219,-0.042 -0.307,-0.042 0,-0.03 0,-0.06 0,-0.089 v -0.043 c -0.029,0 -0.058,0 -0.088,0 0,-0.03 0,-0.059 0,-0.086 0,-0.03 0,-0.06 0,-0.088 0,-0.03 0,-0.058 0,-0.089 0,-0.028 0,-0.057 0,-0.086 0,-0.028 0,-0.058 0,-0.088 0,-0.031 0,-0.058 0,-0.085 0,-0.031 0,-0.059 0,-0.087 0,-0.03 0,-0.059 0,-0.089 0,-0.03 0,-0.059 0,-0.088 0,-0.027 0,-0.059 0,-0.086 0,-0.031 0,-0.059 0,-0.087 0,-0.03 0,-0.058 0,-0.087 0,-0.03 0,-0.058 0,-0.088 0,-0.027 0,-0.057 0,-0.088 0,-0.028 0,-0.059 0,-0.087 0,-0.029 0,-0.057 0,-0.087 0,-0.03 0,-0.058 0,-0.087 0,-0.029 0,-0.058 0,-0.086 0,-0.03 0,-0.061 0,-0.089 0,-0.029 0,-0.058 0,-0.087 0,-0.029 0,-0.074 0,-0.132 v -0.043 c 0,-0.027 0,-0.057 0,-0.085 0,-0.03 0,-0.061 0,-0.09 0,-0.029 0,-0.07 0,-0.13 v -0.132 c 0,-0.027 0,-0.058 0,-0.086 -1.718,0 -3.437,0 -5.156,0 0,0.028 0,0.059 0,0.086 0,0.03 0,0.074 0,0.132 v 0.13 c 0,0.029 0,0.073 0,0.131 V 19.3 c 0,0.058 0,0.104 0,0.132 v 0.131 C 15.271,19.534 14.28,19.519 13.29,19.519 v 0.044 l -0.042,0.087 c -0.03,0.058 -0.044,0.102 -0.044,0.133 -0.028,0 -0.058,0.027 -0.086,0.085 l -0.044,0.043 c 0,0.058 -0.014,0.088 -0.044,0.088 -0.03,0.058 -0.059,0.102 -0.086,0.131 v 0.088 c -0.03,0.028 -0.044,0.056 -0.044,0.085 l -0.044,0.044 c 0,0.059 0,0.103 0,0.132 v 0.174 c -0.061,0.029 -0.104,0.044 -0.131,0.044 0,0.029 0,0.059 0,0.086 0,0.031 -0.015,0.059 -0.043,0.089 -0.029,0.028 -0.06,0.058 -0.089,0.088 0,0.027 -0.013,0.056 -0.044,0.086 0,0.03 -0.015,0.058 -0.043,0.089 0,0.029 0,0.057 0,0.086 0,0.028 0,0.058 0,0.086 0,0.029 0,0.075 0,0.133 -0.03,0 -0.057,0.014 -0.088,0.044 -0.028,0.029 -0.042,0.057 -0.042,0.088 0,0.028 -0.016,0.056 -0.045,0.087 -0.028,0.028 -0.057,0.072 -0.088,0.13 l -0.044,0.043 c 0,0.031 0,0.06 0,0.088 0,0.029 0,0.059 0,0.089 -0.027,0.027 -0.042,0.072 -0.042,0.129 v 0.043 l -0.043,0.089 -0.088,0.085 c 0,0.03 0,0.073 0,0.133 -0.028,0 -0.058,0.015 -0.086,0.043 0,0.058 -0.029,0.088 -0.087,0.088 v 0.087 c 0,0.028 0,0.072 0,0.131 l -0.046,0.043 v 0.086 c 0,0.06 0,0.104 0,0.133 v 0.13 c -0.06,0.029 -0.101,0.045 -0.131,0.045 0,0.029 0,0.057 0,0.086 l -0.042,0.088 c -0.06,0.028 -0.102,0.058 -0.131,0.085 0,0.031 0,0.074 0,0.133 v 0.044 l -0.043,0.086 c 0,0.028 0,0.058 0,0.088 0,0.027 0,0.072 0,0.13 -0.059,0 -0.104,0.014 -0.132,0.043 v 0.088 c -0.027,0.029 -0.044,0.072 -0.044,0.131 -0.028,0 -0.058,0.028 -0.086,0.086 l -0.045,0.044 V 24.5 c 0,0.03 0,0.058 0,0.086 v 0.044 c -0.028,0 -0.056,0.016 -0.088,0.046 0,0.027 0,0.056 0,0.086 -0.028,0.027 -0.042,0.058 -0.042,0.087 -0.029,0.028 -0.044,0.059 -0.044,0.086 0,0.03 0,0.061 0,0.089 0,0.029 0,0.059 0,0.087 -0.058,0 -0.103,0.016 -0.131,0.043 0,0.027 0,0.06 0,0.088 v 0.086 c 0,0.03 0,0.074 0,0.132 -0.058,0 -0.102,0.014 -0.13,0.044 0,0.03 0,0.057 0,0.086 -0.03,0.06 -0.061,0.088 -0.089,0.088 0,0.028 0,0.072 0,0.131 v 0.043 c 0,0.03 0,0.058 0,0.087 l -0.043,0.088 c -0.059,0.029 -0.088,0.072 -0.088,0.13 v 0.133 c 0,0.058 -0.013,0.085 -0.043,0.085 -0.06,0.031 -0.089,0.074 -0.089,0.132 v 0.131 c 0.029,0.06 0.073,0.088 0.132,0.088 0,0.028 0,0.059 0,0.086 0.029,0.03 0.073,0.046 0.131,0.046 0,0.027 0,0.071 0,0.128 l 0.044,0.045 c 0,0.03 0.014,0.058 0.044,0.087 0,0.029 0,0.058 0,0.089 0.028,0.028 0.057,0.071 0.087,0.129 0.027,0 0.042,0.014 0.042,0.044 v 0.173 c 0,0.029 0,0.074 0,0.132 v 0.218 c 0,0.03 0,0.073 0,0.132 v 0.132 c 0,0.057 0,0.101 0,0.129 v 0.088 c -0.058,0 -0.102,0.013 -0.13,0.044 0,0.027 0,0.059 0,0.088 0,0.027 0,0.058 0,0.085 0,0.03 0,0.06 0,0.088 -0.061,0.03 -0.118,0.058 -0.176,0.088 -0.028,0.029 -0.043,0.061 -0.043,0.088 C 10.176,28.838 9.872,28.821 9.578,28.821 H 9.533 c 0,-0.027 0,-0.059 0,-0.087 -0.379,0 -0.773,-0.015 -1.181,-0.045 V 28.65 C 7.798,28.623 7.232,28.591 6.649,28.563 6.649,28.533 6.634,28.52 6.606,28.52 5.992,28.491 5.381,28.476 4.769,28.476 c 0,-0.03 0,-0.058 0,-0.088 -0.204,0 -0.377,-0.015 -0.522,-0.043 L 4.203,28.301 c -0.497,0 -0.991,0 -1.486,0 -0.059,0 -0.102,-0.014 -0.131,-0.042 -0.087,-0.03 -0.175,-0.044 -0.261,-0.044 0,-0.031 -0.031,-0.042 -0.088,-0.042 -0.351,-0.03 -0.714,-0.059 -1.092,-0.089 -0.03,-0.027 -0.06,-0.043 -0.088,-0.043 0,-0.059 0,-0.102 0,-0.132 v -0.13 c -0.173,0 -0.335,-0.014 -0.481,-0.043 -0.028,-0.028 -0.057,-0.044 -0.086,-0.044 0,-0.058 0,-0.104 0,-0.132 -0.029,0 -0.06,-0.028 -0.088,-0.085 -0.029,0 -0.059,-0.029 -0.087,-0.088 v -0.044 c 0,-0.058 0,-0.101 0,-0.129 0,-0.031 0,-0.06 0,-0.089 0,-0.029 0,-0.057 0,-0.087 v -0.045 c 0,-0.057 0,-0.101 0,-0.128 0,-0.031 0,-0.061 0,-0.092 0,-0.027 0,-0.057 0,-0.085 v -0.044 c 0,-0.058 0,-0.101 0,-0.131 0,-0.029 0,-0.058 0,-0.088 0,-0.027 0,-0.058 0,-0.086 0,-0.03 0,-0.06 0,-0.087 0,-0.031 0,-0.059 0,-0.089 0,-0.028 0,-0.058 0,-0.086 0,-0.03 0,-0.057 0,-0.088 0,-0.029 0,-0.06 0,-0.088 0,-0.027 0,-0.058 0,-0.086 0.028,-0.029 0.058,-0.06 0.087,-0.087 0.028,-0.031 0.059,-0.06 0.088,-0.09 0,-0.027 0,-0.059 0,-0.086 0,-0.029 0,-0.059 0,-0.087 0.029,-0.028 0.058,-0.058 0.086,-0.087 0,-0.029 0.017,-0.058 0.045,-0.087 0,-0.03 0,-0.058 0,-0.088 0,-0.029 0,-0.058 0,-0.087 0,-0.028 0,-0.058 0,-0.087 0,-0.028 0,-0.059 0,-0.089 0,-0.027 0.014,-0.058 0.044,-0.086 0.028,-0.03 0.042,-0.06 0.042,-0.087 0,-0.03 0,-0.059 0,-0.086 0,-0.03 0,-0.06 0,-0.09 0,-0.028 0,-0.056 0,-0.086 0,-0.029 0,-0.059 0,-0.088 v -0.044 c 0.031,0 0.059,0 0.088,0 v -0.086 c 0,-0.059 0,-0.102 0,-0.131 v -0.088 c 0.028,-0.029 0.058,-0.043 0.088,-0.043 0.027,-0.059 0.042,-0.103 0.042,-0.13 0,-0.031 0.014,-0.06 0.044,-0.088 v -0.086 c 0.028,-0.03 0.057,-0.044 0.086,-0.044 0,-0.059 0,-0.102 0,-0.133 0,-0.027 0,-0.057 0,-0.085 v -0.133 c 0.028,-0.029 0.058,-0.042 0.088,-0.042 v -0.09 c 0,-0.028 0,-0.057 0,-0.085 0.058,-0.029 0.116,-0.058 0.172,-0.086 0,-0.03 0,-0.06 0,-0.089 0,-0.027 0,-0.059 0,-0.087 0,-0.029 0,-0.059 0,-0.087 0.059,-0.03 0.09,-0.059 0.09,-0.088 0,-0.029 0,-0.057 0,-0.088 0,-0.027 0,-0.057 0,-0.086 0.028,-0.028 0.058,-0.06 0.087,-0.087 0.029,-0.031 0.059,-0.06 0.088,-0.088 0.028,-0.029 0.058,-0.058 0.086,-0.086 0,-0.03 0,-0.059 0,-0.089 0.059,0 0.104,0 0.131,0 0,-0.057 0,-0.102 0,-0.129 0,-0.031 0,-0.06 0,-0.089 0.028,-0.028 0.059,-0.057 0.087,-0.088 0,-0.027 0.015,-0.043 0.046,-0.043 0.026,-0.059 0.041,-0.103 0.041,-0.13 0,-0.031 0.016,-0.059 0.047,-0.087 0.055,-0.031 0.1,-0.059 0.13,-0.088 V 21.45 c 0,-0.058 0,-0.104 0,-0.133 C 2.176,21.289 2.19,21.259 2.19,21.231 2.218,21.202 2.235,21.173 2.235,21.145 V 21.1 c 0.057,-0.028 0.101,-0.043 0.129,-0.043 0,-0.059 0.017,-0.086 0.045,-0.086 0.029,-0.06 0.042,-0.103 0.042,-0.132 l 0.045,-0.087 c 0,-0.03 0.014,-0.044 0.045,-0.044 0,-0.058 0.015,-0.088 0.042,-0.088 0,-0.058 0,-0.103 0,-0.13 v -0.087 c 0.058,-0.031 0.103,-0.06 0.131,-0.089 V 20.26 c 0,-0.059 0,-0.102 0,-0.13 0.029,0 0.059,-0.029 0.087,-0.088 0,-0.029 0.016,-0.058 0.044,-0.087 0.028,-0.028 0.058,-0.059 0.086,-0.087 0,-0.028 0,-0.058 0,-0.085 0.028,-0.031 0.073,-0.061 0.133,-0.09 0,-0.029 0,-0.058 0,-0.087 0.028,-0.027 0.042,-0.057 0.042,-0.087 0.03,-0.028 0.044,-0.056 0.044,-0.086 0,-0.028 0.016,-0.059 0.045,-0.086 0.029,-0.031 0.057,-0.06 0.087,-0.089 0,-0.03 0,-0.058 0,-0.088 0.028,-0.028 0.058,-0.058 0.087,-0.087 0.028,-0.027 0.044,-0.059 0.044,-0.086 0.027,-0.029 0.072,-0.058 0.13,-0.088 0,-0.027 0,-0.058 0,-0.087 h 0.088 c 0,-0.058 0,-0.103 0,-0.132 0.029,-0.027 0.042,-0.058 0.042,-0.086 0.028,0 0.06,-0.03 0.087,-0.088 0.059,-0.029 0.103,-0.043 0.131,-0.043 0,-0.06 0,-0.1 0,-0.133 v -0.085 c 0.06,0 0.102,-0.016 0.131,-0.043 0,-0.031 0,-0.059 0,-0.088 0.028,-0.028 0.058,-0.058 0.089,-0.088 0,-0.028 0,-0.059 0,-0.086 0.058,-0.028 0.102,-0.059 0.132,-0.087 0,-0.028 0,-0.059 0,-0.088 0,-0.03 0,-0.058 0,-0.088 0.056,0 0.1,-0.014 0.129,-0.042 0,-0.028 0,-0.059 0,-0.087 0.031,-0.03 0.059,-0.061 0.088,-0.088 0,-0.03 0,-0.058 0,-0.088 0.058,-0.028 0.102,-0.059 0.13,-0.087 0,-0.028 0,-0.058 0,-0.086 0.031,-0.028 0.074,-0.058 0.132,-0.087 0,-0.031 0,-0.06 0,-0.089 0.03,-0.03 0.059,-0.057 0.087,-0.088 0,-0.027 0,-0.057 0,-0.085 0,-0.029 0,-0.057 0,-0.087 0.059,-0.029 0.103,-0.059 0.132,-0.087 0,-0.032 0,-0.06 0,-0.088 v -0.087 c 0.057,-0.03 0.1,-0.044 0.13,-0.044 0,-0.029 0.014,-0.073 0.043,-0.131 l 0.044,-0.088 v -0.045 c 0,-0.057 0.014,-0.087 0.044,-0.087 0.058,-0.056 0.087,-0.1 0.087,-0.129 V 15.856 C 5.348,15.797 5.39,15.77 5.42,15.77 c 0,-0.059 0,-0.104 0,-0.133 L 5.463,15.551 5.507,15.506 V 15.42 c 0,-0.06 0,-0.102 0,-0.132 0.028,0 0.059,-0.028 0.087,-0.088 0.029,-0.027 0.042,-0.058 0.042,-0.087 v -0.044 c 0,-0.028 0,-0.056 0,-0.086 0.03,-0.028 0.073,-0.044 0.133,-0.044 0,-0.028 0,-0.073 0,-0.13 V 14.59 C 5.709,14.56 5.666,14.517 5.636,14.458 v -0.13 C 5.578,14.298 5.535,14.271 5.507,14.24 c 0,-0.028 0,-0.058 0,-0.087 0,-0.028 0,-0.058 0,-0.087 -0.031,-0.029 -0.06,-0.059 -0.087,-0.086 -0.031,0 -0.073,-0.017 -0.131,-0.047 0,-0.028 0,-0.058 0,-0.085 0,-0.029 0,-0.059 0,-0.088 C 5.26,13.732 5.216,13.688 5.158,13.63 V 13.497 C 5.129,13.469 5.1,13.439 5.071,13.41 5.041,13.383 4.997,13.337 4.941,13.279 4.912,13.279 4.868,13.264 4.809,13.236 V 13.06 C 4.78,13.031 4.752,12.988 4.722,12.931 V 12.79 c 0,-0.058 0,-0.101 0,-0.132 V 12.44 c 0,-0.029 0,-0.06 0,-0.088 -0.729,0 -1.441,0 -2.141,0 0,-0.027 0,-0.058 0,-0.087 -0.087,-0.028 -0.16,-0.043 -0.22,-0.043 V 12.18 C 2.333,12.15 2.289,12.136 2.232,12.136 2.202,12.107 2.173,12.076 2.145,12.048 2.118,11.99 2.09,11.96 2.06,11.96 2.002,11.93 1.957,11.902 1.931,11.871 1.9,11.841 1.885,11.799 1.885,11.742 c -0.028,0 -0.059,-0.017 -0.087,-0.044 0,-0.03 0,-0.058 0,-0.088 C 1.771,11.583 1.726,11.553 1.667,11.523 V 11.48 c -0.028,-0.028 -0.073,-0.059 -0.13,-0.086 -0.029,0 -0.073,-0.015 -0.131,-0.042 v -0.089 c 0,-0.03 0,-0.074 0,-0.133 l -0.09,-0.087 c -0.057,0 -0.115,-0.015 -0.172,-0.043 0,-0.03 0,-0.057 0,-0.086 -0.03,-0.031 -0.06,-0.059 -0.088,-0.088 0,-0.028 0,-0.058 0,-0.087 0,-0.028 0,-0.059 0,-0.087 H 0.969 v -0.088 c 0,-0.058 0,-0.102 0,-0.131 v -0.219 c 0,-0.058 0,-0.101 0,-0.131 V 9.992 c 0,-0.028 0,-0.058 0,-0.086 V 9.862 c 0,-0.058 0,-0.101 0,-0.13 V 9.643 c 0,-0.028 0,-0.058 0,-0.086 0,-0.03 0,-0.058 0,-0.088 0,-0.029 0,-0.06 0,-0.087 V 9.294 c 0,-0.029 0,-0.06 0,-0.087 0,-0.03 0,-0.059 0,-0.088 0,-0.029 0,-0.058 0,-0.087 0,-0.029 0,-0.057 0,-0.087 0,-0.027 0,-0.058 0,-0.088 0,-0.027 0,-0.058 0,-0.085 0,-0.03 0,-0.059 0,-0.088 0,-0.028 0,-0.058 0,-0.088 0,-0.028 0,-0.056 0,-0.087 0,-0.028 0,-0.059 0,-0.087 0,-0.029 0,-0.059 0,-0.087 0,-0.03 0,-0.058 0,-0.086 0,-0.031 0,-0.059 0,-0.089 0,-0.027 0,-0.057 0,-0.086 0,-0.03 0,-0.061 0,-0.089 0,-0.029 0,-0.057 0,-0.086 0,-0.028 0,-0.058 0,-0.087 0,-0.029 0,-0.058 0,-0.086 0,-0.029 0,-0.06 0,-0.087 0,-0.03 0,-0.06 0,-0.089 V 7.458 c 0,-0.028 0,-0.058 0,-0.088 0,-0.027 0,-0.056 0,-0.085 0,-0.031 0,-0.059 0,-0.088 V 7.108 c 0,-0.028 0,-0.057 0,-0.087 0,-0.027 0,-0.06 0,-0.087 0,-0.028 0,-0.059 0,-0.086 V 6.759 c 0,-0.029 0,-0.058 0,-0.085 0,-0.03 0,-0.074 0,-0.132 V 6.41 c 0,-0.028 0,-0.072 0,-0.132 V 6.149 c 0,-0.031 0,-0.06 0,-0.089 H 1.055 V 6.017 c 0,-0.029 0,-0.058 0,-0.086 0,-0.03 0,-0.06 0,-0.089 0,-0.029 0,-0.06 0,-0.087 0,-0.029 0,-0.059 0,-0.087 0,-0.028 0,-0.058 0,-0.088 0,-0.029 0,-0.057 0,-0.085 V 5.449 c 0.028,0 0.058,0 0.088,0 0,-0.029 0,-0.06 0,-0.088 C 1.23,5.331 1.315,5.303 1.405,5.273 1.433,5.243 1.447,5.216 1.447,5.188 1.478,5.158 1.492,5.128 1.492,5.099 h 0.044 c 0.057,0 0.13,-0.015 0.217,-0.043 0,-0.03 0.017,-0.059 0.044,-0.087 V 4.882 C 1.826,4.852 1.856,4.809 1.885,4.75 1.944,4.75 2.019,4.734 2.104,4.706 2.133,4.678 2.162,4.646 2.191,4.619 2.219,4.59 2.236,4.56 2.236,4.531 2.293,4.502 2.365,4.474 2.452,4.446 c 0,-0.031 0.031,-0.06 0.09,-0.089 V 4.313 L 2.584,4.269 c 0.058,0 0.103,-0.014 0.131,-0.042 V 4.181 C 2.774,4.153 2.832,4.123 2.891,4.094 L 2.933,4.051 C 2.993,4.022 3.035,3.993 3.066,3.964 3.124,3.934 3.181,3.92 3.24,3.92 3.24,3.89 3.254,3.861 3.284,3.832 3.342,3.803 3.4,3.774 3.459,3.744 3.488,3.715 3.532,3.686 3.59,3.658 3.618,3.628 3.634,3.6 3.634,3.57 c 0.086,0 0.173,0 0.261,0 0,-0.027 0,-0.058 0,-0.087 C 3.955,3.454 3.997,3.424 4.026,3.397 V 3.351 C 4.084,3.322 4.159,3.292 4.247,3.265 c 0.056,-0.03 0.1,-0.044 0.129,-0.044 0,-0.029 0,-0.059 0,-0.088 V 3.089 c 0.059,0 0.103,-0.015 0.131,-0.042 H 4.55 V 3.003 H 4.594 V 2.958 c 0,-0.029 0,-0.06 0,-0.088 V 2.739 c 0.146,0 0.263,0.014 0.351,0.043 0,-0.029 0,-0.059 0,-0.087 0,-0.029 0,-0.058 0,-0.086 0,-0.029 0,-0.06 0,-0.089 0,-0.029 0,-0.058 0,-0.086 V 2.39 H 4.988 C 5.017,2.363 5.045,2.346 5.075,2.346 c 0,-0.028 0,-0.058 0,-0.086 h 0.043 c 0.03,-0.03 0.044,-0.058 0.044,-0.088 0,-0.029 0.014,-0.044 0.044,-0.044 0,-0.028 0,-0.057 0,-0.088 0.289,0 0.597,0.017 0.916,0.045 v 0.043 c 0.116,0.031 0.234,0.044 0.35,0.044 V 2.26 c 0,0.028 0,0.072 0,0.13 v 0.088 c 0,0.03 0.015,0.043 0.044,0.043 0,0.06 0.014,0.103 0.043,0.133 L 6.605,2.74 v 0.13 c 0,0.059 0,0.103 0,0.133 0,0.028 0,0.058 0,0.086 5.94,0 11.884,0.016 17.827,0.044 V 3.089 c 0,-0.028 0,-0.058 0,-0.086 0,-0.03 0,-0.074 0,-0.133 V 2.653 c 0,-0.03 0,-0.073 0,-0.133 V 2.39 c 0,-0.058 0,-0.102 0,-0.13 V 2.04 h 0.042 c 0.03,0 0.059,-0.014 0.089,-0.042 z M 21.94,14.8 c -0.029,-0.029 -0.057,-0.059 -0.086,-0.086 0,-0.031 0,-0.06 0,-0.091 0,-0.027 0,-0.056 0,-0.086 -0.028,-0.029 -0.06,-0.059 -0.087,-0.088 0,-0.028 0,-0.058 0,-0.085 0,-0.031 0,-0.06 0,-0.088 v -0.087 c -0.03,-0.03 -0.074,-0.058 -0.132,-0.088 v -0.129 c -0.029,0 -0.074,-0.017 -0.131,-0.047 0,-0.028 0,-0.058 0,-0.085 -0.029,-0.029 -0.058,-0.059 -0.088,-0.088 -0.028,-0.028 -0.058,-0.059 -0.086,-0.089 -0.204,0 -0.41,-0.014 -0.613,-0.041 -0.785,0 -1.572,0 -2.36,0 l 0.046,0.041 c 0,0.03 0,0.061 0,0.089 v 0.043 c 0,0.03 0,0.059 0,0.089 h 0.044 v 0.041 l 0.042,0.047 c 0,0.027 0.015,0.041 0.043,0.041 0,0.029 0,0.06 0,0.088 l 0.043,0.044 c 0.031,0.029 0.044,0.059 0.044,0.087 h 0.043 c 0,0.031 0.016,0.059 0.045,0.088 h 0.043 c 0,0.029 0.014,0.044 0.043,0.044 0.027,0.027 0.057,0.057 0.087,0.085 v 0.044 c 0.029,0.029 0.044,0.057 0.044,0.087 h 0.088 c 0,0.027 0,0.059 0,0.088 0.027,0 0.058,0 0.085,0 l 0.046,0.045 c 0.028,0.027 0.044,0.057 0.044,0.086 h 0.041 v 0.087 c 0.029,0.029 0.06,0.042 0.088,0.042 0.03,0 0.044,0.016 0.044,0.044 l 0.043,0.044 v 0.042 h 0.044 l 0.044,0.044 c 0.028,0.029 0.058,0.043 0.087,0.043 v 0.044 c 0,0.029 0.015,0.044 0.043,0.044 h 0.044 c 0.029,0.03 0.059,0.043 0.087,0.043 0.028,0 0.058,0.017 0.088,0.044 0.028,0 0.058,0.014 0.088,0.043 v 0.086 l 0.042,0.045 h 0.088 c 0.03,0.03 0.058,0.06 0.087,0.088 l 0.044,0.043 c 0,0.028 0,0.058 0,0.088 l -0.044,0.044 c -0.029,0.027 -0.044,0.059 -0.044,0.086 l -0.043,0.043 v 0.088 h -0.044 c 0,0.029 0,0.058 0,0.087 -0.029,0 -0.044,0.014 -0.044,0.042 -0.028,0 -0.042,0.017 -0.042,0.044 H 19.882 L 19.84,16.19 h -0.043 c -0.146,0 -0.263,0 -0.35,0 -0.058,0 -0.102,-0.013 -0.132,-0.043 -0.059,0 -0.102,0 -0.129,0 -0.03,-0.027 -0.061,-0.044 -0.091,-0.044 -0.028,0 -0.058,0 -0.085,0 -0.029,-0.028 -0.059,-0.042 -0.088,-0.042 l -0.044,-0.044 v -0.043 c -0.03,0 -0.074,0 -0.13,0 h -0.089 c -0.029,-0.028 -0.073,-0.043 -0.13,-0.043 0,-0.031 -0.015,-0.045 -0.043,-0.045 l -0.042,-0.043 c -0.031,0 -0.044,-0.015 -0.044,-0.045 -0.029,0 -0.046,-0.014 -0.046,-0.041 -0.028,0 -0.073,0 -0.131,0 L 18.18,15.713 v -0.045 c 0,-0.029 -0.013,-0.043 -0.043,-0.043 l -0.042,-0.043 c -0.03,-0.028 -0.06,-0.043 -0.087,-0.043 0,-0.029 -0.017,-0.045 -0.044,-0.045 -0.03,0 -0.045,-0.014 -0.045,-0.045 0,-0.027 -0.016,-0.041 -0.044,-0.041 L 17.831,15.363 V 15.32 c 0,-0.027 -0.014,-0.044 -0.043,-0.044 l -0.043,-0.043 c -0.029,-0.028 -0.059,-0.044 -0.088,-0.044 0,-0.027 -0.014,-0.044 -0.042,-0.044 -0.03,0 -0.042,-0.014 -0.042,-0.043 0,-0.029 -0.015,-0.044 -0.044,-0.044 l -0.044,-0.042 v -0.044 c 0,-0.028 -0.016,-0.044 -0.046,-0.044 -0.027,0 -0.043,-0.013 -0.043,-0.042 l -0.042,-0.044 c -0.03,-0.028 -0.059,-0.043 -0.087,-0.043 0,-0.029 -0.017,-0.042 -0.046,-0.042 0,-0.03 -0.015,-0.06 -0.043,-0.088 H 17.135 V 14.581 L 17.091,14.537 V 14.494 C 17.063,14.464 17.033,14.45 17.003,14.45 v -0.041 c 0,-0.03 -0.014,-0.06 -0.042,-0.089 0,-0.03 -0.016,-0.044 -0.044,-0.044 0,-0.029 -0.016,-0.044 -0.046,-0.044 V 14.19 c 0,-0.03 0,-0.058 0,-0.088 l -0.042,-0.043 c 0,-0.029 0,-0.059 0,-0.086 v -0.088 l -0.044,-0.044 c 0,-0.029 -0.014,-0.059 -0.043,-0.088 v -0.045 c 0,-0.027 0,-0.058 0,-0.085 -0.03,0 -0.059,0 -0.089,0 l -0.042,0.041 c -0.06,0.03 -0.104,0.061 -0.131,0.089 v 0.043 c -0.028,0.03 -0.059,0.059 -0.088,0.089 l -0.045,0.041 c -0.028,0.03 -0.043,0.059 -0.043,0.087 -0.029,0.06 -0.071,0.104 -0.13,0.132 0,0.059 0,0.102 0,0.131 0,0.029 -0.015,0.073 -0.044,0.133 -0.057,0.027 -0.087,0.056 -0.087,0.085 0,0.057 0,0.102 0,0.129 0,0.031 0,0.074 0,0.134 -0.029,0.028 -0.059,0.071 -0.088,0.13 -0.028,0.029 -0.057,0.059 -0.086,0.087 -0.03,0.059 -0.044,0.102 -0.044,0.131 0,0.029 -0.03,0.073 -0.088,0.132 0,0.03 -0.015,0.073 -0.042,0.13 0,0.029 0,0.059 0,0.086 0,0.031 0,0.075 0,0.133 -0.029,0.029 -0.075,0.072 -0.13,0.132 0,0.03 0,0.072 0,0.13 -0.031,0.029 -0.047,0.057 -0.047,0.088 -0.027,0.028 -0.071,0.073 -0.13,0.131 0,0.028 0,0.073 0,0.129 0,0.031 0,0.075 0,0.133 -0.029,0 -0.044,0.029 -0.044,0.086 -0.029,0.029 -0.073,0.075 -0.131,0.131 0,0.031 0,0.073 0,0.133 2.156,0.028 4.297,0.058 6.424,0.087 0,-0.029 0,-0.059 0,-0.087 0,-0.032 0,-0.06 0,-0.088 0,-0.029 0,-0.059 0,-0.087 0,-0.03 0,-0.059 0,-0.088 0.058,-0.028 0.102,-0.057 0.132,-0.086 0.027,-0.03 0.059,-0.058 0.087,-0.088 v -0.088 c 0.029,-0.027 0.057,-0.044 0.086,-0.044 0,-0.056 0,-0.1 0,-0.129 v -0.088 c 0.059,0 0.117,-0.014 0.175,-0.043 0,-0.027 0,-0.059 0,-0.086 0,-0.03 0,-0.059 0,-0.089 0,-0.029 0,-0.058 0,-0.087 0.029,-0.028 0.06,-0.058 0.088,-0.088 0,-0.028 -0.015,-0.058 -0.044,-0.086 -0.028,-0.029 -0.043,-0.06 -0.043,-0.088 0,-0.027 0,-0.058 0,-0.087 0,-0.028 0,-0.059 0,-0.089 -0.029,-0.028 -0.044,-0.058 -0.044,-0.087 -0.027,-0.028 -0.073,-0.056 -0.131,-0.086 0,-0.028 0,-0.058 0,-0.087 C 21.94,14.856 21.94,14.828 21.94,14.8 Z M 6.343,15.936 V 15.891 H 6.299 v 0.045 z"
   id="path528" />
		</g>
	</g>
</g>

</svg>
