<?xml version="1.0" encoding="UTF-8" standalone="no"?>
<!-- Generator: Adobe Illustrator 16.0.0, SVG Export Plug-In . SVG Version: 6.00 Build 0)  -->

<svg
   version="1.1"
   x="0px"
   y="0px"
   width="98.5"
   height="41"
   viewBox="0 0 98.5 41"
   enable-background="new 0 0 83.5 32"
   xml:space="preserve"
   id="svg665"
   xmlns="http://www.w3.org/2000/svg"
   xmlns:svg="http://www.w3.org/2000/svg"><defs
   id="defs669" />
<g
   id="Selected_Items"
   transform="translate(0,6)">
	<g
   id="g661">
		<g
   id="Selected_Items_64_">
			<path
   fill-rule="evenodd"
   clip-rule="evenodd"
   fill="#ffffff"
   d="m 78.091,3.545 c 0,0.085 0.072,0.199 0.216,0.342 0.113,0.314 0.242,0.728 0.384,1.241 0.085,0.542 0.2,1.068 0.342,1.583 v 1.368 c 0.114,0.086 0.186,0.2 0.213,0.341 0.03,0.172 0.087,0.343 0.171,0.515 h 0.257 c 0.172,0 0.314,-0.015 0.427,-0.042 0.059,0 0.144,0 0.258,0 l 2.352,0.042 0.085,0.17 c 0,0.142 0.043,0.284 0.128,0.427 0.084,0.199 0.156,0.415 0.214,0.643 0.057,0.256 0.057,0.485 0,0.684 -0.058,0.229 -0.2,0.384 -0.428,0.47 -0.257,0.113 -0.569,0.186 -0.941,0.213 -0.313,0.058 -0.555,0.086 -0.727,0.086 -0.028,0 -0.171,0.043 -0.428,0.128 -0.17,0.029 -0.314,0.071 -0.427,0.128 h -0.255 c -0.145,0 -0.315,-0.044 -0.515,-0.128 0,0.257 -0.042,0.485 -0.126,0.685 -0.059,0.255 -0.244,0.427 -0.557,0.513 -0.115,0 -0.199,0.014 -0.256,0.042 -0.029,0.057 -0.058,0.086 -0.087,0.086 l -0.083,0.043 v 0.726 l -0.216,0.685 h -0.126 c -0.285,0 -0.714,0 -1.285,0 -0.627,0.029 -1.054,-0.072 -1.283,-0.299 -0.113,0 -0.213,0.058 -0.298,0.171 l -0.13,0.128 h -0.085 c -0.256,0.029 -0.513,0.129 -0.77,0.299 -0.228,0.172 -0.37,0.341 -0.428,0.513 0,0.085 0,0.3 0,0.642 0,0.312 0.029,0.698 0.086,1.154 0,0.483 0,1.068 0,1.753 0,0.741 0,1.439 0,2.094 0,0.657 0,1.283 0,1.882 -0.029,0.599 -0.058,1.099 -0.086,1.498 -0.084,0.571 -0.155,1.025 -0.214,1.367 -0.113,0.313 -0.199,0.571 -0.256,0.771 -0.084,0.17 -0.127,0.327 -0.127,0.471 l -0.128,0.213 H 72.79 c -0.228,0.057 -0.613,0.099 -1.154,0.129 -0.542,0 -0.928,-0.115 -1.155,-0.342 V 26.894 C 70.396,26.78 70.282,26.651 70.139,26.509 69.996,26.394 69.925,26.18 69.925,25.866 69.868,25.468 69.839,25.211 69.839,25.096 v -0.17 l -0.171,-0.128 c 0.144,-1.767 0.244,-3.236 0.299,-4.404 0.087,-1.113 0.143,-1.995 0.172,-2.652 0.057,-0.655 0.128,-1.154 0.214,-1.497 0.057,-0.314 0.099,-0.526 0.128,-0.641 -0.085,0 -0.185,-0.042 -0.3,-0.128 -0.056,-0.086 -0.142,-0.186 -0.256,-0.3 L 69.71,14.92 c -0.057,-0.028 -0.113,-0.058 -0.17,-0.085 -0.028,-0.056 -0.085,-0.086 -0.172,-0.086 0,-0.113 -0.084,-0.213 -0.256,-0.3 -0.199,-0.142 -0.328,-0.212 -0.385,-0.212 -0.142,0 -0.241,-0.029 -0.299,-0.086 -0.086,0 -0.128,-0.014 -0.128,-0.043 -0.029,0 -0.057,0 -0.085,0 l -0.642,0.129 c -0.027,0 -0.086,-0.029 -0.171,-0.086 -0.084,0 -0.142,-0.014 -0.171,-0.043 -0.084,0 -0.156,0 -0.213,0 -0.028,0 -0.099,0 -0.213,0 -0.114,0.03 -0.201,0.043 -0.257,0.043 -0.144,0.057 -0.285,0.086 -0.427,0.086 h -2.607 c 0,-0.086 0.013,-0.215 0.042,-0.386 0,-0.114 0.014,-0.257 0.042,-0.427 0,-0.114 0,-0.214 0,-0.299 -0.256,0.114 -0.641,0.34 -1.154,0.684 -0.541,0.285 -0.898,0.428 -1.069,0.428 h -1.754 c 0.058,0.227 0.128,0.542 0.214,0.939 0.086,0.401 0.171,0.826 0.257,1.283 0.057,0.514 0.142,1.084 0.256,1.712 -0.114,0 -0.199,0.012 -0.256,0.042 l -0.471,0.257 c 0,0.086 0.073,0.414 0.214,0.984 0.171,0.598 0.357,1.368 0.556,2.308 0.172,0.94 0.385,1.981 0.643,3.122 0.228,1.197 0.499,2.38 0.813,3.549 0.131,0.598 0.267,1.211 0.406,1.839 0.021,0.102 0.042,0.201 0.063,0.299 -0.071,0.004 -0.141,0.018 -0.213,0.043 -0.114,0 -0.213,0.014 -0.3,0.042 -0.114,0.028 -0.213,0.043 -0.3,0.043 -0.057,0.027 -0.127,0.055 -0.213,0.084 -0.228,0 -0.456,0.013 -0.684,0.043 -0.114,0 -0.215,0.013 -0.299,0.043 -0.114,0.028 -0.214,0.042 -0.3,0.042 -0.058,0.03 -0.127,0.059 -0.213,0.086 -0.428,0 -0.87,0.015 -1.326,0.043 -0.113,0 -0.214,0.016 -0.298,0.042 -0.115,0.028 -0.215,0.043 -0.3,0.043 -0.058,0.028 -0.129,0.057 -0.215,0.084 -0.242,0 -0.484,0 -0.726,0 l -0.213,-0.897 c -0.004,-0.014 -0.004,-0.027 0,-0.042 -0.288,-1.353 -0.589,-2.65 -0.899,-3.891 -0.284,-1.313 -0.569,-2.494 -0.854,-3.55 -0.201,-1.055 -0.385,-1.894 -0.557,-2.522 -0.172,-0.626 -0.257,-0.955 -0.257,-0.984 h -1.154 c -0.342,0.029 -0.641,0.042 -0.897,0.042 -0.229,0.028 -0.444,0.043 -0.643,0.043 -0.256,0 -0.441,0.058 -0.556,0.172 -0.256,0.113 -0.441,0.255 -0.556,0.427 -0.143,0.198 -0.256,0.37 -0.342,0.512 -0.059,0.143 -0.142,0.271 -0.257,0.384 -0.114,0.116 -0.228,0.217 -0.342,0.3 -0.144,0.086 -0.484,0.157 -1.026,0.215 -0.627,0.086 -1.253,0.128 -1.883,0.128 -0.739,0 -1.438,0 -2.095,0 -0.625,0 -1.041,-0.072 -1.239,-0.213 -0.342,-0.087 -0.727,-0.229 -1.155,-0.43 -0.457,-0.227 -0.783,-0.412 -0.982,-0.553 -0.57,0.796 -0.855,1.34 -0.855,1.625 0.113,0.254 0.199,0.44 0.256,0.554 0.058,0.115 0.086,0.216 0.086,0.3 h 0.129 L 40.167,23.3 c -0.029,-0.029 -0.073,-0.043 -0.129,-0.043 -0.143,0 -0.227,0.014 -0.256,0.043 -0.115,0.084 -0.241,0.298 -0.385,0.641 -0.199,0.342 -0.441,0.728 -0.726,1.153 -0.229,0.457 -0.415,0.885 -0.557,1.284 -0.172,0.341 -0.256,0.584 -0.256,0.726 v 0.941 c 0.084,0.086 0.057,0.228 -0.087,0.429 -0.227,0.17 -0.555,0.228 -0.981,0.17 -0.172,-0.083 -0.515,-0.241 -1.028,-0.469 -0.483,-0.287 -1.026,-0.6 -1.625,-0.941 -0.569,-0.315 -1.082,-0.614 -1.539,-0.899 -0.512,-0.372 -0.784,-0.626 -0.813,-0.77 0,-0.113 0.043,-0.271 0.129,-0.471 0.057,-0.141 0.242,-0.484 0.555,-1.025 0.257,-0.542 0.671,-1.325 1.24,-2.353 0.6,-0.998 1.384,-2.352 2.353,-4.063 0,-0.255 -0.099,-0.712 -0.3,-1.367 -0.142,-0.656 -0.626,-1.113 -1.453,-1.369 l -1.797,-0.684 c -0.369,-0.086 -0.684,-0.143 -0.94,-0.171 -0.256,-0.057 -0.527,-0.085 -0.813,-0.085 -0.257,-0.058 -0.57,-0.1 -0.941,-0.129 -0.427,-0.083 -0.869,-0.127 -1.326,-0.127 -0.484,-0.03 -0.913,-0.03 -1.282,0 -0.428,0 -0.727,0.044 -0.897,0.127 L 4.201,21.675 H 4.117 c -0.058,0 -0.215,0.017 -0.47,0.043 -0.315,0.057 -0.657,0.1 -1.028,0.128 -0.314,0 -0.669,-0.014 -1.068,-0.042 C 1.152,21.746 0.866,21.66 0.696,21.547 0.524,21.348 0.439,21.163 0.439,20.99 v -2.993 c 0,-0.712 0,-1.453 0,-2.224 0,-0.741 -0.072,-1.296 -0.213,-1.668 V 12.054 C 0.226,11.768 0.212,11.483 0.183,11.199 0.125,10.913 0.098,10.641 0.098,10.386 0.013,10.015 -0.016,9.66 0.013,9.317 0.013,8.975 0.199,8.732 0.568,8.59 0.597,8.562 0.883,8.52 1.422,8.462 c 0.515,0 1.099,-0.015 1.754,-0.043 0.685,0 1.411,-0.013 2.181,-0.042 0.711,0 1.325,0 1.838,0 H 22.76 C 22.959,8.291 23.26,8.207 23.658,8.121 24.057,7.979 24.442,7.878 24.813,7.822 25.239,7.679 25.64,7.566 26.01,7.48 26.296,7.366 26.48,7.281 26.566,7.224 l 0.898,-0.642 c 0.199,-0.086 0.371,-0.186 0.514,-0.3 0.169,-0.029 0.298,-0.071 0.382,-0.128 0.171,-0.143 0.728,-0.285 1.669,-0.428 0.284,0 0.457,-0.028 0.514,-0.085 0.142,0 0.242,-0.028 0.299,-0.084 0.142,-0.086 0.498,-0.429 1.069,-1.028 0.513,-0.569 1.012,-1.097 1.496,-1.582 0.284,-0.2 0.713,-0.256 1.283,-0.171 0.57,0.058 0.998,0.114 1.283,0.171 0.085,0 0.172,-0.014 0.256,-0.043 0.057,0 0.101,-0.014 0.127,-0.043 0.086,0 0.144,0.015 0.172,0.043 0.199,0.115 0.342,0.186 0.429,0.214 h 1.024 L 38.24,3.63 v 1.797 h 0.17 V 4.358 h 2.224 V 3.802 h 1.196 v 0.557 h 0.813 V 3.802 h 1.111 v 0.557 h 0.771 V 3.802 h 1.154 V 4.359 H 46.62 V 3.802 h 1.112 v 0.557 h 0.94 V 3.802 h 1.155 v 0.557 h 0.941 V 3.802 h 1.155 v 0.557 h 0.726 V 3.802 h 1.282 v 0.557 h 0.685 V 3.802 h 1.155 v 0.557 h 1.197 v 1.068 h 15.694 c 0.284,-0.228 0.641,-0.541 1.068,-0.941 0.457,-0.399 0.757,-0.711 0.898,-0.941 0,-0.256 0.014,-0.455 0.042,-0.598 0.029,-0.113 0.042,-0.229 0.042,-0.342 0.114,-0.285 0.2,-0.528 0.256,-0.727 0.144,-0.228 0.343,-0.371 0.599,-0.426 h 0.344 c 0.255,-0.116 0.511,-0.186 0.768,-0.216 0.229,0 0.443,0.172 0.642,0.514 0.314,0.399 0.527,0.798 0.643,1.197 0.085,0.257 0.127,0.456 0.127,0.598 z M 56.326,4.957 H 39.095 v 0.47 H 56.326 Z M 42.558,19.026 c 0.229,0.199 0.499,0.298 0.813,0.298 h 3.975 c 0.256,0 0.543,-0.1 0.855,-0.298 0.199,-0.199 0.301,-0.414 0.301,-0.643 0,-0.427 -0.102,-0.756 -0.301,-0.982 -0.313,-0.17 -0.599,-0.256 -0.855,-0.256 h -3.975 c -0.314,0 -0.584,0.086 -0.813,0.256 -0.285,0.227 -0.428,0.556 -0.428,0.982 0,0.229 0.142,0.444 0.428,0.643 z M 20.194,12.824 c 0,-0.713 -0.342,-1.069 -1.027,-1.069 h -1.88 c -0.257,0 -0.471,0.084 -0.642,0.257 -0.2,0.201 -0.298,0.471 -0.298,0.812 0,0.228 0.098,0.415 0.298,0.557 0.171,0.198 0.385,0.3 0.642,0.3 h 1.88 c 0.314,0 0.57,-0.102 0.77,-0.3 0.171,-0.142 0.257,-0.329 0.257,-0.557 z M 5.868,10.985 C 5.384,10.9 4.929,10.844 4.501,10.816 c -0.457,0 -0.8,-0.03 -1.027,-0.086 0,0.398 0.015,0.913 0.042,1.538 0.086,0.657 0.143,1.326 0.171,2.01 0,0.685 0.028,1.34 0.085,1.967 0.029,0.6 0.045,0.985 0.045,1.155 0.141,0.143 0.441,0.299 0.896,0.471 0.513,0.17 0.998,0.256 1.455,0.256 0.343,-0.027 0.812,-0.142 1.412,-0.342 0.542,-0.171 1.111,-0.371 1.71,-0.599 0.57,-0.256 1.14,-0.513 1.711,-0.769 0.513,-0.257 0.911,-0.47 1.196,-0.643 0.199,-0.229 0.298,-0.485 0.298,-0.769 0,-0.315 -0.084,-0.755 -0.255,-1.326 -0.172,-0.514 -0.329,-0.971 -0.47,-1.369 -0.229,0 -0.628,-0.056 -1.198,-0.169 C 10.059,11.995 9.418,11.825 8.648,11.626 8.307,11.513 7.879,11.397 7.366,11.284 6.909,11.114 6.411,11.014 5.868,10.985 Z"
   id="path658" />
		</g>
	</g>
</g>

</svg>
