<?xml version="1.0" encoding="UTF-8" standalone="no"?>
<!-- Generator: Adobe Illustrator 16.0.0, SVG Export Plug-In . SVG Version: 6.00 Build 0)  -->

<svg
   version="1.1"
   x="0px"
   y="0px"
   width="84.25"
   height="41"
   viewBox="0 0 84.25 41"
   enable-background="new 0 0 69.25 32"
   xml:space="preserve"
   id="svg795"
   xmlns="http://www.w3.org/2000/svg"
   xmlns:svg="http://www.w3.org/2000/svg"><defs
   id="defs799" />
<g
   id="Selected_Items"
   transform="translate(0,6)">
	<g
   id="g791">
		<g
   id="Selected_Items_52_">
			<path
   fill-rule="evenodd"
   clip-rule="evenodd"
   fill="#ffffff"
   d="m 68.96,6.573 c 0,0.714 -0.042,1.294 -0.133,1.739 -0.031,0.298 -0.12,0.61 -0.269,0.937 -0.057,0.149 -0.116,0.281 -0.177,0.4 H 54.511 L 54.332,9.516 54.063,9.605 H 43.403 L 43.136,9.785 42.735,9.649 H 38.231 V 8.847 H 36.715 V 8.18 h -0.937 v 1.56 l 0.225,0.179 v 0.758 l -0.225,0.179 -0.089,1.516 H 25.565 c -0.06,0 -0.119,0.028 -0.179,0.089 -0.149,0.119 -0.266,0.281 -0.358,0.492 -0.118,0.325 -0.712,1.783 -1.781,4.37 -0.151,0.267 -0.298,0.43 -0.448,0.489 -0.088,0.06 -0.327,0.104 -0.713,0.134 l -4.638,0.178 c -0.178,-0.089 -0.4,-0.178 -0.67,-0.266 -0.475,-0.209 -0.862,-0.329 -1.16,-0.356 -0.326,-0.06 -0.55,-0.091 -0.668,-0.091 -0.12,0.031 -0.341,0.074 -0.667,0.135 -0.271,0.088 -0.536,0.12 -0.805,0.088 l -0.313,-0.088 -2.275,9.633 -0.089,1.069 0.491,0.714 -9.588,-0.089 c 0,-0.564 0.03,-1.292 0.09,-2.184 C 1.973,24.903 2.254,23.21 2.641,21.603 3.056,19.968 3.592,18.436 4.246,17.009 4.275,16.922 4.484,16.487 4.871,15.716 5.049,15.33 5.154,15.061 5.182,14.914 5.273,14.558 5.197,14.273 4.959,14.066 4.78,13.887 4.396,13.694 3.8,13.487 3.203,13.278 2.818,13.146 2.64,13.086 2.402,12.996 2.282,12.878 2.282,12.729 2.253,12.521 2.268,12.178 2.328,11.703 L 2.417,11.035 0.766,10.857 C 0.647,10.857 0.542,10.826 0.454,10.766 0.246,10.618 0.156,10.426 0.185,10.188 0.245,9.889 0.44,9.741 0.766,9.741 0.945,9.71 1.108,9.726 1.256,9.787 L 1.48,8.624 2.819,9.472 3.399,6.573 4.336,4.789 V 4.03 L 5.05,4.432 7.904,4.477 8.173,4.698 h 9.722 v 0.18 h 5.44 V 4.743 h 9.368 V 3.538 h 2.229 l 0.267,0.315 v 0.803 l 0.312,-0.044 0.313,0.399 v 0.716 h 0.893 V 5.102 h 1.338 V 3.806 h 4.639 l 0.311,-0.177 0.401,0.177 h 10.66 l 0.311,0.046 0.314,-0.132 h 13.693 l 0.223,0.266 c 0.119,0.268 0.209,0.581 0.268,0.936 0.026,0.446 0.057,0.996 0.085,1.651 z m -45.982,5.887 -5.083,0.045 c -0.506,0.504 -0.864,0.877 -1.07,1.115 -0.327,0.416 -0.506,0.653 -0.536,0.714 -0.208,0.327 -0.327,0.698 -0.354,1.114 -0.033,0.208 0,0.505 0.087,0.892 0.059,0.178 0.118,0.33 0.178,0.446 l -0.312,0.223 C 15.74,16.802 15.62,16.549 15.532,16.25 15.295,15.716 15.19,15.269 15.219,14.914 c 0.06,-0.594 0.283,-1.146 0.67,-1.65 0.149,-0.239 0.312,-0.433 0.491,-0.581 -0.208,0.029 -0.444,0.089 -0.715,0.178 -0.534,0.179 -0.921,0.386 -1.159,0.625 -0.327,0.355 -0.534,0.743 -0.624,1.159 -0.119,0.446 -0.09,0.862 0.09,1.248 0.177,0.356 0.431,0.656 0.757,0.893 0.327,0.239 0.713,0.4 1.16,0.491 0.268,0.028 0.7,0.045 1.293,0.045 0.505,-0.031 0.833,0 0.98,0.088 0.209,0.06 0.938,0.091 2.187,0.091 1.189,-0.031 1.843,-0.077 1.962,-0.135 0.147,-0.088 0.446,-0.756 0.892,-2.005 l 0.67,-1.875 c 0,-0.089 0,-0.181 0,-0.269 0,-0.178 -0.031,-0.327 -0.09,-0.446 -0.12,-0.119 -0.284,-0.207 -0.491,-0.267 z"
   id="path788" />
		</g>
	</g>
</g>

</svg>
