<?xml version="1.0" encoding="UTF-8" standalone="no"?>
<!-- Generator: Adobe Illustrator 16.0.0, SVG Export Plug-In . SVG Version: 6.00 Build 0)  -->

<svg
   version="1.1"
   id="Layer_1"
   x="0px"
   y="0px"
   width="44.816006"
   height="38"
   viewBox="0 0 44.816004 38"
   enable-background="new 0 0 39.816 32"
   xml:space="preserve"
   xmlns="http://www.w3.org/2000/svg"
   xmlns:svg="http://www.w3.org/2000/svg"><defs
   id="defs928" />
<g
   id="Selected_Items"
   transform="translate(0,6)">
	<g
   id="g921">
		<g
   id="Selected_Items_52_">
			<path
   fill="#ffffff"
   d="m 38.175,7.93 h -0.938 v 1.56 l 0.225,0.179 v 0.758 l -0.225,0.179 -0.088,1.517 H 27.024 c -0.06,0 -0.119,0.028 -0.179,0.089 -0.149,0.119 -0.266,0.281 -0.358,0.492 -0.118,0.324 -0.712,1.783 -1.781,4.37 -0.151,0.267 -0.298,0.43 -0.448,0.489 -0.088,0.06 -0.327,0.104 -0.713,0.133 l -4.638,0.179 c -0.178,-0.089 -0.4,-0.179 -0.67,-0.267 -0.475,-0.209 -0.862,-0.328 -1.16,-0.355 -0.326,-0.061 -0.55,-0.091 -0.668,-0.091 -0.12,0.03 -0.341,0.073 -0.667,0.135 -0.271,0.088 -0.536,0.12 -0.805,0.088 l -0.313,-0.088 -2.274,9.633 -0.089,1.068 0.491,0.714 -9.588,-0.089 c 0,-0.564 0.03,-1.292 0.09,-2.184 C 3.433,24.652 3.714,22.96 4.101,21.353 4.516,19.717 5.052,18.185 5.706,16.758 5.735,16.671 5.944,16.236 6.331,15.465 6.509,15.079 6.614,14.81 6.642,14.663 6.733,14.308 6.657,14.022 6.419,13.815 6.24,13.635 5.856,13.442 5.26,13.235 4.663,13.026 4.278,12.895 4.1,12.835 3.862,12.745 3.742,12.627 3.742,12.478 3.713,12.271 3.728,11.927 3.788,11.453 L 3.877,10.785 2.226,10.607 C 2.107,10.607 2.002,10.576 1.914,10.515 1.706,10.368 1.616,10.175 1.645,9.937 1.705,9.638 1.9,9.491 2.226,9.491 2.405,9.46 2.568,9.476 2.716,9.537 L 2.94,8.374 4.279,9.223 4.859,6.324 5.796,4.54 V 3.78 L 6.51,4.181 9.364,4.226 9.633,4.448 h 9.722 v 0.18 h 5.44 V 4.493 h 9.368 V 3.288 h 2.229 l 0.268,0.315 v 0.803 l 0.313,-0.045 0.313,0.399 v 0.716 h 0.893 m -13.741,6.734 -5.083,0.045 c -0.506,0.504 -0.864,0.877 -1.07,1.115 -0.327,0.416 -0.506,0.653 -0.536,0.714 -0.208,0.327 -0.327,0.698 -0.354,1.114 -0.033,0.208 0,0.505 0.087,0.892 0.059,0.178 0.118,0.33 0.178,0.446 l -0.312,0.223 C 17.2,16.552 17.08,16.299 16.992,16 16.755,15.466 16.65,15.02 16.679,14.664 c 0.06,-0.594 0.283,-1.146 0.67,-1.65 0.149,-0.238 0.312,-0.433 0.491,-0.58 -0.208,0.028 -0.444,0.088 -0.715,0.178 -0.534,0.179 -0.921,0.386 -1.159,0.625 -0.327,0.354 -0.534,0.742 -0.624,1.158 -0.119,0.446 -0.09,0.862 0.09,1.248 0.177,0.356 0.431,0.656 0.757,0.894 0.327,0.239 0.713,0.399 1.16,0.491 0.268,0.027 0.7,0.045 1.293,0.045 0.505,-0.031 0.833,0 0.98,0.088 0.209,0.06 0.938,0.091 2.187,0.091 1.189,-0.031 1.843,-0.077 1.962,-0.135 0.147,-0.089 0.446,-0.757 0.892,-2.005 l 0.67,-1.875 c 0,-0.09 0,-0.182 0,-0.27 0,-0.178 -0.031,-0.326 -0.09,-0.445 -0.12,-0.119 -0.284,-0.207 -0.491,-0.268 z"
   id="path918" />
		</g>
	</g>
</g>

</svg>
