<?xml version="1.0" encoding="UTF-8" standalone="no"?>
<!-- Generator: Adobe Illustrator 16.0.0, SVG Export Plug-In . SVG Version: 6.00 Build 0)  -->

<svg
   version="1.1"
   x="0px"
   y="0px"
   width="112.875"
   height="41"
   viewBox="0 0 112.875 41"
   enable-background="new 0 0 97.875 32"
   xml:space="preserve"
   id="svg1054"
   xmlns="http://www.w3.org/2000/svg"
   xmlns:svg="http://www.w3.org/2000/svg"><defs
   id="defs1058" />
<g
   id="Selected_Items"
   transform="translate(0,6)">
	<g
   id="g1050">
		<g
   id="Selected_Items_53_">
			<path
   fill-rule="evenodd"
   clip-rule="evenodd"
   fill="#ffffff"
   d="m 97.598,8.701 c 0,0.274 -0.012,0.548 -0.035,0.824 -0.046,0.365 -0.114,0.641 -0.206,0.822 -0.16,0.161 -0.526,0.263 -1.097,0.309 -0.596,0.023 -1.179,0.034 -1.75,0.034 v 0.344 h 0.103 c 0.092,0 0.138,0.057 0.138,0.172 0.206,0 0.49,-0.024 0.856,-0.07 0.457,-0.045 0.812,0.034 1.063,0.24 0.206,0.069 0.367,0.32 0.481,0.755 0.137,0.389 0.17,0.778 0.103,1.166 -0.183,0.549 -0.571,0.915 -1.166,1.097 H 71.673 c -0.138,0 -0.538,0.127 -1.201,0.379 -0.708,0.227 -1.727,0.343 -3.053,0.343 h -0.411 c -0.686,0 -1.657,0 -2.914,0 -1.212,0 -2.562,0 -4.048,0 -1.463,0.045 -2.972,0.067 -4.527,0.067 -1.509,0 -2.925,0 -4.251,0 -1.281,0 -2.355,0 -3.224,0 -0.892,0 -1.383,-0.022 -1.476,-0.067 C 46.295,15 46.032,14.921 45.78,14.875 c -0.252,0 -0.526,0 -0.824,0 h -1.234 c -0.16,-0.067 -0.434,-0.102 -0.823,-0.102 -0.411,-0.023 -0.835,-0.047 -1.269,-0.068 -0.411,0 -0.789,0 -1.132,0 -0.32,0 -0.536,0.01 -0.651,0.033 -0.16,0 -0.354,0.114 -0.583,0.343 -0.571,0.389 -0.982,0.582 -1.235,0.582 -0.091,0 -0.251,-0.067 -0.479,-0.205 -0.229,-0.068 -0.538,-0.148 -0.926,-0.239 -0.342,-0.093 -0.731,-0.172 -1.167,-0.241 -0.433,-0.067 -0.696,-0.103 -0.789,-0.103 -0.229,0 -0.651,0 -1.268,0 -0.617,0.046 -1.018,0.16 -1.2,0.344 -0.138,0 -0.321,0.193 -0.549,0.582 -0.251,0.253 -0.549,0.561 -0.891,0.928 -0.321,0.342 -0.664,0.56 -1.029,0.65 h -0.583 c -0.183,0.115 -0.32,0.172 -0.412,0.172 -0.068,0.021 -0.149,0.033 -0.24,0.033 -0.206,0 -0.548,0.012 -1.029,0.034 -0.456,0 -0.937,0.023 -1.439,0.069 -0.549,0.022 -1.029,0.068 -1.44,0.138 -0.434,0.067 -0.697,0.158 -0.789,0.275 -0.068,0.044 -0.184,0.272 -0.343,0.684 -0.184,0.413 -0.401,0.915 -0.653,1.51 -0.296,0.595 -0.604,1.234 -0.924,1.921 -0.322,0.639 -0.63,1.233 -0.926,1.782 0,0.481 0.034,0.802 0.103,0.961 0.045,0.183 0.092,0.332 0.137,0.445 l 0.172,0.172 c 0.046,0.114 0.148,0.217 0.309,0.308 0.137,0.092 0.206,0.229 0.206,0.411 L 21.741,26.5 c -0.091,0.092 -0.25,0.136 -0.48,0.136 -0.251,0.047 -0.491,0.069 -0.72,0.069 -0.274,0 -0.583,-0.022 -0.926,-0.069 -0.389,-0.09 -0.857,-0.204 -1.405,-0.343 -0.571,-0.091 -1.121,-0.193 -1.647,-0.308 -0.48,-0.16 -0.902,-0.309 -1.269,-0.446 -0.435,-0.091 -0.663,-0.194 -0.686,-0.309 L 14.505,25.094 V 25.059 H 14.471 C 14.333,24.967 14.265,24.806 14.265,24.58 v -0.241 c 0.023,-0.092 0.218,-0.435 0.584,-1.028 0.342,-0.595 0.708,-1.269 1.097,-2.022 0.389,-0.732 0.766,-1.418 1.13,-2.058 0.32,-0.617 0.504,-0.994 0.549,-1.131 0,-0.184 -0.011,-0.425 -0.034,-0.722 -0.022,-0.251 -0.115,-0.469 -0.274,-0.65 -0.297,-0.115 -0.652,-0.195 -1.063,-0.241 -0.434,-0.069 -0.754,-0.069 -0.96,0 -0.457,0 -0.686,-0.034 -0.686,-0.103 h -0.137 c 0,-0.093 0.012,-0.193 0.034,-0.309 0,-0.093 0.012,-0.172 0.036,-0.241 0.044,-0.045 0.067,-0.09 0.067,-0.136 -0.091,0 -0.514,0.079 -1.269,0.238 -0.754,0.139 -1.555,0.32 -2.4,0.55 -0.845,0.183 -1.612,0.377 -2.298,0.583 -0.709,0.16 -1.085,0.239 -1.131,0.239 -0.092,0.046 -0.205,0.149 -0.343,0.309 -0.091,0.16 -0.274,0.389 -0.548,0.687 C 6.458,18.509 6.31,18.75 6.173,19.025 6.035,19.322 5.91,19.629 5.796,19.95 5.659,20.249 5.544,20.5 5.453,20.705 5.362,20.934 5.292,21.082 5.246,21.151 5.178,21.173 5.006,21.3 4.732,21.528 c -0.229,0.137 -0.628,0.331 -1.2,0.584 -0.594,0.297 -1.406,0.64 -2.435,1.027 H 0.926 L 0.204,22.9 0,9.971 5.35,9.181 C 5.532,9.16 5.681,9.113 5.795,9.043 5.885,8.975 5.967,8.896 6.035,8.804 6.126,8.712 6.206,8.622 6.275,8.531 L 23.799,6.918 v 0.206 c 0.091,0.184 0.194,0.344 0.309,0.481 0.091,0.136 0.182,0.205 0.273,0.205 0.046,0.068 0.091,0.103 0.138,0.103 0.068,0 0.137,-0.034 0.206,-0.103 L 24.93,7.605 V 7.124 h 0.138 c 0.501,-0.761 0.867,-1.286 1.097,-1.577 v -0.07 h 0.053 c 0.03,-0.039 0.059,-0.074 0.086,-0.103 0.007,-0.012 0.019,-0.022 0.033,-0.033 0.351,0 0.699,0 1.046,0 0.048,0.04 0.088,0.085 0.12,0.136 h 0.206 v 0.291 c 0.188,0.172 0.381,0.259 0.583,0.259 l 0.343,0.171 h 1.098 c 0.365,0 0.651,0.022 0.858,0.068 0.228,0.023 0.343,0.114 0.343,0.275 0.136,0 0.205,0.192 0.205,0.582 v 0.344 c 0.022,0 0.069,0.011 0.138,0.033 0.044,0.046 0.079,0.07 0.103,0.07 l 0.103,0.034 V 6.542 H 43.725 V 5.854 h 0.721 v 0.688 h 1.782 v 0.24 c 0,0.228 0.036,0.457 0.104,0.686 0.091,0.228 0.171,0.343 0.239,0.343 H 91.53 c 0.091,-0.069 0.251,-0.218 0.48,-0.446 0.159,-0.229 0.24,-0.422 0.24,-0.582 l 0.138,-0.412 c 0,-0.161 0.044,-0.389 0.137,-0.687 0.114,-0.251 0.251,-0.377 0.411,-0.377 0.114,0 0.365,0.091 0.754,0.274 0.319,0.184 0.674,0.39 1.063,0.617 0.363,0.229 0.708,0.468 1.028,0.72 0.273,0.298 0.457,0.526 0.548,0.688 0.116,0.09 0.183,0.159 0.206,0.205 0.068,0 0.115,0.033 0.137,0.103 0.069,0.023 0.126,0.034 0.172,0.034 h 0.172 l 0.583,0.238 V 8.701 Z M 92.042,10.69 H 90.979 L 90.808,10.45 H 71.673 c -0.252,0.229 -0.378,0.423 -0.378,0.584 v 0.172 c 0.251,0.045 1.086,0.067 2.504,0.067 1.438,0 3.166,0 5.179,0 2.057,-0.046 4.229,-0.092 6.515,-0.138 2.354,-0.045 4.493,-0.079 6.413,-0.102 h 0.48 C 92.271,10.805 92.156,10.69 92.042,10.69 Z M 28.189,5.923 c 0.022,0 0.045,0.012 0.068,0.035 0.023,0 0.046,0 0.068,0 0,0.022 0.013,0.032 0.035,0.033 h -0.171 z m 1.303,9.534 c 0,-0.388 -0.08,-0.697 -0.24,-0.925 -0.159,-0.207 -0.411,-0.309 -0.754,-0.309 h -2.503 c -0.297,0 -0.56,0.102 -0.789,0.309 -0.183,0.228 -0.275,0.537 -0.275,0.925 0,0.253 0.092,0.479 0.275,0.687 0.229,0.229 0.492,0.343 0.789,0.343 h 2.503 c 0.344,0 0.595,-0.114 0.754,-0.343 0.16,-0.208 0.24,-0.435 0.24,-0.687 z M 25.582,5.992 C 25.606,5.991 25.63,5.981 25.651,5.959 h 0.035 v 0.033 z"
   id="path1047" />
		</g>
	</g>
</g>

</svg>
