<?xml version="1.0" encoding="UTF-8" standalone="no"?>
<svg xmlns:xlink="http://www.w3.org/1999/xlink" height="29.25px" width="209.65px" xmlns="http://www.w3.org/2000/svg">
  <g transform="matrix(1.0, 0.0, 0.0, 1.0, 3.3, 2.4)">
    <path d="M0.4 -1.4 L1.95 -1.4 201.05 -1.4 202.7 -1.4 203.05 -1.25 205.2 0.9 205.35 1.25 205.35 2.45 205.35 22.05 205.35 23.2 205.2 23.55 203.05 25.7 202.8 25.85 201.05 25.85 1.95 25.85 0.4 25.85 0.05 25.7 -2.15 23.55 -2.25 23.3 -2.3 23.25 -2.3 22.05 -2.3 2.45 -2.3 1.2 -2.25 1.1 -2.15 0.9 0.05 -1.25 0.4 -1.4" fill="#000000" fill-opacity="0.8627451" fill-rule="evenodd" stroke="none"/>
    <path d="M0.4 -1.4 L0.05 -1.25 -2.15 0.9 -2.25 1.1 -2.3 1.2 -2.3 2.45 -2.3 22.05 -2.3 23.25 -2.25 23.3 -2.15 23.55 0.05 25.7 0.4 25.85 1.95 25.85 201.05 25.85 202.8 25.85 203.05 25.7 205.2 23.55 205.35 23.2 205.35 22.05 205.35 2.45 205.35 1.25 205.2 0.9 203.05 -1.25 202.7 -1.4 201.05 -1.4 1.95 -1.4 0.4 -1.4" fill="none" stroke="#aa0000" stroke-linecap="round" stroke-linejoin="bevel" stroke-width="1.5"/>
  </g>
</svg>
